<svg width="611" height="109" viewBox="0 0 611 109" fill="none" xmlns="http://www.w3.org/2000/svg">
<path d="M16.9922 28.6348C16.0156 28.6348 15.5273 28.8545 15.5273 29.2939C15.5273 29.5869 15.4297 29.7822 15.2344 29.8799L14.1357 30.4658C13.6963 31.4424 13.208 32.0527 12.6709 32.2969L12.2314 33.3223C12.0361 33.3711 11.9141 33.4932 11.8652 33.6885C11.8164 33.835 11.6943 33.957 11.499 34.0547C11.499 34.543 11.377 34.9336 11.1328 35.2266C10.8887 35.4707 10.791 35.8857 10.8398 36.4717C10.5957 36.5693 10.4492 36.7158 10.4004 36.9111C10.3516 37.1064 10.1807 37.2529 9.8877 37.3506C9.98535 37.3994 10.0342 37.5459 10.0342 37.79C10.0342 38.0342 9.86328 38.3516 9.52148 38.7422C9.52148 39.4258 9.27734 40.5 8.78906 41.9648C8.30078 43.4297 8.00781 44.2354 7.91016 44.3818C8.00781 44.4307 8.05664 44.5527 8.05664 44.748L7.91016 45.7002L8.12988 47.0918L8.05664 48.4834C8.05664 48.874 8.05664 49.2646 8.05664 49.6553C8.05664 50.0459 8.08105 50.3877 8.12988 50.6807C8.22754 50.9248 8.30078 51.1445 8.34961 51.3398C8.44727 51.4863 8.49609 51.584 8.49609 51.6328V52.9512C8.49609 53.5859 8.61816 54.1963 8.8623 54.7822C9.15527 55.3682 9.30176 55.9053 9.30176 56.3936C9.35059 56.8818 9.49707 57.1748 9.74121 57.2725C10.0342 57.3213 10.1807 57.5166 10.1807 57.8584L9.8877 58.3711V58.5176C11.2061 61.8379 12.9639 64.5234 15.1611 66.5742C15.6982 67.1113 16.1865 67.6973 16.626 68.332C16.9189 68.332 17.4805 68.6006 18.3105 69.1377L18.9697 69.7236C19.4092 69.9678 19.7998 70.1875 20.1416 70.3828C20.4834 70.5293 20.7764 70.7979 21.0205 71.1885C21.4111 71.2373 21.7529 71.3838 22.0459 71.6279C22.3877 71.8232 22.6562 71.9209 22.8516 71.9209L23.5107 71.7744H23.6572C23.7549 71.9697 24.1455 72.165 24.8291 72.3604C25.5615 72.5557 25.9766 72.6533 26.0742 72.6533L26.8066 72.5801C27.1973 72.5801 27.5635 72.6533 27.9053 72.7998C28.2959 72.8975 28.7109 72.9219 29.1504 72.873H29.4434C29.541 72.7754 29.6631 72.7266 29.8096 72.7266L30.249 72.873L31.5674 72.5801L33.9111 72.7266C34.6924 72.7266 35.2539 72.6289 35.5957 72.4336C35.9375 72.2383 36.084 72.0674 36.0352 71.9209C36.9629 71.9209 37.5732 71.7988 37.8662 71.5547C38.1592 71.3105 38.3545 71.1396 38.4521 71.042C38.5986 70.9443 38.7451 70.8711 38.8916 70.8223C39.0869 70.7734 39.2334 70.7246 39.3311 70.6758C39.4287 70.5781 39.4775 70.5049 39.4775 70.4561C39.4775 70.3584 39.5264 70.2607 39.624 70.1631C39.7217 70.0654 39.7949 70.041 39.8438 70.0898C39.8926 70.0898 39.9902 70.041 40.1367 69.9434C40.4785 69.748 41.04 69.2598 41.8213 68.4785C42.7979 67.6973 43.3594 67.3066 43.5059 67.3066C43.6035 67.0137 43.7256 66.7695 43.8721 66.5742C44.0186 66.3789 44.1162 66.1348 44.165 65.8418C44.7998 65.5977 45.2393 65.1826 45.4834 64.5967C45.7275 64.0107 46.1182 63.5957 46.6553 63.3516C47.7295 63.791 48.2666 64.3525 48.2666 65.0361C48.2666 65.4268 48.0713 65.7441 47.6807 65.9883C47.3389 66.1836 47.0703 66.4033 46.875 66.6475C46.6797 66.8428 46.5576 67.0625 46.5088 67.3066C46.46 67.502 46.3623 67.6973 46.2158 67.8926C45.5811 68.1367 45.2637 68.4541 45.2637 68.8447H45.1172C44.9707 68.8447 44.8486 68.8936 44.751 68.9912C44.6533 69.04 44.5312 69.0889 44.3848 69.1377C44.2383 69.3818 44.0674 69.626 43.8721 69.8701C43.7256 70.1143 43.6035 70.3584 43.5059 70.6025C43.2617 70.7002 43.042 70.8467 42.8467 71.042C42.6514 71.1885 42.4316 71.2861 42.1875 71.335C41.9922 71.7256 41.6992 72.0674 41.3086 72.3604C40.9668 72.6045 40.6738 72.9463 40.4297 73.3857C40.0879 73.3857 39.8193 73.4834 39.624 73.6787C39.4775 73.8252 39.2334 73.8984 38.8916 73.8984C38.5986 73.8984 38.4033 73.9717 38.3057 74.1182C38.2568 74.2646 38.0127 74.2891 37.5732 74.1914C37.4756 74.2891 37.1094 74.6309 36.4746 75.2168L34.8633 75.5098L33.8379 75.2168C32.2266 75.2168 31.1768 75.3145 30.6885 75.5098L29.5898 75.9492C29.1504 76.0957 28.5156 76.1689 27.6855 76.1689L25.6348 75.876C25.3418 75.876 25 75.9736 24.6094 76.1689C24.4141 76.0225 24.1943 75.9492 23.9502 75.9492H23.1445C22.8027 75.9492 22.5586 75.876 22.4121 75.7295C22.3145 75.583 22.0215 75.5098 21.5332 75.5098H21.46L21.167 75.2168C18.8721 74.3379 17.1387 73.7764 15.9668 73.5322C15.6738 72.8975 15.0635 72.458 14.1357 72.2139C14.1357 72.0674 14.0381 71.9697 13.8428 71.9209C13.6475 71.8721 13.5498 71.7744 13.5498 71.6279C13.5498 71.4326 13.501 71.2861 13.4033 71.1885C12.4268 70.8955 11.5723 70.1143 10.8398 68.8447C10.4492 68.7959 10.0586 68.6738 9.66797 68.4785C9.57031 68.332 9.39941 68.1611 9.15527 67.9658C8.95996 67.7217 8.74023 67.4531 8.49609 67.1602C8.30078 66.8672 8.10547 66.623 7.91016 66.4277C7.76367 66.2324 7.69043 66.0859 7.69043 65.9883C7.34863 65.8418 6.98242 65.6465 6.5918 65.4023C5.81055 63.9863 5.32227 62.8145 5.12695 61.8867C4.93164 60.959 4.76074 60.373 4.61426 60.1289C4.5166 59.8359 4.37012 59.5674 4.1748 59.3232C4.02832 59.0303 3.88184 58.7861 3.73535 58.5908C3.6377 58.3467 3.61328 58.127 3.66211 57.9316C3.71094 57.7363 3.68652 57.541 3.58887 57.3457L3.2959 56.4668C3.24707 56.3203 3.22266 56.1738 3.22266 56.0273C3.27148 55.832 3.2959 55.6611 3.2959 55.5146L2.85645 52.5117L3.00293 49.875V48.5566C3.00293 47.7266 3.14941 46.8965 3.44238 46.0664C3.73535 45.1875 4.00391 44.3818 4.24805 43.6494C4.19922 43.5518 4.1748 43.4297 4.1748 43.2832C4.1748 43.1367 4.22363 42.8682 4.32129 42.4775C4.46777 42.0869 4.61426 41.6963 4.76074 41.3057C4.95605 40.8662 5.12695 40.4756 5.27344 40.1338C5.41992 39.7432 5.54199 39.4746 5.63965 39.3281C5.78613 39.1328 5.95703 38.9131 6.15234 38.6689C6.34766 38.376 6.54297 37.9609 6.73828 37.4238C6.93359 36.8379 7.20215 36.3252 7.54395 35.8857C7.88574 35.4463 8.05664 35.0068 8.05664 34.5674C9.08203 33.9326 9.69238 33.0781 9.8877 32.0039C10.2295 31.9062 10.7178 31.4912 11.3525 30.7588C12.0361 30.0264 12.3779 29.6113 12.3779 29.5137C12.5244 29.4648 12.5732 29.3916 12.5244 29.2939C12.5244 29.1963 12.5732 29.0986 12.6709 29.001L12.9639 28.8545C13.208 28.415 13.5498 28.0244 13.9893 27.6826C14.4775 27.3408 14.7217 27.0723 14.7217 26.877C15.1123 26.7793 15.4785 26.584 15.8203 26.291C16.1621 25.9492 16.4795 25.7051 16.7725 25.5586C17.0654 25.4121 17.3096 25.29 17.5049 25.1924C17.749 25.0947 17.9199 24.9238 18.0176 24.6797L18.2373 24.7529C18.5303 24.7529 18.7256 24.6553 18.8232 24.46C18.9209 24.2158 19.2627 24.0938 19.8486 24.0938C19.8975 24.0938 19.9707 23.9961 20.0684 23.8008C20.459 23.7031 20.8252 23.6299 21.167 23.5811C21.5088 23.5322 21.8506 23.3125 22.1924 22.9219C23.0225 22.9219 23.8281 22.6777 24.6094 22.1895C24.707 22.2383 24.8779 22.2627 25.1221 22.2627C25.3662 22.2627 25.5615 22.2139 25.708 22.1162C25.9033 22.0186 26.1475 21.9453 26.4404 21.8965C26.7822 21.8477 27.1973 21.8477 27.6855 21.8965C28.1738 21.8965 28.5645 21.8232 28.8574 21.6768C29.1992 21.5303 29.3701 21.4326 29.3701 21.3838C29.4189 21.335 29.6143 21.3105 29.9561 21.3105L31.8604 21.6768L33.4717 21.457L34.4971 21.75L35.3027 21.6768V21.75C35.3027 21.8965 35.3516 21.9697 35.4492 21.9697C35.5957 21.9209 35.7666 21.8965 35.9619 21.8965C36.1572 21.8965 36.3281 22.043 36.4746 22.3359H36.8408C37.6709 22.3359 38.9648 22.9707 40.7227 24.2402C41.3086 24.6309 41.6992 24.9238 41.8945 25.1191C42.1387 25.3145 42.627 25.4854 43.3594 25.6318C43.457 25.3389 43.5547 25.0215 43.6523 24.6797C43.9453 23.0195 44.5801 22.1895 45.5566 22.1895C45.8984 22.1895 46.1914 22.3359 46.4355 22.6289C46.6797 22.9219 46.8018 23.2148 46.8018 23.5078C46.8018 23.8008 46.7529 24.0938 46.6553 24.3867C46.7041 24.4844 46.7285 24.6797 46.7285 24.9727C46.7285 25.2656 46.582 25.9248 46.2891 26.9502C46.0449 27.9268 45.9229 29.1963 45.9229 30.7588L46.0693 31.4912C46.0693 32.5166 46.2646 33.2246 46.6553 33.6152C46.4111 33.9082 46.1426 34.4209 45.8496 35.1533C45.6543 35.251 45.459 35.3486 45.2637 35.4463C45.1172 35.5439 44.873 35.5928 44.5312 35.5928C44.2383 35.5928 43.9453 35.4219 43.6523 35.0801C43.2129 34.5918 42.9932 34.1523 42.9932 33.7617V33.249C42.9932 32.7119 42.8711 32.2725 42.627 31.9307C42.4316 31.5889 42.3828 31.2715 42.4805 30.9785C42.1875 30.7832 41.9189 30.5635 41.6748 30.3193V29.8799C41.6748 28.7568 41.0156 27.8535 39.6973 27.1699C39.4531 27.0723 39.3311 26.9258 39.3311 26.7305L38.2324 26.3643C38.0859 26.1201 37.8662 25.9736 37.5732 25.9248C37.2803 25.8271 37.085 25.6318 36.9873 25.3389H36.8408L36.1084 25.5586L35.0098 24.8262C34.8633 24.875 34.6436 24.8994 34.3506 24.8994C34.0576 24.8994 33.7891 24.7773 33.5449 24.5332C33.5449 24.6309 33.4717 24.6797 33.3252 24.6797C33.2275 24.6797 33.1787 24.6309 33.1787 24.5332L31.8604 24.8262C31.4209 24.8262 31.0547 24.7285 30.7617 24.5332C30.5176 24.3379 30.1025 24.2402 29.5166 24.2402C28.9307 24.2402 28.4424 24.4355 28.0518 24.8262C26.5381 24.8262 25.3906 25.0947 24.6094 25.6318H24.3164C23.6816 25.6318 23.1689 25.7295 22.7783 25.9248C22.4365 26.0713 22.1924 26.1445 22.0459 26.1445C21.9482 26.0957 21.8262 26.0713 21.6797 26.0713C21.582 26.0713 21.4844 26.1201 21.3867 26.2178C21.2891 26.2666 20.8984 26.4131 20.2148 26.6572C19.5801 26.9014 18.6523 27.585 17.4316 28.708C17.3828 28.6592 17.2363 28.6348 16.9922 28.6348ZM70.752 42.624C71.0938 42.624 71.2646 42.7705 71.2646 43.0635C71.2646 43.1611 71.3623 43.332 71.5576 43.5762C71.8018 43.8203 71.9971 43.9912 72.1436 44.0889C72.3389 44.1377 72.4365 44.4795 72.4365 45.1143V45.334L72.7295 45.627C72.9248 46.1641 73.0469 46.7256 73.0957 47.3115C73.1445 47.8486 73.291 48.4102 73.5352 48.9961C73.4375 49.0938 73.3154 49.3379 73.1689 49.7285C73.0225 50.0703 72.9492 50.3145 72.9492 50.4609C72.9492 50.6074 73.0225 50.7051 73.1689 50.7539C73.3154 50.8027 73.3887 50.998 73.3887 51.3398C73.3887 51.6328 73.2666 51.9746 73.0225 52.3652C72.8271 52.707 72.7295 53.0732 72.7295 53.4639L72.8027 54.123C72.8027 54.5137 72.6562 54.9287 72.3633 55.3682C72.1191 55.7588 71.8018 56.0029 71.4111 56.1006C71.3135 56.1982 71.2646 56.2959 71.2646 56.3936C71.3135 56.4424 71.3379 56.54 71.3379 56.6865C71.3379 56.833 71.2646 56.9307 71.1182 56.9795V57.0527C71.1182 57.1504 70.9717 57.2725 70.6787 57.4189C70.4346 57.5654 70.1904 57.7607 69.9463 58.0049C69.751 58.249 69.5312 58.4688 69.2871 58.6641V58.957C69.2871 59.25 69.1895 59.4697 68.9941 59.6162C68.8477 59.7139 68.75 59.8848 68.7012 60.1289C67.7246 60.6172 66.9922 61.1055 66.5039 61.5938H65.332C65.1367 61.5938 64.917 61.6914 64.6729 61.8867C64.4287 62.082 64.1846 62.2285 63.9404 62.3262C63.7451 62.4238 63.4766 62.4971 63.1348 62.5459C62.8418 62.5459 62.5732 62.5703 62.3291 62.6191L62.1826 62.4727C62.1826 62.5703 62.1094 62.6191 61.9629 62.6191L60.9375 62.3262L59.0332 62.4727L57.1289 62.0332C57.0312 61.8379 56.9092 61.667 56.7627 61.5205C56.6162 61.374 56.4941 61.1787 56.3965 60.9346L55.1514 60.5684C55.0537 60.4707 54.9561 60.3486 54.8584 60.2021C54.8096 60.0068 54.6875 59.9092 54.4922 59.9092C54.3457 59.9092 54.1992 59.9336 54.0527 59.9824C53.9062 59.8359 53.8574 59.6895 53.9062 59.543C53.9551 59.3965 53.8574 59.3232 53.6133 59.3232C53.3691 59.3232 53.2471 59.2256 53.2471 59.0303C53.2471 58.835 53.125 58.7617 52.8809 58.8105C52.832 58.6152 52.7588 58.4443 52.6611 58.2979C52.2217 57.6631 52.002 57.126 52.002 56.6865C51.9043 56.4912 51.7822 56.3691 51.6357 56.3203C51.4893 56.2715 51.3672 56.1982 51.2695 56.1006C50.293 53.9521 49.8047 52.3164 49.8047 51.1934C49.8047 50.0703 49.8535 49.2646 49.9512 48.7764C50.0977 48.2393 50.2441 47.751 50.3906 47.3115C50.5859 46.8721 50.8057 46.4326 51.0498 45.9932C51.2939 45.5537 51.5137 45.0166 51.709 44.3818C52.0996 44.2354 52.3438 43.9668 52.4414 43.5762C52.5879 43.1855 52.7344 42.9414 52.8809 42.8438C53.0762 42.7461 53.1982 42.6973 53.2471 42.6973C53.3447 42.6973 53.418 42.6729 53.4668 42.624C53.5645 42.5264 53.5889 42.4531 53.54 42.4043C53.54 42.3066 53.5645 42.209 53.6133 42.1113C53.7109 41.9648 53.9307 41.7451 54.2725 41.4521C54.6631 41.1104 54.9072 40.8906 55.0049 40.793C55.1514 40.6953 55.2979 40.6465 55.4443 40.6465C55.6396 40.5977 55.835 40.5244 56.0303 40.4268C56.2256 40.3291 56.4453 40.207 56.6895 40.0605C56.9824 39.9141 57.373 39.792 57.8613 39.6943C58.3984 39.5479 59.0088 39.4502 59.6924 39.4014C60.376 39.3525 61.0352 39.1328 61.6699 38.7422C62.2559 38.9863 62.8662 39.1816 63.501 39.3281C64.1357 39.4258 64.7461 39.5479 65.332 39.6943C65.3809 39.9385 65.4541 40.1338 65.5518 40.2803C65.6494 40.3779 65.7227 40.5488 65.7715 40.793L68.2617 40.4268C68.5059 40.4268 68.9453 40.7197 69.5801 41.3057C70.2148 41.8428 70.4834 42.2334 70.3857 42.4775C70.4834 42.5752 70.6055 42.624 70.752 42.624ZM64.0869 59.3232C64.624 58.9326 65.1367 58.7617 65.625 58.8105C65.7227 58.5664 65.8691 58.4199 66.0645 58.3711C66.3086 58.2734 66.5771 58.1025 66.8701 57.8584C67.2119 57.5654 67.5049 57.1992 67.749 56.7598C67.9932 56.2715 68.335 55.9053 68.7744 55.6611C68.8721 55.2705 69.043 54.9531 69.2871 54.709C69.5312 54.416 69.751 54.1475 69.9463 53.9033C70.1904 53.6104 70.3369 53.2686 70.3857 52.8779C70.4834 52.4385 70.5811 51.877 70.6787 51.1934C70.7764 50.5098 70.8252 49.8262 70.8252 49.1426C70.8252 48.459 70.7031 47.9951 70.459 47.751C70.2637 47.5068 70.1416 47.2383 70.0928 46.9453C70.0439 46.6523 70.0195 46.4326 70.0195 46.2861C70.0684 46.0908 70.0928 45.8711 70.0928 45.627V45.4072C69.7998 45.1143 69.5068 44.8945 69.2139 44.748C68.9697 44.5527 68.7256 44.333 68.4814 44.0889C67.3584 44.04 66.3086 43.8203 65.332 43.4297C64.4043 43.0391 63.4033 42.7705 62.3291 42.624C61.792 42.2822 61.3037 42.1113 60.8643 42.1113C60.4248 42.1113 60.1318 42.1357 59.9854 42.1846C59.8389 42.1846 59.7168 42.209 59.6191 42.2578C59.5215 42.3066 59.4238 42.3799 59.3262 42.4775C59.2285 42.5264 59.082 42.5996 58.8867 42.6973C58.7402 42.7461 58.5693 42.7705 58.374 42.7705C58.2275 42.7217 58.0322 42.7461 57.7881 42.8438C57.5928 42.8926 57.3486 43.0146 57.0557 43.21C56.8115 43.4053 56.5674 43.5518 56.3232 43.6494C56.2256 43.9912 56.0547 44.2842 55.8105 44.5283C55.6152 44.7236 55.3955 45.1875 55.1514 45.9199C54.9561 46.6035 54.8584 47.1895 54.8584 47.6777C54.8584 48.1172 55.0293 49.1914 55.3711 50.9004L55.2246 51.0469C55.3223 51.4863 55.4199 51.877 55.5176 52.2188C55.6641 52.5117 55.7617 52.7803 55.8105 53.0244C55.9082 53.2686 55.9326 53.4639 55.8838 53.6104C55.8838 53.708 55.8838 53.8301 55.8838 53.9766L56.1768 55.1484V55.2217L56.4697 55.5146V55.8076C56.4697 55.9053 56.543 56.0518 56.6895 56.2471C56.8359 56.3936 56.9092 56.6621 56.9092 57.0527C57.2021 57.248 57.4951 57.541 57.7881 57.9316C58.0811 58.2734 58.374 58.542 58.667 58.7373C59.0088 58.9326 59.4971 59.0791 60.1318 59.1768C60.7666 59.2256 61.3525 59.3721 61.8896 59.6162C62.6709 59.4209 63.4033 59.3232 64.0869 59.3232ZM110.815 66.7207L110.376 67.8193C109.79 67.8682 108.911 68.1855 107.739 68.7715C106.665 68.8691 105.566 68.9668 104.443 69.0645C103.369 69.1133 102.271 69.2109 101.147 69.3574L100.708 67.6729C100.757 67.4775 101.025 67.2334 101.514 66.9404C102.051 66.6475 102.368 66.4521 102.466 66.3545C102.563 64.792 102.612 63.3271 102.612 61.96C102.612 60.5439 102.539 59.3721 102.393 58.4443C102.246 57.5166 102.124 56.8086 102.026 56.3203C101.978 55.7832 101.953 55.0752 101.953 54.1963C102.002 53.3174 101.782 52.6826 101.294 52.292L101.514 51.4863C101.514 51.3398 101.44 51.0957 101.294 50.7539C101.196 50.3633 101.025 49.7529 100.781 48.9229C100.537 48.0928 100.269 47.4336 99.9756 46.9453C99.6826 46.457 99.2432 46.0176 98.6572 45.627C98.1201 45.1875 97.6562 44.9678 97.2656 44.9678C96.9238 44.9678 96.3867 45.1875 95.6543 45.627C94.9707 46.0176 94.4092 46.3105 93.9697 46.5059C93.5791 46.6523 93.3838 46.7744 93.3838 46.8721C93.3838 46.9209 93.335 46.9941 93.2373 47.0918C93.1885 47.1406 93.1152 47.165 93.0176 47.165C92.9688 47.1162 92.8711 47.165 92.7246 47.3115C92.627 47.4092 92.5293 47.5801 92.4316 47.8242C92.334 48.0684 92.2363 48.2393 92.1387 48.3369C92.041 48.4346 91.9434 48.4834 91.8457 48.4834C91.7969 48.4346 91.7236 48.459 91.626 48.5566C91.5283 48.6543 91.3818 48.7764 91.1865 48.9229C91.04 49.0693 90.918 49.2158 90.8203 49.3623C90.8203 49.7041 90.7471 49.875 90.6006 49.875C90.4541 49.875 90.3076 49.9238 90.1611 50.0215C90.0146 50.0703 89.8682 50.168 89.7217 50.3145C89.624 50.4121 89.4775 50.5098 89.2822 50.6074V50.9004C89.2822 51.0957 89.2334 51.4131 89.1357 51.8525C88.8428 52.0479 88.623 52.292 88.4766 52.585C88.3301 52.8291 88.1104 53 87.8174 53.0977C87.7197 53.7324 87.5 54.2695 87.1582 54.709C86.8652 55.0996 86.5967 55.5635 86.3525 56.1006C86.4502 56.2471 86.499 56.4912 86.499 56.833L86.2061 58.7373L86.3525 59.1768L85.7666 62.2529L85.9131 63.8643L85.4736 66.8672L85.6201 68.1123L85.4736 69.5039L85.6201 69.9434L85.4736 70.5293V70.6758C85.6201 70.7246 85.6689 70.7734 85.6201 70.8223C85.5713 70.8223 85.5469 70.9932 85.5469 71.335C85.5469 71.6279 85.7422 71.9697 86.1328 72.3604C85.9863 72.6533 85.9131 72.8486 85.9131 72.9463L86.3525 75.2168C86.3525 75.5586 86.3037 75.8027 86.2061 75.9492C86.3037 75.998 86.4014 76.0225 86.499 76.0225L87.9639 75.6562C88.3545 75.8027 88.7451 76.1201 89.1357 76.6084V76.9746C89.1357 77.4141 89.0137 77.707 88.7695 77.8535C88.8672 77.9512 88.916 78.0488 88.916 78.1465C88.916 78.2441 88.8672 78.3418 88.7695 78.4395C88.6719 78.5371 88.623 78.6836 88.623 78.8789L88.4766 78.8057C88.2324 78.8057 88.0127 78.8789 87.8174 79.0254C87.6709 79.2207 87.5 79.3184 87.3047 79.3184C87.1582 79.3184 86.8164 79.2207 86.2793 79.0254C85.791 78.8789 85.5225 78.7812 85.4736 78.7324C85.083 78.9277 84.7168 79.0254 84.375 79.0254C84.082 79.0254 83.9355 78.9766 83.9355 78.8789C83.9355 78.8301 83.8867 78.8301 83.7891 78.8789L83.6426 79.1719C83.3984 79.2695 83.1543 79.2939 82.9102 79.2451C82.666 79.1963 82.4463 79.1963 82.251 79.2451C82.1045 79.2939 82.0312 79.3428 82.0312 79.3916C82.0312 79.4404 82.0068 79.4404 81.958 79.3916C81.9092 79.3428 81.7871 79.3184 81.5918 79.3184C81.4453 79.3184 81.2744 79.416 81.0791 79.6113C80.8838 79.8066 80.4688 79.9043 79.834 79.9043L78.2959 80.1973C77.9541 80.1973 77.71 80.1484 77.5635 80.0508C77.3682 79.6113 77.2705 79.0742 77.2705 78.4395V77.8535C78.0518 77.4629 78.8818 77.2188 79.7607 77.1211C80.6885 77.0234 81.543 76.7305 82.3242 76.2422C82.0312 72.2871 81.8848 69.626 81.8848 68.2588L82.0312 66.0615C82.0312 65.9639 82.0068 65.915 81.958 65.915C81.9092 65.915 81.8848 65.8662 81.8848 65.7686L82.0312 65.0361V64.3037C82.0312 64.2549 82.1289 63.6445 82.3242 62.4727L82.251 60.1289L82.6904 55.1484L82.5439 53.8301L82.9102 51.0469L82.6904 49.3623L82.9834 45.1143C82.9834 42.4775 82.7148 40.7197 82.1777 39.8408H81.958L81.0059 40.1338H79.7607L78.9551 39.9873C78.8574 39.9873 78.7842 40.0361 78.7354 40.1338C78.7354 40.1826 78.6621 40.2559 78.5156 40.3535C78.418 40.4023 78.2471 40.4268 78.0029 40.4268C77.7588 40.3779 77.5146 40.3535 77.2705 40.3535C77.0752 40.3535 76.9043 40.3779 76.7578 40.4268C76.416 40.1338 76.2451 39.792 76.2451 39.4014C76.2451 39.0107 76.2939 38.6201 76.3916 38.2295C76.8311 37.9854 77.3193 37.8633 77.8564 37.8633C78.4424 37.8633 78.9307 37.8145 79.3213 37.7168C79.7607 37.6191 80.1025 37.5215 80.3467 37.4238C80.6396 37.3262 80.957 37.2773 81.2988 37.2773C81.6895 37.2773 81.9824 37.3262 82.1777 37.4238C82.5684 37.1309 83.374 36.9844 84.5947 36.9844C84.79 37.2285 85.083 37.5215 85.4736 37.8633C85.9131 38.1562 86.1328 38.4248 86.1328 38.6689L86.0596 39.2549C86.3037 39.5479 86.4258 39.792 86.4258 39.9873V40.4268C86.4258 40.9639 86.3525 41.3057 86.2061 41.4521C86.4502 41.7939 86.5723 42.7949 86.5723 44.4551L86.499 47.751C86.499 48.2393 86.5967 48.5811 86.792 48.7764C86.9385 48.6787 87.1094 48.6543 87.3047 48.7031C87.5 48.7031 87.6709 48.6543 87.8174 48.5566C88.1104 48.166 88.5742 47.6533 89.209 47.0186C89.8438 46.3838 90.2344 45.8711 90.3809 45.4805C91.6992 44.6504 92.4561 44.0889 92.6514 43.7959C92.8955 43.5029 93.0664 43.332 93.1641 43.2832L93.457 43.3564C93.5547 43.3564 93.6768 43.2832 93.8232 43.1367C94.0186 42.9414 94.1895 42.8193 94.3359 42.7705C94.4824 42.6729 94.6289 42.5752 94.7754 42.4775C94.9707 42.3799 95.1416 42.3066 95.2881 42.2578C95.4834 42.1602 95.6543 42.1357 95.8008 42.1846C95.9473 42.1846 96.0693 42.1357 96.167 42.0381C96.2646 41.9404 96.3379 41.8428 96.3867 41.7451C96.4355 41.6475 96.5088 41.5742 96.6064 41.5254L96.8994 41.5986L97.7051 41.4521C98.1445 41.4521 98.6084 41.6963 99.0967 42.1846C99.585 42.624 100.073 42.917 100.562 43.0635C100.806 43.5029 101.123 43.8691 101.514 44.1621C101.953 44.4551 102.368 44.748 102.759 45.041C102.856 45.4316 103.027 45.749 103.271 45.9932C103.564 46.2373 103.833 46.5547 104.077 46.9453C104.37 47.2871 104.639 47.7266 104.883 48.2637C105.176 48.752 105.493 49.2158 105.835 49.6553C105.835 50.5342 105.933 51.4131 106.128 52.292C106.372 53.1709 106.543 54.0742 106.641 55.002C106.738 55.9297 106.836 56.8574 106.934 57.7852C107.031 58.7129 107.08 59.6406 107.08 60.5684L106.934 62.4727L107.08 63.2051L106.787 64.377L106.934 65.3291C107.227 65.6221 107.593 65.7686 108.032 65.7686L110.083 65.4756C110.181 65.7686 110.327 65.9883 110.522 66.1348C110.718 66.2812 110.815 66.4766 110.815 66.7207ZM125.977 41.1592L127.441 41.2324C127.441 41.1836 127.515 41.1592 127.661 41.1592C127.808 41.1592 127.93 41.2568 128.027 41.4521C128.125 41.5986 128.247 41.7207 128.394 41.8184C128.589 41.8672 128.76 41.8916 128.906 41.8916C129.102 41.8916 129.297 41.9648 129.492 42.1113L129.639 42.4043C129.834 42.502 129.956 42.5508 130.005 42.5508C130.103 42.502 130.298 42.6729 130.591 43.0635C130.884 43.4541 131.152 43.6494 131.396 43.6494C131.689 43.6494 131.934 43.6006 132.129 43.5029C132.275 43.1611 132.373 42.8193 132.422 42.4775C132.52 42.0869 132.69 41.7207 132.935 41.3789C133.228 41.1836 133.594 41.0859 134.033 41.0859C134.473 41.0859 134.814 41.3545 135.059 41.8916C135.352 42.4287 135.498 42.9658 135.498 43.5029C135.498 44.04 135.376 44.4795 135.132 44.8213C135.229 45.3584 135.278 46.0176 135.278 46.7988C135.278 47.5801 135.059 48.3613 134.619 49.1426C134.717 49.5332 134.766 49.8994 134.766 50.2412C134.766 50.5342 134.668 50.876 134.473 51.2666C134.277 51.6572 134.131 51.9746 134.033 52.2188C133.984 52.4629 133.96 52.6582 133.96 52.8047C133.96 52.9512 133.838 53.2197 133.594 53.6104C133.35 54.001 132.715 54.1963 131.689 54.1963H131.323C131.03 53.7568 130.884 53.3906 130.884 53.0977C130.884 52.8047 130.981 52.4629 131.177 52.0723L131.03 51.6328C131.03 51.3398 131.104 50.9248 131.25 50.3877C131.396 49.8506 131.47 49.2891 131.47 48.7031C131.47 47.8242 131.299 47.2139 130.957 46.8721C130.664 46.5303 130.469 46.2861 130.371 46.1396C130.322 45.9932 130.225 45.8711 130.078 45.7734C129.932 45.627 129.761 45.5293 129.565 45.4805C129.37 45.4316 129.126 45.2607 128.833 44.9678C128.589 44.8213 128.32 44.7236 128.027 44.6748C127.783 44.5771 127.563 44.4795 127.368 44.3818C127.173 44.2842 127.075 44.2109 127.075 44.1621C127.124 44.0645 126.733 44.0156 125.903 44.0156C125.073 44.0156 124.438 44.2354 123.999 44.6748C123.706 44.5771 123.34 44.5283 122.9 44.5283C122.51 44.5283 122.168 44.7969 121.875 45.334C121.582 45.8711 121.265 46.335 120.923 46.7256C120.972 46.7744 120.996 46.9209 120.996 47.165C120.996 47.3604 120.898 47.5801 120.703 47.8242C120.557 48.0195 120.41 48.3369 120.264 48.7764C120.117 49.2158 120.068 49.7285 120.117 50.3145C120.166 50.8516 120.044 51.3887 119.751 51.9258C119.8 52.0234 119.824 52.2188 119.824 52.5117L119.385 55.1484V55.8809C119.385 58.4688 119.507 60.0068 119.751 60.4951C119.751 60.5928 119.727 60.6416 119.678 60.6416C119.629 60.6416 119.604 60.7148 119.604 60.8613C119.604 61.3496 119.775 62.082 120.117 63.0586C120.459 64.0352 120.679 64.5723 120.776 64.6699C120.923 64.7188 121.021 64.792 121.069 64.8896C121.167 64.9873 121.216 65.1094 121.216 65.2559C121.216 65.3535 121.387 65.5977 121.729 65.9883C122.07 66.3301 122.29 66.6475 122.388 66.9404C122.485 67.1846 122.656 67.4287 122.9 67.6729C123.193 67.8682 123.511 68.0391 123.853 68.1855C124.194 68.2832 124.487 68.4053 124.731 68.5518C125.024 68.6982 125.244 68.8447 125.391 68.9912C125.586 69.1377 125.854 69.2109 126.196 69.2109C126.538 69.2109 126.855 69.1377 127.148 68.9912C127.49 68.7959 127.856 68.7471 128.247 68.8447C128.442 68.6006 128.662 68.4785 128.906 68.4785C129.15 68.4785 129.443 68.4053 129.785 68.2588C130.127 68.1123 130.42 67.917 130.664 67.6729C130.957 67.4287 131.274 67.209 131.616 67.0137C132.007 66.8184 132.202 66.6719 132.202 66.5742V66.1348C132.202 65.9883 132.227 65.8906 132.275 65.8418C132.471 65.9395 132.617 65.9883 132.715 65.9883L134.18 65.6953H134.473C134.668 65.8418 134.766 65.9883 134.766 66.1348V66.7207L134.912 67.0137C134.912 67.3066 134.57 67.7461 133.887 68.332C133.252 68.918 132.837 69.2598 132.642 69.3574C132.495 69.4062 132.397 69.5039 132.349 69.6504C132.3 69.7969 132.153 69.9434 131.909 70.0898C131.665 70.1875 131.372 70.2363 131.03 70.2363C130.737 70.2363 130.42 70.2852 130.078 70.3828C129.785 70.4805 129.419 70.6758 128.979 70.9688C128.589 71.2617 128.271 71.4082 128.027 71.4082L127.295 71.1885L126.343 71.6279C126.147 71.5303 126.001 71.4814 125.903 71.4814H125.537C125.342 71.4814 125.098 71.3838 124.805 71.1885L123.56 71.4082C123.315 71.4082 123.145 71.3838 123.047 71.335L122.9 71.042L122.388 71.1152C122.046 71.1152 121.777 70.9443 121.582 70.6025C121.436 70.2607 121.118 70.0898 120.63 70.0898C120.142 70.0898 119.751 69.9434 119.458 69.6504C119.214 69.3086 118.896 69.0889 118.506 68.9912L116.895 67.3066C116.797 67.209 116.65 67.1602 116.455 67.1602C116.309 67.1602 116.089 67.0869 115.796 66.9404C115.552 66.7451 115.43 66.4766 115.43 66.1348C115.43 65.7441 115.479 65.4512 115.576 65.2559C115.332 64.7188 115.161 64.1328 115.063 63.498C114.917 62.5703 114.673 61.8623 114.331 61.374C114.136 60.9346 114.038 60.6172 114.038 60.4219V59.8359C114.038 57.8828 114.258 56.0273 114.697 54.2695C115.186 52.4629 115.479 51.4375 115.576 51.1934C115.674 50.9492 115.771 50.7051 115.869 50.4609C115.967 50.2168 116.04 49.9238 116.089 49.582C116.187 49.2402 116.309 48.9717 116.455 48.7764L116.748 48.6299C116.846 48.3369 116.895 48.0928 116.895 47.8975C116.943 47.6533 117.017 47.4336 117.114 47.2383L117.48 47.0918C117.676 46.7988 117.847 46.4814 117.993 46.1396C118.188 45.749 118.433 45.3828 118.726 45.041C119.019 44.6504 119.434 44.2842 119.971 43.9424C120.508 43.6006 121.021 43.2832 121.509 42.9902C122.046 42.6973 122.51 42.4531 122.9 42.2578C123.34 42.0137 123.608 41.8672 123.706 41.8184C123.853 41.7207 123.999 41.6963 124.146 41.7451C124.341 41.7451 124.561 41.6963 124.805 41.5986C125.049 41.501 125.195 41.4033 125.244 41.3057C125.293 41.208 125.537 41.1592 125.977 41.1592ZM157.251 48.6299L159.375 51.6328V51.7793C159.375 52.5117 159.57 53.1221 159.961 53.6104C160.4 54.0986 160.742 54.6846 160.986 55.3682C160.84 55.5635 160.693 55.7344 160.547 55.8809C160.4 56.0273 160.278 56.2227 160.181 56.4668C159.839 56.5645 159.595 56.6133 159.448 56.6133L158.276 56.54C157.983 56.54 157.739 56.6133 157.544 56.7598C157.3 56.6133 157.007 56.54 156.665 56.54H155.786C155.298 56.54 154.883 56.4668 154.541 56.3203C154.346 56.3691 154.199 56.5156 154.102 56.7598C154.004 57.0039 153.662 57.126 153.076 57.126C152.49 57.0771 152.051 57.1016 151.758 57.1992C151.514 57.248 151.318 57.3213 151.172 57.4189C151.025 57.4678 150.806 57.4922 150.513 57.4922L149.048 57.3457H147.29C146.851 58.0293 146.631 59.8359 146.631 62.7656L147.144 65.9883L147.07 67.5264C147.07 68.0635 147.119 68.3809 147.217 68.4785C147.559 68.918 147.729 69.4062 147.729 69.9434C147.729 70.4316 147.852 70.9443 148.096 71.4814C148.389 72.0186 148.56 72.458 148.608 72.7998C148.706 73.0928 148.853 73.4834 149.048 73.9717C149.243 74.46 149.585 74.9238 150.073 75.3633C150.61 75.7539 151.196 75.9492 151.831 75.9492C152.515 75.9492 153.076 75.7783 153.516 75.4365C154.004 75.0459 154.37 74.7773 154.614 74.6309C154.907 74.4844 155.078 74.4355 155.127 74.4844C155.176 74.4844 155.273 74.4355 155.42 74.3379C155.615 74.2402 155.908 73.9961 156.299 73.6055C156.738 73.2148 157.007 72.9463 157.104 72.7998C157.202 72.6533 157.3 72.458 157.397 72.2139C157.495 71.9209 157.617 71.5303 157.764 71.042C157.959 70.5537 158.228 70.3096 158.569 70.3096C158.911 70.3096 159.253 70.5781 159.595 71.1152C159.985 71.6035 160.181 72.1162 160.181 72.6533C160.181 73.1416 159.888 73.5322 159.302 73.8252C158.765 74.1182 158.423 74.5332 158.276 75.0703C157.495 75.4121 157.031 75.7539 156.885 76.0957C156.787 76.3887 156.665 76.584 156.519 76.6816C156.421 76.7305 156.348 76.7549 156.299 76.7549C156.25 76.7061 156.177 76.6816 156.079 76.6816C155.981 76.6816 155.933 76.7793 155.933 76.9746C155.64 77.1699 155.347 77.4141 155.054 77.707C154.468 77.5117 153.882 77.6094 153.296 78C152.71 78.4395 152.148 78.6592 151.611 78.6592C151.074 78.6592 150.586 78.4639 150.146 78.0732C149.902 78.1709 149.634 78.2197 149.341 78.2197C149.048 78.2197 148.755 78.2686 148.462 78.3662C148.071 77.9756 147.632 77.6826 147.144 77.4873C146.655 77.292 146.167 77.0723 145.679 76.8281C145.581 76.5352 145.459 76.3887 145.312 76.3887C145.215 76.3398 145.215 76.1445 145.312 75.8027C145.117 75.7051 144.922 75.6074 144.727 75.5098C144.58 75.4121 144.409 75.3145 144.214 75.2168C144.067 74.875 143.799 74.5088 143.408 74.1182V73.166C143.018 73.0195 142.749 72.7266 142.603 72.2871C142.505 71.7988 142.261 71.4326 141.87 71.1885C141.821 70.6025 141.699 70.041 141.504 69.5039C141.357 68.918 141.284 68.332 141.284 67.7461V66.4277L140.771 63.3516V62.7656L140.991 62.1064L140.771 61.4473L141.284 58.3711L141.577 57.9316C141.821 56.6621 142.017 55.5146 142.163 54.4893C142.358 53.4639 142.7 52.4873 143.188 51.5596C143.726 50.583 144.263 49.6797 144.8 48.8496C145.337 47.9707 145.679 47.165 145.825 46.4326C147.29 45.2607 148.779 44.2598 150.293 43.4297C150.537 43.5273 150.732 43.5762 150.879 43.5762L152.051 43.3564C152.49 43.3564 153.003 43.6494 153.589 44.2354L154.395 44.0889H154.688C154.785 44.2354 154.834 44.4062 154.834 44.6016C154.883 44.7969 155.005 44.9189 155.2 44.9678C155.737 45.4072 156.055 45.9443 156.152 46.5791C156.299 47.165 156.665 47.6289 157.251 47.9707V48.6299ZM155.2 54.7822L157.69 54.2695V53.9766C157.69 53.6836 157.642 53.3906 157.544 53.0977C157.495 52.8047 157.446 52.5117 157.397 52.2188C157.104 51.877 156.812 51.6084 156.519 51.4131C156.274 51.2178 156.177 50.8516 156.226 50.3145C155.786 50.168 155.493 49.8506 155.347 49.3623C155.249 48.874 155.151 48.4102 155.054 47.9707C154.956 47.9707 154.907 47.873 154.907 47.6777C154.565 47.4336 154.321 47.2383 154.175 47.0918C153.638 46.5547 152.783 46.2861 151.611 46.2861C150.488 46.2861 149.756 46.4326 149.414 46.7256C149.121 46.9697 148.804 47.7021 148.462 48.9229C148.12 50.0947 147.803 51.0957 147.51 51.9258C147.266 52.707 147.144 53.5127 147.144 54.3428V54.7822L149.487 55.0752L151.172 54.9287L151.758 55.0752L152.93 54.7822L153.955 54.9287L154.541 54.6357L155.2 54.7822ZM168.677 101.95C167.505 101.804 166.919 101.535 166.919 101.145C166.919 100.656 167.285 100.168 168.018 99.6797C168.701 99.3379 169.165 99.167 169.409 99.167C169.702 99.167 169.897 99.1914 169.995 99.2402C170.239 98.9961 170.508 98.8496 170.801 98.8008C171.143 98.752 171.46 98.6055 171.753 98.3613V98.2148C171.704 97.9707 171.753 97.7266 171.899 97.4824C172.046 97.2871 172.119 97.0186 172.119 96.6768C172.119 96.3838 172.07 96.2373 171.973 96.2373C171.729 96.2373 171.631 96.0176 171.68 95.5781C171.729 95.1875 171.753 94.8945 171.753 94.6992L171.387 93.4541L171.606 92.209L171.387 90.9639L171.606 90.1582C171.606 89.6699 171.46 89.0352 171.167 88.2539C170.923 87.5215 170.801 86.7891 170.801 86.0566C170.801 85.373 170.752 84.8115 170.654 84.3721C170.605 83.9814 170.532 83.6396 170.435 83.3467C170.337 83.1025 170.288 82.8828 170.288 82.6875V80.8564L169.995 78.7324C169.946 78.4883 169.922 78.2686 169.922 78.0732C169.971 77.9268 169.995 77.7314 169.995 77.4873L169.409 72.4336C169.409 71.4082 169.214 70.1143 168.823 68.5518C168.579 66.7451 168.457 65.4756 168.457 64.7432C168.457 63.9619 168.384 63.4248 168.237 63.1318C168.091 62.79 167.969 62.3018 167.871 61.667C167.822 61.0322 167.798 60.1289 167.798 58.957C167.798 57.7852 167.7 56.9551 167.505 56.4668L167.651 56.0273L167.358 53.0977L167.505 48.8496L167.212 47.3848L167.358 45.7734L167.065 40.7197L167.212 38.376C167.212 36.8135 167.163 35.2021 167.065 33.542C167.017 33.4932 166.968 33.4688 166.919 33.4688L166.406 33.835L164.282 34.4209C164.038 34.4209 163.818 34.3232 163.623 34.1279C163.477 33.9326 163.306 33.7861 163.11 33.6885C163.013 33.5908 163.037 33.542 163.184 33.542C163.232 33.4443 163.184 33.3223 163.037 33.1758C162.939 33.0293 162.891 32.9316 162.891 32.8828C162.891 32.7852 162.964 32.6875 163.11 32.5898C163.452 32.3457 164.185 32.1016 165.308 31.8574C166.431 31.6133 167.261 31.2715 167.798 30.832H167.944C168.53 30.832 169.067 30.6367 169.556 30.2461C171.118 30.2461 171.924 30.1484 171.973 29.9531C172.07 29.7578 172.266 29.6602 172.559 29.6602C173.145 29.6602 173.608 30.0508 173.95 30.832C173.755 31.5156 173.364 32.0283 172.778 32.3701C172.241 32.7119 171.68 33.0049 171.094 33.249C170.947 33.5908 170.874 34.0547 170.874 34.6406L170.947 37.5703V39.3281C170.947 39.9629 170.972 40.5 171.021 40.9395C171.118 41.3301 171.167 41.6475 171.167 41.8916C171.216 42.1357 171.411 42.2822 171.753 42.3311L171.899 42.4043C172.192 42.4043 172.314 42.3066 172.266 42.1113C172.266 41.8672 172.461 41.6475 172.852 41.4521V41.1592H173.145C173.34 40.915 173.511 40.6709 173.657 40.4268C173.804 40.1338 173.95 39.8652 174.097 39.6211C174.438 39.5234 174.658 39.3525 174.756 39.1084C174.902 38.8643 175.049 38.6934 175.195 38.5957C175.342 38.498 175.439 38.4736 175.488 38.5225C175.586 38.5225 175.684 38.498 175.781 38.4492L175.854 38.1562C175.952 38.1074 176.025 38.083 176.074 38.083C176.172 38.083 176.245 38.0586 176.294 38.0098L176.44 37.7168C176.831 37.4238 177.271 37.1797 177.759 36.9844C178.247 36.7891 178.687 36.5205 179.077 36.1787C179.419 36.1299 179.761 36.0811 180.103 36.0322C180.444 35.9834 181.006 35.7637 181.787 35.373C182.08 35.3242 182.568 35.3242 183.252 35.373C183.936 35.373 184.741 35.373 185.669 35.373C186.646 35.373 187.402 35.5195 187.939 35.8125C188.477 36.0566 188.892 36.3496 189.185 36.6914C189.478 37.0332 189.844 37.2773 190.283 37.4238C190.381 37.668 190.503 37.8633 190.649 38.0098C190.845 38.1562 191.016 38.3271 191.162 38.5225L191.309 39.0352L191.602 39.1816L191.748 39.6211C193.408 42.3555 194.238 44.9434 194.238 47.3848C194.238 49.7773 193.628 52.3164 192.407 55.002C192.065 55.7344 191.65 56.4424 191.162 57.126C190.723 57.7607 190.283 58.4443 189.844 59.1768C189.453 59.2256 189.16 59.3965 188.965 59.6895C188.77 59.9336 188.306 60.2754 187.573 60.7148C186.841 61.1543 185.962 61.4229 184.937 61.5205C184.448 61.8623 184.058 62.082 183.765 62.1797L182.52 62.3262C182.178 62.4238 181.885 62.5459 181.641 62.6924C181.445 62.8389 181.104 62.9121 180.615 62.9121C180.127 62.9121 179.712 62.7656 179.37 62.4727H179.224L178.638 62.5459C178.296 62.5459 177.979 62.4482 177.686 62.2529C177.393 62.0088 177.051 61.8867 176.66 61.8867L175.488 62.1064C175.342 62.1064 175.269 62.0088 175.269 61.8135C175.269 61.6182 175.195 61.5205 175.049 61.5205C174.951 61.374 174.805 61.3252 174.609 61.374C174.414 61.374 174.219 61.3252 174.023 61.2275C173.828 61.0811 173.706 60.8613 173.657 60.5684C173.608 60.2266 173.389 60.0557 172.998 60.0557C172.803 60.2021 172.705 60.5195 172.705 61.0078C172.705 61.4473 172.778 62.1553 172.925 63.1318C173.12 64.0596 173.193 64.6943 173.145 65.0361C173.145 65.3779 173.169 65.6953 173.218 65.9883C173.315 66.2812 173.413 66.5498 173.511 66.7939C173.657 67.0381 173.73 67.2578 173.73 67.4531L173.584 67.8193C173.584 68.0146 173.633 68.2344 173.73 68.4785C173.828 68.6738 173.877 68.918 173.877 69.2109C173.926 69.4551 174.023 69.9189 174.17 70.6025C174.365 71.2861 174.39 71.7012 174.243 71.8477C174.243 72.6777 174.341 73.5078 174.536 74.3379C174.78 75.1191 174.902 75.9492 174.902 76.8281L174.756 78.2197C174.756 78.6592 174.902 79.2451 175.195 79.9775C175.342 80.6611 175.415 81.3691 175.415 82.1016C175.415 82.834 175.464 83.4443 175.562 83.9326C175.659 84.4697 175.757 84.8604 175.854 85.1045C175.952 85.3486 176.001 85.666 176.001 86.0566V86.7158C176.001 86.8135 175.977 86.8623 175.928 86.8623C175.879 86.8623 175.854 86.9111 175.854 87.0088L176.074 88.6201C176.123 89.2061 176.123 89.792 176.074 90.3779C176.074 90.9639 176.099 91.5742 176.147 92.209C176.245 92.502 176.294 92.7217 176.294 92.8682L176.147 93.6006C176.147 94.1865 176.245 94.7969 176.44 95.4316C176.636 96.0664 176.782 96.7012 176.88 97.3359C177.075 97.4336 177.319 97.4824 177.612 97.4824C177.905 97.4824 178.174 97.2871 178.418 96.8965C178.711 96.5547 178.979 96.3838 179.224 96.3838L179.59 96.457C179.785 96.8477 179.883 97.3115 179.883 97.8486C179.883 98.4346 179.81 98.7275 179.663 98.7275C179.565 98.7275 179.468 98.7764 179.37 98.874C179.272 99.0205 179.248 99.1182 179.297 99.167C179.395 99.3623 179.248 99.4844 178.857 99.5332C178.516 99.6309 178.198 99.7529 177.905 99.8994C177.417 100.144 177.051 100.266 176.807 100.266H176.367C175.488 100.266 174.756 100.363 174.17 100.559C173.584 100.803 173.047 100.949 172.559 100.998C170.605 101.193 169.312 101.511 168.677 101.95ZM174.316 44.6748L173.73 46.4326L173.877 46.7988C173.877 47.2871 173.706 47.7754 173.364 48.2637C173.022 48.752 172.803 49.1426 172.705 49.4355C172.656 49.7285 172.632 50.0703 172.632 50.4609C172.681 50.8027 172.705 51.1934 172.705 51.6328C172.705 52.0234 172.778 52.3164 172.925 52.5117C173.315 53.1465 173.462 53.8301 173.364 54.5625C173.267 55.2461 173.413 55.832 173.804 56.3203C174.243 56.8086 174.609 57.2969 174.902 57.7852C175.195 58.2246 175.415 58.5908 175.562 58.8838C175.757 59.1279 175.928 59.2988 176.074 59.3965C176.221 59.4453 176.44 59.4941 176.733 59.543C177.075 59.543 177.515 59.6162 178.052 59.7627C178.638 59.8604 179.077 59.9824 179.37 60.1289C179.663 60.2266 180.029 60.2754 180.469 60.2754L183.325 59.9092C183.423 59.8604 183.545 59.7627 183.691 59.6162C183.838 59.4697 184.033 59.3965 184.277 59.3965C184.521 59.3965 184.717 59.3721 184.863 59.3232C185.01 59.2256 185.205 59.0547 185.449 58.8105C185.693 58.5664 185.889 58.4199 186.035 58.3711C186.377 58.3223 186.841 57.7363 187.427 56.6133C188.354 54.7578 188.818 53.4395 188.818 52.6582V51.5596L188.965 49.8018L188.672 48.2637C188.672 48.1172 188.721 47.9951 188.818 47.8975L188.525 45.2607L188.306 44.2354C188.306 43.9424 188.232 43.6982 188.086 43.5029C187.939 43.3076 187.915 43.0635 188.013 42.7705C187.573 42.1357 187.354 41.623 187.354 41.2324C187.354 40.793 187.28 40.3535 187.134 39.9141H186.768C186.719 39.8164 186.694 39.6943 186.694 39.5479C186.694 39.3525 186.67 39.2305 186.621 39.1816C186.23 39.1328 185.84 39.0107 185.449 38.8154C185.107 38.6201 184.741 38.5225 184.351 38.5225L183.325 38.6689L182.446 38.5225L181.641 38.8154C181.445 38.8643 181.25 38.8887 181.055 38.8887C180.859 38.8398 180.64 38.8154 180.396 38.8154C180.2 38.8154 179.956 38.9619 179.663 39.2549C179.419 39.499 179.175 39.7188 178.931 39.9141C178.589 39.9141 178.32 40.0117 178.125 40.207C177.93 40.3535 177.661 40.4268 177.319 40.4268C177.075 41.1592 176.465 41.8428 175.488 42.4775C175.293 43.1611 174.878 43.7227 174.243 44.1621C174.292 44.2598 174.316 44.4307 174.316 44.6748ZM216.87 65.7686L218.115 65.6221C218.359 65.6221 218.579 65.7197 218.774 65.915C219.019 66.1104 219.312 66.1592 219.653 66.0615C219.8 66.4033 220.166 66.6963 220.752 66.9404C220.801 67.3799 221.094 67.7217 221.631 67.9658C221.68 68.3564 221.777 68.6982 221.924 68.9912C222.07 69.2354 222.119 69.5527 222.07 69.9434V70.0898L221.851 70.2363C221.851 70.334 221.875 70.3828 221.924 70.3828C222.021 70.3828 222.07 70.5293 222.07 70.8223C222.07 71.0664 221.948 71.4814 221.704 72.0674C221.509 72.6533 221.289 73.1172 221.045 73.459C220.947 74.1426 220.752 74.7041 220.459 75.1436C220.166 75.5342 219.897 76.0225 219.653 76.6084C219.214 76.6572 218.823 76.8525 218.481 77.1943C218.14 77.5361 217.896 77.707 217.749 77.707C217.603 77.6582 217.383 77.707 217.09 77.8535C216.846 78 216.65 78.2441 216.504 78.5859L216.138 78.4395C215.991 78.4395 215.869 78.5127 215.771 78.6592C215.674 78.8545 215.479 78.9766 215.186 79.0254C214.893 79.123 214.502 79.1475 214.014 79.0986C213.525 79.0986 213.037 79.2207 212.549 79.4648C211.914 78.9277 211.353 78.6836 210.864 78.7324C210.767 78.3906 210.522 78.1465 210.132 78C209.741 77.9023 209.375 77.7803 209.033 77.6338C208.74 77.4385 208.447 77.2188 208.154 76.9746C207.91 76.7305 207.617 76.5352 207.275 76.3887C207.227 76.0957 207.104 75.9004 206.909 75.8027C206.714 75.6562 206.641 75.3877 206.689 74.9971L205.884 74.6309V74.3379C205.884 73.6055 205.786 73.1172 205.591 72.873C205.444 72.6289 205.322 72.3359 205.225 71.9941C205.176 71.6523 205.151 71.3594 205.151 71.1152C205.2 70.8223 205.225 70.5293 205.225 70.2363C205.225 69.8945 205.127 69.4551 204.932 68.918C204.736 68.3809 204.639 67.917 204.639 67.5264C204.688 67.0869 204.663 66.5742 204.565 65.9883C204.517 65.4023 204.419 64.6699 204.272 63.791C204.126 62.9121 204.004 62.1309 203.906 61.4473C203.809 60.7148 203.784 60.1045 203.833 59.6162C203.882 59.0791 203.906 58.5664 203.906 58.0781V56.833C203.906 56.1982 203.833 55.7344 203.687 55.4414C203.589 55.1484 203.54 54.9287 203.54 54.7822L203.833 53.2441L203.54 52.4385L203.833 50.3877L203.906 47.6777C203.906 46.2129 203.711 45.2119 203.32 44.6748C202.979 44.1377 202.661 43.8691 202.368 43.8691C202.124 43.8691 201.855 43.9668 201.562 44.1621C201.27 44.3574 200.903 44.4307 200.464 44.3818C200.073 44.333 199.756 44.3086 199.512 44.3086L198.999 44.3818L197.9 44.1621C197.607 43.5762 197.461 43.1367 197.461 42.8438C197.461 42.5508 197.534 42.3066 197.681 42.1113C197.827 41.916 197.949 41.6963 198.047 41.4521C198.389 41.3545 198.828 41.3057 199.365 41.3057C199.951 41.3057 200.366 41.1592 200.61 40.8662C200.757 41.0127 200.952 41.0859 201.196 41.0859C201.44 41.0859 201.685 41.0371 201.929 40.9395C202.173 40.8418 202.441 40.8174 202.734 40.8662C203.174 40.1826 203.394 39.2793 203.394 38.1562L203.027 33.249L203.174 32.0771L203.027 30.9785C203.125 30.6855 203.174 30.4902 203.174 30.3926L203.027 29.9531C203.027 29.8066 203.125 29.416 203.32 28.7812C203.564 28.0977 203.735 27.6094 203.833 27.3164C203.931 26.9746 204.004 26.7305 204.053 26.584C204.15 26.4375 204.272 26.291 204.419 26.1445C204.565 25.998 204.639 25.8271 204.639 25.6318H204.932L205.371 25.4854C206.396 25.4854 206.909 26.0957 206.909 27.3164V28.2686C206.909 28.708 207.031 29.1719 207.275 29.6602C207.324 31.3691 207.471 33.0781 207.715 34.7871C207.959 36.4473 208.13 38.1562 208.228 39.9141C208.667 40.207 209.18 40.3535 209.766 40.3535L212.476 40.0605C213.208 40.0605 213.672 40.207 213.867 40.5C214.062 40.7441 214.258 40.8662 214.453 40.8662L214.38 41.0859L214.6 41.8916C214.6 42.4287 214.38 42.7949 213.94 42.9902C213.501 43.1855 213.11 43.4053 212.769 43.6494C211.401 43.1123 210.474 42.8438 209.985 42.8438C209.497 42.8438 209.106 42.917 208.813 43.0635C208.667 43.3564 208.594 43.625 208.594 43.8691L208.96 45.5537L208.667 48.6299L208.96 50.0947L208.813 51.5596L208.96 54.123L208.667 56.54C208.667 58.0537 208.862 58.9082 209.253 59.1035C209.302 59.1523 209.326 59.2744 209.326 59.4697L209.253 61.96L209.839 69.6504L209.692 70.8955C209.692 71.2373 209.79 71.7012 209.985 72.2871C210.181 72.873 210.327 73.3369 210.425 73.6787C210.522 74.0205 210.62 74.2646 210.718 74.4111C210.815 74.5088 210.962 74.582 211.157 74.6309C211.353 74.6797 211.499 74.7529 211.597 74.8506C211.743 74.9482 211.816 75.0459 211.816 75.1436C211.816 75.2412 211.865 75.3633 211.963 75.5098C212.061 75.6562 212.305 75.8271 212.695 76.0225C213.086 76.2178 213.477 76.3154 213.867 76.3154C214.307 76.3154 214.746 76.2178 215.186 76.0225C215.674 75.8271 216.089 75.6318 216.431 75.4365C216.772 75.1924 217.09 74.9727 217.383 74.7773C217.676 74.5332 217.993 74.3867 218.335 74.3379L218.262 74.1914C218.262 73.9961 218.359 73.8252 218.555 73.6787C218.799 73.4834 218.97 73.2393 219.067 72.9463L219.287 71.042C219.287 69.9189 218.97 69.3574 218.335 69.3574C217.749 69.3574 217.383 69.5527 217.236 69.9434C217.139 70.334 216.968 70.7246 216.724 71.1152C216.479 71.2617 216.211 71.335 215.918 71.335C215.088 71.335 214.404 70.9199 213.867 70.0898V69.4307C213.867 69.1377 213.965 68.9912 214.16 68.9912C214.062 68.8936 214.014 68.7715 214.014 68.625V67.6729C214.111 67.3311 214.429 67.0137 214.966 66.7207C215.552 66.4277 215.967 66.208 216.211 66.0615C216.504 65.915 216.724 65.8174 216.87 65.7686ZM254.663 82.541C254.37 82.541 254.224 82.2725 254.224 81.7354C254.224 81.1982 254.419 80.7588 254.81 80.417C255.103 80.3193 255.322 80.2705 255.469 80.2705L256.641 80.417L257.739 80.2705L258.398 80.3438C259.131 80.3438 259.619 79.4648 259.863 77.707C259.961 77.0234 260.059 76.3398 260.156 75.6562C260.254 74.9727 260.449 74.4844 260.742 74.1914C260.645 74.1426 260.596 74.0449 260.596 73.8984C260.596 73.752 260.645 73.5322 260.742 73.2393C260.84 72.9463 260.913 72.6533 260.962 72.3604C261.06 72.0674 261.157 71.7988 261.255 71.5547C261.353 71.2617 261.426 71.042 261.475 70.8955C261.523 70.749 261.572 70.627 261.621 70.5293C261.719 70.3828 261.792 70.1631 261.841 69.8701C261.938 69.5771 261.987 69.2598 261.987 68.918C261.987 68.5762 262.012 68.2832 262.061 68.0391C262.158 67.7461 262.231 67.5264 262.28 67.3799C262.329 67.2334 262.427 66.8428 262.573 66.208C262.769 65.5732 262.939 64.7188 263.086 63.6445C263.232 62.5215 263.452 61.4229 263.745 60.3486C264.038 59.2256 264.355 58.127 264.697 57.0527C265.039 55.9297 265.283 55.002 265.43 54.2695C265.625 53.5371 265.747 53 265.796 52.6582C265.894 51.9746 266.04 51.4375 266.235 51.0469C266.479 50.6562 266.626 50.3145 266.675 50.0215C266.772 49.7285 266.895 49.3379 267.041 48.8496C267.236 48.3613 267.383 47.7266 267.48 46.9453C267.578 46.1152 267.7 45.4805 267.847 45.041C267.993 44.6016 268.066 44.3574 268.066 44.3086C268.115 44.2598 268.14 44.1133 268.14 43.8691C268.14 43.625 268.164 43.4541 268.213 43.3564C268.311 43.2588 268.408 43.1367 268.506 42.9902L268.872 40.9395L269.019 40.8662L268.945 40.5732C268.945 39.8896 269.214 39.0352 269.751 38.0098C270.337 36.9355 270.679 36.3496 270.776 36.252C270.825 36.0078 270.825 35.7637 270.776 35.5195C270.776 34.9824 270.898 34.6406 271.143 34.4941C271.289 34.3477 271.411 34.0059 271.509 33.4688L271.802 33.3223V32.9561C271.802 32.7607 271.948 32.5898 272.241 32.4434C272.339 32.0527 272.412 31.6865 272.461 31.3447C272.559 31.0029 272.656 30.6611 272.754 30.3193L273.267 29.3672C273.364 29.2207 273.413 29.0742 273.413 28.9277C273.413 28.7324 273.462 28.5371 273.56 28.3418C273.706 28.0977 273.901 27.8535 274.146 27.6094C274.39 27.3652 274.561 27.0234 274.658 26.584C274.805 26.0957 274.829 25.6074 274.731 25.1191C274.683 24.582 274.805 24.0693 275.098 23.5811C275.391 23.4346 275.806 23.3613 276.343 23.3613C276.929 23.3613 277.417 23.7031 277.808 24.3867C278.198 25.0215 278.394 25.6807 278.394 26.3643C278.638 26.7061 278.809 27.0723 278.906 27.4629C279.053 27.8535 279.272 28.1709 279.565 28.415V28.5615C279.565 29.3428 279.834 30.2949 280.371 31.418C280.957 32.541 281.25 33.3467 281.25 33.835C281.396 33.9814 281.543 34.3965 281.689 35.0801C281.885 35.7637 282.3 36.4229 282.935 37.0576L282.861 37.2773C282.861 37.8145 282.983 38.3027 283.228 38.7422C283.765 39.6699 284.033 40.5488 284.033 41.3789C284.033 42.1602 284.424 43.6006 285.205 45.7002C285.986 47.751 286.426 49.2402 286.523 50.168L286.45 50.2412C286.45 50.3877 286.499 50.4609 286.597 50.4609C286.938 50.5586 287.109 50.8516 287.109 51.3398C287.109 51.8281 287.329 52.3408 287.769 52.8779C288.013 53.3174 288.184 53.8057 288.281 54.3428C288.428 54.8311 288.696 55.2705 289.087 55.6611V55.8076C289.087 56.1494 289.16 56.4668 289.307 56.7598C289.453 57.0527 289.551 57.3213 289.6 57.5654C289.697 57.8096 289.746 58.0293 289.746 58.2246C289.795 58.3711 289.844 58.5176 289.893 58.6641C289.99 58.8105 290.112 59.1035 290.259 59.543C290.454 59.9336 290.625 60.373 290.771 60.8613C290.967 61.3496 291.138 61.7891 291.284 62.1797C291.431 62.5703 291.504 62.8145 291.504 62.9121V63.1318C291.748 63.376 291.895 63.6445 291.943 63.9375C291.992 64.1816 292.065 64.4502 292.163 64.7432C292.456 65.1338 292.627 65.5732 292.676 66.0615C292.725 66.5498 292.798 67.0137 292.896 67.4531C293.042 67.8926 293.188 68.2588 293.335 68.5518C293.53 68.8447 293.701 69.1621 293.848 69.5039C294.043 69.8457 294.165 70.2852 294.214 70.8223C294.312 71.3105 294.409 71.75 294.507 72.1406C294.604 72.4824 294.727 72.8242 294.873 73.166C295.068 73.459 295.215 73.8008 295.312 74.1914C295.41 74.5332 295.435 74.8994 295.386 75.29C295.386 76.0225 295.483 76.584 295.679 76.9746C295.923 77.3164 296.118 77.7803 296.265 78.3662C296.558 79.001 296.753 79.5869 296.851 80.124C296.948 80.6611 297.168 81.0762 297.51 81.3691L297.729 81.4424C298.315 81.4424 298.73 81.2959 298.975 81.0029C299.268 80.7588 299.658 80.6123 300.146 80.5635C300.83 80.9541 301.172 81.4912 301.172 82.1748C301.172 82.3213 301.147 82.4434 301.099 82.541C301.196 82.834 301.001 83.0293 300.513 83.127C300.073 83.2734 299.756 83.3711 299.561 83.4199C299.17 83.7129 298.804 83.835 298.462 83.7861C298.169 83.7861 297.925 83.8105 297.729 83.8594C297.583 83.9082 297.461 83.957 297.363 84.0059C297.314 84.0547 297.241 84.1035 297.144 84.1523H296.558C296.313 84.1523 296.045 84.2744 295.752 84.5186C295.508 84.7627 295.288 84.8848 295.093 84.8848C294.897 84.8848 294.434 84.8359 293.701 84.7383L291.431 85.1777C291.187 85.1777 291.016 85.1533 290.918 85.1045C290.576 85.2021 290.283 85.3242 290.039 85.4707C289.795 85.6172 289.478 85.6904 289.087 85.6904C288.94 85.4463 288.794 85.2021 288.647 84.958C288.501 84.7139 288.428 84.4209 288.428 84.0791C288.574 83.6396 288.916 83.3223 289.453 83.127C289.99 82.9316 290.503 82.7363 290.991 82.541C291.479 82.3945 291.919 82.2236 292.31 82.0283C292.7 81.8818 292.896 81.6377 292.896 81.2959L292.163 78.6592C292.065 78.5127 291.968 78.3662 291.87 78.2197C291.772 78.1221 291.675 77.9512 291.577 77.707C291.528 77.4629 291.504 77.1699 291.504 76.8281C291.504 76.4375 291.455 76.0957 291.357 75.8027C291.26 75.5098 291.162 75.2168 291.064 74.9238C290.967 74.6309 290.869 74.3623 290.771 74.1182C290.527 73.9229 290.234 73.6299 289.893 73.2393C289.551 72.7998 289.209 72.5801 288.867 72.5801L287.915 72.7266L287.036 72.5801C286.841 72.5801 286.646 72.6289 286.45 72.7266C285.864 72.9219 285.156 73.0195 284.326 73.0195H282.935L281.689 72.873L281.323 73.0195L280.151 72.7266L279.346 72.7998C279.15 72.7998 278.979 72.7266 278.833 72.5801C278.247 72.873 277.856 73.0195 277.661 73.0195L275.977 72.7266L275.171 72.873L274.072 72.5801L272.095 72.7266H270.923C268.384 72.7266 266.65 73.0439 265.723 73.6787V73.9717H265.43C265.088 74.3135 264.673 75.3633 264.185 77.1211C263.696 78.8789 263.452 79.8799 263.452 80.124C263.452 80.3682 263.599 80.5635 263.892 80.71C264.233 80.8564 264.526 80.9297 264.771 80.9297C265.015 80.9297 265.43 80.8564 266.016 80.71C266.455 81.0029 266.846 81.3691 267.188 81.8086C267.139 82.1992 267.041 82.541 266.895 82.834C266.748 83.127 266.602 83.4199 266.455 83.7129L263.525 83.3467L263.013 83.127L261.914 83.2734L260.522 82.9072L259.79 83.0537L258.984 82.9805C258.594 82.9805 258.374 83.0537 258.325 83.2002C258.228 83.2002 258.179 83.1758 258.179 83.127C258.179 83.0781 258.13 83.0537 258.032 83.0537L256.934 83.4199C256.738 83.4199 256.396 83.3467 255.908 83.2002C255.42 83.1025 255.176 82.9072 255.176 82.6143C255.176 82.4678 255.103 82.3945 254.956 82.3945C254.858 82.4922 254.761 82.541 254.663 82.541ZM281.543 70.0166C281.738 70.0166 281.885 69.9922 281.982 69.9434C282.129 69.8945 282.446 70.041 282.935 70.3828C283.472 70.1875 283.984 70.0898 284.473 70.0898H286.157C286.89 70.0898 287.622 70.0166 288.354 69.8701C288.306 69.6748 288.428 69.4795 288.721 69.2842V69.0645C288.721 68.5273 288.623 68.0391 288.428 67.5996C288.281 67.1113 288.159 66.6963 288.062 66.3545C288.013 66.0127 287.988 65.7441 287.988 65.5488C288.037 65.3535 288.013 65.1826 287.915 65.0361C287.817 64.8408 287.72 64.6699 287.622 64.5234C287.378 64.2305 287.207 63.791 287.109 63.2051C287.061 62.8633 286.938 62.5215 286.743 62.1797C286.597 61.8379 286.523 61.5693 286.523 61.374C286.523 61.1787 286.475 60.9346 286.377 60.6416L284.766 57.1992C284.717 57.1016 284.692 57.0527 284.692 57.0527C284.741 57.0039 284.766 56.9062 284.766 56.7598C284.766 56.6133 284.497 56.125 283.96 55.2949C283.472 54.4648 283.252 53.9277 283.301 53.6836C283.398 53.4395 283.374 53.1221 283.228 52.7314C283.081 52.292 282.886 51.7549 282.642 51.1201C282.397 50.4854 282.227 49.8262 282.129 49.1426C281.885 49.0449 281.763 48.9473 281.763 48.8496C281.812 48.7031 281.787 48.5078 281.689 48.2637L281.396 47.9707C281.299 47.7266 281.25 47.458 281.25 47.165C281.25 46.8721 281.226 46.5791 281.177 46.2861C280.591 45.5537 280.298 44.5527 280.298 43.2832L279.565 41.7451C279.712 41.4521 279.785 41.1836 279.785 40.9395C279.785 40.6953 279.663 40.5244 279.419 40.4268C279.224 40.2803 279.126 39.9629 279.126 39.4746C279.126 38.9863 278.979 38.5225 278.687 38.083C278.394 37.6436 278.247 37.1064 278.247 36.4717C278.198 36.374 278.101 36.3252 277.954 36.3252C277.856 36.2764 277.71 36.1543 277.515 35.959C277.319 35.7148 277.124 35.4219 276.929 35.0801C276.782 34.7383 276.489 34.4453 276.05 34.2012V34.0547C275.903 34.0547 275.83 34.1035 275.83 34.2012C275.537 34.2012 275.317 34.5918 275.171 35.373C275.024 36.1543 274.756 36.7646 274.365 37.2041C274.316 37.3994 274.292 37.5947 274.292 37.79C274.341 37.9365 274.316 38.1807 274.219 38.5225C274.121 38.8643 273.999 39.3281 273.853 39.9141C273.56 40.3047 273.364 40.8174 273.267 41.4521C273.218 42.0869 273.047 42.6484 272.754 43.1367C272.705 43.3809 272.656 43.6494 272.607 43.9424C272.607 44.2354 272.559 44.5039 272.461 44.748C272.412 44.9434 272.339 45.1387 272.241 45.334C272.192 45.4805 272.144 45.6514 272.095 45.8467L271.655 49.582C271.118 50.3633 270.874 51.1934 270.923 52.0723C270.776 52.1699 270.679 52.3164 270.63 52.5117C270.63 52.6582 270.557 52.7803 270.41 52.8779C270.264 54.1475 269.702 55.832 268.726 57.9316V59.25C268.433 59.6895 268.14 60.666 267.847 62.1797C267.603 63.6934 267.48 64.5479 267.48 64.7432C267.383 64.8408 267.31 64.9873 267.261 65.1826C267.212 65.3291 267.065 65.4512 266.821 65.5488C266.87 65.6953 266.895 65.8906 266.895 66.1348L266.455 69.2842C266.895 69.6748 267.505 69.8701 268.286 69.8701L273.56 69.6504C273.853 69.6504 274.146 69.6504 274.438 69.6504L277.515 70.0166L280.151 69.8701L281.543 70.0166ZM306.519 43.3564L306.299 44.4551C306.299 44.9922 306.592 45.4072 307.178 45.7002C307.324 45.6514 307.568 45.4805 307.91 45.1875C308.252 44.8457 308.789 44.3818 309.521 43.7959C310.254 43.1611 310.669 42.6729 310.767 42.3311C311.157 42.0869 311.621 41.7451 312.158 41.3057C312.695 40.8174 313.013 40.5 313.11 40.3535H313.403C314.331 39.4258 315.454 38.791 316.772 38.4492C318.14 38.0586 319.043 37.8633 319.482 37.8633C320.898 37.8633 322.07 38.4004 322.998 39.4746C323.193 39.7676 323.389 40.085 323.584 40.4268C323.828 40.7197 324.146 41.0615 324.536 41.4521C324.829 41.6475 325.024 42.1113 325.122 42.8438C325.269 43.5273 325.439 44.0156 325.635 44.3086C325.537 44.5039 325.391 44.7969 325.195 45.1875C325.049 45.5293 324.854 45.8955 324.609 46.2861C324.414 46.6279 324.219 46.9697 324.023 47.3115C323.877 47.6045 323.73 47.7998 323.584 47.8975C323.486 47.9951 323.218 48.1904 322.778 48.4834C322.339 48.7275 322.046 48.9961 321.899 49.2891C321.851 49.3379 321.606 49.4111 321.167 49.5088C320.776 49.6064 320.532 49.7041 320.435 49.8018H320.288C320.142 49.8506 320.044 49.8018 319.995 49.6553C319.995 49.5088 319.946 49.3867 319.849 49.2891H319.556C319.165 49.2891 318.896 49.1914 318.75 48.9961L318.091 48.4102C318.384 47.6289 318.774 46.9941 319.263 46.5059C319.653 46.6035 320.02 46.6523 320.361 46.6523C321.143 46.6523 321.753 45.9688 322.192 44.6016C321.899 44.1133 321.68 43.6494 321.533 43.21C321.436 42.7705 321.24 42.2822 320.947 41.7451C320.654 41.1592 320.02 40.8662 319.043 40.8662C318.115 40.8662 317.358 41.1104 316.772 41.5986C316.187 42.0381 315.82 42.5264 315.674 43.0635C315.234 43.2588 314.844 43.5762 314.502 44.0156C314.16 44.4062 313.721 44.7725 313.184 45.1143C312.646 45.4561 312.378 45.6758 312.378 45.7734C312.378 45.8223 312.354 45.8711 312.305 45.9199C312.305 45.9688 312.231 46.0176 312.085 46.0664C311.987 46.1152 311.792 46.2129 311.499 46.3594C311.401 46.5059 311.328 46.6768 311.279 46.8721C311.23 47.0186 311.157 47.1895 311.06 47.3848C310.815 47.4336 310.596 47.5557 310.4 47.751C310.254 47.8975 310.059 47.9951 309.814 48.0439L309.888 48.7031C309.888 49.3379 309.448 50.0947 308.569 50.9736L308.862 51.9258V51.999C308.667 52.292 308.521 52.6338 308.423 53.0244C308.374 53.415 308.203 53.7324 307.91 53.9766C307.666 55.1973 307.544 56.6133 307.544 58.2246L307.617 64.0107C307.617 64.2549 307.642 64.6455 307.69 65.1826C307.739 65.6709 307.788 66.4033 307.837 67.3799C307.935 68.3564 308.081 69.0156 308.276 69.3574L308.203 69.6504C308.252 69.748 308.276 70.041 308.276 70.5293C308.276 70.9688 308.35 71.457 308.496 71.9941C308.691 72.4824 308.716 73.0195 308.569 73.6055C308.716 73.9961 309.106 74.1914 309.741 74.1914C310.376 74.1914 310.815 74.0938 311.06 73.8984H311.133C311.328 73.8984 311.401 73.8252 311.353 73.6787C311.353 73.5322 311.401 73.3857 311.499 73.2393C311.694 73.1416 311.938 73.0928 312.231 73.0928C312.573 73.0928 312.842 73.2881 313.037 73.6787C313.232 74.0693 313.33 74.4355 313.33 74.7773C313.33 75.0703 313.306 75.29 313.257 75.4365C312.817 75.7783 312.329 75.9248 311.792 75.876C311.646 75.9736 311.475 76.1201 311.279 76.3154C311.133 76.4619 310.913 76.6084 310.62 76.7549C310.327 76.9014 309.741 76.9746 308.862 76.9746C307.983 76.9258 307.349 76.9746 306.958 77.1211C306.616 77.2188 306.396 77.292 306.299 77.3408C306.25 77.3896 306.079 77.4629 305.786 77.5605C305.542 77.6094 305.2 77.6338 304.761 77.6338C304.321 77.6338 303.931 77.7803 303.589 78.0732H303.442C303.296 78.0732 303.198 78.0488 303.149 78C303.101 77.9023 303.027 77.8291 302.93 77.7803C302.441 77.8779 302.051 77.9268 301.758 77.9268C301.465 77.9268 301.245 77.8779 301.099 77.7803C301.196 76.4619 302.222 75.583 304.175 75.1436C304.175 74.8994 304.272 74.7529 304.468 74.7041V74.5576C304.468 74.0205 304.37 73.4834 304.175 72.9463C303.979 72.4092 303.882 71.8477 303.882 71.2617L304.028 70.3096L303.589 67.9658L303.735 66.6475L303.296 62.3994L303.442 59.3965C303.442 59.1035 303.442 58.8105 303.442 58.5176L303.003 56.4668L303.149 55.2217L303.003 52.8779L303.149 51.1201L302.93 48.5566C302.881 47.9707 302.856 47.3848 302.856 46.7988C302.905 46.2129 302.93 45.627 302.93 45.041L302.71 43.6494C302.71 43.0635 302.661 42.3799 302.563 41.5986C302.271 41.6963 301.929 41.7207 301.538 41.6719C301.196 41.5742 300.928 41.7207 300.732 42.1113C300.537 41.9648 300.415 41.8916 300.366 41.8916L299.268 42.3311C299.219 42.0869 299.072 41.9893 298.828 42.0381C298.633 42.0869 298.462 42.1113 298.315 42.1113H298.242C298.145 41.6719 298.096 41.3789 298.096 41.2324C298.096 40.4512 298.486 40.0605 299.268 40.0605L300.146 39.8408C301.709 39.4014 302.832 39.0596 303.516 38.8154C304.248 38.5713 304.712 38.4736 304.907 38.5225C305.103 38.5713 305.298 38.7422 305.493 39.0352C305.688 39.3281 305.835 39.6455 305.933 39.9873C306.03 40.3291 306.079 40.6953 306.079 41.0859C306.128 41.4277 306.177 41.7695 306.226 42.1113L306.519 43.3564ZM345.41 65.7686L346.655 65.6221C346.899 65.6221 347.119 65.7197 347.314 65.915C347.559 66.1104 347.852 66.1592 348.193 66.0615C348.34 66.4033 348.706 66.6963 349.292 66.9404C349.341 67.3799 349.634 67.7217 350.171 67.9658C350.22 68.3564 350.317 68.6982 350.464 68.9912C350.61 69.2354 350.659 69.5527 350.61 69.9434V70.0898L350.391 70.2363C350.391 70.334 350.415 70.3828 350.464 70.3828C350.562 70.3828 350.61 70.5293 350.61 70.8223C350.61 71.0664 350.488 71.4814 350.244 72.0674C350.049 72.6533 349.829 73.1172 349.585 73.459C349.487 74.1426 349.292 74.7041 348.999 75.1436C348.706 75.5342 348.438 76.0225 348.193 76.6084C347.754 76.6572 347.363 76.8525 347.021 77.1943C346.68 77.5361 346.436 77.707 346.289 77.707C346.143 77.6582 345.923 77.707 345.63 77.8535C345.386 78 345.19 78.2441 345.044 78.5859L344.678 78.4395C344.531 78.4395 344.409 78.5127 344.312 78.6592C344.214 78.8545 344.019 78.9766 343.726 79.0254C343.433 79.123 343.042 79.1475 342.554 79.0986C342.065 79.0986 341.577 79.2207 341.089 79.4648C340.454 78.9277 339.893 78.6836 339.404 78.7324C339.307 78.3906 339.062 78.1465 338.672 78C338.281 77.9023 337.915 77.7803 337.573 77.6338C337.28 77.4385 336.987 77.2188 336.694 76.9746C336.45 76.7305 336.157 76.5352 335.815 76.3887C335.767 76.0957 335.645 75.9004 335.449 75.8027C335.254 75.6562 335.181 75.3877 335.229 74.9971L334.424 74.6309V74.3379C334.424 73.6055 334.326 73.1172 334.131 72.873C333.984 72.6289 333.862 72.3359 333.765 71.9941C333.716 71.6523 333.691 71.3594 333.691 71.1152C333.74 70.8223 333.765 70.5293 333.765 70.2363C333.765 69.8945 333.667 69.4551 333.472 68.918C333.276 68.3809 333.179 67.917 333.179 67.5264C333.228 67.0869 333.203 66.5742 333.105 65.9883C333.057 65.4023 332.959 64.6699 332.812 63.791C332.666 62.9121 332.544 62.1309 332.446 61.4473C332.349 60.7148 332.324 60.1045 332.373 59.6162C332.422 59.0791 332.446 58.5664 332.446 58.0781V56.833C332.446 56.1982 332.373 55.7344 332.227 55.4414C332.129 55.1484 332.08 54.9287 332.08 54.7822L332.373 53.2441L332.08 52.4385L332.373 50.3877L332.446 47.6777C332.446 46.2129 332.251 45.2119 331.86 44.6748C331.519 44.1377 331.201 43.8691 330.908 43.8691C330.664 43.8691 330.396 43.9668 330.103 44.1621C329.81 44.3574 329.443 44.4307 329.004 44.3818C328.613 44.333 328.296 44.3086 328.052 44.3086L327.539 44.3818L326.44 44.1621C326.147 43.5762 326.001 43.1367 326.001 42.8438C326.001 42.5508 326.074 42.3066 326.221 42.1113C326.367 41.916 326.489 41.6963 326.587 41.4521C326.929 41.3545 327.368 41.3057 327.905 41.3057C328.491 41.3057 328.906 41.1592 329.15 40.8662C329.297 41.0127 329.492 41.0859 329.736 41.0859C329.98 41.0859 330.225 41.0371 330.469 40.9395C330.713 40.8418 330.981 40.8174 331.274 40.8662C331.714 40.1826 331.934 39.2793 331.934 38.1562L331.567 33.249L331.714 32.0771L331.567 30.9785C331.665 30.6855 331.714 30.4902 331.714 30.3926L331.567 29.9531C331.567 29.8066 331.665 29.416 331.86 28.7812C332.104 28.0977 332.275 27.6094 332.373 27.3164C332.471 26.9746 332.544 26.7305 332.593 26.584C332.69 26.4375 332.812 26.291 332.959 26.1445C333.105 25.998 333.179 25.8271 333.179 25.6318H333.472L333.911 25.4854C334.937 25.4854 335.449 26.0957 335.449 27.3164V28.2686C335.449 28.708 335.571 29.1719 335.815 29.6602C335.864 31.3691 336.011 33.0781 336.255 34.7871C336.499 36.4473 336.67 38.1562 336.768 39.9141C337.207 40.207 337.72 40.3535 338.306 40.3535L341.016 40.0605C341.748 40.0605 342.212 40.207 342.407 40.5C342.603 40.7441 342.798 40.8662 342.993 40.8662L342.92 41.0859L343.14 41.8916C343.14 42.4287 342.92 42.7949 342.48 42.9902C342.041 43.1855 341.65 43.4053 341.309 43.6494C339.941 43.1123 339.014 42.8438 338.525 42.8438C338.037 42.8438 337.646 42.917 337.354 43.0635C337.207 43.3564 337.134 43.625 337.134 43.8691L337.5 45.5537L337.207 48.6299L337.5 50.0947L337.354 51.5596L337.5 54.123L337.207 56.54C337.207 58.0537 337.402 58.9082 337.793 59.1035C337.842 59.1523 337.866 59.2744 337.866 59.4697L337.793 61.96L338.379 69.6504L338.232 70.8955C338.232 71.2373 338.33 71.7012 338.525 72.2871C338.721 72.873 338.867 73.3369 338.965 73.6787C339.062 74.0205 339.16 74.2646 339.258 74.4111C339.355 74.5088 339.502 74.582 339.697 74.6309C339.893 74.6797 340.039 74.7529 340.137 74.8506C340.283 74.9482 340.356 75.0459 340.356 75.1436C340.356 75.2412 340.405 75.3633 340.503 75.5098C340.601 75.6562 340.845 75.8271 341.235 76.0225C341.626 76.2178 342.017 76.3154 342.407 76.3154C342.847 76.3154 343.286 76.2178 343.726 76.0225C344.214 75.8271 344.629 75.6318 344.971 75.4365C345.312 75.1924 345.63 74.9727 345.923 74.7773C346.216 74.5332 346.533 74.3867 346.875 74.3379L346.802 74.1914C346.802 73.9961 346.899 73.8252 347.095 73.6787C347.339 73.4834 347.51 73.2393 347.607 72.9463L347.827 71.042C347.827 69.9189 347.51 69.3574 346.875 69.3574C346.289 69.3574 345.923 69.5527 345.776 69.9434C345.679 70.334 345.508 70.7246 345.264 71.1152C345.02 71.2617 344.751 71.335 344.458 71.335C343.628 71.335 342.944 70.9199 342.407 70.0898V69.4307C342.407 69.1377 342.505 68.9912 342.7 68.9912C342.603 68.8936 342.554 68.7715 342.554 68.625V67.6729C342.651 67.3311 342.969 67.0137 343.506 66.7207C344.092 66.4277 344.507 66.208 344.751 66.0615C345.044 65.915 345.264 65.8174 345.41 65.7686ZM418.726 35.5928L418.579 36.252C418.677 36.3496 418.726 36.5205 418.726 36.7646C418.726 36.96 418.652 37.2773 418.506 37.7168C418.359 38.1074 418.237 38.5225 418.14 38.9619C418.042 39.4014 417.993 39.9141 417.993 40.5C417.993 41.0859 417.92 41.623 417.773 42.1113C417.627 42.5996 417.407 43.0146 417.114 43.3564C416.87 43.6494 416.772 43.9912 416.821 44.3818H416.675C416.528 44.3818 416.431 44.4795 416.382 44.6748C416.382 44.8213 416.333 44.9678 416.235 45.1143C416.187 45.2607 416.04 45.4316 415.796 45.627C415.552 45.8223 415.381 45.9932 415.283 46.1396L414.697 47.0918C414.6 47.2383 414.453 47.3848 414.258 47.5312C414.111 47.6289 414.038 47.7754 414.038 47.9707V48.1172C413.501 48.3125 413.135 48.752 412.939 49.4355C412.598 49.4844 412.183 49.8262 411.694 50.4609C411.597 50.4609 411.377 50.5342 411.035 50.6807C410.693 50.7783 410.474 50.876 410.376 50.9736V51.2666C410.278 51.4131 410.181 51.4619 410.083 51.4131C409.985 51.3154 409.888 51.3398 409.79 51.4863C409.692 51.584 409.644 51.6816 409.644 51.7793C409.644 51.877 409.595 51.9746 409.497 52.0723H408.618C408.276 52.2676 407.983 52.585 407.739 53.0244L406.641 53.4639C406.787 53.9033 407.153 54.1719 407.739 54.2695C407.983 54.709 408.374 55.0264 408.911 55.2217C409.204 55.8564 409.79 56.4912 410.669 57.126C411.597 57.7119 412.354 58.6885 412.939 60.0557C413.574 61.4229 413.892 62.6924 413.892 63.8643C413.892 64.9873 413.574 65.7441 412.939 66.1348C412.988 66.1836 413.013 66.3301 413.013 66.5742C413.013 66.7695 412.964 67.0137 412.866 67.3066C412.769 67.5508 412.695 67.7949 412.646 68.0391C412.451 68.1367 412.28 68.2588 412.134 68.4053C411.987 68.5029 411.792 68.5762 411.548 68.625C411.401 68.7227 411.353 68.8936 411.401 69.1377C411.45 69.333 411.401 69.4795 411.255 69.5771C411.255 69.6748 411.182 69.7236 411.035 69.7236C410.938 69.6748 410.864 69.6504 410.815 69.6504L410.596 69.7236C410.547 69.7725 410.522 69.8457 410.522 69.9434C410.571 69.9922 410.547 70.0654 410.449 70.1631C410.4 70.2607 410.327 70.3096 410.229 70.3096C410.181 70.2607 410.107 70.2852 410.01 70.3828C409.961 70.4316 409.937 70.5049 409.937 70.6025C409.985 70.6514 409.937 70.749 409.79 70.8955C409.692 71.042 409.497 71.1641 409.204 71.2617C408.96 71.3594 408.765 71.5791 408.618 71.9209H408.472C408.032 71.8721 407.739 71.9697 407.593 72.2139C407.446 72.4092 407.275 72.5801 407.08 72.7266C406.934 72.873 406.763 72.9463 406.567 72.9463C406.421 72.9463 406.25 72.9951 406.055 73.0928C405.908 73.1416 405.859 73.2148 405.908 73.3125C406.006 73.3613 405.957 73.3857 405.762 73.3857C405.469 73.3857 405.127 73.5811 404.736 73.9717C404.346 74.2158 403.955 74.4355 403.564 74.6309C403.174 74.7773 402.808 75.0215 402.466 75.3633H401.88C401.538 75.3633 401.343 75.4121 401.294 75.5098C401.001 75.5098 400.806 75.6074 400.708 75.8027C400.659 75.998 400.562 76.1689 400.415 76.3154C400.317 76.3643 400.122 76.4863 399.829 76.6816C399.536 76.877 399.072 77.1211 398.438 77.4141C397.852 77.6582 397.461 77.8779 397.266 78.0732H397.046C396.899 78.1709 396.729 78.1221 396.533 77.9268C396.436 77.9756 396.387 78.0732 396.387 78.2197C396.387 78.3662 396.338 78.4639 396.24 78.5127C395.996 78.3662 395.679 78.293 395.288 78.293C394.946 78.293 394.556 78.4395 394.116 78.7324C393.726 79.0742 393.237 79.2451 392.651 79.2451H392.212C391.919 78.9521 391.772 78.5615 391.772 78.0732C391.772 77.585 391.846 77.2188 391.992 76.9746C392.188 76.6816 392.407 76.4863 392.651 76.3887C392.944 76.2422 393.213 76.1445 393.457 76.0957C393.701 76.0469 393.921 75.9004 394.116 75.6562L394.189 72.0674C394.189 71.9697 394.214 71.9209 394.263 71.9209C394.312 71.9209 394.336 71.8721 394.336 71.7744L394.116 71.042C394.116 70.7979 394.165 70.627 394.263 70.5293C394.263 69.9434 394.116 69.0645 393.823 67.8926C393.579 66.7207 393.457 65.3779 393.457 63.8643C393.506 62.3506 393.433 61.1299 393.237 60.2021L393.384 59.543L393.091 58.8105L393.237 58.0781L392.871 54.1963C392.871 53.9521 392.944 53.708 393.091 53.4639C392.7 52.0479 392.505 50.9004 392.505 50.0215L392.578 47.3115C392.578 47.0674 392.578 46.8232 392.578 46.5791C392.578 46.335 392.554 46.0908 392.505 45.8467L392.212 44.748L392.358 43.7959C392.358 43.1123 392.236 42.4043 391.992 41.6719C391.797 40.9395 391.699 40.1582 391.699 39.3281L391.919 37.6436C391.919 37.4971 391.87 37.3506 391.772 37.2041C391.724 37.0576 391.675 36.8867 391.626 36.6914C391.577 36.4961 391.553 36.2764 391.553 36.0322C391.602 35.7881 391.626 35.5439 391.626 35.2998L391.553 33.7617C391.553 33.2734 391.626 32.8828 391.772 32.5898C391.626 32.1992 391.553 31.8086 391.553 31.418C391.553 31.0273 391.553 30.6367 391.553 30.2461L391.333 28.4883L391.626 27.9023V27.6826C391.479 27.0479 391.406 26.3887 391.406 25.7051C391.455 24.9727 391.406 24.3135 391.26 23.7275C391.016 22.458 390.039 21.8232 388.33 21.8232L384.595 22.043H384.302C384.106 21.5547 384.009 20.9932 384.009 20.3584V19.9922C384.351 19.748 384.741 19.6016 385.181 19.5527C387.524 19.4551 389.502 19.2598 391.113 18.9668C392.773 18.6738 393.701 18.5029 393.896 18.4541C394.092 18.3564 394.287 18.3076 394.482 18.3076L395.508 18.4541L398.584 18.3076L402.1 18.7471C402.637 18.7471 403.149 18.8936 403.638 19.1865C404.126 19.4307 404.565 19.6016 404.956 19.6992C405.347 19.7969 405.64 19.8457 405.835 19.8457C406.03 19.7969 406.226 19.7969 406.421 19.8457C408.276 20.5781 409.448 21.1885 409.937 21.6768L410.156 21.6035C410.742 21.6035 411.279 21.7988 411.768 22.1895C412.256 22.5312 412.573 22.8486 412.72 23.1416C412.915 23.4346 413.11 23.7031 413.306 23.9473C413.501 24.1426 413.77 24.3867 414.111 24.6797C414.453 24.9238 414.697 25.1436 414.844 25.3389C415.039 25.5342 415.161 25.7051 415.21 25.8516C415.259 25.998 415.381 26.2178 415.576 26.5107C415.771 26.7549 415.967 26.9746 416.162 27.1699C416.406 27.3652 416.602 27.6338 416.748 27.9756C416.895 28.3174 416.968 28.6104 416.968 28.8545C416.968 29.0498 416.992 29.2695 417.041 29.5137C417.139 29.709 417.236 29.8799 417.334 30.0264C417.48 30.124 417.578 30.2705 417.627 30.4658L417.554 31.125C417.554 31.418 417.651 31.833 417.847 32.3701C418.042 32.8584 418.188 33.249 418.286 33.542C418.384 33.7861 418.481 33.957 418.579 34.0547C418.481 34.1523 418.433 34.2744 418.433 34.4209L418.726 35.5928ZM413.672 38.6689L413.965 36.3252L413.818 35.1533C413.916 35.0557 413.965 34.958 413.965 34.8604C413.965 34.7139 413.916 34.5918 413.818 34.4941C413.77 34.3965 413.696 34.2744 413.599 34.1279C413.55 33.9814 413.452 33.5664 413.306 32.8828C413.159 32.1504 413.086 31.7109 413.086 31.5645C413.086 31.3691 413.135 31.125 413.232 30.832C412.744 30.1973 412.402 29.3916 412.207 28.415C411.963 28.2686 411.792 28.0732 411.694 27.8291C411.646 27.585 411.523 27.3652 411.328 27.1699C411.182 26.9258 410.986 26.7061 410.742 26.5107C410.547 26.3154 410.449 26.0225 410.449 25.6318C409.375 25.1436 408.594 24.582 408.105 23.9473C408.105 24.1914 407.959 24.3135 407.666 24.3135C407.178 24.1182 406.787 23.9229 406.494 23.7275C406.201 23.4834 405.762 23.3857 405.176 23.4346C404.736 23.1416 404.37 22.8242 404.077 22.4824C403.784 22.1406 403.418 21.9697 402.979 21.9697C402.588 21.9697 402.319 21.9941 402.173 22.043C401.196 21.8477 400.171 21.75 399.097 21.75C398.071 21.75 397.412 21.8232 397.119 21.9697C396.875 22.0674 396.68 22.1162 396.533 22.1162C396.387 22.0674 396.167 22.043 395.874 22.043C395.63 22.043 395.459 22.0918 395.361 22.1895C395.312 22.2871 395.288 22.4336 395.288 22.6289L395.508 24.0205L395.215 24.9727L395.361 28.3418C395.361 28.7324 395.41 29.0254 395.508 29.2207C395.654 29.416 395.728 29.6113 395.728 29.8066L395.508 30.4658L395.801 31.0518L395.728 31.5645C395.728 31.6621 395.752 31.833 395.801 32.0771C395.898 32.2725 395.923 32.541 395.874 32.8828C395.825 33.1758 395.801 33.4443 395.801 33.6885L396.24 37.2041C396.289 37.4482 396.289 37.6924 396.24 37.9365C396.24 38.1318 396.24 38.3516 396.24 38.5957L396.68 42.4043L396.533 42.9902L396.973 44.2354L396.826 44.6748C396.826 45.1143 396.924 45.5293 397.119 45.9199C397.314 46.3105 397.412 46.7012 397.412 47.0918L397.266 48.7764C397.266 49.6064 397.412 51.1201 397.705 53.3174C397.949 53.5615 398.169 53.6836 398.364 53.6836C398.608 53.6348 398.877 53.6104 399.17 53.6104L399.976 53.7568C400.806 53.7568 402.49 53.2441 405.029 52.2188C405.518 51.9746 405.981 51.6328 406.421 51.1934C406.86 50.7051 407.349 50.4609 407.886 50.4609C408.374 49.7773 408.96 49.2402 409.644 48.8496C409.839 48.5566 410.107 48.2148 410.449 47.8242C411.67 46.4082 412.451 45.0166 412.793 43.6494C412.842 43.5518 412.891 43.4785 412.939 43.4297C412.988 43.332 413.037 43.2344 413.086 43.1367C413.135 42.9902 413.135 42.8438 413.086 42.6973C413.086 42.5508 413.086 42.3311 413.086 42.0381C413.086 41.7451 413.208 41.4033 413.452 41.0127C413.696 40.5732 413.818 40.1338 413.818 39.6943L413.672 38.6689ZM409.79 64.4502L409.937 63.4248C409.937 63.0342 409.814 62.7168 409.57 62.4727C409.375 62.1797 409.302 61.8379 409.351 61.4473C409.106 61.252 408.936 61.0322 408.838 60.7881C408.74 60.5439 408.594 60.2998 408.398 60.0557C406.445 58.2979 405.469 57.3213 405.469 57.126C405.469 56.8818 405.42 56.7109 405.322 56.6133C404.004 56.2227 403.052 56.0273 402.466 56.0273C401.88 56.0273 401.196 56.2227 400.415 56.6133H399.976C399.39 56.6133 398.853 56.7109 398.364 56.9062C398.315 57.4922 398.169 58.0049 397.925 58.4443C397.729 58.835 397.632 59.2988 397.632 59.8359C397.632 60.3242 397.656 60.8125 397.705 61.3008C397.803 61.7402 397.876 62.2529 397.925 62.8389C398.022 63.4248 398.047 64.0596 397.998 64.7432C397.998 65.3779 398.022 65.915 398.071 66.3545C398.12 66.7939 398.169 67.1113 398.218 67.3066C398.315 67.502 398.364 67.6973 398.364 67.8926L398.218 68.4785L398.364 68.9912L398.218 70.4561L398.511 71.8477L398.364 73.0195C398.364 73.2637 398.486 73.5322 398.73 73.8252H399.023C399.414 73.8252 399.731 73.752 399.976 73.6055C400.22 73.459 400.562 73.4346 401.001 73.5322C401.245 73.1416 401.587 72.8975 402.026 72.7998C402.515 72.6533 402.93 72.4824 403.271 72.2871L403.418 72.0674C403.613 71.9697 403.809 71.9209 404.004 71.9209C404.199 71.8721 404.395 71.8232 404.59 71.7744C405.225 70.8955 406.03 70.2119 407.007 69.7236C407.153 69.4795 407.324 69.3086 407.52 69.2109C408.008 68.9668 408.252 68.6738 408.252 68.332C408.252 68.1855 408.447 67.8193 408.838 67.2334C409.277 66.5986 409.595 65.6709 409.79 64.4502ZM442.969 42.624C443.311 42.624 443.481 42.7705 443.481 43.0635C443.481 43.1611 443.579 43.332 443.774 43.5762C444.019 43.8203 444.214 43.9912 444.36 44.0889C444.556 44.1377 444.653 44.4795 444.653 45.1143V45.334L444.946 45.627C445.142 46.1641 445.264 46.7256 445.312 47.3115C445.361 47.8486 445.508 48.4102 445.752 48.9961C445.654 49.0938 445.532 49.3379 445.386 49.7285C445.239 50.0703 445.166 50.3145 445.166 50.4609C445.166 50.6074 445.239 50.7051 445.386 50.7539C445.532 50.8027 445.605 50.998 445.605 51.3398C445.605 51.6328 445.483 51.9746 445.239 52.3652C445.044 52.707 444.946 53.0732 444.946 53.4639L445.02 54.123C445.02 54.5137 444.873 54.9287 444.58 55.3682C444.336 55.7588 444.019 56.0029 443.628 56.1006C443.53 56.1982 443.481 56.2959 443.481 56.3936C443.53 56.4424 443.555 56.54 443.555 56.6865C443.555 56.833 443.481 56.9307 443.335 56.9795V57.0527C443.335 57.1504 443.188 57.2725 442.896 57.4189C442.651 57.5654 442.407 57.7607 442.163 58.0049C441.968 58.249 441.748 58.4688 441.504 58.6641V58.957C441.504 59.25 441.406 59.4697 441.211 59.6162C441.064 59.7139 440.967 59.8848 440.918 60.1289C439.941 60.6172 439.209 61.1055 438.721 61.5938H437.549C437.354 61.5938 437.134 61.6914 436.89 61.8867C436.646 62.082 436.401 62.2285 436.157 62.3262C435.962 62.4238 435.693 62.4971 435.352 62.5459C435.059 62.5459 434.79 62.5703 434.546 62.6191L434.399 62.4727C434.399 62.5703 434.326 62.6191 434.18 62.6191L433.154 62.3262L431.25 62.4727L429.346 62.0332C429.248 61.8379 429.126 61.667 428.979 61.5205C428.833 61.374 428.711 61.1787 428.613 60.9346L427.368 60.5684C427.271 60.4707 427.173 60.3486 427.075 60.2021C427.026 60.0068 426.904 59.9092 426.709 59.9092C426.562 59.9092 426.416 59.9336 426.27 59.9824C426.123 59.8359 426.074 59.6895 426.123 59.543C426.172 59.3965 426.074 59.3232 425.83 59.3232C425.586 59.3232 425.464 59.2256 425.464 59.0303C425.464 58.835 425.342 58.7617 425.098 58.8105C425.049 58.6152 424.976 58.4443 424.878 58.2979C424.438 57.6631 424.219 57.126 424.219 56.6865C424.121 56.4912 423.999 56.3691 423.853 56.3203C423.706 56.2715 423.584 56.1982 423.486 56.1006C422.51 53.9521 422.021 52.3164 422.021 51.1934C422.021 50.0703 422.07 49.2646 422.168 48.7764C422.314 48.2393 422.461 47.751 422.607 47.3115C422.803 46.8721 423.022 46.4326 423.267 45.9932C423.511 45.5537 423.73 45.0166 423.926 44.3818C424.316 44.2354 424.561 43.9668 424.658 43.5762C424.805 43.1855 424.951 42.9414 425.098 42.8438C425.293 42.7461 425.415 42.6973 425.464 42.6973C425.562 42.6973 425.635 42.6729 425.684 42.624C425.781 42.5264 425.806 42.4531 425.757 42.4043C425.757 42.3066 425.781 42.209 425.83 42.1113C425.928 41.9648 426.147 41.7451 426.489 41.4521C426.88 41.1104 427.124 40.8906 427.222 40.793C427.368 40.6953 427.515 40.6465 427.661 40.6465C427.856 40.5977 428.052 40.5244 428.247 40.4268C428.442 40.3291 428.662 40.207 428.906 40.0605C429.199 39.9141 429.59 39.792 430.078 39.6943C430.615 39.5479 431.226 39.4502 431.909 39.4014C432.593 39.3525 433.252 39.1328 433.887 38.7422C434.473 38.9863 435.083 39.1816 435.718 39.3281C436.353 39.4258 436.963 39.5479 437.549 39.6943C437.598 39.9385 437.671 40.1338 437.769 40.2803C437.866 40.3779 437.939 40.5488 437.988 40.793L440.479 40.4268C440.723 40.4268 441.162 40.7197 441.797 41.3057C442.432 41.8428 442.7 42.2334 442.603 42.4775C442.7 42.5752 442.822 42.624 442.969 42.624ZM436.304 59.3232C436.841 58.9326 437.354 58.7617 437.842 58.8105C437.939 58.5664 438.086 58.4199 438.281 58.3711C438.525 58.2734 438.794 58.1025 439.087 57.8584C439.429 57.5654 439.722 57.1992 439.966 56.7598C440.21 56.2715 440.552 55.9053 440.991 55.6611C441.089 55.2705 441.26 54.9531 441.504 54.709C441.748 54.416 441.968 54.1475 442.163 53.9033C442.407 53.6104 442.554 53.2686 442.603 52.8779C442.7 52.4385 442.798 51.877 442.896 51.1934C442.993 50.5098 443.042 49.8262 443.042 49.1426C443.042 48.459 442.92 47.9951 442.676 47.751C442.48 47.5068 442.358 47.2383 442.31 46.9453C442.261 46.6523 442.236 46.4326 442.236 46.2861C442.285 46.0908 442.31 45.8711 442.31 45.627V45.4072C442.017 45.1143 441.724 44.8945 441.431 44.748C441.187 44.5527 440.942 44.333 440.698 44.0889C439.575 44.04 438.525 43.8203 437.549 43.4297C436.621 43.0391 435.62 42.7705 434.546 42.624C434.009 42.2822 433.521 42.1113 433.081 42.1113C432.642 42.1113 432.349 42.1357 432.202 42.1846C432.056 42.1846 431.934 42.209 431.836 42.2578C431.738 42.3066 431.641 42.3799 431.543 42.4775C431.445 42.5264 431.299 42.5996 431.104 42.6973C430.957 42.7461 430.786 42.7705 430.591 42.7705C430.444 42.7217 430.249 42.7461 430.005 42.8438C429.81 42.8926 429.565 43.0146 429.272 43.21C429.028 43.4053 428.784 43.5518 428.54 43.6494C428.442 43.9912 428.271 44.2842 428.027 44.5283C427.832 44.7236 427.612 45.1875 427.368 45.9199C427.173 46.6035 427.075 47.1895 427.075 47.6777C427.075 48.1172 427.246 49.1914 427.588 50.9004L427.441 51.0469C427.539 51.4863 427.637 51.877 427.734 52.2188C427.881 52.5117 427.979 52.7803 428.027 53.0244C428.125 53.2686 428.149 53.4639 428.101 53.6104C428.101 53.708 428.101 53.8301 428.101 53.9766L428.394 55.1484V55.2217L428.687 55.5146V55.8076C428.687 55.9053 428.76 56.0518 428.906 56.2471C429.053 56.3936 429.126 56.6621 429.126 57.0527C429.419 57.248 429.712 57.541 430.005 57.9316C430.298 58.2734 430.591 58.542 430.884 58.7373C431.226 58.9326 431.714 59.0791 432.349 59.1768C432.983 59.2256 433.569 59.3721 434.106 59.6162C434.888 59.4209 435.62 59.3232 436.304 59.3232ZM473.73 42.624C474.072 42.624 474.243 42.7705 474.243 43.0635C474.243 43.1611 474.341 43.332 474.536 43.5762C474.78 43.8203 474.976 43.9912 475.122 44.0889C475.317 44.1377 475.415 44.4795 475.415 45.1143V45.334L475.708 45.627C475.903 46.1641 476.025 46.7256 476.074 47.3115C476.123 47.8486 476.27 48.4102 476.514 48.9961C476.416 49.0938 476.294 49.3379 476.147 49.7285C476.001 50.0703 475.928 50.3145 475.928 50.4609C475.928 50.6074 476.001 50.7051 476.147 50.7539C476.294 50.8027 476.367 50.998 476.367 51.3398C476.367 51.6328 476.245 51.9746 476.001 52.3652C475.806 52.707 475.708 53.0732 475.708 53.4639L475.781 54.123C475.781 54.5137 475.635 54.9287 475.342 55.3682C475.098 55.7588 474.78 56.0029 474.39 56.1006C474.292 56.1982 474.243 56.2959 474.243 56.3936C474.292 56.4424 474.316 56.54 474.316 56.6865C474.316 56.833 474.243 56.9307 474.097 56.9795V57.0527C474.097 57.1504 473.95 57.2725 473.657 57.4189C473.413 57.5654 473.169 57.7607 472.925 58.0049C472.729 58.249 472.51 58.4688 472.266 58.6641V58.957C472.266 59.25 472.168 59.4697 471.973 59.6162C471.826 59.7139 471.729 59.8848 471.68 60.1289C470.703 60.6172 469.971 61.1055 469.482 61.5938H468.311C468.115 61.5938 467.896 61.6914 467.651 61.8867C467.407 62.082 467.163 62.2285 466.919 62.3262C466.724 62.4238 466.455 62.4971 466.113 62.5459C465.82 62.5459 465.552 62.5703 465.308 62.6191L465.161 62.4727C465.161 62.5703 465.088 62.6191 464.941 62.6191L463.916 62.3262L462.012 62.4727L460.107 62.0332C460.01 61.8379 459.888 61.667 459.741 61.5205C459.595 61.374 459.473 61.1787 459.375 60.9346L458.13 60.5684C458.032 60.4707 457.935 60.3486 457.837 60.2021C457.788 60.0068 457.666 59.9092 457.471 59.9092C457.324 59.9092 457.178 59.9336 457.031 59.9824C456.885 59.8359 456.836 59.6895 456.885 59.543C456.934 59.3965 456.836 59.3232 456.592 59.3232C456.348 59.3232 456.226 59.2256 456.226 59.0303C456.226 58.835 456.104 58.7617 455.859 58.8105C455.811 58.6152 455.737 58.4443 455.64 58.2979C455.2 57.6631 454.98 57.126 454.98 56.6865C454.883 56.4912 454.761 56.3691 454.614 56.3203C454.468 56.2715 454.346 56.1982 454.248 56.1006C453.271 53.9521 452.783 52.3164 452.783 51.1934C452.783 50.0703 452.832 49.2646 452.93 48.7764C453.076 48.2393 453.223 47.751 453.369 47.3115C453.564 46.8721 453.784 46.4326 454.028 45.9932C454.272 45.5537 454.492 45.0166 454.688 44.3818C455.078 44.2354 455.322 43.9668 455.42 43.5762C455.566 43.1855 455.713 42.9414 455.859 42.8438C456.055 42.7461 456.177 42.6973 456.226 42.6973C456.323 42.6973 456.396 42.6729 456.445 42.624C456.543 42.5264 456.567 42.4531 456.519 42.4043C456.519 42.3066 456.543 42.209 456.592 42.1113C456.689 41.9648 456.909 41.7451 457.251 41.4521C457.642 41.1104 457.886 40.8906 457.983 40.793C458.13 40.6953 458.276 40.6465 458.423 40.6465C458.618 40.5977 458.813 40.5244 459.009 40.4268C459.204 40.3291 459.424 40.207 459.668 40.0605C459.961 39.9141 460.352 39.792 460.84 39.6943C461.377 39.5479 461.987 39.4502 462.671 39.4014C463.354 39.3525 464.014 39.1328 464.648 38.7422C465.234 38.9863 465.845 39.1816 466.479 39.3281C467.114 39.4258 467.725 39.5479 468.311 39.6943C468.359 39.9385 468.433 40.1338 468.53 40.2803C468.628 40.3779 468.701 40.5488 468.75 40.793L471.24 40.4268C471.484 40.4268 471.924 40.7197 472.559 41.3057C473.193 41.8428 473.462 42.2334 473.364 42.4775C473.462 42.5752 473.584 42.624 473.73 42.624ZM467.065 59.3232C467.603 58.9326 468.115 58.7617 468.604 58.8105C468.701 58.5664 468.848 58.4199 469.043 58.3711C469.287 58.2734 469.556 58.1025 469.849 57.8584C470.19 57.5654 470.483 57.1992 470.728 56.7598C470.972 56.2715 471.313 55.9053 471.753 55.6611C471.851 55.2705 472.021 54.9531 472.266 54.709C472.51 54.416 472.729 54.1475 472.925 53.9033C473.169 53.6104 473.315 53.2686 473.364 52.8779C473.462 52.4385 473.56 51.877 473.657 51.1934C473.755 50.5098 473.804 49.8262 473.804 49.1426C473.804 48.459 473.682 47.9951 473.438 47.751C473.242 47.5068 473.12 47.2383 473.071 46.9453C473.022 46.6523 472.998 46.4326 472.998 46.2861C473.047 46.0908 473.071 45.8711 473.071 45.627V45.4072C472.778 45.1143 472.485 44.8945 472.192 44.748C471.948 44.5527 471.704 44.333 471.46 44.0889C470.337 44.04 469.287 43.8203 468.311 43.4297C467.383 43.0391 466.382 42.7705 465.308 42.624C464.771 42.2822 464.282 42.1113 463.843 42.1113C463.403 42.1113 463.11 42.1357 462.964 42.1846C462.817 42.1846 462.695 42.209 462.598 42.2578C462.5 42.3066 462.402 42.3799 462.305 42.4775C462.207 42.5264 462.061 42.5996 461.865 42.6973C461.719 42.7461 461.548 42.7705 461.353 42.7705C461.206 42.7217 461.011 42.7461 460.767 42.8438C460.571 42.8926 460.327 43.0146 460.034 43.21C459.79 43.4053 459.546 43.5518 459.302 43.6494C459.204 43.9912 459.033 44.2842 458.789 44.5283C458.594 44.7236 458.374 45.1875 458.13 45.9199C457.935 46.6035 457.837 47.1895 457.837 47.6777C457.837 48.1172 458.008 49.1914 458.35 50.9004L458.203 51.0469C458.301 51.4863 458.398 51.877 458.496 52.2188C458.643 52.5117 458.74 52.7803 458.789 53.0244C458.887 53.2686 458.911 53.4639 458.862 53.6104C458.862 53.708 458.862 53.8301 458.862 53.9766L459.155 55.1484V55.2217L459.448 55.5146V55.8076C459.448 55.9053 459.521 56.0518 459.668 56.2471C459.814 56.3936 459.888 56.6621 459.888 57.0527C460.181 57.248 460.474 57.541 460.767 57.9316C461.06 58.2734 461.353 58.542 461.646 58.7373C461.987 58.9326 462.476 59.0791 463.11 59.1768C463.745 59.2256 464.331 59.3721 464.868 59.6162C465.649 59.4209 466.382 59.3232 467.065 59.3232ZM482.153 76.2422C482.397 75.998 482.544 75.876 482.593 75.876L483.105 76.0225C483.35 76.0225 483.618 75.9004 483.911 75.6562C484.253 75.4121 484.546 75.2168 484.79 75.0703L484.863 74.1914L484.57 73.0195C484.57 72.873 484.595 72.7754 484.644 72.7266C484.741 72.7266 484.79 72.6777 484.79 72.5801L484.644 71.9209L484.79 69.8701C484.79 69.7236 484.766 69.5771 484.717 69.4307C484.668 69.2354 484.546 68.7959 484.351 68.1123C484.204 67.3799 484.131 65.9395 484.131 63.791L483.984 62.7656L484.131 62.3262L483.911 61.8867L483.984 60.6416L483.838 57.126C483.789 57.0283 483.765 56.8818 483.765 56.6865L483.911 56.2471L483.618 53.9033L483.691 52.5117V50.3145L483.545 49.875V49.7285C483.691 49.6797 483.765 49.5576 483.765 49.3623L483.472 47.8975L483.545 46.2861L483.252 44.6016L483.398 43.1367L483.179 41.2324L483.545 36.5449L483.179 34.2744L483.545 32.1504L483.325 31.125L483.545 30.2461L483.398 29.3672L483.765 25.4854L483.691 25.0459C483.691 24.8506 483.789 24.7285 483.984 24.6797C483.838 24.5332 483.765 24.3135 483.765 24.0205L483.984 21.8232L483.838 17.502L484.058 15.7441L483.838 14.7188L483.984 13.5469L483.765 12.668L483.179 12.5947L480.469 13.0342C479.98 13.0342 479.614 12.9365 479.37 12.7412C479.321 12.6436 479.297 12.5215 479.297 12.375C479.297 11.6914 480.396 11.1543 482.593 10.7637C483.423 10.5684 484.253 10.3975 485.083 10.251C485.913 10.0557 486.499 9.78711 486.841 9.44531C486.987 9.49414 487.231 9.51855 487.573 9.51855L490.356 9.15234C490.698 9.15234 490.942 9.17676 491.089 9.22559C491.187 9.37207 491.357 9.54297 491.602 9.73828C491.895 9.88477 492.041 10.0801 492.041 10.3242C492.041 10.5195 491.968 10.6904 491.821 10.8369C491.675 10.9834 491.504 11.1055 491.309 11.2031C491.162 11.252 490.967 11.3252 490.723 11.4229C490.527 11.4717 490.381 11.5938 490.283 11.7891H490.137C489.697 11.7891 489.331 11.8867 489.038 12.082C488.745 12.2285 488.403 12.375 488.013 12.5215L488.086 12.8145C488.086 13.2051 487.988 13.5713 487.793 13.9131C487.646 14.2061 487.573 14.5234 487.573 14.8652C487.573 15.207 487.646 15.7441 487.793 16.4766L487.72 17.502L488.013 18.4541L487.793 20.8711L487.939 23.7275L487.72 25.4854L487.939 27.2432L487.72 28.415L488.013 29.8799C488.013 30.417 487.891 31.0029 487.646 31.6377C487.842 31.9795 487.939 32.3701 487.939 32.8096L487.793 34.2744C487.891 34.4697 487.939 34.6162 487.939 34.7139L487.72 35.1533C487.769 35.2998 487.842 35.4219 487.939 35.5195C488.037 35.6172 488.086 35.959 488.086 36.5449L487.866 40.9395L487.939 41.3057L487.793 41.7451L488.086 43.7959L487.939 44.6748L488.232 46.2861C488.33 46.8721 488.379 47.4824 488.379 48.1172V49.875L488.232 51.6328C488.232 52.2676 488.452 52.707 488.892 52.9512C490.063 52.707 490.82 52.1699 491.162 51.3398C491.602 51.1934 491.943 50.9492 492.188 50.6074C492.725 49.9238 493.359 49.5576 494.092 49.5088C494.824 49.4111 495.386 49.0449 495.776 48.4102C496.216 47.7266 496.655 47.3604 497.095 47.3115C497.534 47.2627 497.827 47.1406 497.974 46.9453C498.169 46.7012 498.315 46.5303 498.413 46.4326C498.56 46.335 498.682 46.3105 498.779 46.3594C498.877 46.4082 498.975 46.4082 499.072 46.3594C499.17 46.2617 499.219 46.1885 499.219 46.1396C499.219 46.042 499.316 45.9199 499.512 45.7734C501.562 44.3086 502.588 43.1367 502.588 42.2578C502.588 41.7695 502.393 41.4277 502.002 41.2324C501.66 41.0371 501.489 40.7686 501.489 40.4268C501.489 39.8896 501.929 39.6211 502.808 39.6211L504.492 39.6943L509.18 39.5479H509.839C510.278 40.1338 510.498 40.5977 510.498 40.9395C510.498 41.2324 510.303 41.4766 509.912 41.6719C509.326 42.0625 508.887 42.2578 508.594 42.2578C508.35 42.209 507.959 42.1846 507.422 42.1846C506.396 42.1846 505.64 42.7217 505.151 43.7959C504.175 44.3818 503.589 44.8457 503.394 45.1875C503.247 45.5293 503.052 45.749 502.808 45.8467C502.612 45.9443 502.515 46.1152 502.515 46.3594C502.124 46.457 501.709 46.7012 501.27 47.0918C500.879 47.4824 500.562 47.6777 500.317 47.6777C499.487 48.3613 498.73 48.752 498.047 48.8496C497.705 49.4355 497.144 49.9238 496.362 50.3145L496.289 50.8271C496.289 51.4619 496.46 51.9258 496.802 52.2188C497.144 52.4629 497.437 52.7803 497.681 53.1709C497.827 53.9521 498.096 54.4648 498.486 54.709L498.413 54.8555C498.413 55.0996 498.511 55.3193 498.706 55.5146C498.95 55.6611 499.121 55.8564 499.219 56.1006C499.316 56.2959 499.365 56.4912 499.365 56.6865C499.414 56.8818 499.487 57.126 499.585 57.4189C499.731 57.7119 499.927 58.0049 500.171 58.2979C500.415 58.542 500.586 58.7617 500.684 58.957C500.83 59.1523 500.879 59.2744 500.83 59.3232C500.83 59.3721 500.854 59.4453 500.903 59.543L501.196 59.6895C501.44 60.0801 501.66 60.4951 501.855 60.9346C502.051 61.374 502.344 61.7158 502.734 61.96C502.734 62.3506 502.881 62.6924 503.174 62.9854C503.467 63.2783 503.662 63.5957 503.76 63.9375C503.906 64.2305 504.004 64.499 504.053 64.7432C504.102 64.9385 504.15 65.1094 504.199 65.2559C504.492 65.6465 504.736 66.1836 504.932 66.8672C505.176 67.5508 505.298 67.9414 505.298 68.0391C505.688 68.4297 505.957 68.8691 506.104 69.3574C506.445 70.5293 506.763 71.2129 507.056 71.4082C507.349 71.8477 507.764 72.8975 508.301 74.5576L508.521 74.7041C508.618 74.8994 508.691 75.1191 508.74 75.3633C508.838 75.5586 509.009 75.8271 509.253 76.1689C509.497 76.5107 509.79 76.9746 510.132 77.5605C510.522 78.1465 510.913 78.7324 511.304 79.3184C512.183 80.5879 513.257 81.2227 514.526 81.2227C514.771 81.2227 514.917 81.1494 514.966 81.0029C515.063 80.8564 515.283 80.7832 515.625 80.7832C515.967 80.7832 516.357 80.5391 516.797 80.0508C517.236 79.5625 517.529 79.2451 517.676 79.0986C518.066 78.1221 518.262 77.3408 518.262 76.7549C518.262 76.1689 517.969 75.5098 517.383 74.7773C517.334 74.7285 517.212 74.7041 517.017 74.7041C516.821 74.7041 516.626 74.7529 516.431 74.8506C516.235 74.9482 516.016 75.0215 515.771 75.0703C515.576 75.1191 515.405 75.1191 515.259 75.0703C515.112 75.0215 514.966 74.9971 514.819 74.9971L514.087 75.1436C513.696 75.1436 513.403 74.9727 513.208 74.6309C513.062 74.2402 512.988 73.8984 512.988 73.6055C512.988 73.3125 513.013 73.166 513.062 73.166C513.159 73.1172 513.33 73.0928 513.574 73.0928C514.258 72.4092 514.917 72.0674 515.552 72.0674L517.822 72.2871C518.799 72.2871 519.36 72.5312 519.507 73.0195C519.653 73.459 519.8 73.8984 519.946 74.3379C520.142 74.7773 520.264 75.0703 520.312 75.2168C520.459 75.4121 520.532 75.6318 520.532 75.876V76.6084L520.898 78.5127C520.898 78.708 520.801 78.9521 520.605 79.2451C520.459 79.5381 520.264 79.9043 520.02 80.3438C519.775 80.7832 519.531 81.1006 519.287 81.2959C519.092 81.4912 518.677 81.8086 518.042 82.248C517.944 82.5898 517.749 82.8096 517.456 82.9072C517.212 83.0049 516.968 83.1758 516.724 83.4199H516.577L515.771 83.0537C515.43 83.0537 515.161 83.127 514.966 83.2734C514.819 83.4688 514.624 83.6152 514.38 83.7129C514.136 83.6152 513.892 83.5664 513.647 83.5664C513.403 83.5664 513.159 83.5664 512.915 83.5664L511.377 83.4199C511.133 83.4199 510.742 83.2734 510.205 82.9805C509.717 82.6875 509.399 82.4434 509.253 82.248C509.155 82.1016 509.058 82.0283 508.96 82.0283C508.423 82.0283 507.886 81.3447 507.349 79.9775C507.251 79.7334 507.202 79.5137 507.202 79.3184C507.007 79.1719 506.812 79.0498 506.616 78.9521C506.421 78.9033 506.226 78.8301 506.03 78.7324C505.884 78.6348 505.737 78.4883 505.591 78.293C505.493 78.1465 505.371 78.0244 505.225 77.9268C505.127 77.7803 505.054 77.6338 505.005 77.4873C505.005 77.292 504.956 77.1455 504.858 77.0479C504.761 76.9014 504.639 76.8037 504.492 76.7549C504.395 76.7061 504.346 76.6328 504.346 76.5352L504.419 76.1689C504.321 76.0225 504.053 75.8027 503.613 75.5098C503.418 74.4355 503.027 73.4834 502.441 72.6533C501.904 71.7744 501.562 71.042 501.416 70.4561C501.318 69.8701 501.025 69.3086 500.537 68.7715C500.537 67.9414 500.317 67.2578 499.878 66.7207C499.438 66.1836 499.146 65.5488 498.999 64.8164C498.804 64.4258 498.584 64.2061 498.34 64.1572V64.0107C498.34 63.8154 498.291 63.6934 498.193 63.6445C498.145 63.5469 498.169 63.376 498.267 63.1318C498.12 62.9365 497.925 62.79 497.681 62.6924C497.485 62.5947 497.314 62.4238 497.168 62.1797V62.1064C497.168 61.7158 496.997 61.3252 496.655 60.9346C496.313 60.4951 496.045 59.8604 495.85 59.0303C495.654 58.2002 495.288 57.4922 494.751 56.9062C494.214 56.2715 493.872 55.7832 493.726 55.4414C493.579 55.0508 493.481 54.6846 493.433 54.3428C493.433 54.001 493.286 53.7568 492.993 53.6104H492.773C492.432 53.6104 492.09 53.7568 491.748 54.0498C491.406 54.3428 491.138 54.5625 490.942 54.709C490.747 54.8555 490.454 54.9287 490.063 54.9287C489.087 55.8076 488.599 56.9551 488.599 58.3711L488.892 62.5459L488.672 64.084L488.892 65.4756L488.818 68.918L488.965 69.6504L488.745 70.3096L489.111 71.9941L488.965 72.7266C488.965 72.9707 489.087 73.1416 489.331 73.2393C489.282 73.3857 489.258 73.5078 489.258 73.6055C489.258 73.7031 489.282 73.8008 489.331 73.8984C489.429 73.9961 489.502 74.0938 489.551 74.1914C489.844 74.3379 490.43 74.4111 491.309 74.4111C492.188 74.4111 492.749 74.582 492.993 74.9238L492.92 75.9492C492.383 76.5352 491.699 76.7549 490.869 76.6084C490.381 76.7549 489.966 76.9014 489.624 77.0479C489.331 77.1455 488.818 77.1943 488.086 77.1943C487.402 77.1943 486.67 77.4141 485.889 77.8535H485.376C485.181 77.8535 485.034 77.8047 484.937 77.707C484.497 77.8535 484.131 78 483.838 78.1465C483.594 78.293 483.203 78.3418 482.666 78.293C482.422 78.5371 482.056 78.6592 481.567 78.6592C481.079 78.6592 480.762 78.6348 480.615 78.5859C480.42 78.1953 480.322 77.8291 480.322 77.4873C480.322 77.0967 480.518 76.8037 480.908 76.6084C481.348 76.3643 481.763 76.2422 482.153 76.2422Z" fill="white"/>
<path d="M585.648 28.275L608.876 51.4528L585.648 74.6307L585.639 74.6399L585.63 74.6493C585.069 75.2281 584.399 75.6899 583.658 76.0077C582.916 76.3255 582.119 76.4928 581.312 76.4998C580.505 76.5068 579.704 76.3533 578.958 76.0484C578.211 75.7435 577.532 75.2934 576.962 74.7244C576.392 74.1554 575.941 73.479 575.636 72.7347C575.331 71.9903 575.177 71.193 575.184 70.389C575.191 69.585 575.359 68.7904 575.677 68.0515C575.995 67.3126 576.457 66.644 577.037 66.085L577.047 66.076L577.056 66.0668L583.063 60.073L585.63 57.5111L582.003 57.5111L554.575 57.5111C552.963 57.5111 551.417 56.8721 550.278 55.7355C549.139 54.5991 548.5 53.0585 548.5 51.4528C548.5 49.847 549.139 48.3064 550.278 47.17C551.417 46.0334 552.963 45.3944 554.575 45.3944L582.003 45.3944L585.63 45.3944L583.063 42.8326L577.056 36.8389C577.056 36.8388 577.056 36.8388 577.056 36.8387C575.918 35.7024 575.279 34.1621 575.279 32.5568C575.279 30.9515 575.918 29.4113 577.056 28.275C578.195 27.1388 579.74 26.5 581.352 26.5C582.964 26.5 584.509 27.1388 585.648 28.2748C585.648 28.2749 585.648 28.2749 585.648 28.275Z" stroke="white" stroke-width="3"/>
</svg>
