<svg width="332" height="57" viewBox="0 0 332 57" fill="none" xmlns="http://www.w3.org/2000/svg">
<path d="M35.6562 23.125L35.4688 24C35.4688 24.1667 35.5104 24.3333 35.5938 24.5C35.6771 24.6667 35.7396 24.875 35.7812 25.125C35.8646 25.375 35.8854 25.6875 35.8438 26.0625C35.8438 26.4375 35.8438 27.1875 35.8438 28.3125C35.8438 29.4375 35.7396 30 35.5312 30C35.4479 30 35.4062 30.1458 35.4062 30.4375C35.4062 30.7292 35.3438 30.8958 35.2188 30.9375C35.0938 30.9792 35.0312 31.1875 35.0312 31.5625L34.9688 31.625L34.7188 31.75C34.6354 31.9167 34.5938 32.0833 34.5938 32.25C34.6354 32.4167 34.6354 32.6042 34.5938 32.8125C34.2604 33.0625 34.0312 33.3542 33.9062 33.6875C33.7812 33.9792 33.6354 34.2917 33.4688 34.625L33.2188 34.75L33.3438 35C33.3438 35.0833 33.2812 35.1667 33.1562 35.25C33.0729 35.2917 33.0312 35.3958 33.0312 35.5625C33.0312 35.6875 32.9479 35.7708 32.7812 35.8125C32.6146 35.8542 32.5729 36 32.6562 36.25C32.5729 36.3333 32.4479 36.375 32.2812 36.375C32.1146 36.375 31.9896 36.4167 31.9062 36.5C31.2812 37.6667 30.3021 38.7292 28.9688 39.6875C28.8438 39.8958 28.7604 40.1042 28.7188 40.3125C28.7188 40.5208 28.6771 40.7083 28.5938 40.875C28.3854 41.0417 28.1771 41.1458 27.9688 41.1875C27.7604 41.1875 27.5104 41.3333 27.2188 41.625C26.1354 42.125 25.4479 42.6458 25.1562 43.1875H25.0312C24.4896 43.1875 24.1354 43.2708 23.9688 43.4375C23.8438 43.5625 23.6354 43.8125 23.3438 44.1875C23.0104 44.1875 22.7604 44.2917 22.5938 44.5C22.4688 44.7083 22.3021 44.9167 22.0938 45.125H21.9688C21.7188 45.0833 21.4896 45.1458 21.2812 45.3125C21.1146 45.4375 20.8854 45.4792 20.5938 45.4375C20.4688 45.4792 20.3646 45.5625 20.2812 45.6875C20.2396 45.8125 20.1771 45.9167 20.0938 46H20.0312C19.6146 46 19.0729 46.2292 18.4062 46.6875C17.7396 47.1458 17.3646 47.4167 17.2812 47.5C17.0729 47.5 16.8438 47.5 16.5938 47.5C15.8021 47.4167 15.3646 47.5833 15.2812 48C15.1562 48.375 14.5521 48.5625 13.4688 48.5625C12.4271 48.5625 11.7604 48.7917 11.4688 49.25L11.0938 49.1875L8.28125 49.5625C7.69792 49.5625 7.26042 49.4583 6.96875 49.25C6.92708 49.125 6.90625 48.8542 6.90625 48.4375C6.90625 48.0208 7.11458 47.6042 7.53125 47.1875C7.78125 47.1458 8.03125 47.1042 8.28125 47.0625C8.53125 46.9792 8.73958 46.9375 8.90625 46.9375C9.11458 46.9375 9.34375 46.9792 9.59375 47.0625C9.80208 46.8958 10.0521 46.7917 10.3438 46.75C10.6354 46.7083 10.8854 46.625 11.0938 46.5C11.0938 43.5417 11.0104 41.75 10.8438 41.125C10.7188 40.4583 10.6562 40.0833 10.6562 40L10.7188 39.125L10.5312 38.125C10.5312 38 10.5938 37.875 10.7188 37.75C10.3021 37.1667 10.1146 36.4583 10.1562 35.625C10.1979 34.75 10.2188 34.0417 10.2188 33.5C10.2188 32.9583 10.1562 32.6042 10.0312 32.4375L10.2188 32.125C10.2188 31.875 10.1562 31.5625 10.0312 31.1875C9.90625 30.8125 9.84375 30.3958 9.84375 29.9375L9.96875 26.625C9.96875 26.2917 9.90625 25.8125 9.78125 25.1875L9.84375 24.5625L9.59375 24.0625L9.78125 23.375C9.78125 23.25 9.76042 23.1875 9.71875 23.1875C9.67708 23.1875 9.65625 23.1458 9.65625 23.0625C9.65625 22.9792 9.67708 22.9375 9.71875 22.9375C9.76042 22.9375 9.78125 22.8958 9.78125 22.8125C9.78125 22.7292 9.73958 22.6667 9.65625 22.625C9.61458 22.5833 9.59375 22.3958 9.59375 22.0625V22C9.30208 19.9583 9.15625 18.8333 9.15625 18.625C9.07292 18.4583 9.03125 18.3333 9.03125 18.25L9.21875 17.875L8.96875 17.125L9.15625 16.1875C9.15625 16.0208 9.13542 15.8542 9.09375 15.6875C9.05208 15.5208 9.01042 15.3542 8.96875 15.1875C8.92708 14.9792 8.90625 14.7917 8.90625 14.625C8.94792 14.4583 8.94792 14.2917 8.90625 14.125C8.86458 13.9583 8.80208 13.8125 8.71875 13.6875C8.67708 13.5625 8.63542 13.4583 8.59375 13.375C8.55208 13.25 8.53125 13.1458 8.53125 13.0625C8.57292 12.9792 8.59375 12.8958 8.59375 12.8125V12.75L8.40625 12.4375C8.48958 12.1875 8.53125 12.0208 8.53125 11.9375L8.21875 8.75L8.40625 7.625C8.40625 7.20833 8.28125 6.85417 8.03125 6.5625C7.78125 6.22917 7.65625 6 7.65625 5.875C7.65625 5.70833 7.69792 5.54167 7.78125 5.375C7.69792 5.29167 7.48958 5.14583 7.15625 4.9375C6.82292 4.72917 6.59375 4.625 6.46875 4.625C6.34375 4.625 6.26042 4.6875 6.21875 4.8125C6.17708 4.9375 6.07292 5.04167 5.90625 5.125C5.73958 5.16667 5.44792 5.20833 5.03125 5.25C4.65625 5.29167 4.38542 5.35417 4.21875 5.4375C4.05208 5.47917 3.88542 5.5 3.71875 5.5C3.59375 5.5 3.48958 5.4375 3.40625 5.3125C3.36458 5.14583 3.17708 5.0625 2.84375 5.0625C2.55208 5.0625 2.26042 5.20833 1.96875 5.5C1.71875 5.79167 1.36458 5.9375 0.90625 5.9375C0.572917 5.60417 0.40625 5.27083 0.40625 4.9375L0.46875 3.6875C0.71875 3.4375 0.989583 3.33333 1.28125 3.375C1.61458 3.375 1.90625 3.35417 2.15625 3.3125C2.40625 3.27083 2.57292 3.20833 2.65625 3.125C2.78125 3.04167 2.90625 2.97917 3.03125 2.9375C3.15625 2.89583 3.28125 2.89583 3.40625 2.9375C3.53125 2.97917 3.61458 3 3.65625 3C3.73958 3 3.94792 2.91667 4.28125 2.75L4.96875 2.8125C5.09375 2.8125 5.19792 2.79167 5.28125 2.75C5.53125 2.54167 6.21875 2.4375 7.34375 2.4375L8.15625 2.625L8.84375 2.375L9.59375 2.5625L10.0938 2.4375L10.4688 2.5625L10.8438 2.375C11.1354 2.375 11.4062 2.41667 11.6562 2.5C11.9062 2.58333 12.1771 2.64583 12.4688 2.6875C12.8021 2.72917 13.1562 2.75 13.5312 2.75C13.9062 2.70833 14.2812 2.72917 14.6562 2.8125L15.7812 3.0625C15.9479 3.10417 16.0938 3.125 16.2188 3.125C16.3854 3.08333 16.5312 3.08333 16.6562 3.125C16.8229 3.16667 16.9479 3.22917 17.0312 3.3125C17.1562 3.35417 17.3021 3.39583 17.4688 3.4375C17.6354 3.47917 17.8438 3.5 18.0938 3.5C18.3438 3.5 18.6146 3.54167 18.9062 3.625C19.2396 3.70833 19.5729 3.8125 19.9062 3.9375C20.2812 4.0625 20.6146 4.1875 20.9062 4.3125C21.2396 4.39583 21.4896 4.45833 21.6562 4.5C21.8646 4.5 22.0938 4.5625 22.3438 4.6875C22.6354 4.8125 22.9271 5 23.2188 5.25C23.5521 5.45833 23.9271 5.6875 24.3438 5.9375C24.8021 6.14583 25.3021 6.39583 25.8438 6.6875C26.4271 6.97917 26.8854 7.29167 27.2188 7.625C27.5521 7.91667 27.7812 8.16667 27.9062 8.375C28.0729 8.58333 28.2604 8.8125 28.4688 9.0625C28.6771 9.27083 28.9062 9.5 29.1562 9.75C29.4479 9.95833 29.6771 10.1667 29.8438 10.375C30.0104 10.5833 30.1354 10.7708 30.2188 10.9375C30.4271 11.3542 30.6146 11.5625 30.7812 11.5625C30.8229 11.5625 30.9062 11.7292 31.0312 12.0625C31.1146 12.1458 31.1979 12.25 31.2812 12.375C31.3646 12.5 31.4896 12.5625 31.6562 12.5625C32.2396 13.9792 32.9062 15.1458 33.6562 16.0625C33.9896 17.3958 34.3021 18.3333 34.5938 18.875C34.9271 19.4167 35.1146 19.9167 35.1562 20.375C35.1979 20.7917 35.2604 21.1875 35.3438 21.5625C35.4271 21.8958 35.4896 22.1875 35.5312 22.4375C35.6146 22.6458 35.6562 22.875 35.6562 23.125ZM22.7812 8.375H22.3438C22.3438 8.375 22.1354 8.33333 21.7188 8.25C21.3021 8.125 20.8229 7.875 20.2812 7.5H20.1562C19.8229 7.5 19.2396 7.29167 18.4062 6.875C17.5312 7 16.9479 7.0625 16.6562 7.0625C16.4062 7.0625 16.1354 7 15.8438 6.875C15.5521 6.75 15.2188 6.66667 14.8438 6.625C14.5104 6.54167 14.1354 6.5 13.7188 6.5C13.3021 6.5 12.8854 6.5 12.4688 6.5L12.2188 6.5625C12.2188 6.64583 12.2188 6.72917 12.2188 6.8125C12.2188 6.89583 12.1771 6.9375 12.0938 6.9375V7.0625C12.0938 7.8125 12.1354 8.4375 12.2188 8.9375C12.3438 9.39583 12.4062 9.75 12.4062 10C12.4062 10.2083 12.3646 10.3542 12.2812 10.4375C12.5729 10.8542 12.6771 11.3125 12.5938 11.8125C12.5521 12.3125 12.5938 12.8125 12.7188 13.3125C12.9688 13.8542 13.0938 14.7083 13.0938 15.875L13.5312 17.8125L13.3438 19.1875C13.3438 19.3958 13.3854 19.5833 13.4688 19.75C13.5521 19.9167 13.6146 20.1042 13.6562 20.3125C13.6979 20.4792 13.6979 20.6458 13.6562 20.8125C13.6562 20.9375 13.6562 21.0833 13.6562 21.25L13.7812 22.0625C14.1146 24.3958 14.2812 25.875 14.2812 26.5V27.875C14.2812 28.1667 14.2604 28.4583 14.2188 28.75C14.3854 29 14.4688 29.2292 14.4688 29.4375L14.3438 30.1875L14.5312 31.625L14.4062 32.0625L14.5938 33.0625C14.5104 33.1458 14.4688 33.2708 14.4688 33.4375C14.4688 33.6042 14.5104 33.7917 14.5938 34C14.6771 34.2083 14.7396 34.4167 14.7812 34.625C14.8229 34.7917 14.8229 34.9583 14.7812 35.125C14.7812 35.25 14.8021 35.5417 14.8438 36C14.9271 36.4167 15.0312 36.9792 15.1562 37.6875C15.2812 38.3542 15.3438 39.0417 15.3438 39.75L15.2188 42.3125C15.2188 42.6458 15.2812 43.6875 15.4062 45.4375H15.7812C16.0312 45.4375 16.4479 45.3125 17.0312 45.0625C17.6562 44.7708 18.1354 44.5833 18.4688 44.5C18.8438 44.375 19.1354 44.2292 19.3438 44.0625C19.5521 43.8958 19.8854 43.7292 20.3438 43.5625L22.5312 42.0625C23.9896 41.0208 25.5312 39.625 27.1562 37.875C28.8229 36.0833 29.9688 34.2292 30.5938 32.3125C31.2604 30.3542 31.5938 28.8542 31.5938 27.8125C31.5938 26.7708 31.5104 25.7292 31.3438 24.6875C31.1771 23.6458 31.0729 22.6042 31.0312 21.5625C30.7812 21.3542 30.6562 21.0833 30.6562 20.75C30.6562 20.4167 30.6146 20.1667 30.5312 20C30.4896 19.7917 30.4479 19.6458 30.4062 19.5625C30.3646 19.4375 30.3438 19.3333 30.3438 19.25L30.4062 19.0625C29.8646 18.5208 29.5938 17.6458 29.5938 16.4375C29.3438 16.1042 29.0938 15.8125 28.8438 15.5625C28.5938 15.2708 28.4896 14.8958 28.5312 14.4375C27.9896 14.0625 27.7396 13.6458 27.7812 13.1875C27.3646 13.0208 27.0104 12.7292 26.7188 12.3125C26.6354 11.9375 26.4271 11.625 26.0938 11.375C25.8021 11.0833 25.6146 10.75 25.5312 10.375C25.1979 10.25 24.8854 10.1042 24.5938 9.9375C24.3021 9.77083 24.1562 9.47917 24.1562 9.0625C23.8646 9.0625 23.5938 8.95833 23.3438 8.75C23.1354 8.5 22.9479 8.375 22.7812 8.375ZM53.3438 28.9375L55.1562 31.5V31.625C55.1562 32.25 55.3229 32.7708 55.6562 33.1875C56.0312 33.6042 56.3229 34.1042 56.5312 34.6875C56.4062 34.8542 56.2812 35 56.1562 35.125C56.0312 35.25 55.9271 35.4167 55.8438 35.625C55.5521 35.7083 55.3438 35.75 55.2188 35.75L54.2188 35.6875C53.9688 35.6875 53.7604 35.75 53.5938 35.875C53.3854 35.75 53.1354 35.6875 52.8438 35.6875H52.0938C51.6771 35.6875 51.3229 35.625 51.0312 35.5C50.8646 35.5417 50.7396 35.6667 50.6562 35.875C50.5729 36.0833 50.2812 36.1875 49.7812 36.1875C49.2812 36.1458 48.9062 36.1667 48.6562 36.25C48.4479 36.2917 48.2812 36.3542 48.1562 36.4375C48.0312 36.4792 47.8438 36.5 47.5938 36.5L46.3438 36.375H44.8438C44.4688 36.9583 44.2812 38.5 44.2812 41L44.7188 43.75L44.6562 45.0625C44.6562 45.5208 44.6979 45.7917 44.7812 45.875C45.0729 46.25 45.2188 46.6667 45.2188 47.125C45.2188 47.5417 45.3229 47.9792 45.5312 48.4375C45.7812 48.8958 45.9271 49.2708 45.9688 49.5625C46.0521 49.8125 46.1771 50.1458 46.3438 50.5625C46.5104 50.9792 46.8021 51.375 47.2188 51.75C47.6771 52.0833 48.1771 52.25 48.7188 52.25C49.3021 52.25 49.7812 52.1042 50.1562 51.8125C50.5729 51.4792 50.8854 51.25 51.0938 51.125C51.3438 51 51.4896 50.9583 51.5312 51C51.5729 51 51.6562 50.9583 51.7812 50.875C51.9479 50.7917 52.1979 50.5833 52.5312 50.25C52.9062 49.9167 53.1354 49.6875 53.2188 49.5625C53.3021 49.4375 53.3854 49.2708 53.4688 49.0625C53.5521 48.8125 53.6562 48.4792 53.7812 48.0625C53.9479 47.6458 54.1771 47.4375 54.4688 47.4375C54.7604 47.4375 55.0521 47.6667 55.3438 48.125C55.6771 48.5417 55.8438 48.9792 55.8438 49.4375C55.8438 49.8542 55.5938 50.1875 55.0938 50.4375C54.6354 50.6875 54.3438 51.0417 54.2188 51.5C53.5521 51.7917 53.1562 52.0833 53.0312 52.375C52.9479 52.625 52.8438 52.7917 52.7188 52.875C52.6354 52.9167 52.5729 52.9375 52.5312 52.9375C52.4896 52.8958 52.4271 52.875 52.3438 52.875C52.2604 52.875 52.2188 52.9583 52.2188 53.125C51.9688 53.2917 51.7188 53.5 51.4688 53.75C50.9688 53.5833 50.4688 53.6667 49.9688 54C49.4688 54.375 48.9896 54.5625 48.5312 54.5625C48.0729 54.5625 47.6562 54.3958 47.2812 54.0625C47.0729 54.1458 46.8438 54.1875 46.5938 54.1875C46.3438 54.1875 46.0938 54.2292 45.8438 54.3125C45.5104 53.9792 45.1354 53.7292 44.7188 53.5625C44.3021 53.3958 43.8854 53.2083 43.4688 53C43.3854 52.75 43.2812 52.625 43.1562 52.625C43.0729 52.5833 43.0729 52.4167 43.1562 52.125C42.9896 52.0417 42.8229 51.9583 42.6562 51.875C42.5312 51.7917 42.3854 51.7083 42.2188 51.625C42.0938 51.3333 41.8646 51.0208 41.5312 50.6875V49.875C41.1979 49.75 40.9688 49.5 40.8438 49.125C40.7604 48.7083 40.5521 48.3958 40.2188 48.1875C40.1771 47.6875 40.0729 47.2083 39.9062 46.75C39.7812 46.25 39.7188 45.75 39.7188 45.25V44.125L39.2812 41.5V41L39.4688 40.4375L39.2812 39.875L39.7188 37.25L39.9688 36.875C40.1771 35.7917 40.3438 34.8125 40.4688 33.9375C40.6354 33.0625 40.9271 32.2292 41.3438 31.4375C41.8021 30.6042 42.2604 29.8333 42.7188 29.125C43.1771 28.375 43.4688 27.6875 43.5938 27.0625C44.8438 26.0625 46.1146 25.2083 47.4062 24.5C47.6146 24.5833 47.7812 24.625 47.9062 24.625L48.9062 24.4375C49.2812 24.4375 49.7188 24.6875 50.2188 25.1875L50.9062 25.0625H51.1562C51.2396 25.1875 51.2812 25.3333 51.2812 25.5C51.3229 25.6667 51.4271 25.7708 51.5938 25.8125C52.0521 26.1875 52.3229 26.6458 52.4062 27.1875C52.5312 27.6875 52.8438 28.0833 53.3438 28.375V28.9375ZM51.5938 34.1875L53.7188 33.75V33.5C53.7188 33.25 53.6771 33 53.5938 32.75C53.5521 32.5 53.5104 32.25 53.4688 32C53.2188 31.7083 52.9688 31.4792 52.7188 31.3125C52.5104 31.1458 52.4271 30.8333 52.4688 30.375C52.0938 30.25 51.8438 29.9792 51.7188 29.5625C51.6354 29.1458 51.5521 28.75 51.4688 28.375C51.3854 28.375 51.3438 28.2917 51.3438 28.125C51.0521 27.9167 50.8438 27.75 50.7188 27.625C50.2604 27.1667 49.5312 26.9375 48.5312 26.9375C47.5729 26.9375 46.9479 27.0625 46.6562 27.3125C46.4062 27.5208 46.1354 28.1458 45.8438 29.1875C45.5521 30.1875 45.2812 31.0417 45.0312 31.75C44.8229 32.4167 44.7188 33.1042 44.7188 33.8125V34.1875L46.7188 34.4375L48.1562 34.3125L48.6562 34.4375L49.6562 34.1875L50.5312 34.3125L51.0312 34.0625L51.5938 34.1875ZM70.7188 22.5625L71.9688 22.625C71.9688 22.5833 72.0312 22.5625 72.1562 22.5625C72.2812 22.5625 72.3854 22.6458 72.4688 22.8125C72.5521 22.9375 72.6562 23.0417 72.7812 23.125C72.9479 23.1667 73.0938 23.1875 73.2188 23.1875C73.3854 23.1875 73.5521 23.25 73.7188 23.375L73.8438 23.625C74.0104 23.7083 74.1146 23.75 74.1562 23.75C74.2396 23.7083 74.4062 23.8542 74.6562 24.1875C74.9062 24.5208 75.1354 24.6875 75.3438 24.6875C75.5938 24.6875 75.8021 24.6458 75.9688 24.5625C76.0938 24.2708 76.1771 23.9792 76.2188 23.6875C76.3021 23.3542 76.4479 23.0417 76.6562 22.75C76.9062 22.5833 77.2188 22.5 77.5938 22.5C77.9688 22.5 78.2604 22.7292 78.4688 23.1875C78.7188 23.6458 78.8438 24.1042 78.8438 24.5625C78.8438 25.0208 78.7396 25.3958 78.5312 25.6875C78.6146 26.1458 78.6562 26.7083 78.6562 27.375C78.6562 28.0417 78.4688 28.7083 78.0938 29.375C78.1771 29.7083 78.2188 30.0208 78.2188 30.3125C78.2188 30.5625 78.1354 30.8542 77.9688 31.1875C77.8021 31.5208 77.6771 31.7917 77.5938 32C77.5521 32.2083 77.5312 32.375 77.5312 32.5C77.5312 32.625 77.4271 32.8542 77.2188 33.1875C77.0104 33.5208 76.4688 33.6875 75.5938 33.6875H75.2812C75.0312 33.3125 74.9062 33 74.9062 32.75C74.9062 32.5 74.9896 32.2083 75.1562 31.875L75.0312 31.5C75.0312 31.25 75.0938 30.8958 75.2188 30.4375C75.3438 29.9792 75.4062 29.5 75.4062 29C75.4062 28.25 75.2604 27.7292 74.9688 27.4375C74.7188 27.1458 74.5521 26.9375 74.4688 26.8125C74.4271 26.6875 74.3438 26.5833 74.2188 26.5C74.0938 26.375 73.9479 26.2917 73.7812 26.25C73.6146 26.2083 73.4062 26.0625 73.1562 25.8125C72.9479 25.6875 72.7188 25.6042 72.4688 25.5625C72.2604 25.4792 72.0729 25.3958 71.9062 25.3125C71.7396 25.2292 71.6562 25.1667 71.6562 25.125C71.6979 25.0417 71.3646 25 70.6562 25C69.9479 25 69.4062 25.1875 69.0312 25.5625C68.7812 25.4792 68.4688 25.4375 68.0938 25.4375C67.7604 25.4375 67.4688 25.6667 67.2188 26.125C66.9688 26.5833 66.6979 26.9792 66.4062 27.3125C66.4479 27.3542 66.4688 27.4792 66.4688 27.6875C66.4688 27.8542 66.3854 28.0417 66.2188 28.25C66.0938 28.4167 65.9688 28.6875 65.8438 29.0625C65.7188 29.4375 65.6771 29.875 65.7188 30.375C65.7604 30.8333 65.6562 31.2917 65.4062 31.75C65.4479 31.8333 65.4688 32 65.4688 32.25L65.0938 34.5V35.125C65.0938 37.3333 65.1979 38.6458 65.4062 39.0625C65.4062 39.1458 65.3854 39.1875 65.3438 39.1875C65.3021 39.1875 65.2812 39.25 65.2812 39.375C65.2812 39.7917 65.4271 40.4167 65.7188 41.25C66.0104 42.0833 66.1979 42.5417 66.2812 42.625C66.4062 42.6667 66.4896 42.7292 66.5312 42.8125C66.6146 42.8958 66.6562 43 66.6562 43.125C66.6562 43.2083 66.8021 43.4167 67.0938 43.75C67.3854 44.0417 67.5729 44.3125 67.6562 44.5625C67.7396 44.7708 67.8854 44.9792 68.0938 45.1875C68.3438 45.3542 68.6146 45.5 68.9062 45.625C69.1979 45.7083 69.4479 45.8125 69.6562 45.9375C69.9062 46.0625 70.0938 46.1875 70.2188 46.3125C70.3854 46.4375 70.6146 46.5 70.9062 46.5C71.1979 46.5 71.4688 46.4375 71.7188 46.3125C72.0104 46.1458 72.3229 46.1042 72.6562 46.1875C72.8229 45.9792 73.0104 45.875 73.2188 45.875C73.4271 45.875 73.6771 45.8125 73.9688 45.6875C74.2604 45.5625 74.5104 45.3958 74.7188 45.1875C74.9688 44.9792 75.2396 44.7917 75.5312 44.625C75.8646 44.4583 76.0312 44.3333 76.0312 44.25V43.875C76.0312 43.75 76.0521 43.6667 76.0938 43.625C76.2604 43.7083 76.3854 43.75 76.4688 43.75L77.7188 43.5H77.9688C78.1354 43.625 78.2188 43.75 78.2188 43.875V44.375L78.3438 44.625C78.3438 44.875 78.0521 45.25 77.4688 45.75C76.9271 46.25 76.5729 46.5417 76.4062 46.625C76.2812 46.6667 76.1979 46.75 76.1562 46.875C76.1146 47 75.9896 47.125 75.7812 47.25C75.5729 47.3333 75.3229 47.375 75.0312 47.375C74.7812 47.375 74.5104 47.4167 74.2188 47.5C73.9688 47.5833 73.6562 47.75 73.2812 48C72.9479 48.25 72.6771 48.375 72.4688 48.375L71.8438 48.1875L71.0312 48.5625C70.8646 48.4792 70.7396 48.4375 70.6562 48.4375H70.3438C70.1771 48.4375 69.9688 48.3542 69.7188 48.1875L68.6562 48.375C68.4479 48.375 68.3021 48.3542 68.2188 48.3125L68.0938 48.0625L67.6562 48.125C67.3646 48.125 67.1354 47.9792 66.9688 47.6875C66.8438 47.3958 66.5729 47.25 66.1562 47.25C65.7396 47.25 65.4062 47.125 65.1562 46.875C64.9479 46.5833 64.6771 46.3958 64.3438 46.3125L62.9688 44.875C62.8854 44.7917 62.7604 44.75 62.5938 44.75C62.4688 44.75 62.2812 44.6875 62.0312 44.5625C61.8229 44.3958 61.7188 44.1667 61.7188 43.875C61.7188 43.5417 61.7604 43.2917 61.8438 43.125C61.6354 42.6667 61.4896 42.1667 61.4062 41.625C61.2812 40.8333 61.0729 40.2292 60.7812 39.8125C60.6146 39.4375 60.5312 39.1667 60.5312 39V38.5C60.5312 36.8333 60.7188 35.25 61.0938 33.75C61.5104 32.2083 61.7604 31.3333 61.8438 31.125C61.9271 30.9167 62.0104 30.7083 62.0938 30.5C62.1771 30.2917 62.2396 30.0417 62.2812 29.75C62.3646 29.4583 62.4688 29.2292 62.5938 29.0625L62.8438 28.9375C62.9271 28.6875 62.9688 28.4792 62.9688 28.3125C63.0104 28.1042 63.0729 27.9167 63.1562 27.75L63.4688 27.625C63.6354 27.375 63.7812 27.1042 63.9062 26.8125C64.0729 26.4792 64.2812 26.1667 64.5312 25.875C64.7812 25.5417 65.1354 25.2292 65.5938 24.9375C66.0521 24.6458 66.4896 24.375 66.9062 24.125C67.3646 23.875 67.7604 23.6667 68.0938 23.5C68.4688 23.2917 68.6979 23.1667 68.7812 23.125C68.9062 23.0417 69.0312 23.0208 69.1562 23.0625C69.3229 23.0625 69.5104 23.0208 69.7188 22.9375C69.9271 22.8542 70.0521 22.7708 70.0938 22.6875C70.1354 22.6042 70.3438 22.5625 70.7188 22.5625ZM97.4062 28.9375L99.2188 31.5V31.625C99.2188 32.25 99.3854 32.7708 99.7188 33.1875C100.094 33.6042 100.385 34.1042 100.594 34.6875C100.469 34.8542 100.344 35 100.219 35.125C100.094 35.25 99.9896 35.4167 99.9062 35.625C99.6146 35.7083 99.4062 35.75 99.2812 35.75L98.2812 35.6875C98.0312 35.6875 97.8229 35.75 97.6562 35.875C97.4479 35.75 97.1979 35.6875 96.9062 35.6875H96.1562C95.7396 35.6875 95.3854 35.625 95.0938 35.5C94.9271 35.5417 94.8021 35.6667 94.7188 35.875C94.6354 36.0833 94.3438 36.1875 93.8438 36.1875C93.3438 36.1458 92.9688 36.1667 92.7188 36.25C92.5104 36.2917 92.3438 36.3542 92.2188 36.4375C92.0938 36.4792 91.9062 36.5 91.6562 36.5L90.4062 36.375H88.9062C88.5312 36.9583 88.3438 38.5 88.3438 41L88.7812 43.75L88.7188 45.0625C88.7188 45.5208 88.7604 45.7917 88.8438 45.875C89.1354 46.25 89.2812 46.6667 89.2812 47.125C89.2812 47.5417 89.3854 47.9792 89.5938 48.4375C89.8438 48.8958 89.9896 49.2708 90.0312 49.5625C90.1146 49.8125 90.2396 50.1458 90.4062 50.5625C90.5729 50.9792 90.8646 51.375 91.2812 51.75C91.7396 52.0833 92.2396 52.25 92.7812 52.25C93.3646 52.25 93.8438 52.1042 94.2188 51.8125C94.6354 51.4792 94.9479 51.25 95.1562 51.125C95.4062 51 95.5521 50.9583 95.5938 51C95.6354 51 95.7188 50.9583 95.8438 50.875C96.0104 50.7917 96.2604 50.5833 96.5938 50.25C96.9688 49.9167 97.1979 49.6875 97.2812 49.5625C97.3646 49.4375 97.4479 49.2708 97.5312 49.0625C97.6146 48.8125 97.7188 48.4792 97.8438 48.0625C98.0104 47.6458 98.2396 47.4375 98.5312 47.4375C98.8229 47.4375 99.1146 47.6667 99.4062 48.125C99.7396 48.5417 99.9062 48.9792 99.9062 49.4375C99.9062 49.8542 99.6562 50.1875 99.1562 50.4375C98.6979 50.6875 98.4062 51.0417 98.2812 51.5C97.6146 51.7917 97.2188 52.0833 97.0938 52.375C97.0104 52.625 96.9062 52.7917 96.7812 52.875C96.6979 52.9167 96.6354 52.9375 96.5938 52.9375C96.5521 52.8958 96.4896 52.875 96.4062 52.875C96.3229 52.875 96.2812 52.9583 96.2812 53.125C96.0312 53.2917 95.7812 53.5 95.5312 53.75C95.0312 53.5833 94.5312 53.6667 94.0312 54C93.5312 54.375 93.0521 54.5625 92.5938 54.5625C92.1354 54.5625 91.7188 54.3958 91.3438 54.0625C91.1354 54.1458 90.9062 54.1875 90.6562 54.1875C90.4062 54.1875 90.1562 54.2292 89.9062 54.3125C89.5729 53.9792 89.1979 53.7292 88.7812 53.5625C88.3646 53.3958 87.9479 53.2083 87.5312 53C87.4479 52.75 87.3438 52.625 87.2188 52.625C87.1354 52.5833 87.1354 52.4167 87.2188 52.125C87.0521 52.0417 86.8854 51.9583 86.7188 51.875C86.5938 51.7917 86.4479 51.7083 86.2812 51.625C86.1562 51.3333 85.9271 51.0208 85.5938 50.6875V49.875C85.2604 49.75 85.0312 49.5 84.9062 49.125C84.8229 48.7083 84.6146 48.3958 84.2812 48.1875C84.2396 47.6875 84.1354 47.2083 83.9688 46.75C83.8438 46.25 83.7812 45.75 83.7812 45.25V44.125L83.3438 41.5V41L83.5312 40.4375L83.3438 39.875L83.7812 37.25L84.0312 36.875C84.2396 35.7917 84.4062 34.8125 84.5312 33.9375C84.6979 33.0625 84.9896 32.2292 85.4062 31.4375C85.8646 30.6042 86.3229 29.8333 86.7812 29.125C87.2396 28.375 87.5312 27.6875 87.6562 27.0625C88.9062 26.0625 90.1771 25.2083 91.4688 24.5C91.6771 24.5833 91.8438 24.625 91.9688 24.625L92.9688 24.4375C93.3438 24.4375 93.7812 24.6875 94.2812 25.1875L94.9688 25.0625H95.2188C95.3021 25.1875 95.3438 25.3333 95.3438 25.5C95.3854 25.6667 95.4896 25.7708 95.6562 25.8125C96.1146 26.1875 96.3854 26.6458 96.4688 27.1875C96.5938 27.6875 96.9062 28.0833 97.4062 28.375V28.9375ZM95.6562 34.1875L97.7812 33.75V33.5C97.7812 33.25 97.7396 33 97.6562 32.75C97.6146 32.5 97.5729 32.25 97.5312 32C97.2812 31.7083 97.0312 31.4792 96.7812 31.3125C96.5729 31.1458 96.4896 30.8333 96.5312 30.375C96.1562 30.25 95.9062 29.9792 95.7812 29.5625C95.6979 29.1458 95.6146 28.75 95.5312 28.375C95.4479 28.375 95.4062 28.2917 95.4062 28.125C95.1146 27.9167 94.9062 27.75 94.7812 27.625C94.3229 27.1667 93.5938 26.9375 92.5938 26.9375C91.6354 26.9375 91.0104 27.0625 90.7188 27.3125C90.4688 27.5208 90.1979 28.1458 89.9062 29.1875C89.6146 30.1875 89.3438 31.0417 89.0938 31.75C88.8854 32.4167 88.7812 33.1042 88.7812 33.8125V34.1875L90.7812 34.4375L92.2188 34.3125L92.7188 34.4375L93.7188 34.1875L94.5938 34.3125L95.0938 34.0625L95.6562 34.1875ZM106.594 25.375L104.969 25.875L104.406 25.75L103.594 26.0625C103.177 26.0625 102.969 25.8333 102.969 25.375L103.031 24.8125C103.031 24.6875 103.01 24.6042 102.969 24.5625C103.219 24.4792 103.385 24.3958 103.469 24.3125C103.594 24.1875 103.823 24.1458 104.156 24.1875L105.156 23.6875C105.615 23.7708 106.031 23.8125 106.406 23.8125C106.823 23.8125 107.219 23.6667 107.594 23.375C107.969 23.0833 108.406 22.9375 108.906 22.9375H110.094L112.031 22.6875C112.531 23.0625 112.781 23.4167 112.781 23.75C112.781 24.0417 112.615 24.25 112.281 24.375C111.99 24.5 111.76 24.6667 111.594 24.875L111.469 24.9375C111.26 24.9375 111.115 24.875 111.031 24.75C110.948 24.625 110.781 24.5625 110.531 24.5625C110.49 24.7292 110.469 25.1042 110.469 25.6875C110.469 26.2292 110.552 26.8333 110.719 27.5C110.885 28.125 110.969 28.8125 110.969 29.5625L110.844 30.5625C110.844 30.9792 111.052 31.75 111.469 32.875C111.51 32.9167 111.615 32.9375 111.781 32.9375C111.99 32.9375 112.115 32.875 112.156 32.75C112.24 32.5833 112.323 32.4583 112.406 32.375C112.49 32.25 112.531 32.1875 112.531 32.1875C112.573 32.1875 112.615 32.125 112.656 32C112.698 31.875 112.719 31.75 112.719 31.625C112.76 31.5 112.823 31.375 112.906 31.25C112.99 31.0833 113.073 30.9792 113.156 30.9375C113.24 30.8542 113.427 30.625 113.719 30.25C114.052 29.8333 114.385 29.5417 114.719 29.375C114.76 29.1667 114.844 29.0208 114.969 28.9375C115.094 28.8542 115.135 28.6875 115.094 28.4375C115.177 28.4375 115.427 28.3125 115.844 28.0625C116.302 27.7708 116.552 27.5833 116.594 27.5C116.677 27.4167 116.698 27.3542 116.656 27.3125C116.656 27.2292 116.677 27.1667 116.719 27.125C116.802 27.0833 116.865 27.0833 116.906 27.125C116.948 27.1667 117.031 27.0625 117.156 26.8125C117.281 26.5208 117.448 26.3958 117.656 26.4375C117.906 26.4375 118.219 26.3333 118.594 26.125C119.802 25.375 120.906 25 121.906 25C122.948 25 123.552 25.0625 123.719 25.1875C123.927 25.3125 124.01 25.4167 123.969 25.5C123.969 25.5417 124.01 25.5833 124.094 25.625L124.469 25.75C124.719 26 124.927 26.4167 125.094 27C125.302 27.5833 125.49 28.0625 125.656 28.4375C125.823 28.7708 125.948 28.9583 126.031 29C126.115 29 126.156 29.125 126.156 29.375C126.156 29.625 126.177 29.7917 126.219 29.875C126.302 29.9167 126.365 30.0417 126.406 30.25C126.49 30.4583 126.51 30.75 126.469 31.125C126.427 31.4583 126.594 31.7292 126.969 31.9375H127.031C127.573 31.9375 127.906 31.625 128.031 31C128.49 30.7083 128.844 30.1667 129.094 29.375C129.135 29.2917 129.198 29.2292 129.281 29.1875C129.365 29.1458 129.448 29.0833 129.531 29C129.615 28.75 129.698 28.5 129.781 28.25C129.865 27.9583 129.948 27.7083 130.031 27.5C130.156 27.375 130.281 27.2708 130.406 27.1875C130.573 27.0625 130.719 26.9167 130.844 26.75V26.5H131.094C131.302 26.2083 131.51 25.875 131.719 25.5C131.969 25.0833 132.177 24.8125 132.344 24.6875C132.51 24.5208 132.656 24.3958 132.781 24.3125C132.948 24.2292 133.24 24.0417 133.656 23.75C135.448 22.4583 137.052 21.8125 138.469 21.8125H138.719C139.927 22.6042 140.865 24.4167 141.531 27.25C141.698 27.9167 141.865 28.5417 142.031 29.125V29.25C141.906 29.875 141.906 30.2083 142.031 30.25C142.156 30.2917 142.219 30.5625 142.219 31.0625C142.219 31.5625 142.323 32.125 142.531 32.75C142.74 33.375 142.844 34.0417 142.844 34.75L142.656 38.625L142.781 39.8125C142.781 39.9375 142.74 40.0625 142.656 40.1875C142.573 40.2708 142.51 40.4375 142.469 40.6875C142.427 40.8958 142.427 41.1458 142.469 41.4375C142.51 41.6875 142.531 42 142.531 42.375L142.219 45.0625V46.5C142.219 46.9583 142.26 47.4375 142.344 47.9375C142.385 48.1875 142.677 48.3125 143.219 48.3125C143.802 48.3125 144.302 48.2292 144.719 48.0625C145.177 47.8958 145.594 47.7708 145.969 47.6875L146.594 48.125C146.594 48.25 146.677 48.3125 146.844 48.3125C147.052 48.2708 147.156 48.3125 147.156 48.4375V49.25C146.948 49.5417 146.635 49.7083 146.219 49.75C145.844 49.7917 145.531 49.9583 145.281 50.25H144.844C144.594 50.25 144.177 50.3125 143.594 50.4375C143.052 50.5208 142.531 50.6042 142.031 50.6875C141.573 50.7292 141.052 50.9375 140.469 51.3125C140.385 51.2708 140.177 51.25 139.844 51.25C139.552 51.25 139.344 51.3542 139.219 51.5625C139.135 51.5208 138.99 51.5 138.781 51.5C138.615 51.5 138.427 51.5417 138.219 51.625C138.052 51.7083 137.865 51.7708 137.656 51.8125L136.344 51.9375C136.135 51.9792 135.927 52.0417 135.719 52.125C135.51 52.2083 135.281 52.25 135.031 52.25C134.781 52.25 134.573 52.1458 134.406 51.9375V51.8125C134.406 51.4375 134.49 51.1667 134.656 51C134.823 50.7917 134.99 50.5417 135.156 50.25L136.344 49.8125L136.844 49.5625L137.469 49.625C137.677 49.625 137.844 49.5417 137.969 49.375C138.094 49.2083 138.302 49.1667 138.594 49.25L138.969 42.125L138.844 40.375L139.094 39.6875L138.969 39.5625L139.094 39L138.969 37.8125L139.031 33.8125V32.75C139.031 31.9167 138.948 31.2708 138.781 30.8125C138.656 30.3542 138.594 29.9375 138.594 29.5625L138.656 28.5625C138.656 28.1458 138.594 27.7292 138.469 27.3125C138.385 26.8958 138.302 26.4583 138.219 26C138.135 25.5 138.052 25.1458 137.969 24.9375C137.885 24.7292 137.594 24.4792 137.094 24.1875C136.635 24.2708 136.156 24.3958 135.656 24.5625C135.156 24.7292 134.844 25.0833 134.719 25.625C134.094 25.8333 133.594 26.2083 133.219 26.75C132.885 27.25 132.406 27.625 131.781 27.875L131.844 28.0625C131.844 28.1458 131.823 28.25 131.781 28.375C131.74 28.4583 131.698 28.5833 131.656 28.75C131.365 28.9583 131.073 29.3542 130.781 29.9375C130.531 30.4792 130.323 30.875 130.156 31.125C129.99 31.3333 129.906 31.4792 129.906 31.5625C129.948 31.6042 129.969 31.6667 129.969 31.75L129.906 32.0625C129.698 32.1458 129.552 32.2917 129.469 32.5C129.427 32.6667 129.365 32.8333 129.281 33C129.031 33.0833 128.885 33.2292 128.844 33.4375C128.844 33.6458 128.74 33.7917 128.531 33.875C128.49 34.375 128.385 34.7708 128.219 35.0625C128.094 35.3125 128.073 35.6875 128.156 36.1875C127.531 36.7708 127.198 37.6667 127.156 38.875C127.115 40.0417 127.052 40.9583 126.969 41.625C126.885 42.25 126.615 42.75 126.156 43.125C125.823 43.2083 125.469 43.2292 125.094 43.1875C124.76 43.1458 124.427 43.2083 124.094 43.375C124.052 43.25 123.906 43.0625 123.656 42.8125C123.448 42.5625 123.365 42.0833 123.406 41.375C123.448 40.6667 123.469 40.1667 123.469 39.875L123.219 37.5625L123.344 36.875L123.094 35.0625C123.094 34.7708 123.177 34.5417 123.344 34.375C123.177 33.7917 123.094 33.1042 123.094 32.3125L123.219 30.625C123.219 30.3333 123.156 30.0833 123.031 29.875C122.906 29.625 122.802 29.3542 122.719 29.0625C122.635 28.7292 122.594 28.375 122.594 28C122.635 27.625 122.49 27.3333 122.156 27.125H121.781L120.719 27.25C120.552 27.25 120.448 27.1875 120.406 27.0625C120.365 26.9375 120.24 26.875 120.031 26.875H119.906C119.781 27 119.698 27.1875 119.656 27.4375C119.615 27.6458 119.49 27.7917 119.281 27.875C119.115 27.875 118.99 27.9167 118.906 28C118.823 28.0417 118.656 28.0208 118.406 27.9375C118.031 28.0625 117.823 28.2083 117.781 28.375C117.74 28.5 117.677 28.75 117.594 29.125C117.302 29.2083 117.073 29.3542 116.906 29.5625C116.74 29.7708 116.49 29.8958 116.156 29.9375C115.906 30.3542 115.552 30.6458 115.094 30.8125L114.656 31.625C114.531 31.9167 114.323 32.1458 114.031 32.3125L113.906 33.375C113.573 33.5833 113.302 33.8542 113.094 34.1875C113.135 35.6875 112.635 36.9792 111.594 38.0625L111.531 38.1875C111.531 38.2708 111.656 38.5 111.906 38.875C111.823 39.7083 111.781 40.5 111.781 41.25V51.5625C111.948 51.6042 112.177 51.625 112.469 51.625L115.281 51.3125H115.469C115.927 51.7708 116.156 52.1667 116.156 52.5V52.8125C115.615 53.1875 115.115 53.375 114.656 53.375H113.406C112.698 53.375 112.198 53.4792 111.906 53.6875C111.615 53.8958 111.365 54.0417 111.156 54.125C110.948 54.2083 110.76 54.2292 110.594 54.1875C110.427 54.1875 110.24 54.2083 110.031 54.25C109.865 54.3333 109.698 54.3958 109.531 54.4375C109.406 54.5208 109.177 54.625 108.844 54.75C108.552 54.875 108.135 54.9583 107.594 55C107.094 55.0417 106.615 55.1875 106.156 55.4375L105.531 53.4375C105.948 53.3125 106.469 53.0417 107.094 52.625C107.302 52.5417 107.594 52.4167 107.969 52.25C108.385 52.0833 108.594 51.8542 108.594 51.5625L108.406 50.75L108.594 48.75L108.406 46.0625V44.75L108.531 43.75L108.156 42.375L108.469 40.75C108.469 40.0417 108.385 39.375 108.219 38.75C108.094 38.0833 107.969 37.375 107.844 36.625C107.76 35.8333 107.719 34.9167 107.719 33.875C107.719 32.7917 107.635 31.875 107.469 31.125L107.594 30.6875C107.594 30.5208 107.51 30.2708 107.344 29.9375C107.177 29.2292 107.115 28.5 107.156 27.75C107.198 27 107.219 26.25 107.219 25.5C107.052 25.4167 106.844 25.375 106.594 25.375ZM154.969 34.625C154.969 35.25 155.198 35.5625 155.656 35.5625C155.865 35.5625 156.031 35.4792 156.156 35.3125C156.281 35.1042 156.531 34.875 156.906 34.625C157.323 34.3333 157.823 34.0208 158.406 33.6875C159.031 33.3125 159.594 32.8958 160.094 32.4375C160.177 32.4792 160.323 32.5 160.531 32.5C160.74 32.5 160.948 32.4375 161.156 32.3125C161.365 32.1875 161.698 32.0417 162.156 31.875C162.656 31.7083 163.406 31.625 164.406 31.625C165.406 31.625 166.094 31.6458 166.469 31.6875C166.885 31.6875 167.24 31.75 167.531 31.875C167.823 32 168.01 32.0625 168.094 32.0625C168.177 32.0208 168.26 32.0417 168.344 32.125C168.427 32.1667 168.49 32.2292 168.531 32.3125C168.573 32.3542 168.635 32.4167 168.719 32.5C168.802 32.5417 168.885 32.5625 168.969 32.5625C169.052 32.5208 169.115 32.5208 169.156 32.5625C169.24 32.6042 169.385 32.7292 169.594 32.9375C169.802 33.1458 170.01 33.375 170.219 33.625C170.427 33.8333 170.635 34.0625 170.844 34.3125C171.052 34.5625 171.219 34.7708 171.344 34.9375C171.51 35.0625 171.656 35.3125 171.781 35.6875C171.906 36.0625 172.073 36.3333 172.281 36.5C172.365 36.7917 172.427 37.0833 172.469 37.375C172.552 37.625 172.635 37.875 172.719 38.125L172.969 38.4375C173.01 38.5625 173.094 38.7917 173.219 39.125C173.344 39.4167 173.427 39.7292 173.469 40.0625C173.552 40.3542 173.615 40.6458 173.656 40.9375C173.74 41.2292 173.781 41.5417 173.781 41.875V43C173.781 43.4583 173.74 43.9167 173.656 44.375L173.406 44.5625C173.323 44.7708 173.281 44.9792 173.281 45.1875C173.281 45.3958 173.094 45.6875 172.719 46.0625C172.51 46.4792 172.281 46.9792 172.031 47.5625C171.823 48.1042 171.49 48.4792 171.031 48.6875C171.031 48.8958 170.99 49.0833 170.906 49.25C170.823 49.375 170.76 49.5417 170.719 49.75C170.469 49.8333 170.302 49.9167 170.219 50C170.135 50.0833 169.99 50.1042 169.781 50.0625C169.615 50.1458 169.51 50.2917 169.469 50.5C169.469 50.6667 169.385 50.75 169.219 50.75C169.094 50.75 168.927 50.8542 168.719 51.0625C168.552 51.2708 168.302 51.375 167.969 51.375C167.844 51.8333 167.594 52.1458 167.219 52.3125C166.885 52.4792 166.635 52.7917 166.469 53.25C164.802 54.0833 163.781 54.5 163.406 54.5C163.073 54.5 162.74 54.3958 162.406 54.1875C162.24 54.1875 162.052 54.25 161.844 54.375C161.635 54.5 161.385 54.6042 161.094 54.6875C160.844 54.7708 160.49 54.8125 160.031 54.8125C159.615 54.8125 159.344 54.75 159.219 54.625C159.094 54.5 158.927 54.4375 158.719 54.4375C158.552 54.4375 158.406 54.5208 158.281 54.6875C158.156 54.8958 157.99 55.0625 157.781 55.1875C157.281 55.0208 156.677 54.9375 155.969 54.9375C155.302 54.9375 154.656 55.1042 154.031 55.4375C153.865 55.3125 153.698 55.25 153.531 55.25L152.469 55.4375L151.969 55.25C151.677 55.25 151.365 55.3542 151.031 55.5625C150.698 55.7708 150.531 55.8958 150.531 55.9375C150.531 56.0208 150.469 56.0625 150.344 56.0625C150.219 56.0625 149.906 55.9792 149.406 55.8125L149.344 55.375C149.344 54.6667 150.031 54.1458 151.406 53.8125C151.781 53.7292 152.073 53.625 152.281 53.5C151.99 52.8333 151.844 52.2083 151.844 51.625V49.625L151.719 49.375L151.844 48.9375L151.594 47.9375L151.719 47.0625L151.594 46.1875L151.719 45.3125C151.719 45.1458 151.677 44.9792 151.594 44.8125C151.552 44.6042 151.49 44.3125 151.406 43.9375C151.365 43.5625 151.344 43.0833 151.344 42.5C151.385 41.875 151.385 41.2708 151.344 40.6875L151.219 39.75L151.344 38.8125L151.094 35L151.344 32L151.219 31.625C151.302 31.5417 151.344 31.4375 151.344 31.3125C151.344 31.1458 151.302 31 151.219 30.875C151.177 30.7083 151.115 30.3958 151.031 29.9375C150.99 29.4792 150.99 28.8125 151.031 27.9375C151.115 27.0625 150.99 26.2708 150.656 25.5625V24.6875C150.656 24.2292 150.573 23.8333 150.406 23.5C150.531 23.0833 150.594 22.5625 150.594 21.9375L150.531 20.25C150.49 19.7917 150.406 19.3542 150.281 18.9375C150.198 18.5208 150.156 18.0625 150.156 17.5625L150.406 16.625L150.281 15.875L150.531 13.6875L150.281 12.25V11.4375L150.031 10.25L150.156 9.5625C150.156 9.47917 150.115 9.3125 150.031 9.0625L150.156 8.625C150.156 7.79167 150.135 6.95833 150.094 6.125C150.052 5.29167 150.073 4.4375 150.156 3.5625C149.948 3.47917 149.677 3.41667 149.344 3.375C149.052 3.29167 148.823 3.14583 148.656 2.9375C148.281 3.02083 147.927 3.16667 147.594 3.375C147.26 3.54167 146.948 3.625 146.656 3.625C146.365 3.625 146.156 3.58333 146.031 3.5C145.906 3.41667 145.823 3.39583 145.781 3.4375C145.74 3.4375 145.656 3.39583 145.531 3.3125C145.406 3.1875 145.344 2.89583 145.344 2.4375C145.344 1.97917 145.531 1.60417 145.906 1.3125C146.24 1.02083 146.594 0.895833 146.969 0.9375C147.302 0.979167 147.698 1 148.156 1L148.531 0.875L149.781 0.9375C150.406 0.9375 150.802 0.791667 150.969 0.5C151.177 0.541667 151.365 0.5625 151.531 0.5625H152.156C153.073 0.5625 154.052 0.5 155.094 0.375L156.219 0.125C156.427 0.125 156.594 0.208333 156.719 0.375C156.885 0.541667 157.073 0.666667 157.281 0.75L156.906 2.375C156.573 2.54167 156.26 2.70833 155.969 2.875C155.719 3 155.427 3.0625 155.094 3.0625C154.802 3.0625 154.531 3.02083 154.281 2.9375C154.073 3.02083 153.885 3.14583 153.719 3.3125C153.594 3.47917 153.427 3.60417 153.219 3.6875C153.177 3.8125 153.156 3.9375 153.156 4.0625C153.198 4.1875 153.219 4.33333 153.219 4.5C153.219 4.66667 153.177 4.77083 153.094 4.8125C153.427 5.47917 153.594 6.04167 153.594 6.5V6.625L153.469 6.6875V6.75C153.635 7.25 153.698 7.75 153.656 8.25C153.656 8.70833 153.677 9.22917 153.719 9.8125C153.802 10.3542 153.885 10.8958 153.969 11.4375C154.094 11.9792 154.156 12.5625 154.156 13.1875L154.031 14.25L154.156 16L154.031 17.8125L154.281 20.625L154.156 21.4375C154.156 21.8125 154.219 22.1667 154.344 22.5C154.677 23.4583 154.844 24.3958 154.844 25.3125L154.719 26.25C154.719 26.5833 154.76 26.8958 154.844 27.1875C154.927 27.4792 154.99 27.7708 155.031 28.0625C155.115 28.3125 155.135 28.5625 155.094 28.8125C155.094 29.0625 155.094 29.2917 155.094 29.5L155.344 31.625C155.344 31.7083 155.302 31.8125 155.219 31.9375C155.177 32.0208 155.156 32.1458 155.156 32.3125C155.198 32.4375 155.219 32.5625 155.219 32.6875L155.031 33.625C155.031 33.7917 155.094 33.875 155.219 33.875C155.052 34.125 154.969 34.375 154.969 34.625ZM167.781 48.8125C168.698 47.3958 169.094 46.125 168.969 45C169.177 44.625 169.281 44.2292 169.281 43.8125L169.219 41.375C169.219 40.9167 169.115 40.4167 168.906 39.875C168.74 39.2917 168.594 38.7708 168.469 38.3125L168.344 37.625C168.26 37.2917 168.135 36.9583 167.969 36.625C167.844 36.2917 167.76 35.9583 167.719 35.625C167.26 35.3333 166.656 34.8125 165.906 34.0625C165.406 34.1458 164.927 34.1458 164.469 34.0625C164.01 33.9792 163.615 34 163.281 34.125C162.948 34.25 162.656 34.3958 162.406 34.5625C162.156 34.7292 161.906 34.8542 161.656 34.9375C161.448 35.0208 161.24 35.0625 161.031 35.0625C160.865 35.0625 160.677 35.1042 160.469 35.1875C160.302 35.2708 160.177 35.3958 160.094 35.5625C160.01 35.6875 159.844 35.7083 159.594 35.625C159.469 35.8333 159.344 36.0417 159.219 36.25C159.135 36.4167 158.927 36.5 158.594 36.5C158.51 36.875 158.344 37.1875 158.094 37.4375C157.885 37.6458 157.74 37.9375 157.656 38.3125C157.49 38.4375 157.323 38.5417 157.156 38.625C156.99 38.7083 156.823 38.8125 156.656 38.9375C156.615 39.5208 156.427 40.0417 156.094 40.5C155.594 41.125 155.344 41.875 155.344 42.75V43.5L155.531 44.125L155.469 45C155.469 45.25 155.531 45.6875 155.656 46.3125C155.573 46.4792 155.531 46.7292 155.531 47.0625L155.656 49.0625L155.531 51C155.865 51.0833 156.115 51.2708 156.281 51.5625C156.448 51.8125 156.719 51.9583 157.094 52C157.135 52.0833 157.198 52.1667 157.281 52.25C157.365 52.2917 157.448 52.3542 157.531 52.4375C157.865 52.4792 158.135 52.5625 158.344 52.6875C158.552 52.8125 158.802 52.9167 159.094 53C160.135 52.7083 160.99 52.5625 161.656 52.5625C161.823 52.6875 161.969 52.75 162.094 52.75C162.219 52.75 162.302 52.7083 162.344 52.625C162.427 52.5417 162.531 52.4792 162.656 52.4375C162.781 52.3958 162.885 52.3958 162.969 52.4375C163.094 52.4792 163.198 52.5 163.281 52.5L163.406 52.4375C163.49 52.4375 163.552 52.3958 163.594 52.3125C163.677 52.1458 164.052 51.9583 164.719 51.75C165.385 51.5417 165.76 51.2917 165.844 51C165.969 50.5417 166.302 50.1667 166.844 49.875C166.969 49.7917 167.177 49.5833 167.469 49.25L167.719 49.125C167.76 49.0833 167.781 48.9792 167.781 48.8125ZM191.719 28.9375L193.531 31.5V31.625C193.531 32.25 193.698 32.7708 194.031 33.1875C194.406 33.6042 194.698 34.1042 194.906 34.6875C194.781 34.8542 194.656 35 194.531 35.125C194.406 35.25 194.302 35.4167 194.219 35.625C193.927 35.7083 193.719 35.75 193.594 35.75L192.594 35.6875C192.344 35.6875 192.135 35.75 191.969 35.875C191.76 35.75 191.51 35.6875 191.219 35.6875H190.469C190.052 35.6875 189.698 35.625 189.406 35.5C189.24 35.5417 189.115 35.6667 189.031 35.875C188.948 36.0833 188.656 36.1875 188.156 36.1875C187.656 36.1458 187.281 36.1667 187.031 36.25C186.823 36.2917 186.656 36.3542 186.531 36.4375C186.406 36.4792 186.219 36.5 185.969 36.5L184.719 36.375H183.219C182.844 36.9583 182.656 38.5 182.656 41L183.094 43.75L183.031 45.0625C183.031 45.5208 183.073 45.7917 183.156 45.875C183.448 46.25 183.594 46.6667 183.594 47.125C183.594 47.5417 183.698 47.9792 183.906 48.4375C184.156 48.8958 184.302 49.2708 184.344 49.5625C184.427 49.8125 184.552 50.1458 184.719 50.5625C184.885 50.9792 185.177 51.375 185.594 51.75C186.052 52.0833 186.552 52.25 187.094 52.25C187.677 52.25 188.156 52.1042 188.531 51.8125C188.948 51.4792 189.26 51.25 189.469 51.125C189.719 51 189.865 50.9583 189.906 51C189.948 51 190.031 50.9583 190.156 50.875C190.323 50.7917 190.573 50.5833 190.906 50.25C191.281 49.9167 191.51 49.6875 191.594 49.5625C191.677 49.4375 191.76 49.2708 191.844 49.0625C191.927 48.8125 192.031 48.4792 192.156 48.0625C192.323 47.6458 192.552 47.4375 192.844 47.4375C193.135 47.4375 193.427 47.6667 193.719 48.125C194.052 48.5417 194.219 48.9792 194.219 49.4375C194.219 49.8542 193.969 50.1875 193.469 50.4375C193.01 50.6875 192.719 51.0417 192.594 51.5C191.927 51.7917 191.531 52.0833 191.406 52.375C191.323 52.625 191.219 52.7917 191.094 52.875C191.01 52.9167 190.948 52.9375 190.906 52.9375C190.865 52.8958 190.802 52.875 190.719 52.875C190.635 52.875 190.594 52.9583 190.594 53.125C190.344 53.2917 190.094 53.5 189.844 53.75C189.344 53.5833 188.844 53.6667 188.344 54C187.844 54.375 187.365 54.5625 186.906 54.5625C186.448 54.5625 186.031 54.3958 185.656 54.0625C185.448 54.1458 185.219 54.1875 184.969 54.1875C184.719 54.1875 184.469 54.2292 184.219 54.3125C183.885 53.9792 183.51 53.7292 183.094 53.5625C182.677 53.3958 182.26 53.2083 181.844 53C181.76 52.75 181.656 52.625 181.531 52.625C181.448 52.5833 181.448 52.4167 181.531 52.125C181.365 52.0417 181.198 51.9583 181.031 51.875C180.906 51.7917 180.76 51.7083 180.594 51.625C180.469 51.3333 180.24 51.0208 179.906 50.6875V49.875C179.573 49.75 179.344 49.5 179.219 49.125C179.135 48.7083 178.927 48.3958 178.594 48.1875C178.552 47.6875 178.448 47.2083 178.281 46.75C178.156 46.25 178.094 45.75 178.094 45.25V44.125L177.656 41.5V41L177.844 40.4375L177.656 39.875L178.094 37.25L178.344 36.875C178.552 35.7917 178.719 34.8125 178.844 33.9375C179.01 33.0625 179.302 32.2292 179.719 31.4375C180.177 30.6042 180.635 29.8333 181.094 29.125C181.552 28.375 181.844 27.6875 181.969 27.0625C183.219 26.0625 184.49 25.2083 185.781 24.5C185.99 24.5833 186.156 24.625 186.281 24.625L187.281 24.4375C187.656 24.4375 188.094 24.6875 188.594 25.1875L189.281 25.0625H189.531C189.615 25.1875 189.656 25.3333 189.656 25.5C189.698 25.6667 189.802 25.7708 189.969 25.8125C190.427 26.1875 190.698 26.6458 190.781 27.1875C190.906 27.6875 191.219 28.0833 191.719 28.375V28.9375ZM189.969 34.1875L192.094 33.75V33.5C192.094 33.25 192.052 33 191.969 32.75C191.927 32.5 191.885 32.25 191.844 32C191.594 31.7083 191.344 31.4792 191.094 31.3125C190.885 31.1458 190.802 30.8333 190.844 30.375C190.469 30.25 190.219 29.9792 190.094 29.5625C190.01 29.1458 189.927 28.75 189.844 28.375C189.76 28.375 189.719 28.2917 189.719 28.125C189.427 27.9167 189.219 27.75 189.094 27.625C188.635 27.1667 187.906 26.9375 186.906 26.9375C185.948 26.9375 185.323 27.0625 185.031 27.3125C184.781 27.5208 184.51 28.1458 184.219 29.1875C183.927 30.1875 183.656 31.0417 183.406 31.75C183.198 32.4167 183.094 33.1042 183.094 33.8125V34.1875L185.094 34.4375L186.531 34.3125L187.031 34.4375L188.031 34.1875L188.906 34.3125L189.406 34.0625L189.969 34.1875ZM204.406 24.4375L204.219 25.375C204.219 25.8333 204.469 26.1875 204.969 26.4375C205.094 26.3958 205.302 26.25 205.594 26C205.885 25.7083 206.344 25.3125 206.969 24.8125C207.594 24.2708 207.948 23.8542 208.031 23.5625C208.365 23.3542 208.76 23.0625 209.219 22.6875C209.677 22.2708 209.948 22 210.031 21.875H210.281C211.073 21.0833 212.031 20.5417 213.156 20.25C214.323 19.9167 215.094 19.75 215.469 19.75C216.677 19.75 217.677 20.2083 218.469 21.125C218.635 21.375 218.802 21.6458 218.969 21.9375C219.177 22.1875 219.448 22.4792 219.781 22.8125C220.031 22.9792 220.198 23.375 220.281 24C220.406 24.5833 220.552 25 220.719 25.25C220.635 25.4167 220.51 25.6667 220.344 26C220.219 26.2917 220.052 26.6042 219.844 26.9375C219.677 27.2292 219.51 27.5208 219.344 27.8125C219.219 28.0625 219.094 28.2292 218.969 28.3125C218.885 28.3958 218.656 28.5625 218.281 28.8125C217.906 29.0208 217.656 29.25 217.531 29.5C217.49 29.5417 217.281 29.6042 216.906 29.6875C216.573 29.7708 216.365 29.8542 216.281 29.9375H216.156C216.031 29.9792 215.948 29.9375 215.906 29.8125C215.906 29.6875 215.865 29.5833 215.781 29.5H215.531C215.198 29.5 214.969 29.4167 214.844 29.25L214.281 28.75C214.531 28.0833 214.865 27.5417 215.281 27.125C215.615 27.2083 215.927 27.25 216.219 27.25C216.885 27.25 217.406 26.6667 217.781 25.5C217.531 25.0833 217.344 24.6875 217.219 24.3125C217.135 23.9375 216.969 23.5208 216.719 23.0625C216.469 22.5625 215.927 22.3125 215.094 22.3125C214.302 22.3125 213.656 22.5208 213.156 22.9375C212.656 23.3125 212.344 23.7292 212.219 24.1875C211.844 24.3542 211.51 24.625 211.219 25C210.927 25.3333 210.552 25.6458 210.094 25.9375C209.635 26.2292 209.406 26.4167 209.406 26.5C209.406 26.5417 209.385 26.5833 209.344 26.625C209.344 26.6667 209.281 26.7083 209.156 26.75C209.073 26.7917 208.906 26.875 208.656 27C208.573 27.125 208.51 27.2708 208.469 27.4375C208.427 27.5625 208.365 27.7083 208.281 27.875C208.073 27.9167 207.885 28.0208 207.719 28.1875C207.594 28.3125 207.427 28.3958 207.219 28.4375L207.281 29C207.281 29.5417 206.906 30.1875 206.156 30.9375L206.406 31.75V31.8125C206.24 32.0625 206.115 32.3542 206.031 32.6875C205.99 33.0208 205.844 33.2917 205.594 33.5C205.385 34.5417 205.281 35.75 205.281 37.125L205.344 42.0625C205.344 42.2708 205.365 42.6042 205.406 43.0625C205.448 43.4792 205.49 44.1042 205.531 44.9375C205.615 45.7708 205.74 46.3333 205.906 46.625L205.844 46.875C205.885 46.9583 205.906 47.2083 205.906 47.625C205.906 48 205.969 48.4167 206.094 48.875C206.26 49.2917 206.281 49.75 206.156 50.25C206.281 50.5833 206.615 50.75 207.156 50.75C207.698 50.75 208.073 50.6667 208.281 50.5H208.344C208.51 50.5 208.573 50.4375 208.531 50.3125C208.531 50.1875 208.573 50.0625 208.656 49.9375C208.823 49.8542 209.031 49.8125 209.281 49.8125C209.573 49.8125 209.802 49.9792 209.969 50.3125C210.135 50.6458 210.219 50.9583 210.219 51.25C210.219 51.5 210.198 51.6875 210.156 51.8125C209.781 52.1042 209.365 52.2292 208.906 52.1875C208.781 52.2708 208.635 52.3958 208.469 52.5625C208.344 52.6875 208.156 52.8125 207.906 52.9375C207.656 53.0625 207.156 53.125 206.406 53.125C205.656 53.0833 205.115 53.125 204.781 53.25C204.49 53.3333 204.302 53.3958 204.219 53.4375C204.177 53.4792 204.031 53.5417 203.781 53.625C203.573 53.6667 203.281 53.6875 202.906 53.6875C202.531 53.6875 202.198 53.8125 201.906 54.0625H201.781C201.656 54.0625 201.573 54.0417 201.531 54C201.49 53.9167 201.427 53.8542 201.344 53.8125C200.927 53.8958 200.594 53.9375 200.344 53.9375C200.094 53.9375 199.906 53.8958 199.781 53.8125C199.865 52.6875 200.74 51.9375 202.406 51.5625C202.406 51.3542 202.49 51.2292 202.656 51.1875V51.0625C202.656 50.6042 202.573 50.1458 202.406 49.6875C202.24 49.2292 202.156 48.75 202.156 48.25L202.281 47.4375L201.906 45.4375L202.031 44.3125L201.656 40.6875L201.781 38.125C201.781 37.875 201.781 37.625 201.781 37.375L201.406 35.625L201.531 34.5625L201.406 32.5625L201.531 31.0625L201.344 28.875C201.302 28.375 201.281 27.875 201.281 27.375C201.323 26.875 201.344 26.375 201.344 25.875L201.156 24.6875C201.156 24.1875 201.115 23.6042 201.031 22.9375C200.781 23.0208 200.49 23.0417 200.156 23C199.865 22.9167 199.635 23.0417 199.469 23.375C199.302 23.25 199.198 23.1875 199.156 23.1875L198.219 23.5625C198.177 23.3542 198.052 23.2708 197.844 23.3125C197.677 23.3542 197.531 23.375 197.406 23.375H197.344C197.26 23 197.219 22.75 197.219 22.625C197.219 21.9583 197.552 21.625 198.219 21.625L198.969 21.4375C200.302 21.0625 201.26 20.7708 201.844 20.5625C202.469 20.3542 202.865 20.2708 203.031 20.3125C203.198 20.3542 203.365 20.5 203.531 20.75C203.698 21 203.823 21.2708 203.906 21.5625C203.99 21.8542 204.031 22.1667 204.031 22.5C204.073 22.7917 204.115 23.0833 204.156 23.375L204.406 24.4375ZM251.844 50.125H251.031C250.948 50.125 250.865 50.0625 250.781 49.9375C250.49 50.1458 250.094 50.3125 249.594 50.4375C249.469 50.3125 249.302 50.25 249.094 50.25L248.344 50.3125C248.135 50.3125 247.969 50.25 247.844 50.125L246.406 50.6875H246.281C246.156 50.7292 245.906 50.6458 245.531 50.4375C245.323 50.5208 245.115 50.6042 244.906 50.6875C244.698 50.7708 244.49 50.8125 244.281 50.8125H244.219L244.094 51.0625C243.677 51.2292 242.99 51.3125 242.031 51.3125L241.281 51.1875V51L241.156 50.25C241.156 50.0417 241.26 49.75 241.469 49.375L241.969 48.5625C242.177 48.2708 242.427 47.9583 242.719 47.625C243.01 47.1667 243.26 46.7083 243.469 46.25C243.677 45.7917 243.969 45.3958 244.344 45.0625C244.344 44.2708 244.948 43.0625 246.156 41.4375L246.406 41.3125C246.99 40.1458 247.323 39.25 247.406 38.625C247.573 38.5417 247.677 38.4167 247.719 38.25C247.76 38.0833 247.844 37.9583 247.969 37.875V37.75C247.969 37.1667 248.156 36.6458 248.531 36.1875C248.906 35.7292 249.135 35.3333 249.219 35C249.302 34.625 249.323 34.3333 249.281 34.125C249.281 33.9167 249.281 33.6875 249.281 33.4375C249.281 33.1875 249.365 32.875 249.531 32.5C249.74 32.125 249.844 31.7917 249.844 31.5C249.885 31.2083 249.948 30.9792 250.031 30.8125C250.156 30.6042 250.281 30.375 250.406 30.125C250.573 29.8333 250.635 29.6042 250.594 29.4375C250.594 29.2708 250.615 29.1042 250.656 28.9375C250.781 28.8958 250.865 28.7917 250.906 28.625C251.115 28.5 251.344 27.3333 251.594 25.125C251.844 22.9167 251.969 21.7292 251.969 21.5625L251.844 20.4375V18.5625C251.844 17.1458 251.677 16.2292 251.344 15.8125L251.094 15.6875C251.052 15.6042 251.052 15.5208 251.094 15.4375C251.135 15.3125 251.156 15.2083 251.156 15.125C251.156 15 251.073 14.8333 250.906 14.625C250.74 14.4167 250.531 14.1458 250.281 13.8125C250.031 13.4792 249.719 13.125 249.344 12.75L248.906 12.8125C248.698 12.8125 248.469 12.7708 248.219 12.6875C248.01 12.5625 247.802 12.4792 247.594 12.4375C247.552 12.2708 247.469 12.1875 247.344 12.1875C247.219 12.1458 247.198 11.9792 247.281 11.6875H247.156C246.906 11.6875 246.76 11.8125 246.719 12.0625C246.677 12.2708 246.573 12.4375 246.406 12.5625C245.99 12.6875 245.531 12.8333 245.031 13C244.531 13.125 244.177 13.3958 243.969 13.8125C243.635 13.8125 243.323 13.9167 243.031 14.125C242.74 14.3333 242.594 14.6042 242.594 14.9375V15L242.344 15.125C242.26 15.3333 242.177 15.5208 242.094 15.6875C242.052 15.8542 241.969 16.0208 241.844 16.1875C241.76 16.3125 241.635 16.4167 241.469 16.5C241.302 16.5417 241.24 16.6667 241.281 16.875C241.156 16.9583 240.948 17 240.656 17C240.615 17.3333 240.49 17.6875 240.281 18.0625C240.073 18.3958 239.969 18.75 239.969 19.125L240.094 19.625L239.844 21.0625C239.844 21.7292 239.969 22.3333 240.219 22.875L239.844 24.125L240.219 25.375C240.594 25.5833 240.927 25.75 241.219 25.875C241.552 26 241.719 26.2917 241.719 26.75C242.01 26.6667 242.406 26.4167 242.906 26C243.406 25.5833 243.76 25.375 243.969 25.375C244.094 24.9583 244.156 24.4167 244.156 23.75C244.156 23.0833 243.969 22.4792 243.594 21.9375C243.635 21.8542 243.656 21.7292 243.656 21.5625L243.594 20.625V20.4375C244.052 20.1042 244.427 19.9375 244.719 19.9375C245.052 19.9375 245.49 20.2083 246.031 20.75V21C246.031 21.0833 246.073 21.1667 246.156 21.25C246.406 21.3333 246.51 21.4583 246.469 21.625C246.427 21.7917 246.406 21.9375 246.406 22.0625C246.406 22.1875 246.448 22.3125 246.531 22.4375C246.656 22.5208 246.74 22.6458 246.781 22.8125C246.823 22.9792 246.823 23.1667 246.781 23.375C246.781 23.5417 246.781 23.7292 246.781 23.9375V24.3125C246.781 24.3542 246.74 24.375 246.656 24.375C246.615 24.375 246.531 24.4583 246.406 24.625C246.323 24.75 246.302 24.8958 246.344 25.0625C246.385 25.1875 246.365 25.2917 246.281 25.375C246.031 25.5 245.823 25.6875 245.656 25.9375C245.49 26.1458 245.281 26.2917 245.031 26.375C244.781 26.7083 244.594 27.0208 244.469 27.3125C244.01 27.5208 243.552 27.7083 243.094 27.875C242.635 28 242.177 28.1458 241.719 28.3125C241.51 28.1458 241.323 27.9583 241.156 27.75L240.531 27.1875C240.406 27.2292 240.177 27.25 239.844 27.25C239.51 27.25 239.198 27.1875 238.906 27.0625C238.74 26.9375 238.656 26.6875 238.656 26.3125C238.656 25.9375 238.552 25.5833 238.344 25.25C238.26 24.9167 238.24 24.6042 238.281 24.3125C238.323 23.9792 238.302 23.7083 238.219 23.5C238.177 23.25 238.115 23.0833 238.031 23C237.948 22.7917 237.906 22.5 237.906 22.125V21.5625C237.906 20.9792 237.781 20.6042 237.531 20.4375C237.906 19.6875 238.052 19.1667 237.969 18.875C238.219 18.7083 238.427 18.4167 238.594 18C238.76 17.5417 238.844 17.25 238.844 17.125C238.844 17 238.823 16.875 238.781 16.75C238.781 16.5833 238.906 16.2292 239.156 15.6875L239.281 15L239.531 14.875C239.615 14.6667 239.74 14.5 239.906 14.375C240.073 14.25 240.219 14.125 240.344 14C240.469 13.875 240.552 13.75 240.594 13.625C240.635 13.4583 240.677 13.3333 240.719 13.25C240.802 13.1667 240.865 13.125 240.906 13.125C240.99 13.125 241.052 13.0833 241.094 13C241.177 12.9167 241.198 12.8333 241.156 12.75C241.156 12.6667 241.177 12.6042 241.219 12.5625C241.302 12.4792 241.385 12.4583 241.469 12.5C241.552 12.5417 241.635 12.5208 241.719 12.4375C241.802 12.3542 241.823 12.2917 241.781 12.25C241.698 12.0833 241.802 11.9792 242.094 11.9375C242.385 11.8542 242.594 11.7708 242.719 11.6875L242.844 11.5H243.094L245.031 10.625H245.719L246.531 10.375C246.615 10.375 246.656 10.3958 246.656 10.4375C246.656 10.4792 246.698 10.5 246.781 10.5H248.531L249.094 10.375C249.302 10.375 249.552 10.5 249.844 10.75C250.177 11 250.594 11.0833 251.094 11C251.094 11.1667 251.156 11.25 251.281 11.25C251.406 11.2083 251.51 11.2083 251.594 11.25C251.635 11.2917 251.635 11.3333 251.594 11.375C251.594 11.375 251.635 11.4167 251.719 11.5C252.26 11.75 252.74 12.1667 253.156 12.75L253.719 13.5625L254.156 14.0625C254.281 14.2708 254.344 14.4167 254.344 14.5C254.344 14.5833 254.406 14.7083 254.531 14.875C254.698 15.0417 254.781 15.2083 254.781 15.375C254.781 15.5417 254.823 15.6875 254.906 15.8125L255.156 15.9375C255.198 16.0625 255.198 16.2083 255.156 16.375C255.156 16.5417 255.177 16.7083 255.219 16.875C255.302 17.0417 255.365 17.1667 255.406 17.25C255.49 17.2917 255.531 17.4167 255.531 17.625L255.469 18.625L255.594 19.875L255.469 20.75L255.594 21.4375L255.344 22.3125L255.469 22.9375L255.219 23.9375L255.281 24.4375C255.281 24.6875 255.156 25.0625 254.906 25.5625C254.906 27.3125 254.51 29.1042 253.719 30.9375C253.469 31.5208 253.198 31.9583 252.906 32.25C252.781 33.2083 252.573 33.8333 252.281 34.125V34.9375C252.281 35.0625 252.156 35.3125 251.906 35.6875C251.698 36.0625 251.552 36.3542 251.469 36.5625C251.385 36.7292 251.344 36.8958 251.344 37.0625C251.344 37.2292 251.281 37.4583 251.156 37.75C251.073 38 250.865 38.375 250.531 38.875C250.198 39.3333 250.052 39.75 250.094 40.125C249.885 40.3333 249.719 40.4583 249.594 40.5V40.5625C249.594 40.8542 249.448 41.2917 249.156 41.875C248.865 42.4583 248.677 42.7917 248.594 42.875C248.552 42.9167 248.51 42.9375 248.469 42.9375C248.427 42.9375 248.344 42.9792 248.219 43.0625C248.094 43.2292 248.01 43.4167 247.969 43.625C247.927 43.7917 247.781 43.8958 247.531 43.9375C247.448 44.6875 247.156 45.2292 246.656 45.5625V45.6875C246.698 46.0208 246.615 46.2708 246.406 46.4375C246.198 46.5625 246.073 46.7708 246.031 47.0625C245.698 47.3125 245.427 47.5833 245.219 47.875C245.01 48.1667 244.781 48.4375 244.531 48.6875C244.698 48.8542 244.885 48.9375 245.094 48.9375L246.281 48.6875L247.031 48.75C247.615 48.75 248.198 48.6667 248.781 48.5C249.406 48.3333 249.99 48.2083 250.531 48.125C251.115 48.0417 251.719 48.0208 252.344 48.0625C253.01 48.0625 253.573 47.9167 254.031 47.625C254.198 47.7083 254.698 47.75 255.531 47.75C256.406 47.75 257.531 47.5208 258.906 47.0625C259.115 47.3125 259.302 47.4792 259.469 47.5625C259.635 47.6458 259.719 47.8542 259.719 48.1875C259.719 48.4792 259.531 48.75 259.156 49C258.823 49.25 258.51 49.375 258.219 49.375C257.969 49.375 257.76 49.3125 257.594 49.1875C257.177 49.3542 256.719 49.4375 256.219 49.4375L254.719 49.3125C254.385 49.3125 254.073 49.4167 253.781 49.625C253.531 49.7917 253.198 49.8542 252.781 49.8125C252.365 49.7708 252.052 49.875 251.844 50.125ZM282.156 28.8125L282.344 30.0625C282.344 30.2708 282.281 30.4583 282.156 30.625C282.073 30.75 281.99 30.9375 281.906 31.1875C281.823 31.3958 281.781 31.625 281.781 31.875C281.823 32.125 281.823 32.3542 281.781 32.5625C281.781 32.7708 281.719 32.9167 281.594 33C281.469 33.0833 281.323 33.4583 281.156 34.125C280.99 34.75 280.698 35.1667 280.281 35.375C280.156 35.4583 280.094 35.625 280.094 35.875H279.969C279.635 35.875 279.406 36 279.281 36.25C279.156 36.5 278.927 36.625 278.594 36.625C278.51 36.7083 278.469 36.8333 278.469 37C278.51 37.1667 278.344 37.3333 277.969 37.5C277.635 37.6667 277.365 37.9167 277.156 38.25C276.698 38.2917 276.302 38.3958 275.969 38.5625C275.677 38.7292 275.344 38.8958 274.969 39.0625H274.469L272.656 39.125C272.323 39.125 272.031 39.1042 271.781 39.0625C271.573 38.9792 271.323 38.9583 271.031 39C270.781 39.0417 270.531 39.0625 270.281 39.0625C270.073 39.0625 269.781 39.0208 269.406 38.9375C269.031 38.8542 268.74 38.7292 268.531 38.5625C268.365 38.3958 268.115 38.3542 267.781 38.4375C267.781 38.2292 267.698 38.1458 267.531 38.1875C267.406 38.2292 267.26 38.1875 267.094 38.0625C266.969 37.9375 266.781 37.7083 266.531 37.375C266.281 37 266.052 36.75 265.844 36.625C265.76 36.4583 265.719 36.2292 265.719 35.9375C265.719 35.6458 265.656 35.5 265.531 35.5C265.406 35.5 265.302 35.4583 265.219 35.375L265.094 34.9375C264.969 34.6458 264.844 34.3542 264.719 34.0625C264.594 33.7708 264.448 33.5208 264.281 33.3125L264.344 32.75C264.344 32.375 264.281 32.1458 264.156 32.0625C264.073 31.9375 263.948 31.5417 263.781 30.875C263.615 30.2083 263.531 29.4167 263.531 28.5C263.531 26.625 264.344 24.7083 265.969 22.75C266.094 22.3333 266.219 22.125 266.344 22.125C266.469 22.125 266.615 22.0208 266.781 21.8125C266.99 21.6042 267.156 21.3958 267.281 21.1875C267.448 20.9375 267.656 20.7292 267.906 20.5625C268.156 20.3958 268.302 20.2708 268.344 20.1875C268.385 20.0625 268.448 20.0208 268.531 20.0625C268.615 20.1042 268.74 20.0208 268.906 19.8125C269.156 19.6875 269.385 19.6042 269.594 19.5625C269.802 19.4792 269.99 19.3542 270.156 19.1875L270.594 19.25L274.031 19.0625C274.323 19.2708 274.594 19.4792 274.844 19.6875C275.135 19.8542 275.365 20.0833 275.531 20.375C275.99 20.4583 276.406 20.6667 276.781 21C277.156 21.2917 277.469 21.5208 277.719 21.6875C277.969 21.8125 278.156 21.8958 278.281 21.9375C278.406 21.9792 278.615 22.1458 278.906 22.4375C279.24 22.6875 279.615 23.1458 280.031 23.8125C280.448 24.4375 280.885 25.0208 281.344 25.5625L281.281 25.8125C281.281 26.2292 281.448 26.5625 281.781 26.8125C281.74 26.8958 281.719 27 281.719 27.125C281.719 27.2083 281.865 27.625 282.156 28.375V28.8125ZM267.344 26.6875L267.656 29.0625C267.656 29.3958 267.76 29.7083 267.969 30C268.177 30.25 268.24 30.6042 268.156 31.0625C268.406 31.5208 268.573 32 268.656 32.5C268.74 32.9583 268.823 33.4167 268.906 33.875C269.406 34.4583 269.781 35.0417 270.031 35.625C270.281 36.1667 270.677 36.5625 271.219 36.8125C271.76 37.0208 272.302 37.1042 272.844 37.0625C273.385 37.0208 273.76 37 273.969 37C274.219 37 274.344 37.0417 274.344 37.125L274.656 37.1875C275.031 37.1875 275.344 37.125 275.594 37C275.885 36.8333 276.198 36.6667 276.531 36.5C277.031 35.9167 277.552 35.3958 278.094 34.9375C278.635 34.4375 279.156 33.8958 279.656 33.3125V33.125C279.573 32.7917 279.615 32.4792 279.781 32.1875C279.99 31.8958 280.115 31.6458 280.156 31.4375C280.24 31.1875 280.26 31.0208 280.219 30.9375C280.219 30.8125 280.219 30.7083 280.219 30.625V30.5L280.469 30.375C280.51 30.2917 280.531 30.1458 280.531 29.9375C280.531 29.7292 280.427 29.3542 280.219 28.8125L280.094 27.0625C279.635 26.6042 279.26 26.0833 278.969 25.5C278.677 24.9167 278.531 24.5833 278.531 24.5H278.344C278.219 24.5 278.156 24.4583 278.156 24.375C278.156 24.125 277.99 24 277.656 24C277.49 24 277.365 23.9583 277.281 23.875C277.323 23.6667 277.219 23.5625 276.969 23.5625C276.76 23.5208 276.698 23.3542 276.781 23.0625C276.74 23.1042 276.656 23.125 276.531 23.125C276.448 23.125 276.365 23.0833 276.281 23C276.115 22.75 275.906 22.6458 275.656 22.6875C275.448 22.7292 275.031 22.6042 274.406 22.3125C273.823 22.0208 273.531 21.875 273.531 21.875C273.531 21.8333 273.51 21.8125 273.469 21.8125L272.969 22.125C272.927 22.125 272.885 22.0625 272.844 21.9375C272.594 21.5208 272.052 21.3125 271.219 21.3125C270.427 21.3125 269.906 21.375 269.656 21.5C269.448 22.0417 269.156 22.375 268.781 22.5C268.74 23.125 268.448 23.5833 267.906 23.875C267.823 24.3333 267.698 24.7917 267.531 25.25C267.406 25.7083 267.344 26.1875 267.344 26.6875ZM301.156 50.125H300.344C300.26 50.125 300.177 50.0625 300.094 49.9375C299.802 50.1458 299.406 50.3125 298.906 50.4375C298.781 50.3125 298.615 50.25 298.406 50.25L297.656 50.3125C297.448 50.3125 297.281 50.25 297.156 50.125L295.719 50.6875H295.594C295.469 50.7292 295.219 50.6458 294.844 50.4375C294.635 50.5208 294.427 50.6042 294.219 50.6875C294.01 50.7708 293.802 50.8125 293.594 50.8125H293.531L293.406 51.0625C292.99 51.2292 292.302 51.3125 291.344 51.3125L290.594 51.1875V51L290.469 50.25C290.469 50.0417 290.573 49.75 290.781 49.375L291.281 48.5625C291.49 48.2708 291.74 47.9583 292.031 47.625C292.323 47.1667 292.573 46.7083 292.781 46.25C292.99 45.7917 293.281 45.3958 293.656 45.0625C293.656 44.2708 294.26 43.0625 295.469 41.4375L295.719 41.3125C296.302 40.1458 296.635 39.25 296.719 38.625C296.885 38.5417 296.99 38.4167 297.031 38.25C297.073 38.0833 297.156 37.9583 297.281 37.875V37.75C297.281 37.1667 297.469 36.6458 297.844 36.1875C298.219 35.7292 298.448 35.3333 298.531 35C298.615 34.625 298.635 34.3333 298.594 34.125C298.594 33.9167 298.594 33.6875 298.594 33.4375C298.594 33.1875 298.677 32.875 298.844 32.5C299.052 32.125 299.156 31.7917 299.156 31.5C299.198 31.2083 299.26 30.9792 299.344 30.8125C299.469 30.6042 299.594 30.375 299.719 30.125C299.885 29.8333 299.948 29.6042 299.906 29.4375C299.906 29.2708 299.927 29.1042 299.969 28.9375C300.094 28.8958 300.177 28.7917 300.219 28.625C300.427 28.5 300.656 27.3333 300.906 25.125C301.156 22.9167 301.281 21.7292 301.281 21.5625L301.156 20.4375V18.5625C301.156 17.1458 300.99 16.2292 300.656 15.8125L300.406 15.6875C300.365 15.6042 300.365 15.5208 300.406 15.4375C300.448 15.3125 300.469 15.2083 300.469 15.125C300.469 15 300.385 14.8333 300.219 14.625C300.052 14.4167 299.844 14.1458 299.594 13.8125C299.344 13.4792 299.031 13.125 298.656 12.75L298.219 12.8125C298.01 12.8125 297.781 12.7708 297.531 12.6875C297.323 12.5625 297.115 12.4792 296.906 12.4375C296.865 12.2708 296.781 12.1875 296.656 12.1875C296.531 12.1458 296.51 11.9792 296.594 11.6875H296.469C296.219 11.6875 296.073 11.8125 296.031 12.0625C295.99 12.2708 295.885 12.4375 295.719 12.5625C295.302 12.6875 294.844 12.8333 294.344 13C293.844 13.125 293.49 13.3958 293.281 13.8125C292.948 13.8125 292.635 13.9167 292.344 14.125C292.052 14.3333 291.906 14.6042 291.906 14.9375V15L291.656 15.125C291.573 15.3333 291.49 15.5208 291.406 15.6875C291.365 15.8542 291.281 16.0208 291.156 16.1875C291.073 16.3125 290.948 16.4167 290.781 16.5C290.615 16.5417 290.552 16.6667 290.594 16.875C290.469 16.9583 290.26 17 289.969 17C289.927 17.3333 289.802 17.6875 289.594 18.0625C289.385 18.3958 289.281 18.75 289.281 19.125L289.406 19.625L289.156 21.0625C289.156 21.7292 289.281 22.3333 289.531 22.875L289.156 24.125L289.531 25.375C289.906 25.5833 290.24 25.75 290.531 25.875C290.865 26 291.031 26.2917 291.031 26.75C291.323 26.6667 291.719 26.4167 292.219 26C292.719 25.5833 293.073 25.375 293.281 25.375C293.406 24.9583 293.469 24.4167 293.469 23.75C293.469 23.0833 293.281 22.4792 292.906 21.9375C292.948 21.8542 292.969 21.7292 292.969 21.5625L292.906 20.625V20.4375C293.365 20.1042 293.74 19.9375 294.031 19.9375C294.365 19.9375 294.802 20.2083 295.344 20.75V21C295.344 21.0833 295.385 21.1667 295.469 21.25C295.719 21.3333 295.823 21.4583 295.781 21.625C295.74 21.7917 295.719 21.9375 295.719 22.0625C295.719 22.1875 295.76 22.3125 295.844 22.4375C295.969 22.5208 296.052 22.6458 296.094 22.8125C296.135 22.9792 296.135 23.1667 296.094 23.375C296.094 23.5417 296.094 23.7292 296.094 23.9375V24.3125C296.094 24.3542 296.052 24.375 295.969 24.375C295.927 24.375 295.844 24.4583 295.719 24.625C295.635 24.75 295.615 24.8958 295.656 25.0625C295.698 25.1875 295.677 25.2917 295.594 25.375C295.344 25.5 295.135 25.6875 294.969 25.9375C294.802 26.1458 294.594 26.2917 294.344 26.375C294.094 26.7083 293.906 27.0208 293.781 27.3125C293.323 27.5208 292.865 27.7083 292.406 27.875C291.948 28 291.49 28.1458 291.031 28.3125C290.823 28.1458 290.635 27.9583 290.469 27.75L289.844 27.1875C289.719 27.2292 289.49 27.25 289.156 27.25C288.823 27.25 288.51 27.1875 288.219 27.0625C288.052 26.9375 287.969 26.6875 287.969 26.3125C287.969 25.9375 287.865 25.5833 287.656 25.25C287.573 24.9167 287.552 24.6042 287.594 24.3125C287.635 23.9792 287.615 23.7083 287.531 23.5C287.49 23.25 287.427 23.0833 287.344 23C287.26 22.7917 287.219 22.5 287.219 22.125V21.5625C287.219 20.9792 287.094 20.6042 286.844 20.4375C287.219 19.6875 287.365 19.1667 287.281 18.875C287.531 18.7083 287.74 18.4167 287.906 18C288.073 17.5417 288.156 17.25 288.156 17.125C288.156 17 288.135 16.875 288.094 16.75C288.094 16.5833 288.219 16.2292 288.469 15.6875L288.594 15L288.844 14.875C288.927 14.6667 289.052 14.5 289.219 14.375C289.385 14.25 289.531 14.125 289.656 14C289.781 13.875 289.865 13.75 289.906 13.625C289.948 13.4583 289.99 13.3333 290.031 13.25C290.115 13.1667 290.177 13.125 290.219 13.125C290.302 13.125 290.365 13.0833 290.406 13C290.49 12.9167 290.51 12.8333 290.469 12.75C290.469 12.6667 290.49 12.6042 290.531 12.5625C290.615 12.4792 290.698 12.4583 290.781 12.5C290.865 12.5417 290.948 12.5208 291.031 12.4375C291.115 12.3542 291.135 12.2917 291.094 12.25C291.01 12.0833 291.115 11.9792 291.406 11.9375C291.698 11.8542 291.906 11.7708 292.031 11.6875L292.156 11.5H292.406L294.344 10.625H295.031L295.844 10.375C295.927 10.375 295.969 10.3958 295.969 10.4375C295.969 10.4792 296.01 10.5 296.094 10.5H297.844L298.406 10.375C298.615 10.375 298.865 10.5 299.156 10.75C299.49 11 299.906 11.0833 300.406 11C300.406 11.1667 300.469 11.25 300.594 11.25C300.719 11.2083 300.823 11.2083 300.906 11.25C300.948 11.2917 300.948 11.3333 300.906 11.375C300.906 11.375 300.948 11.4167 301.031 11.5C301.573 11.75 302.052 12.1667 302.469 12.75L303.031 13.5625L303.469 14.0625C303.594 14.2708 303.656 14.4167 303.656 14.5C303.656 14.5833 303.719 14.7083 303.844 14.875C304.01 15.0417 304.094 15.2083 304.094 15.375C304.094 15.5417 304.135 15.6875 304.219 15.8125L304.469 15.9375C304.51 16.0625 304.51 16.2083 304.469 16.375C304.469 16.5417 304.49 16.7083 304.531 16.875C304.615 17.0417 304.677 17.1667 304.719 17.25C304.802 17.2917 304.844 17.4167 304.844 17.625L304.781 18.625L304.906 19.875L304.781 20.75L304.906 21.4375L304.656 22.3125L304.781 22.9375L304.531 23.9375L304.594 24.4375C304.594 24.6875 304.469 25.0625 304.219 25.5625C304.219 27.3125 303.823 29.1042 303.031 30.9375C302.781 31.5208 302.51 31.9583 302.219 32.25C302.094 33.2083 301.885 33.8333 301.594 34.125V34.9375C301.594 35.0625 301.469 35.3125 301.219 35.6875C301.01 36.0625 300.865 36.3542 300.781 36.5625C300.698 36.7292 300.656 36.8958 300.656 37.0625C300.656 37.2292 300.594 37.4583 300.469 37.75C300.385 38 300.177 38.375 299.844 38.875C299.51 39.3333 299.365 39.75 299.406 40.125C299.198 40.3333 299.031 40.4583 298.906 40.5V40.5625C298.906 40.8542 298.76 41.2917 298.469 41.875C298.177 42.4583 297.99 42.7917 297.906 42.875C297.865 42.9167 297.823 42.9375 297.781 42.9375C297.74 42.9375 297.656 42.9792 297.531 43.0625C297.406 43.2292 297.323 43.4167 297.281 43.625C297.24 43.7917 297.094 43.8958 296.844 43.9375C296.76 44.6875 296.469 45.2292 295.969 45.5625V45.6875C296.01 46.0208 295.927 46.2708 295.719 46.4375C295.51 46.5625 295.385 46.7708 295.344 47.0625C295.01 47.3125 294.74 47.5833 294.531 47.875C294.323 48.1667 294.094 48.4375 293.844 48.6875C294.01 48.8542 294.198 48.9375 294.406 48.9375L295.594 48.6875L296.344 48.75C296.927 48.75 297.51 48.6667 298.094 48.5C298.719 48.3333 299.302 48.2083 299.844 48.125C300.427 48.0417 301.031 48.0208 301.656 48.0625C302.323 48.0625 302.885 47.9167 303.344 47.625C303.51 47.7083 304.01 47.75 304.844 47.75C305.719 47.75 306.844 47.5208 308.219 47.0625C308.427 47.3125 308.615 47.4792 308.781 47.5625C308.948 47.6458 309.031 47.8542 309.031 48.1875C309.031 48.4792 308.844 48.75 308.469 49C308.135 49.25 307.823 49.375 307.531 49.375C307.281 49.375 307.073 49.3125 306.906 49.1875C306.49 49.3542 306.031 49.4375 305.531 49.4375L304.031 49.3125C303.698 49.3125 303.385 49.4167 303.094 49.625C302.844 49.7917 302.51 49.8542 302.094 49.8125C301.677 49.7708 301.365 49.875 301.156 50.125ZM316.344 52.0625V51.6875L316.094 51.5625C315.969 51.0208 315.802 50.6667 315.594 50.5C315.427 50.2917 315.281 50.1042 315.156 49.9375C315.073 49.7292 315.031 49.5625 315.031 49.4375C315.073 49.2708 315.01 49.0833 314.844 48.875C314.677 48.6667 314.594 48.4792 314.594 48.3125L314.719 47.8125L314.594 47.1875C314.594 46.8542 314.719 46.4792 314.969 46.0625C315.219 45.6042 315.385 45.2083 315.469 44.875C315.719 44.625 315.948 44.4167 316.156 44.25C316.365 44.0417 316.531 43.8125 316.656 43.5625C317.198 43.4375 317.719 43.3125 318.219 43.1875C318.719 43.0208 319.24 42.9375 319.781 42.9375L320.344 43C320.552 43.2083 320.698 43.3542 320.781 43.4375C320.865 43.4792 320.927 43.5417 320.969 43.625C321.052 43.6667 321.177 43.8542 321.344 44.1875C321.51 44.4792 321.615 44.6667 321.656 44.75C321.698 44.7917 321.719 44.9792 321.719 45.3125C321.719 45.6042 321.406 46.125 320.781 46.875C320.156 46.875 319.698 46.7708 319.406 46.5625V46.4375C319.406 46.0208 319.156 45.8125 318.656 45.8125C318.198 45.8125 317.781 45.9375 317.406 46.1875C317.031 46.4375 316.844 46.7083 316.844 47L316.906 47.9375C316.906 48.1875 316.865 48.375 316.781 48.5C316.99 48.9167 317.177 49.3333 317.344 49.75C317.51 50.1667 317.719 50.5833 317.969 51C318.427 51.125 318.844 51.2917 319.219 51.5C319.594 51.6667 320.156 51.75 320.906 51.75C321.656 51.75 322.594 51.5 323.719 51C323.969 50.8333 324.219 50.625 324.469 50.375C324.719 50.0833 324.99 49.8958 325.281 49.8125C325.573 49.3125 325.948 48.9167 326.406 48.625C326.406 48.1667 326.531 47.7708 326.781 47.4375C327.073 47.0625 327.219 46.7292 327.219 46.4375C327.219 46.1042 327.26 45.875 327.344 45.75C327.469 45.625 327.552 45.5 327.594 45.375C327.635 45.25 327.635 45.125 327.594 45C327.594 44.875 327.594 44.7292 327.594 44.5625L327.719 43.6875L327.469 43L327.594 42.3125L327.281 41.375L327.406 40.8125C327.406 40.4792 327.281 40.0625 327.031 39.5625L326.781 39.4375C326.698 39.2708 326.677 39.1042 326.719 38.9375C326.76 38.7292 326.74 38.5625 326.656 38.4375C326.573 38.2708 326.49 38.125 326.406 38C325.99 37.5 325.74 37.1042 325.656 36.8125C325.24 35.7292 324.677 34.9792 323.969 34.5625C323.302 34.1042 322.76 33.875 322.344 33.875C321.969 33.875 321.677 34.0417 321.469 34.375H321.219L320.219 34.875L320.094 35.125H319.781C319.656 35.125 319.531 35.25 319.406 35.5C319.073 35.75 318.906 35.9583 318.906 36.125C318.906 36.2917 318.76 36.5833 318.469 37C318.219 37.375 318.052 37.7083 317.969 38C317.885 38.25 317.844 38.5625 317.844 38.9375C317.844 39.3125 317.823 39.5625 317.781 39.6875C317.531 39.8958 317.323 40.0833 317.156 40.25C317.031 40.4167 316.802 40.5417 316.469 40.625C316.26 40.8333 316.031 40.9375 315.781 40.9375C315.365 40.9375 315.052 40.6875 314.844 40.1875C314.677 39.6458 314.594 39.1458 314.594 38.6875L314.844 37.625V37.4375C314.76 37.4375 314.719 37.4167 314.719 37.375L314.844 36.875L314.781 35.9375C314.781 35.6875 314.844 35.5417 314.969 35.5C314.802 35.2083 314.719 34.875 314.719 34.5L314.969 32.0625L314.844 29.6875L314.969 29.125L314.844 28.4375L314.969 27.875L314.844 26.1875V24.8125L314.406 17.3125C314.406 16.6458 314.469 16 314.594 15.375C314.885 15.0833 315.281 14.9375 315.781 14.9375C316.281 14.9375 316.698 15 317.031 15.125C317.406 15.2083 317.823 15.2917 318.281 15.375C318.74 15.4167 319.198 15.4375 319.656 15.4375C320.156 15.3958 320.698 15.375 321.281 15.375L321.969 15.5L322.594 15.375L322.781 15.5C322.99 15.2917 323.469 15.1875 324.219 15.1875H325.406L326.031 15.375C326.156 15.375 326.281 15.3333 326.406 15.25C326.531 15.1667 326.719 15.1042 326.969 15.0625C327.219 14.9792 327.531 14.9583 327.906 15C328.281 15.0417 328.677 15.0208 329.094 14.9375C329.135 15.2292 329.281 15.4167 329.531 15.5C329.781 15.5417 329.906 15.7708 329.906 16.1875C329.906 16.5625 329.802 17 329.594 17.5C329.135 17.875 328.573 18.0417 327.906 18C327.281 17.9167 326.698 17.875 326.156 17.875H326.031L325.844 18.1875C325.76 18.2292 325.656 18.25 325.531 18.25C325.448 18.2083 325.365 18.1875 325.281 18.1875L323.969 18.5625L323.094 18.4375L321.469 18.8125L319.719 18.5H318.906C318.698 18.5 318.531 18.4792 318.406 18.4375C318.115 18.5625 317.969 19.0417 317.969 19.875V20.125H318.031L318.094 20.1875L317.969 20.875L318.406 24V25.125L318.344 30.0625V31.375C318.344 31.7917 318.365 32.2292 318.406 32.6875H318.719C319.177 32.6875 319.615 32.5625 320.031 32.3125C320.49 32.0625 320.948 31.9375 321.406 31.9375H321.469L321.594 31.6875C321.677 31.6458 321.76 31.6458 321.844 31.6875C321.969 31.6875 322.094 31.6875 322.219 31.6875C322.344 31.6875 322.427 31.6667 322.469 31.625C322.552 31.4583 322.802 31.375 323.219 31.375H323.781C324.615 31.375 325.677 31.9792 326.969 33.1875C327.302 33.4792 327.635 33.7083 327.969 33.875C328.177 34.4167 328.49 34.8958 328.906 35.3125C329.323 35.6875 329.615 36.0417 329.781 36.375C329.99 36.6667 330.115 36.8958 330.156 37.0625C330.198 37.1875 330.24 37.3125 330.281 37.4375C330.365 37.5208 330.427 37.5833 330.469 37.625C330.552 37.6667 330.615 37.7292 330.656 37.8125C330.74 37.8958 330.76 37.9792 330.719 38.0625C330.719 38.1458 330.74 38.25 330.781 38.375C330.865 38.4583 330.969 38.5417 331.094 38.625C331.344 38.875 331.448 39.25 331.406 39.75C331.406 40.25 331.469 40.6667 331.594 41C331.76 41.2917 331.844 41.5208 331.844 41.6875C331.844 41.8542 331.802 42.0208 331.719 42.1875C331.677 42.3542 331.615 42.5625 331.531 42.8125C331.49 43.0625 331.49 43.3958 331.531 43.8125C331.573 44.1875 331.552 44.5625 331.469 44.9375C331.385 45.2708 331.281 45.5625 331.156 45.8125C331.031 46.0208 330.927 46.2292 330.844 46.4375C330.76 46.6042 330.719 46.75 330.719 46.875C330.719 46.9583 330.677 47.0833 330.594 47.25C330.552 47.375 330.427 47.5 330.219 47.625C330.052 47.7083 329.927 47.8333 329.844 48C329.76 48.125 329.719 48.25 329.719 48.375C329.719 48.4583 329.635 48.6458 329.469 48.9375C329.344 49.1875 329.073 49.4792 328.656 49.8125C328.281 50.1042 327.969 50.4583 327.719 50.875C327.594 50.9167 327.448 50.9583 327.281 51C327.156 51 327.031 51.0417 326.906 51.125C326.781 51.0833 326.719 51.125 326.719 51.25C326.76 51.3333 326.74 51.4167 326.656 51.5C326.573 51.5417 326.49 51.5625 326.406 51.5625C326.323 51.5208 326.198 51.5625 326.031 51.6875C325.865 51.7708 325.719 51.9167 325.594 52.125C325.51 52.2917 325.365 52.5 325.156 52.75C324.74 52.7917 324.344 52.9375 323.969 53.1875C323.635 53.3958 323.302 53.5 322.969 53.5H322.281C322.115 53.5 321.969 53.6042 321.844 53.8125C321.719 53.9792 321.177 54.0625 320.219 54.0625C319.26 54.0625 318.448 53.8542 317.781 53.4375C317.698 53.3958 317.635 53.3542 317.594 53.3125C317.552 53.2292 317.49 53.1667 317.406 53.125C317.323 53.0417 317.24 53.0208 317.156 53.0625C317.073 53.0625 316.99 53.0417 316.906 53C316.865 52.9583 316.823 52.875 316.781 52.75C316.781 52.5833 316.74 52.4792 316.656 52.4375C316.615 52.3542 316.552 52.2917 316.469 52.25C316.385 52.2083 316.344 52.1458 316.344 52.0625Z" fill="#E42D2D"/>
</svg>
