<svg width="375" height="112" viewBox="0 0 375 112" fill="none" xmlns="http://www.w3.org/2000/svg">
<g clip-path="url(#clip0_183_3)">
<path d="M10.0751 39.449L10.5293 30.4179L10.0675 29.9129L9.71107 23.7608L10.0623 23.2772L10.0615 22.2884L9.70949 21.7613C9.94363 21.4682 10.0603 20.8235 10.0595 19.8274C10.0587 18.8314 9.79436 17.9453 9.2664 17.1694C9.32493 17.0961 9.35417 17.0228 9.35412 16.9496C9.35398 16.7738 9.08291 16.6861 8.54092 16.6866C8.01358 16.687 7.59622 16.8484 7.28886 17.1709C6.33671 17.1717 5.52386 17.3408 4.8503 17.6783L4.41044 17.1732L3.53234 18.1847C3.52957 14.6837 3.41769 12.1423 3.19671 10.5604C2.99038 8.97853 2.36607 6.77443 1.3238 3.94811L0.00463867 2.93841L0.421719 2.43271L1.74013 2.49758C1.93058 2.52673 2.20883 2.43862 2.57488 2.23325C2.94093 2.02788 3.33636 1.93236 3.76118 1.94667C4.18598 1.94633 4.9989 1.8578 6.19993 1.68106C7.40096 1.50433 8.30177 1.41573 8.90236 1.41525L15.3404 1.41015C16.4243 1.40929 18.0652 1.65702 20.2628 2.15333C22.4751 2.64962 24.1086 2.90467 25.1633 2.91849C25.1641 3.88528 24.7912 4.74984 24.0448 5.51215C23.313 6.27445 22.9473 6.93392 22.9477 7.49056L22.5526 8.01821L23.4319 8.52289L22.1212 18.1699L21.6594 17.6649L21.2199 17.6653L20.7801 17.1603C20.2674 17.1607 19.6154 16.9927 18.8241 16.6564C18.0475 16.3201 17.4761 16.1521 17.1098 16.1524C17.1109 17.5001 16.9651 18.3425 16.6724 18.6796L17.1123 19.2066L17.1151 22.7662L16.676 23.2719L16.6773 24.8539L17.1171 25.337L16.2622 27.8645L16.6801 28.3696L16.6804 28.831L16.2634 29.3587L16.6813 29.9077L16.6857 35.4887L16.2266 38.4114C15.919 38.4117 15.7506 38.4777 15.7214 38.6096C15.7208 37.9358 15.7571 37.4157 15.83 37.0494L14.9507 36.5008L14.4897 37.0505L14.4909 38.5446L13.59 38.5454L13.5892 37.5126C13.2526 37.9524 12.7913 38.1725 12.2054 38.1729L10.9748 38.0201C10.9456 38.1373 10.9311 38.3131 10.9313 38.5475C10.9313 38.5328 11.0118 38.5108 11.1729 38.4814C11.334 38.4519 11.4146 38.4299 11.4146 38.4152C11.4148 38.7229 11.2612 38.972 10.9538 39.1627C10.6609 39.3533 10.368 39.4488 10.0751 39.449ZM52.1178 23.09L51.6811 26.628L50.8467 27.3318L51.2421 27.1776C51.2429 28.1444 51.0902 29.5728 50.7841 31.4627C50.4926 33.3526 50.3473 34.7955 50.3481 35.7916H50.392C50.3924 36.275 50.2096 36.6487 49.8436 36.9126C49.4776 37.1913 49.0675 37.3307 48.6134 37.3311L49.2714 35.7925L49.0733 35.3092L48.9854 35.2873L47.9091 35.8375L47.7113 35.7937L46.8757 34.9155L46.9421 35.5087C46.9428 36.3583 46.6208 36.7834 45.9763 36.7839C45.947 36.7546 45.8737 36.6887 45.7564 36.5863C45.4926 36.3814 45.3606 36.2204 45.3605 36.1032C45.3604 35.986 45.4116 35.8834 45.5141 35.7955L44.6568 35.3127L44.1959 35.9723C44.2103 35.694 44.2905 35.2544 44.4365 34.6537C44.5825 34.0677 44.6554 33.6135 44.6552 33.2913L43.7766 33.7754L43.4023 32.7869C43.959 32.7864 44.2363 31.5484 44.2343 29.0728L44.1889 27.1173C44.1886 26.8536 44.2689 26.48 44.4297 25.9965C44.605 25.4983 44.6927 25.1394 44.6925 24.9196C44.6923 24.6999 44.5897 24.5901 44.3846 24.5903L44.1869 24.6344L43.769 24.1074C43.4174 24.1077 42.8901 24.196 42.1872 24.3723C41.4988 24.5486 40.9716 24.637 40.6053 24.6372L40.6057 25.1206L40.013 25.8023L40.3644 25.6042C40.5854 27.1421 40.6958 27.9331 40.6959 27.977L40.6126 33.7779L38.8775 34.79L38.9212 34.4604L38.7673 34.3506L37.0974 34.3519L36.2189 34.7921C36.1753 35.3195 35.5897 35.6568 34.4618 35.8042L33.4943 34.9261C33.4943 34.8382 33.6114 34.7942 33.8458 34.794C34.0802 34.7938 34.2853 34.8522 34.4612 34.9693C34.4457 33.8706 34.2905 32.1789 33.9957 29.8939C33.7156 27.5944 33.575 25.7341 33.5738 24.3132C33.5727 22.8777 33.3516 21.1127 32.9105 19.0183C32.4693 16.9093 32.0282 14.8223 31.5871 12.7572C31.1461 10.6921 30.9249 8.94908 30.9238 7.52818C30.9227 6.10729 30.5043 4.97236 29.6687 4.12342C28.833 3.25982 27.8219 2.79187 26.6353 2.71957C29.0963 2.71762 31.2129 2.56213 32.9851 2.25311C34.7573 1.92944 35.8263 1.57703 36.1922 1.19588L36.3025 1.74511L36.3905 1.78899C36.5809 1.78884 36.676 1.64228 36.6758 1.34931L36.6317 1.19554C37.2909 1.19501 38.2356 1.12102 39.466 0.973562C40.711 0.811443 41.6191 0.730158 42.1904 0.729705C41.7222 1.37461 41.0566 2.55434 40.1937 4.26889L40.5896 4.77395L40.2054 19.0126L42.2045 18.5495L42.2049 19.011L45.0829 18.5473L45.0831 18.789C45.4636 18.2906 45.653 16.9575 45.6513 14.7895L45.4931 9.36235C45.4928 8.96684 45.6388 8.35882 45.9312 7.53827C46.2235 6.70308 46.5161 6.28537 46.8091 6.28513C46.8088 5.99217 46.6621 5.72129 46.369 5.47249C45.7827 4.98956 45.4891 4.24272 45.4883 3.23198L45.0688 0.727425C46.5483 0.726254 47.7203 0.879134 48.5848 1.18607L49.1118 0.724223L51.2215 1.18398L51.2212 0.722553L51.749 1.33737L54.7591 1.18118C54.9791 1.50327 55.47 1.67866 56.2317 1.70736C57.0081 1.73604 57.5356 1.90408 57.8141 2.21148L59.0446 2.2105C57.9754 2.38713 56.7173 4.48285 55.2703 8.49767C54.6271 10.1388 54.291 11.267 54.2622 11.8823L54.2191 12.8931L53.9115 12.8933L54.3074 13.3764C53.5477 15.9551 52.9558 17.6987 52.5317 18.6073L53.0158 19.5078C52.3567 19.5083 52.0276 20.1384 52.0286 21.3982L52.1178 23.09ZM74.9794 35.7282L74.0126 35.707L73.3538 36.2348L72.4741 35.2248L72.4737 34.6755C72.1804 34.3681 71.7482 34.2146 71.1769 34.2151L70.298 34.2158L69.8369 34.6776L69.8374 35.2269C69.5737 35.2271 69.3542 35.4836 69.1788 35.9965C69.0034 36.5093 68.7912 36.7658 68.5422 36.766L68.5426 37.2274C68.3955 36.4365 68.1013 34.9866 67.6602 32.8775C66.734 28.5716 66.2699 25.2834 66.2681 23.0129C66.2678 22.5588 66.2821 22.2219 66.3113 22.0021L65.8934 21.4971L63.73 8.75464L64.1694 8.7543L64.169 8.22695L63.7296 8.2273C63.6856 8.15409 63.5902 7.97839 63.4435 7.70018C63.3114 7.40732 63.2234 7.21696 63.1794 7.1291C63.1354 7.04125 63.0473 6.87286 62.9153 6.62394C62.7833 6.36037 62.6806 6.17735 62.6072 6.07487C62.5486 5.97238 62.4459 5.81865 62.2993 5.61369C62.1673 5.39406 62.0499 5.23302 61.9473 5.13057C61.8593 5.0281 61.7421 4.89635 61.5954 4.73534C61.4488 4.55967 61.3096 4.42062 61.1776 4.31819C60.7379 4.01092 60.4009 3.79878 60.1664 3.68178L60.6498 3.6814C61.4403 3.00694 62.8168 2.47119 64.7794 2.07412C67.6207 1.50058 70.8871 1.21235 74.5785 1.20943C78.2846 1.20649 82.3645 1.68666 86.8184 2.64993C86.233 3.29493 85.4942 4.44541 84.6019 6.10139C83.7243 7.74271 83.2858 8.93691 83.2864 9.68398C83.287 10.4311 83.1409 10.9659 82.8482 11.2884L82.8927 12.0134C82.8936 13.1853 82.5876 15.1484 81.9745 17.9028C80.7582 17.2299 79.8277 16.8938 79.1832 16.8943C78.5387 16.8948 78.0698 16.734 77.7766 16.412C77.0002 16.4126 76.3337 16.3765 75.777 16.3037C75.2349 16.2163 74.7075 16.1361 74.1948 16.0633C73.6966 15.9904 73.3084 15.9321 73.0301 15.8884C73.2939 16.0347 73.4263 16.7743 73.4273 18.1073L73.3413 20.4805L79.9551 20.4752L79.9579 24.0348C79.9583 24.4742 79.8636 25.1628 79.6739 26.1004C79.4842 27.0234 79.2795 27.5217 79.0598 27.5951L77.7846 26.5634L73.8076 26.5665L73.3465 27.0503L73.3494 30.6758L73.8111 31.027L74.2063 30.6751L73.81 29.6207C74.4985 29.6348 75.6118 29.7218 77.15 29.8817C78.7029 30.0416 79.9041 30.1213 80.7537 30.1206L80.7542 30.6699L80.3603 32.6697L79.9652 33.2194L80.3611 33.7024L80.3615 34.2078L79.966 34.2081L79.9663 34.6695L80.3623 35.2186C80.0989 35.585 79.9674 35.9733 79.9677 36.3834L79.9688 37.7457L79.5728 37.2187L79.0675 37.2191L79.0663 35.7249L78.6264 35.2199L76.4511 35.2216C76.1584 35.5588 75.6678 35.7276 74.9794 35.7282ZM113.608 36.2469L114.024 35.082L113.76 34.8625L113.189 34.863C113.189 34.8923 113.028 34.951 112.706 35.0391C112.398 34.3802 112.243 33.7138 112.243 33.04C112.242 32.3515 112.257 31.8388 112.286 31.5019L111.89 30.821L111.998 29.173L112.108 29.3926L112.174 29.2388L111.888 28.7556V28.2722L111.492 27.7452L111.535 27.2398C111.535 26.9468 111.476 26.5953 111.359 26.1852C111.051 26.1855 110.677 26.2736 110.238 26.4498C109.813 26.6112 109.557 26.7067 109.469 26.736V26.2307L109.118 26.7363L109.294 26.7362L109.471 28.2741L109.01 29.1314L109.471 29.2409C109.472 30.1491 109.539 31.4674 109.672 33.1958C109.82 34.9096 109.894 36.2132 109.895 37.1068L109.565 36.4698L109.521 36.36L109.565 36.4259C109.564 35.7667 109.447 35.2614 109.212 34.9101C108.992 34.5733 108.56 34.4052 107.915 34.4057C107.374 35.08 107.104 35.9225 107.104 36.9332C107.587 36.4934 107.858 36.1929 107.917 36.0317V36.6469L107.522 37.1526C106.995 37.153 106.702 36.9262 106.643 36.4722C106.643 36.5307 106.657 36.6113 106.687 36.7138C106.716 36.8163 106.731 36.8896 106.731 36.9335C106.614 36.7725 106.511 36.5089 106.423 36.1427C106.334 35.7766 106.224 35.4691 106.092 35.2201C105.96 34.9859 105.762 34.8688 105.499 34.8691C105.03 34.8694 104.796 35.1479 104.796 35.7046C104.811 35.602 104.862 35.4994 104.95 35.3968C105.038 35.2942 105.104 35.2429 105.147 35.2429L104.753 36.21C104.679 35.9903 104.569 35.734 104.423 35.4412C104.1 34.8262 103.938 34.2624 103.938 33.7497C103.936 31.3034 103.678 29.4799 103.164 28.2791L103.538 28.2788L103.139 24.1483L103.161 23.6429L102.721 23.6432L102.324 21.644L102.719 21.1383C102.719 20.7575 102.543 20.5672 102.191 20.5675L101.906 20.6336L101.949 19.6009C102.198 19.4102 102.322 19.0659 102.322 18.5679L101.531 18.5685L101.084 9.93356C100.703 9.50905 100.402 8.92335 100.182 8.17646C99.9618 7.41491 99.7197 6.87311 99.4558 6.55106C99.1918 6.21435 98.8548 5.99489 98.4445 5.89268C98.4439 5.16025 98.07 4.62588 97.3226 4.28956C96.5899 3.93858 96.2234 3.46279 96.2229 2.86221C96.8821 2.86169 97.8341 2.68515 99.0789 2.3326C100.338 1.96539 101.29 1.78153 101.935 1.78102L102.704 2.30776C103.26 1.63349 103.875 1.24482 104.549 1.14175C105.457 1.02384 106.321 0.964558 107.142 0.963909C109.91 0.961716 111.756 1.20196 112.679 1.68462L113.36 1.22266L114.459 1.28771C114.635 1.52194 115.163 1.88041 116.042 2.36311C116.936 2.8458 117.566 3.15292 117.932 3.28447C118.299 3.40137 118.76 3.78186 119.317 4.42595C119.875 5.07004 120.307 5.39196 120.615 5.39172C121.054 5.83082 121.275 7.13436 121.277 9.30233C121.279 11.4557 121.061 14.5393 120.625 18.5534C120.596 18.8317 120.325 19.579 119.814 20.7952C119.302 22.0114 119.046 22.8246 119.047 23.2348C119.047 23.6449 119.098 23.9305 119.201 24.0916L118.85 24.1578C118.703 24.3337 118.469 24.4657 118.147 24.5539C117.839 24.642 117.59 24.7667 117.4 24.928C117.21 25.0746 117.115 25.3457 117.115 25.7412C117.848 26.5902 118.267 27.7691 118.37 29.2778C118.415 29.8051 118.437 30.4862 118.438 31.3212L117.933 31.6512L117.999 32.2884C118.644 33.1228 118.967 34.2505 118.969 35.6714L118.201 36.9684L118.003 36.9246L117.123 35.9145V36.376C116.303 36.3766 115.842 36.2232 115.739 35.9156C115.592 35.4616 115.321 35.1103 114.925 34.8616L115.014 35.7844C115.014 35.9162 114.933 36.0994 114.772 36.3339C114.611 36.583 114.516 36.7369 114.487 36.7955L113.608 36.2469ZM109.552 20.4078C109.699 20.481 109.897 20.5467 110.146 20.6051C110.409 20.6635 110.827 20.6998 111.398 20.714C111.984 20.7282 112.262 20.5375 112.233 20.142L112.694 20.1417C112.694 19.7462 112.855 19.3945 113.177 19.0866L113.175 17.5485C113.293 17.5484 113.388 17.4971 113.461 17.3945C113.549 17.2772 113.593 17.16 113.593 17.0428C113.592 16.911 113.519 16.7499 113.372 16.5596C113.24 16.3546 113.174 16.1789 113.174 16.0324L111.481 14.5176L109.877 14.5189L109.46 15.0026L109.108 14.5195V15.0029L108.691 15.0032L109.109 15.5522L109.11 17.5517C108.832 17.552 108.693 17.7278 108.693 18.0794L109.111 18.0791C109.111 18.167 109.111 18.3574 109.111 18.6504C109.112 18.9287 109.112 19.1557 109.112 19.3315C109.127 19.5073 109.163 19.7123 109.222 19.9467C109.296 20.1663 109.406 20.3201 109.552 20.4078ZM112.233 21.1308L111.881 20.6257L111.882 21.1311L112.233 21.1308ZM109.895 37.1068C109.924 37.1361 109.939 37.1653 109.939 37.1946C109.939 37.2239 109.924 37.2532 109.895 37.2826V37.1068ZM109.521 36.36C109.492 36.36 109.477 36.3234 109.477 36.2502L109.521 36.36ZM135.089 26.5619L134.591 34.89C134.898 34.8897 135.052 35.1533 135.053 35.6806V35.9223C134.569 35.8202 134.276 35.5567 134.173 35.132V35.4396L133.624 35.462C133.361 35.4915 133.111 35.4404 132.877 35.3088C132.643 35.1771 132.525 35.0161 132.525 34.8257C132.525 34.6499 132.539 34.5107 132.569 34.4082L132.613 34.4081C132.612 33.7343 132.348 33.3976 131.821 33.398C131.469 33.3983 131.133 33.6329 130.811 34.1019C130.489 34.5563 130.298 34.8201 130.24 34.8934C129.625 34.8646 129.271 32.7555 129.18 28.5661C129.135 26.9402 129.09 26.0247 129.046 25.8196C129.002 25.5999 128.921 25.2118 128.804 24.6553C128.701 24.0841 128.627 23.7033 128.583 23.5129C128.554 23.3225 128.487 22.971 128.384 22.4583C128.296 21.9311 128.237 21.5503 128.208 21.3159L128.031 20.2614C127.957 19.7927 127.906 19.4192 127.876 19.1409C127.847 18.8479 127.803 18.4891 127.744 18.0643C127.699 17.6249 127.662 17.2367 127.633 16.8999C127.588 16.1089 127.566 15.3545 127.565 14.6367L127.825 9.45095L128.22 9.45064L126.922 6.44141C126.804 6.16318 126.511 5.8558 126.042 5.51926C125.588 5.16805 125.177 4.80217 124.811 4.4216C124.444 4.02638 124.268 3.57974 124.282 3.08168V2.9059L123.381 2.33533L123.644 1.85172L122.985 2.33564L122.567 1.85257C123.534 1.85181 124.904 1.68227 126.676 1.34395C128.463 1.00562 129.759 0.836133 130.565 0.835495L130.982 1.34054L134.146 0.832658C134.542 1.22786 135.531 1.4761 137.113 1.57738C138.71 1.67866 139.633 1.76582 139.882 1.83886C139.867 1.85352 139.801 1.91217 139.684 2.0148C139.582 2.11742 139.508 2.19072 139.465 2.2347C139.435 2.27867 139.362 2.35197 139.245 2.4546C139.143 2.55722 139.062 2.64517 139.004 2.71846C138.945 2.7771 138.864 2.86506 138.762 2.98233C138.674 3.08493 138.601 3.18021 138.543 3.26814C138.499 3.34142 138.44 3.42936 138.367 3.53196C138.308 3.63454 138.257 3.7298 138.213 3.81772C138.14 4.00821 138.104 4.19867 138.104 4.3891L138.543 4.38875C137.885 5.15099 137.293 6.33066 136.766 7.92776L137.228 8.43276C136.06 12.7843 135.477 16.3663 135.479 19.1788L135.921 22.1887C135.687 22.4965 135.541 22.9727 135.482 23.6173L135.043 23.1782L135.484 25.2652L134.583 25.7274C134.92 25.7271 135.089 26.0053 135.089 26.5619ZM154.264 16.8788C154.014 16.2198 153.626 15.8905 153.098 15.8909L152.681 15.3639L152.307 15.8915L151.494 15.8922L151.495 16.837C151.496 17.5401 151.364 18.0822 151.101 18.4633L151.103 20.4408L150.707 20.4412V20.9905L151.103 21.4736L151.104 22.1108C151.104 22.1694 150.972 22.6382 150.709 23.5173L151.105 24.0224L151.501 24.0221L151.48 24.9669C151.48 25.3624 151.619 25.7285 151.898 26.0652L151.899 26.9661C151.899 27.6692 152.039 28.2184 152.318 28.6137L151.9 28.614V29.0974L152.318 28.8334L152.692 29.6242L152.319 30.1078L152.692 30.1076L153.484 31.1177V31.623L153.88 31.1174L154.275 31.117L154.671 31.6221V31.1167C155.506 31.1161 156.164 30.7786 156.647 30.1044L156.867 30.1042L156.646 28.061L156.272 28.0613C156.008 28.0615 155.657 28.2229 155.218 28.5455C154.779 28.8535 154.464 29.0368 154.273 29.0956C154.273 28.3485 154.206 27.2353 154.073 25.7559C153.94 24.2765 153.873 23.1706 153.873 22.4382C153.946 22.4674 155.506 22.825 158.554 23.5111C161.601 24.1972 163.235 24.5401 163.454 24.5399C162.986 25.4925 162.724 27.3091 162.668 29.9898C162.626 32.6998 162.437 34.4138 162.101 35.1318C161.764 35.8499 161.325 36.2091 160.783 36.2095C159.861 36.9866 159.151 37.4999 158.653 37.7493V37.4417C158.652 36.9437 158.513 36.6947 158.235 36.695L158.234 36.2116L157.86 35.9921L157.444 36.6956L156.96 36.9596L156.653 36.6962L156.279 37.2458L155.884 37.2461L155.883 36.6968L155.466 37.2465L155.884 37.2461V37.7515L155.467 38.0814L155.466 37.2465L155.071 37.7522L154.279 36.6981L153.488 36.6987V36.2153L153.115 36.2156V36.699C152.837 37.0654 152.698 37.5929 152.699 38.2814C152.171 38.2525 151.907 37.7254 151.906 36.7L151.511 36.2169L151.115 36.2172C151.086 36.6274 150.962 36.9864 150.742 37.2942C150.523 37.6019 150.245 37.756 149.908 37.7562L149.534 37.2512L149.907 37.2509V36.7016L149.138 36.7022L148.742 36.2191C148.39 36.2194 148.126 35.7142 147.95 34.7036L147.642 34.9895C147.247 34.9898 146.799 34.0014 146.3 32.0242C146.109 31.2773 145.933 30.8087 145.771 30.6184C145.769 27.4983 145.034 24.1078 143.566 20.4468L143.983 20.4465C143.72 20.1537 143.352 18.5207 142.881 15.5474C142.424 12.5595 142.196 10.5968 142.195 9.6593C142.194 8.7218 142.362 8.06981 142.699 7.70333L142.697 5.70382L144.432 4.18633L145.289 4.18565C145.288 3.42393 145.683 2.79374 146.474 2.29507C147.279 1.78173 148.077 1.52475 148.868 1.52413C149.059 1.52398 149.271 1.5531 149.506 1.61151C149.769 1.27439 150.238 1.10556 150.911 1.10503L151.087 1.10489L151.088 1.61026L151.483 1.60995C151.483 1.25838 151.607 1.0825 151.856 1.08231L152.296 1.10393L151.484 2.62069L152.296 1.6093L153.088 2.09207L152.67 1.60901L152.669 1.10364L153.461 1.60838C154.017 1.44681 154.317 1.366 154.361 1.36597C157.189 1.36373 159.606 2.30664 161.615 4.1947C162.567 5.10215 163.323 6.25877 163.881 7.66458C164.438 9.05574 164.718 10.5936 164.719 12.2782C164.719 12.703 164.471 13.9556 163.975 16.0361C163.493 18.1166 163.253 19.5596 163.253 20.3653C163.254 21.171 163.386 21.6982 163.65 21.947C162.669 21.9478 161.321 21.7877 159.607 21.4668C157.893 21.1459 156.647 20.9858 155.871 20.9864C155.592 20.635 155.453 20.2909 155.453 19.954L155.452 19.4267L155.87 19.4263L155.056 18.4602L155.451 17.9105L155.056 17.9109L154.66 17.3838L154.659 16.6148L154.264 16.8788ZM190.853 22.9802L190.416 26.5181L189.582 27.2219L189.977 27.0678C189.978 28.0346 189.826 29.4629 189.519 31.3528C189.228 33.2427 189.083 34.6857 189.083 35.6818L189.127 35.6817C189.128 36.1651 188.945 36.5388 188.579 36.8028C188.213 37.0814 187.803 37.2209 187.349 37.2212L188.007 35.6826L187.809 35.1994L187.721 35.1775L186.644 35.7276L186.447 35.6838L185.611 34.8056L185.677 35.3988C185.678 36.2484 185.356 36.6735 184.712 36.674C184.682 36.6447 184.609 36.5789 184.492 36.4764C184.228 36.2715 184.096 36.1105 184.096 35.9933C184.096 35.8761 184.147 35.7736 184.249 35.6856L183.392 35.2029L182.931 35.8624C182.946 35.5841 183.026 35.1446 183.172 34.5439C183.318 33.9578 183.391 33.5037 183.39 33.1814L182.512 33.6655L182.138 32.677C182.694 32.6766 182.972 31.4386 182.97 28.963L182.924 27.0074C182.924 26.7438 183.004 26.3702 183.165 25.8866C183.34 25.3885 183.428 25.0295 183.428 24.8098C183.428 24.59 183.325 24.4803 183.12 24.4804L182.922 24.5245L182.504 23.9975C182.153 23.9978 181.625 24.0861 180.922 24.2624C180.234 24.4388 179.707 24.5271 179.341 24.5274V25.0108L178.748 25.6924L179.1 25.4944C179.321 27.0323 179.431 27.8232 179.431 27.8671L179.348 33.668L177.613 34.6801L177.657 34.3505L177.503 34.2407L175.833 34.2421L174.954 34.6822C174.911 35.2096 174.325 35.547 173.197 35.6943L172.23 34.8162C172.23 34.7283 172.347 34.6843 172.581 34.6841C172.815 34.6839 173.021 34.7423 173.196 34.8594C173.181 33.7608 173.026 32.069 172.731 29.7841C172.451 27.4845 172.31 25.6242 172.309 24.2033C172.308 22.7678 172.087 21.0028 171.646 18.9085C171.205 16.7994 170.764 14.7124 170.322 12.6473C169.881 10.5822 169.66 8.8392 169.659 7.41831C169.658 5.99741 169.24 4.86249 168.404 4.01354C167.568 3.14994 166.557 2.68199 165.371 2.60969C167.832 2.60774 169.948 2.45226 171.72 2.14323C173.493 1.81957 174.562 1.46716 174.928 1.08601L175.038 1.63524L175.126 1.67911C175.316 1.67896 175.411 1.5324 175.411 1.23943L175.367 1.08566C176.026 1.08514 176.971 1.01115 178.201 0.863685C179.446 0.701566 180.354 0.62028 180.926 0.619828C180.457 1.26473 179.792 2.44446 178.929 4.15901L179.325 4.66407L178.941 18.9027L180.94 18.4397V18.9011L183.818 18.4374V18.6791C184.199 18.1807 184.388 16.8476 184.387 14.6796L184.228 9.25247C184.228 8.85696 184.374 8.24894 184.666 7.42839C184.959 6.5932 185.251 6.17549 185.544 6.17526C185.544 5.88229 185.397 5.61141 185.104 5.36262C184.518 4.87968 184.224 4.13284 184.224 3.1221L183.804 0.617548C185.284 0.616376 186.456 0.769257 187.32 1.07619L187.847 0.614346L189.957 1.0741L189.956 0.612675L190.484 1.22749L193.494 1.0713C193.714 1.39339 194.205 1.56879 194.967 1.59748C195.743 1.62616 196.271 1.7942 196.549 2.1016L197.78 2.10062C196.711 2.27725 195.453 4.37297 194.006 8.38779C193.362 10.0289 193.026 11.1571 192.998 11.7724L192.954 12.7832L192.647 12.7834L193.043 13.2665C192.283 15.8452 191.691 17.5889 191.267 18.4974L191.751 19.3979C191.092 19.3984 190.763 20.0286 190.764 21.2883L190.853 22.9802ZM218.131 34.9556L218.245 40.0971L217.784 40.6249L217.782 38.5814L216.464 38.5824V39.6152L216.003 39.6155C215.71 39.3228 215.563 38.7956 215.562 38.0338L212.486 38.0363L212.046 37.5532L212.089 35.6635C212.088 34.6382 211.933 33.7374 211.625 32.9613L212.043 33.4883L212.04 29.8848L211.623 29.8851L211.157 24.2385L211.156 23.799L210.849 23.4477L211.156 23.3376L211.155 22.2829L210.781 21.7779L211.154 20.2834C210.89 19.9028 210.758 19.4781 210.757 19.0093C210.757 18.5406 210.764 18.2769 210.779 18.2183C210.5 17.8669 210.36 17.3177 210.36 16.5707L210.359 15.8236C210.213 16.146 209.371 16.5202 207.833 16.9462C206.295 17.3722 205.424 17.6366 205.219 17.7393L204.823 17.1903L204.824 17.7396L203.945 18.7071C203.943 15.9239 203.692 13.4412 203.192 11.259C202.266 7.23135 200.902 4.47852 199.099 3.00046C200.417 2.99941 201.596 2.63959 202.636 1.921C202.797 1.95017 203.112 1.96456 203.581 1.96419C204.064 1.96381 204.906 1.78736 206.107 1.43485C207.323 1.06767 208.216 0.883858 208.787 0.883406L218.214 0.87594C219.649 0.874803 221.385 1.10781 223.422 1.57494C225.473 2.04207 226.835 2.33396 227.509 2.45061C227.509 2.62639 227.093 3.49831 226.259 5.06635C225.44 6.61973 224.972 7.44042 224.855 7.5284L224.459 7.52871V8.05606L224.855 8.05574C224.857 10.5021 224.574 13.7249 224.006 17.7244L223.566 17.7248L222.687 16.6927C222.291 16.7809 221.94 16.8252 221.632 16.8254C220.797 16.8261 219.793 16.4387 218.621 15.6632L218.225 15.6636L218.622 17.1794L218.227 18.2124C218.521 18.5637 218.668 19.274 218.668 20.3434C218.669 21.4127 218.663 22.233 218.648 22.8043C218.634 23.3756 218.627 23.7052 218.627 23.7931C218.613 23.7931 218.576 23.7565 218.517 23.6833C218.459 23.6834 218.429 23.7347 218.429 23.8372L218.716 25.2432L218.279 28.5175C218.28 29.0595 218.397 29.5135 218.632 29.8795C218.296 31.2421 218.129 32.9341 218.131 34.9556ZM252.584 34.9723C252.349 34.9725 252.203 34.7236 252.144 34.2256V34.1377C252.026 33.7276 251.901 33.4494 251.77 33.303L251.374 33.3033C251.359 33.4205 251.352 33.6036 251.352 33.8527C251.323 33.7941 251.25 33.7136 251.133 33.6111C251.03 33.494 250.979 33.3915 250.978 33.3036L250.165 32.2716C250.048 32.55 249.931 33.0554 249.814 33.788C249.565 33.4512 249.103 32.1186 248.427 29.79C247.751 27.4615 247.413 26.0775 247.413 25.638L246.995 25.6383L247.412 25.1546C247.119 24.4517 246.862 23.5144 246.641 22.3427C246.421 21.171 246.163 20.0799 245.87 19.0694C245.59 18.0589 245.172 17.2023 244.615 16.4996L244.22 16.4999L244.615 15.9722L243.867 14.9401L243.427 14.9405L243.028 10.3924L242.632 9.88737C242.72 9.79941 242.764 9.71881 242.764 9.64557C242.764 9.55767 242.661 9.46987 242.456 9.38214C242.251 9.27976 242.148 9.18463 242.148 9.09674C242.148 8.9942 242.185 8.90628 242.258 8.83298L241.533 8.83355L241.84 8.34991L241.444 7.84485L240.983 7.84522L241.444 7.31751C241.121 6.95155 240.535 6.53454 239.685 6.06646C238.85 5.58372 238.263 5.15938 237.926 4.79344L237.421 4.79384C236.835 4.7943 236.425 4.63349 236.19 4.31141C236.292 4.29668 237.032 4.07637 238.409 3.65048C242.275 2.47554 244.208 1.99061 244.208 2.19569C244.208 1.80018 244.523 1.62415 245.153 1.6676C245.856 1.71098 246.346 1.56411 246.624 1.22698L247.394 2.23711L247.767 1.75342L248.185 1.75309L247.767 1.22607L248.185 1.22574L248.58 1.75277L248.581 1.9725C248.581 2.82211 248.706 3.41527 248.956 3.75199L248.582 3.66439L248.583 5.29037L248.957 5.29007L248.936 6.74029C248.936 7.22368 249.083 7.91937 249.377 8.82734L249.355 9.26681C249.356 10.3215 249.621 11.6983 250.15 13.3971C250.148 11.5074 250.549 8.80444 251.352 5.28818L250.956 5.28849C251.308 5.11243 251.71 3.93291 252.162 1.74994L251.942 1.57433L252.162 1.22259V1.44232L252.557 0.694932L252.161 0.695245L252.556 0.167589L256.379 0.164561L256.095 1.21948C256.388 1.57081 256.535 2.15663 256.536 2.97694V3.74598C256.741 3.99484 257.035 5.18114 257.418 7.30486C257.8 9.41393 258.028 10.6076 258.102 10.8859C258.19 10.6368 258.321 10.1972 258.496 9.56719C258.876 8.24853 259.278 7.33268 259.703 6.81965L259.307 6.29262L259.306 5.76527C260.14 4.78317 260.557 3.68421 260.556 2.46839C260.556 2.27796 260.526 1.8605 260.467 1.21601L260.049 0.688998L260.467 1.06221V0.688667L260.862 0.161011L261.28 0.688024V1.21537C261.339 1.22997 261.544 1.23713 261.895 1.23686C262.262 1.23657 262.708 1.05311 263.235 0.686475L263.236 1.21382C264.627 1.21272 266.276 1.5996 268.181 2.37446C270.1 3.13465 271.287 3.58782 271.741 3.73394L270.401 4.28432V4.37221L270.006 4.28463C269.303 4.46097 268.805 4.68842 268.512 4.96697C268.219 5.24552 267.919 5.57535 267.612 5.95645C267.305 6.33755 267.063 6.62339 266.888 6.81396V7.29736L266.493 7.82501L266.801 7.82477C265.688 8.25046 264.459 10.5732 263.115 14.793C262.516 16.7125 262.172 17.7747 262.085 17.9799L262.964 18.4846L262.788 18.4847C262.467 19.5982 262.109 21.0121 261.715 22.7263C261.335 24.4405 261.146 25.5099 261.146 25.9347C261.146 26.3595 261.161 26.6012 261.191 26.6598L260.729 26.6602L261.191 27.1652L260.73 27.6709L260.334 27.6712C260.261 27.935 260.115 28.4331 259.896 29.1657C259.692 29.8836 259.546 30.4111 259.458 30.7481C259.18 31.8469 259.042 32.8578 259.043 33.7806C259.043 33.8832 258.962 34.0371 258.801 34.2423C258.641 34.4475 258.56 34.6013 258.56 34.7039L258.274 34.4844C258.391 34.3671 258.487 34.3011 258.56 34.2864C258.34 34.2866 258.142 34.2355 257.966 34.1331L257.681 33.7817L257.835 34.1332C257.703 34.0747 257.483 33.965 257.175 33.8041C256.53 33.4677 255.966 33.2997 255.483 33.3001C255.542 33.3586 255.571 33.4245 255.571 33.4978C255.571 33.5563 255.527 33.6296 255.439 33.7176C255.366 33.8055 255.293 33.8495 255.22 33.8496C255.146 33.8497 255.088 33.8277 255.044 33.7838V34.0695L254.627 34.3115L254.604 33.3008C254.897 32.9197 255.043 32.3336 255.042 31.5426C255.041 30.7369 254.901 29.4553 254.622 27.6977C254.342 25.9401 254.202 24.8123 254.201 24.3143C254.201 23.8162 254.135 23.3402 254.002 22.8862C253.87 22.4322 253.797 22.1686 253.782 22.0954C253.783 22.9743 253.645 24.2488 253.368 25.9189C253.091 27.5891 252.953 28.8563 252.953 29.7205L252.58 29.7208L252.536 30.2262C252.537 30.7389 252.61 31.5372 252.758 32.6211C252.92 33.6903 253.008 34.4373 253.023 34.8621L252.957 34.4886L252.584 34.9723ZM289.543 8.94934L289.545 11.3004C289.547 14.1276 289.241 16.164 288.627 17.4096C288.905 17.4093 289.044 17.2408 289.044 16.9039V16.7281L289.439 16.3982C289.205 16.6327 289.088 17.0357 289.089 17.6069C289.089 18.1636 289.192 18.9838 289.398 20.0676C289.619 21.1514 289.736 21.7959 289.751 22.001L289.334 22.0013L289.333 21.1444C289.07 21.6719 288.938 22.2213 288.939 22.7926V23.0123L289.445 23.6272L289.356 22.4847L289.796 22.4843V22.6601C289.797 23.9052 289.63 25.773 289.295 28.2635C288.96 30.7394 288.793 32.8635 288.794 34.636C288.796 36.4231 288.57 37.3461 288.116 37.4051L287.786 37.0538L287.258 37.1421L286.906 36.659L285.94 37.0772L286.006 37.0112L285.038 36.1111L284.226 36.705L283.698 36.6615L284.159 36.1118C284.159 35.8042 284.195 35.3428 284.268 34.7275C284.356 34.1122 284.399 33.6434 284.399 33.3211L284.004 33.5851L283.608 33.102L283.959 33.1017C283.593 32.6186 283.277 32.1062 283.013 31.5644L282.354 31.6968L281.848 31.3016L281.454 32.115L281.849 32.1146L281.893 32.598L281.564 32.5323L281.586 32.9059C281.586 33.2135 281.521 33.5944 281.389 34.0486C281.272 34.5028 281.133 34.73 280.972 34.7301C280.826 34.7302 280.723 34.6131 280.664 34.3788C280.578 35.6972 280.373 36.8033 280.052 37.6971L279.546 37.1921V37.4998C279.546 37.7341 279.466 37.91 279.305 38.0273C279.1 38.1446 278.763 38.2035 278.294 38.2039L278.25 37.6985C277.825 37.8454 277.276 37.9703 276.602 38.0734C276.089 37.4732 275.825 36.5432 275.809 35.2835C275.808 34.0237 275.8 33.2986 275.785 33.1082L276.137 33.1519L276.225 32.6025C275.961 32.5295 275.763 31.9583 275.63 30.8891C275.512 29.8052 275.438 29.212 275.409 29.1095C275.951 29.1091 276.221 28.5668 276.22 27.4829V27.0874L275.781 27.5711L275.692 25.8793C275.691 25.1908 275.742 24.3119 275.844 23.2424C275.96 22.173 276.098 21.4039 276.259 20.935L275.864 20.9353L276.631 18.7374C276.631 18.1515 276.505 17.2727 276.255 16.101C276.02 14.9293 275.902 14.0212 275.902 13.3767C275.901 12.7321 276.164 12.2632 276.692 11.9698C276.178 10.3149 275.912 8.52068 275.896 6.5871L276.247 6.05947C275.984 5.9425 275.273 5.26923 274.114 4.03968C272.971 2.79547 272.223 2.1735 271.872 2.17378L271.74 2.17388C271.74 1.79302 273.314 1.43289 276.463 1.09348C279.612 0.739422 282.315 0.561501 284.571 0.559714C284.79 0.55954 285.098 0.735077 285.494 1.08633C286.592 0.719246 288.123 0.534928 290.086 0.533373L293.799 0.552405C291.998 1.68176 290.82 2.92782 290.265 4.29056C289.782 5.44817 289.542 7.00109 289.543 8.94934ZM281.667 23.5015L281.711 24.0068L281.315 24.0071L281.471 25.6989C281.471 26.2409 281.332 26.7024 281.054 27.0835L281.076 27.5669L281.472 27.0832L283.889 27.0813L283.777 25.0159L283.535 24.5108L283.688 23.4999C283.687 22.1376 283.511 21.4566 283.159 21.4569L283.532 20.9292L283.159 20.9295L283.488 20.4898L283.114 20.4901L283.07 19.9408C283.319 19.9406 283.443 19.7794 283.443 19.4571L283.048 19.4574L282.936 16.9966C282.863 17.5386 282.629 18.5496 282.235 20.0294C281.855 21.4945 281.666 22.6519 281.667 23.5015ZM289.403 26.1321L289.205 26.0444C289.176 26.0444 289.161 26.1323 289.161 26.3081L289.162 26.6596C289.162 26.6303 289.271 26.4398 289.491 26.0881C289.462 26.1174 289.432 26.1321 289.403 26.1321ZM285.896 37.1432C285.896 37.0992 285.911 37.0772 285.94 37.0772L285.896 37.1432ZM304.7 31.3495L304.914 24.5597C304.914 23.7394 304.451 21.4107 303.525 17.5735C302.613 13.7364 302.158 11.6054 302.157 11.1806C302.157 10.7411 302.179 10.4774 302.223 10.3895C301.49 10.3461 300.962 9.95836 300.64 9.22619C300.317 8.49403 300.162 7.66651 300.176 6.74365C299.048 6.11466 297.839 5.25868 296.549 4.17572C295.259 3.07811 294.453 2.40492 294.13 2.15615L294.042 2.15622L294.13 1.93642L294.57 2.1558C294.906 1.93581 295.573 1.81809 296.569 1.80266C297.58 1.78721 298.246 1.56695 298.568 1.14189L298.941 1.1416L298.985 1.0317C299.322 1.41229 299.718 1.62438 300.172 1.66797V1.14062L302.699 1.02876C303.343 1.02825 303.915 1.43063 304.413 2.2359C305.044 3.26079 305.521 4.3444 305.844 5.48672C306.182 6.62903 306.424 7.48577 306.571 8.05694C306.733 8.6281 306.85 9.03084 306.924 9.26516C307.742 6.84752 308.517 5.16233 309.249 4.20961L308.743 3.48491L308.875 3.13324C309.402 3.13283 309.665 2.28301 309.664 0.583786L310.081 1.13277L310.433 1.17644L310.85 0.736655C310.953 1.38111 312.147 1.88553 314.433 2.24993C315.356 2.39569 315.942 2.54171 316.191 2.68799V2.18262C316.293 2.51946 316.814 2.84863 317.752 3.17016C318.704 3.49167 319.407 3.65224 319.861 3.65189C318.909 3.71123 318.14 4.02678 317.555 4.59854C317.321 4.84775 317.101 5.09694 316.896 5.34613C316.428 5.91779 316.04 6.20374 315.732 6.20398C315.366 6.48259 315.162 6.83432 315.118 7.25916L314.833 7.78673L314.437 7.7431C314.408 8.4023 313.984 9.12773 313.165 9.9194C312.828 10.242 312.594 10.5351 312.462 10.7989C312.14 11.429 311.813 13.8829 311.479 18.1605C311.16 22.4381 310.891 25.075 310.672 26.0713L311.068 26.071C311.068 26.071 310.938 27.7703 310.677 31.169C310.267 31.6087 310.062 32.2827 310.063 33.1909L310.175 35.4101L309.758 36.2234L308.988 35.1473C308.783 35.3086 308.395 35.4774 307.824 35.6536C307.252 35.8299 306.777 36.0353 306.396 36.27C306.015 36.5193 305.825 36.8564 305.825 37.2812C305.078 36.4029 304.703 34.4256 304.7 31.3495ZM293.252 2.70616C293.53 2.39833 293.735 2.22971 293.866 2.2003C293.808 2.2443 293.749 2.31758 293.691 2.42017C293.545 2.61072 293.398 2.70605 293.252 2.70616ZM300.177 7.24902V7.31494C300.162 7.31495 300.023 7.29309 299.759 7.24935L300.177 7.24902ZM314.833 7.98448V8.24815C314.819 8.24817 314.811 8.21155 314.811 8.13831L314.833 7.98448ZM314.833 7.78673C314.862 7.78671 314.877 7.81599 314.877 7.87458C314.877 7.91853 314.862 7.95516 314.833 7.98448V7.78673ZM294.042 2.15622C294.042 2.18552 294.013 2.20019 293.954 2.20023C293.998 2.2002 294.028 2.18553 294.042 2.15622ZM340.125 37.9132L340.169 37.1002C340.167 35.0494 339.8 34.0243 339.067 34.0249C338.687 34.0252 338.423 34.084 338.277 34.2013C338.13 34.3332 338.013 34.4432 337.925 34.5312C337.837 34.6191 337.764 34.7437 337.706 34.9049C337.647 35.0807 337.596 35.2272 337.552 35.3444C337.509 35.4617 337.465 35.6302 337.421 35.8499C337.392 36.0697 337.37 36.2308 337.355 36.3334C337.341 36.4506 337.319 36.6337 337.29 36.8827C337.261 37.1464 337.239 37.3222 337.224 37.4101C336.521 37.4107 336.169 36.9642 336.169 36.0706C336.168 35.3968 335.494 34.6576 334.145 33.853C333.574 33.5019 333.2 33.2385 333.024 33.0629L333.025 33.5463L332.629 33.5466L333.024 33.0629C332.966 32.9897 332.79 32.7774 332.496 32.4261C332.218 32.0747 332.02 31.8039 331.902 31.6136C331.492 31.028 331.286 30.4788 331.286 29.9661L331.747 29.9657C331.747 29.1601 331.519 28.003 331.063 26.4946C330.623 24.9862 330.402 23.6826 330.401 22.584C330.4 21.4854 330.179 19.8303 329.738 17.6187C329.311 15.3925 329.098 13.7447 329.097 12.6754L328.613 12.1484L329.097 12.5655L328.964 11.0934L328.81 11.2034L328.612 11.1377L329.095 10.588L328.612 10.1489C328.61 8.56683 329.122 7.05031 330.146 5.59931C331.185 4.14829 332.436 3.01204 333.901 2.19057C335.379 1.36909 336.793 0.957808 338.14 0.95674L338.536 1.4618L338.953 0.956096C339.173 0.955922 339.495 1.04356 339.92 1.21901C340.345 1.3798 340.675 1.46011 340.909 1.45992L341.326 0.954217C341.986 1.77401 343.202 2.27842 344.975 2.46744L345.855 3.52144L345.854 2.95015L346.316 2.94978L346.272 3.5211L346.712 4.02613L346.317 4.53181C346.654 4.53154 347.042 4.58983 347.482 4.70667C347.921 4.80886 348.141 4.99912 348.141 5.27744C348.141 5.33603 348.112 5.4093 348.054 5.49723L348.955 6.57318L348.516 6.57353C348.517 8.37529 348.606 9.52512 348.782 10.023C348.973 10.5063 349.179 10.8723 349.398 11.1212C348.813 11.1217 348.52 11.4222 348.52 12.0228C348.521 12.6234 348.624 13.07 348.829 13.3629C348.595 13.8025 348.478 14.1248 348.478 14.3299C348.478 14.5204 348.493 14.6375 348.522 14.6815L348.962 14.6811V14.9887C348.967 20.9067 348.522 23.866 347.629 23.8667L347.214 26.9432L347.631 26.9429L346.578 28.5697L346.732 28.9431C346.616 30.2616 346.038 31.6317 344.999 33.0534C345 33.7565 344.869 34.5183 344.606 35.3389C344.357 36.174 344.204 36.7015 344.145 36.9213C343.867 36.9215 343.713 36.9948 343.684 37.1413L343.749 35.3835C343.749 35.2224 343.69 35.032 343.572 34.8123C343.47 34.6073 343.345 34.5049 343.199 34.505L342.957 34.5492C342.459 35.1501 342.13 35.6118 341.969 35.9342C341.809 36.2713 341.721 36.6375 341.707 37.0331L341.728 36.9232C341.728 36.9818 341.721 37.0184 341.707 37.0331V37.1429C341.634 37.3481 341.517 37.5239 341.356 37.6705C341.209 37.8318 341.07 37.9125 340.938 37.9126L340.125 37.9132ZM339.756 15.7211C339.756 15.3842 339.58 15.2159 339.228 15.2162L338.965 15.2164L338.964 14.689L338.547 14.6894C338.547 15.0409 338.415 15.2168 338.152 15.217V15.7224L337.757 15.7227L336.989 17.2394C336.989 17.6349 336.916 18.177 336.77 18.8656C336.624 19.5395 336.552 20.2866 336.552 21.107C336.553 21.9126 336.7 22.4984 336.993 22.8644L336.554 22.8648C336.554 23.0698 336.583 23.2017 336.642 23.2602C336.701 23.3188 336.818 23.348 336.994 23.3478L336.996 25.8747C337.128 26.0357 337.267 26.5043 337.414 27.2806C337.561 28.0422 337.679 28.423 337.767 28.4229C337.825 28.5254 337.921 28.7304 338.053 29.0379C338.302 29.6529 338.61 29.9603 338.976 29.96C339.46 29.9596 339.84 29.5419 340.118 28.7067C340.396 27.8715 340.534 27.1023 340.534 26.3992L340.16 26.3995V25.8722L340.533 25.8719L340.928 25.3662L340.925 21.3232C340.925 20.8691 340.858 20.3125 340.726 19.6535C340.594 18.9944 340.527 18.3352 340.527 17.6761L340.526 17.2366L339.756 15.7211ZM337.334 37.0365C337.334 37.0512 337.327 37.0731 337.312 37.1025C337.312 37.1317 337.312 37.161 337.312 37.1903V37.1025C337.312 37.0878 337.319 37.0658 337.334 37.0365ZM363.473 26.1393L363.496 27.0842L363.056 27.0845L363.496 27.5895L363.498 29.9845L363.9 37.9603L363.505 38.466L363.504 37.9606L363.064 37.4556C363.357 36.8694 363.503 36.3639 363.503 35.9391C363.502 35.1188 362.923 34.7091 361.766 34.71C361.502 35.1204 361.356 35.7797 361.328 36.6879C361.314 37.5961 361.168 38.2188 360.89 38.5559L360.889 38.0066L360.428 37.4577L360.426 35.7438C359.664 34.719 359.107 34.2068 358.755 34.207C358.404 34.2073 358.133 34.3247 357.942 34.5593C357.752 34.7938 357.569 35.0942 357.394 35.4606C357.218 35.8269 357.057 36.0834 356.911 36.23L356.912 37.4605L356.472 36.7797L356.467 30.1439C356.73 29.7775 356.862 29.2501 356.861 28.5616L356.86 27.6827C356.86 26.9649 357.02 26.4155 357.342 26.0343L356.903 25.5513L356.902 25.0679L356.462 24.5848L356.879 24.0352L356.461 23.4862L356.457 17.3998C356.295 17.1948 356.193 16.8726 356.148 16.4332C356.104 15.9938 356.052 15.6203 355.994 15.3127C355.949 15.0052 355.825 14.8515 355.62 14.8516L355.615 8.7432C355.615 8.40629 355.468 7.97427 355.174 7.44716C354.896 6.92004 354.756 6.50999 354.756 6.21702C354.008 5.25082 352.689 3.89688 350.798 2.15522L355.609 1.14066C355.902 1.49199 356.32 1.66744 356.862 1.66701L357.257 1.13936L362.398 1.13529C362.692 1.48662 363.051 1.66211 363.475 1.66178C363.9 1.66144 364.34 1.48531 364.793 1.13339L364.794 2.14413L365.562 1.13278C366.148 1.23485 367.02 1.34403 368.177 1.4603C370.726 1.72195 372.69 2.1159 374.067 2.64216C373.393 2.64269 372.8 3.24375 372.289 4.44532C371.792 5.63224 371.434 7.09005 371.215 8.81873C370.779 12.115 370.561 14.8032 370.563 16.8832L371.002 16.8829L371.003 17.8936C370.578 17.7914 369.853 17.521 368.827 17.0824C367.816 16.6291 367.003 16.4027 366.388 16.4031L366.387 15.8758L365.992 15.8761V16.4035L364.014 16.405C363.765 16.1123 363.362 15.9368 362.806 15.8786C363.099 16.3179 363.246 16.8231 363.246 17.3944C363.247 17.951 363.232 18.288 363.203 18.4052L362.808 18.9328L368.785 18.9281L369.093 19.4772L368.785 19.9388L368.788 22.993L368.348 22.9934C368.392 23.0666 368.524 23.2569 368.744 23.5644C369.214 24.2232 369.448 24.6478 369.448 24.8382C369.449 25.2777 369.31 25.6733 369.032 26.0251C368.724 25.3075 367.91 24.9493 366.592 24.9504C366.358 24.9505 365.984 24.9875 365.472 25.0611L365.471 24.5777L365.076 24.578V25.0614L364.68 24.5783V25.0617L363.889 25.0624V24.579C363.611 24.9307 363.472 25.4509 363.473 26.1393ZM356.911 36.7793C356.911 36.5303 357.014 36.2885 357.218 36.054C357.043 36.4936 356.941 36.8086 356.912 36.999L356.911 36.7793ZM357.262 35.966L357.35 35.7462V35.944C357.321 35.944 357.292 35.9514 357.262 35.966ZM115.552 105.784C115.391 105.785 115.311 105.697 115.311 105.521C115.31 105.331 115.325 105.221 115.354 105.191C116.262 105.015 116.715 102.693 116.711 98.2249C116.71 97.4046 116.622 96.3427 116.445 95.0391C116.268 93.7355 116.179 92.7468 116.179 92.073L116.662 91.9408L116.661 90.952C116.134 91.5677 115.703 92.9816 115.368 95.1938C115.048 97.4059 114.888 99.2078 114.889 100.599L114.691 100.534C114.618 100.534 114.538 100.622 114.45 100.798V100.754C114.289 101.208 114.136 101.999 113.99 103.127L114.408 103.654C114.115 103.698 113.896 104.006 113.75 104.577C113.472 105.632 112.828 106.175 111.817 106.205L111.905 105.612C111.905 105.392 111.611 104.271 111.023 102.25C110.436 100.215 110.105 99.153 110.032 99.0652C110.193 98.5817 110.273 98.2886 110.273 98.1861C110.272 97.1607 109.949 95.8865 109.303 94.3636C108.657 92.8407 108.312 91.7204 108.268 91.0026L108.269 93.0241C108.27 93.9177 108.425 95.2359 108.734 96.9788C109.043 98.7071 109.198 99.9155 109.198 100.604H109.088L109.202 105.724C108.514 105.724 107.913 105.373 107.4 104.67L106.873 105.616L106.961 105.725C106.946 105.784 107.02 105.872 107.181 105.989C107.357 106.106 107.445 106.194 107.445 106.252L107.402 107.087L106.808 106.978L106.103 104.671L105.18 104.672L104.654 105.244C104.654 105.449 104.991 105.69 105.665 105.968V106.21C105.665 106.591 105.505 107.221 105.183 108.1C104.524 108.1 104.062 107.749 103.798 107.046C103.593 106.49 103.475 106.05 103.445 105.728C103.4 103.707 103.193 101.422 102.825 98.8731C102.457 96.3246 102.008 94.113 101.479 92.2385L101.699 91.9526L101.237 91.4257L101.698 90.9639L100.884 89.8879L101.125 88.3935L101.234 88.3934C101.205 88.2616 101.117 87.5073 100.969 86.1305C100.836 84.739 100.623 83.8016 100.33 83.3185V83.6041C100.257 83.6042 100.205 83.509 100.176 83.3186L99.9101 80.77L100.327 79.7369L99.7994 79.7374C99.7701 79.7081 99.7554 79.6568 99.7553 79.5836C99.7553 79.5103 99.7991 79.4297 99.887 79.3418C99.9748 79.2538 100.055 79.2098 100.129 79.2097C100.216 79.2097 100.275 79.2243 100.304 79.2536L96.8067 74.1367C97.3046 74.0191 98.6375 73.8203 100.805 73.5403C106.693 72.7739 109.762 72.2881 110.011 72.0828C110.011 72.4783 110.187 72.6759 110.538 72.6756C110.641 72.6755 110.722 72.6608 110.78 72.6315L110.012 73.6428C110.071 74.4485 110.453 75.8764 111.158 77.9266C111.877 79.9622 112.237 81.4414 112.238 82.3642V82.7597C112.282 82.5693 112.421 82.0345 112.655 81.1554C112.903 80.2616 113.115 79.4631 113.29 78.7599C113.801 76.8259 114.056 75.4487 114.056 74.6284L113.548 72.3436C113.548 72.2265 113.556 72.1386 113.57 72.08L113.966 72.0796L114.428 72.6286L114.427 72.0793C115.218 72.0787 115.636 72.2541 115.68 72.6056C115.724 72.9572 116.047 73.1327 116.647 73.1322C116.94 72.839 117.335 72.6922 117.833 72.6918L117.987 72.6917L118.382 72.0761L118.844 72.0758C118.873 72.5885 121.005 73.2313 125.239 74.0043C126.851 74.296 127.81 74.5003 128.118 74.6173L125.878 76.1352C125.292 76.1356 124.926 76.4435 124.78 77.0589C124.663 77.5277 124.605 78.0771 124.606 78.707L125.002 79.234L124.233 80.2234L124.607 80.7504L124.103 81.7835L123.795 81.5201L123.707 81.7838L124.257 82.4646C123.847 83.0069 123.644 84.7649 123.646 87.7385L123.715 91.9352C123.716 93.4294 123.615 95.114 123.412 96.9892C123.208 98.8497 122.865 100.051 122.382 100.593L122.712 101.121L122.515 102.549C122.137 105.274 121.947 106.834 121.948 107.23L121.53 106.681C121.457 106.783 121.332 106.937 121.157 107.142C120.791 107.567 120.608 107.897 120.608 108.132L120.08 107.077C120.27 107.033 120.446 106.901 120.607 106.681L120.211 106.198C120.21 105.583 120.064 105.173 119.771 104.968C119.492 104.749 119.053 104.639 118.452 104.64L117.969 104.662C117.588 104.735 117.317 104.955 117.156 105.322C116.995 105.673 116.834 105.886 116.673 105.959C116.307 105.96 116.131 105.93 116.146 105.872C116.16 105.813 116.168 105.777 116.168 105.762V105.718H116.673L116.189 105.191L115.662 105.74C115.633 105.77 115.596 105.784 115.552 105.784ZM124.609 82.2665L124.257 82.4646C124.301 82.3327 124.418 82.2667 124.609 82.2665ZM113.768 72.6291C113.768 72.6731 113.79 72.695 113.834 72.695C113.878 72.6949 113.9 72.6656 113.9 72.607C113.9 72.5338 113.885 72.4972 113.856 72.4972L113.768 72.6291ZM114.45 101.127L114.406 101.017V100.907C114.406 100.893 114.413 100.878 114.428 100.863C114.443 100.834 114.45 100.812 114.45 100.798V101.127ZM108.935 100.604H108.737C108.737 100.634 108.759 100.648 108.803 100.648C108.861 100.648 108.905 100.633 108.935 100.604ZM122.713 102.043L122.844 102.131C122.786 102.102 122.713 102.087 122.625 102.087C122.654 102.058 122.683 102.043 122.713 102.043ZM122.427 102.175H122.471L122.537 102.088L122.427 102.175ZM147.371 81.062L147.373 83.4131C147.375 86.2402 147.069 88.2766 146.455 89.5222C146.733 89.522 146.872 89.3534 146.872 89.0165V88.8407L147.267 88.5108C147.033 88.7454 146.916 89.1483 146.917 89.7196C146.917 90.2762 147.02 91.0964 147.226 92.1803C147.447 93.2641 147.565 93.9085 147.579 94.1136L147.162 94.1139L147.161 93.257C146.898 93.7845 146.767 94.3339 146.767 94.9052V95.125L147.273 95.7398L147.184 94.5973L147.624 94.5969V94.7727C147.625 96.0178 147.458 97.8856 147.123 100.376C146.788 102.852 146.621 104.976 146.623 106.749C146.624 108.536 146.398 109.459 145.944 109.518L145.614 109.166L145.086 109.255L144.735 108.772L143.768 109.19L143.834 109.124L142.866 108.224L142.054 108.818L141.527 108.774L141.987 108.224C141.987 107.917 142.024 107.455 142.096 106.84C142.184 106.225 142.227 105.756 142.227 105.434L141.832 105.698L141.436 105.215L141.787 105.214C141.421 104.731 141.105 104.219 140.841 103.677L140.182 103.809L139.677 103.414L139.282 104.228L139.677 104.227L139.722 104.711L139.392 104.645L139.414 105.018C139.414 105.326 139.349 105.707 139.217 106.161C139.1 106.615 138.961 106.843 138.8 106.843C138.654 106.843 138.551 106.726 138.492 106.491C138.406 107.81 138.201 108.916 137.88 109.81L137.374 109.305V109.612C137.375 109.847 137.294 110.023 137.133 110.14C136.928 110.257 136.591 110.316 136.122 110.317L136.078 109.811C135.653 109.958 135.104 110.083 134.43 110.186C133.917 109.586 133.653 108.656 133.637 107.396C133.636 106.136 133.628 105.411 133.614 105.221L133.965 105.264L134.053 104.715C133.789 104.642 133.591 104.071 133.458 103.002C133.34 101.918 133.266 101.325 133.237 101.222C133.779 101.222 134.049 100.679 134.049 99.5955L134.048 99.2L133.609 99.6837L133.52 97.9919C133.519 97.3034 133.57 96.4245 133.672 95.3551C133.788 94.2856 133.927 93.5165 134.087 93.0476L133.692 93.0479L134.459 90.85C134.459 90.2641 134.333 89.3853 134.083 88.2136C133.848 87.0419 133.73 86.1338 133.73 85.4893C133.729 84.8448 133.993 84.3758 134.52 84.0824C134.006 82.4275 133.741 80.6333 133.724 78.6997L134.076 78.1721C133.812 78.0551 133.101 77.3819 131.943 76.1523C130.799 74.9081 130.051 74.2861 129.7 74.2864L129.568 74.2865C129.568 73.9057 131.142 73.5455 134.291 73.2061C137.44 72.8521 140.143 72.6741 142.399 72.6724C142.619 72.6722 142.926 72.8477 143.322 73.199C144.42 72.8319 145.951 72.6476 147.914 72.646L151.627 72.6651C149.826 73.7944 148.648 75.0405 148.093 76.4032C147.61 77.5608 147.37 79.1137 147.371 81.062ZM139.495 95.6141L139.539 96.1195L139.143 96.1198L139.299 97.8115C139.299 98.3535 139.16 98.8151 138.882 99.1961L138.905 99.6795L139.3 99.1958L141.717 99.1939L141.605 97.1286L141.363 96.6234L141.516 95.6125C141.515 94.2502 141.339 93.5692 140.987 93.5695L141.36 93.0418L140.987 93.0421L141.316 92.6024L140.942 92.6027L140.898 92.0534C141.147 92.0532 141.271 91.892 141.271 91.5697L140.876 91.5701L140.764 89.1092C140.691 89.6513 140.457 90.6622 140.063 92.142C139.683 93.6071 139.494 94.7645 139.495 95.6141ZM147.231 98.2447L147.033 98.157C147.004 98.157 146.989 98.2449 146.989 98.4207L146.99 98.7722C146.99 98.743 147.099 98.5524 147.319 98.2007C147.29 98.23 147.26 98.2447 147.231 98.2447ZM143.724 109.256C143.724 109.212 143.739 109.19 143.768 109.19L143.724 109.256ZM152.443 75.4769C152.442 75.1839 152.208 75.0376 151.739 75.038L151.234 75.0384C151.571 74.9942 152.112 74.8107 152.859 74.4878C153.606 74.1649 154.375 74.0032 155.166 74.0026C155.972 74.0019 157.436 73.8323 159.56 73.4937C161.684 73.1551 163.156 72.9855 163.976 72.9849C164.797 72.9842 165.778 73.1446 166.921 73.4659C168.064 73.7873 168.95 73.9477 169.58 73.9472L169.91 73.947L170.745 74.5396C170.877 74.5395 171.69 75.3225 173.186 76.8887C174.681 78.4403 175.466 79.3405 175.539 79.5895L175.1 79.5898C175.627 80.1753 175.921 81.0613 175.981 82.2478C175.996 82.5701 176.003 83.2878 176.004 84.4011C176.005 85.5144 175.801 87.0014 175.393 88.8621C174.984 90.7081 174.531 92.3564 174.034 93.807C172.734 97.6898 172.07 100.928 172.042 103.52L171.603 103.521C171.604 104.663 171.4 105.784 170.99 106.883C170.581 107.982 170.018 108.869 169.301 109.543L169.146 109.148L168.751 109.61L169.015 109.609L167.961 110.116L167.543 109.61L166.775 110.622L165.961 109.612L165.544 110.227L164.775 110.118C164.774 109.078 164.7 108.441 164.553 108.207C164.275 107.753 163.85 107.526 163.278 107.526C162.722 107.527 162.26 107.586 161.894 107.703C161.543 107.821 161.279 108.011 161.104 108.275C160.928 108.539 160.797 108.817 160.709 109.111C160.373 110.239 160.015 111.103 159.634 111.704L159.216 111.133V110.232C159.215 109.368 159.09 108.658 158.84 108.101H159.214L158.84 107.596C158.836 102.63 158.29 97.2545 157.201 91.4692C156.127 85.684 154.681 80.712 152.861 76.5532L153.059 76.641L153.321 75.5202L152.86 75.0371L152.443 75.4769ZM164.791 103.109L164.77 104.01L165.165 104.009C165.165 103.79 165.187 103.658 165.231 103.614C165.275 103.555 165.392 103.526 165.582 103.526V102.515H165.955L166.373 102.998L166.769 102.997L167.142 102.514C167.449 102.513 167.603 102.228 167.602 101.656L167.536 100.47C167.594 100.382 167.682 100.162 167.799 99.8105C168.091 98.8727 168.266 98.4038 168.325 98.4038L168.258 97.1734C168.258 96.646 168.419 96.3822 168.741 96.382C168.741 96.0451 168.638 95.8767 168.433 95.8768C168.638 95.8181 168.74 95.6496 168.74 95.3712L168.738 93.3278C168.738 92.6539 168.598 92.1414 168.32 91.79C168.319 90.9551 168.157 90.2447 167.835 89.6591C167.512 89.0734 167.021 88.7808 166.362 88.7813L165.153 88.7823C165.154 89.1192 165.081 89.4488 164.934 89.7712C164.788 90.0936 164.59 90.2549 164.341 90.2551V89.7717L163.989 89.772C163.99 89.8892 164.026 89.999 164.1 90.1015C164.173 90.2039 164.254 90.2552 164.341 90.2551L164.343 91.7932L163.992 92.3208V92.8042L164.343 92.8039L164.345 94.364C164.345 94.6276 164.316 94.7815 164.257 94.8255C164.199 94.8695 164.111 94.8915 163.994 94.8916L163.995 96.3857C163.995 96.6494 164.024 96.8032 164.083 96.8471C164.142 96.8763 164.23 96.8909 164.347 96.8908L164.348 98.4069L163.996 98.4072C163.997 98.7734 164.114 98.9564 164.348 98.9563L163.997 99.418L163.998 100.473C163.998 100.824 164.116 101.168 164.35 101.505L164.351 101.988C164.644 102.369 164.791 102.743 164.791 103.109ZM169.147 109.609L169.301 109.543L169.432 109.609H169.147ZM190.188 98.782C189.645 98.0793 189.374 97.4057 189.373 96.7611L189.769 96.2555L189.373 96.2558C189.373 95.9335 189.248 95.5674 188.999 95.1574C188.749 94.7328 188.603 94.4693 188.559 94.3668L188.562 98.2559C188.298 98.637 188.167 99.0912 188.167 99.6185C188.168 100.131 188.3 100.864 188.564 101.815L188.213 102.365L188.219 108.935C187.925 108.598 187.778 108.093 187.778 107.419L187.009 107.42C186.965 107.42 186.818 107.5 186.57 107.662C186.335 107.823 186.211 107.911 186.196 107.926L186.197 108.453L185.824 108.937H185.45L185.449 107.926C185.142 108.278 184.739 108.454 184.241 108.455L183.846 108.938L183.45 108.455L182.21 96.7668L182.627 96.2611C182.159 96.0271 181.74 94.6578 181.372 92.1532C180.738 87.7006 180.42 83.6139 180.417 79.8932L180.022 79.6299L180.417 79.1462C180.329 78.9997 180.094 78.5385 179.712 77.7624C178.759 75.8296 178.128 74.7534 177.82 74.534V74.0286L176.919 73.502C178.222 73.5009 180.134 73.3895 182.653 73.1678C185.172 72.9461 187.018 72.8348 188.19 72.8338C188.439 73.1706 188.828 73.3387 189.355 73.3383L189.354 72.8329L190.519 72.832L190.521 75.3808L191.357 76.3909L190.962 76.8746C190.962 77.358 191.124 77.7607 191.446 78.0827C191.637 78.273 191.717 78.3901 191.688 78.4341C191.673 78.4781 191.666 78.544 191.666 78.6319C191.666 78.7051 191.703 78.7857 191.776 78.8735C191.85 78.9467 191.923 78.9832 191.996 78.9832L192.128 78.9172C192.128 79.5031 192.393 80.7773 192.922 82.7398C193.451 84.7022 193.862 85.6834 194.155 85.6831V85.6612C194.154 84.753 194.277 83.4565 194.525 81.7717C194.773 80.0869 194.896 78.7905 194.896 77.8822C194.734 77.6334 194.499 76.74 194.19 75.2021C193.882 73.6497 193.727 72.8588 193.727 72.8295L194.145 72.8291C194.54 73.2976 196.203 73.5306 199.133 73.5283C202.063 73.526 204.516 73.4581 206.494 73.3247C206.113 73.3983 205.564 74.0506 204.847 75.2816C204.145 76.5126 203.713 77.2161 203.552 77.392L203.553 77.9193C202.646 79.048 201.945 81.7439 201.45 86.0069C200.882 90.8707 200.423 93.9326 200.073 95.1926L199.677 95.1929L200.073 95.698L200.074 96.2473C199.752 96.6724 199.591 97.1486 199.591 97.6759C199.592 98.2032 199.622 98.7306 199.681 99.2579L199.021 99.2584L199.307 99.7635C198.986 100.174 198.825 100.679 198.825 101.28C198.826 101.866 198.841 102.225 198.87 102.357C198.768 102.503 198.68 102.76 198.607 103.126C198.417 103.961 198.117 104.379 197.707 104.379L197.708 105.456C197.709 106.408 197.577 107.06 197.314 107.412C197.169 109.155 196.913 110.027 196.547 110.027L196.108 109.983L196.107 109.412C196.107 109.368 196.18 109.17 196.326 108.819C196.487 108.467 196.568 108.159 196.567 107.896C196.567 107.632 196.56 107.471 196.545 107.412L196.105 106.907L195.71 107.413L195.712 109.412L194.944 110.995L194.942 108.93L193.36 108.447L192.943 109.986L192.57 109.415L192.569 108.448H192.151L192.152 109.415C191.947 109.137 191.77 108.405 191.623 107.218C191.49 106.047 191.424 105.124 191.423 104.45C191.422 103.776 191.129 103.081 190.542 102.363L190.981 101.814C190.453 100.95 190.189 99.9392 190.188 98.782ZM221.88 107.612L220.913 107.591L220.254 108.119L219.374 107.108V106.559C219.081 106.252 218.648 106.098 218.077 106.099H217.198L216.737 106.561L216.738 107.111C216.474 107.111 216.254 107.367 216.079 107.88C215.904 108.393 215.691 108.649 215.442 108.65L215.443 109.111C215.296 108.32 215.002 106.87 214.56 104.761C213.634 100.455 213.17 97.1671 213.168 94.8966C213.168 94.4425 213.182 94.1056 213.212 93.8858L212.794 93.3808L210.63 80.6383L211.07 80.638L211.069 80.1107L210.63 80.111C210.586 80.0378 210.49 79.8621 210.344 79.5839C210.212 79.291 210.124 79.1007 210.08 79.0128C210.036 78.9249 209.948 78.7566 209.816 78.5076C209.683 78.2441 209.581 78.061 209.507 77.9586C209.449 77.8561 209.346 77.7023 209.2 77.4974C209.067 77.2778 208.95 77.1167 208.848 77.0143C208.76 76.9118 208.642 76.7801 208.496 76.619C208.349 76.4434 208.21 76.3043 208.078 76.2019C207.638 75.8946 207.301 75.6825 207.067 75.5655L207.55 75.5651C208.341 74.8906 209.717 74.3549 211.68 73.9578C214.521 73.3843 217.787 73.0961 221.479 73.0931C225.185 73.0902 229.265 73.5704 233.719 74.5336C233.133 75.1786 232.394 76.3291 231.502 77.9851C230.625 79.6264 230.186 80.8206 230.187 81.5677C230.187 82.3147 230.041 82.8495 229.748 83.172L229.793 83.8971C229.794 85.069 229.488 87.0321 228.875 89.7865C227.658 89.1136 226.728 88.7775 226.083 88.778C225.439 88.7785 224.97 88.6177 224.677 88.2957C223.9 88.2963 223.234 88.2602 222.677 88.1874C222.135 88.0999 221.608 88.0198 221.095 87.947C220.597 87.8741 220.209 87.8158 219.93 87.7721C220.194 87.9184 220.327 88.658 220.328 89.991L220.242 92.3641L226.855 92.3589L226.858 95.9185C226.858 96.3579 226.764 97.0465 226.574 97.9841C226.384 98.9071 226.18 99.4053 225.96 99.4787L224.685 98.447L220.708 98.4502L220.247 98.934L220.25 102.559L220.711 102.911L221.107 102.559L220.71 101.504C221.399 101.518 222.512 101.606 224.05 101.765C225.603 101.925 226.804 102.005 227.654 102.004V102.554L227.26 104.553L226.865 105.103L227.261 105.586L227.262 106.091L226.866 106.092L226.867 106.553L227.263 107.102C226.999 107.469 226.868 107.857 226.868 108.267L226.869 109.629L226.473 109.102L225.968 109.103L225.967 107.609L225.527 107.104L223.351 107.105C223.059 107.442 222.568 107.611 221.88 107.612ZM248.255 90.716L247.045 88.6735L247.44 88.1898C247.03 88.1901 246.81 88.1536 246.781 88.0804C246.722 87.89 246.583 87.7437 246.363 87.6413L246.693 87.641L246.253 87.136V87.6414L245.484 87.1366L244.694 88.1919L244.695 89.2246C244.695 89.5909 244.732 89.8692 244.805 90.0595C244.879 90.2352 244.93 90.367 244.959 90.4549C244.989 90.5428 245.055 90.6599 245.157 90.8063C245.26 90.9527 245.326 91.0552 245.355 91.1138C245.487 91.3334 245.649 91.5383 245.839 91.7286L245.84 92.1241L246.257 91.7283C248.571 91.7265 250.315 92.5674 251.488 94.251C252.661 95.92 253.249 98.1388 253.251 100.907L252.856 100.908C252.856 101.713 252.776 102.27 252.615 102.578C252.469 102.885 252.279 103.215 252.045 103.567C251.825 103.904 251.65 104.197 251.518 104.446C251.518 104.695 251.416 104.981 251.211 105.303C250.568 106.3 250.246 107.209 250.247 108.029L249.829 107.744V108.029C249.771 107.971 249.631 107.868 249.411 107.722C249.192 107.59 249.023 107.524 248.906 107.525C248.803 107.525 248.584 107.605 248.247 107.767C247.91 107.943 247.647 108.031 247.456 108.031V107.526L246.269 107.527L246.27 108.032H245.852L245.5 107.527L245.501 108.033L243.875 108.034C243.875 108.429 243.604 108.627 243.062 108.628L241.897 108.541L240.182 106.499C240.182 106.059 240.042 105.605 239.763 105.137C239.485 104.654 239.199 104.192 238.905 103.753C238.612 103.299 238.458 103.058 238.443 103.028V101.93L238.069 101.644L237.981 101.93H237.564C237.563 101.725 237.71 101.484 238.002 101.205C238.295 100.926 238.441 100.663 238.441 100.414C239.188 100.413 239.767 100.244 240.177 99.9069L244.286 99.9037L244.285 99.3544L244.703 99.354L244.704 100.914L245.1 101.375L244.705 101.925C244.705 102.276 244.918 102.452 245.342 102.452H245.496C245.496 102.803 245.658 102.979 245.98 102.979L246.705 102.934L247.451 101.373L247.45 100.407L247.054 99.9015L247.053 98.3414L246.702 98.8471L246.262 98.3421L243.493 97.8609C243.288 97.5681 243.031 97.4071 242.724 97.3781L242.723 96.8288L242.306 96.8291L241.889 97.3787C239.72 96.2086 238.276 95.0012 237.557 93.7567C237.557 93.2293 237.336 92.3506 236.896 91.1205C236.455 89.8904 236.235 88.9164 236.234 88.1986L236.231 83.7821C236.23 82.4345 236.514 81.0866 237.085 79.7385C237.655 78.3904 238.379 77.2253 239.257 76.2431C240.15 75.261 241.145 74.4618 242.244 73.8457C243.356 73.2296 244.433 72.9211 245.473 72.9203L245.825 73.4034C246.308 73.0808 246.593 72.9194 246.681 72.9194C247.824 72.9185 248.857 73.0788 249.78 73.4003C250.718 73.7072 251.406 74.0509 251.846 74.4314C252.3 74.7972 252.696 75.1412 253.033 75.4632C253.371 75.7705 253.59 75.9241 253.693 75.9241C253.693 76.2317 253.913 76.5025 254.353 76.7365C254.807 76.9559 255.034 77.2047 255.034 77.4831C255.24 77.6147 255.445 77.8856 255.65 78.2956C255.856 78.6909 255.959 78.9691 255.959 79.1303C255.959 79.2768 255.952 79.4086 255.937 79.5258L255.476 79.5262L254.584 90.711L254.166 91.2167L255.045 91.216L255.046 91.7213L253.244 91.7228L252.848 91.2177V90.7123C252.584 90.9469 252.277 91.1156 251.925 91.2184L251.067 90.1864L251.068 90.7137L248.255 90.716ZM269.92 90.6988L268.71 88.6563L269.105 88.1726C268.695 88.1729 268.476 88.1365 268.446 88.0633C268.387 87.8729 268.248 87.7265 268.028 87.6241L268.358 87.6239L267.918 87.1189V87.6242L267.149 87.1195L266.359 88.1748L266.36 89.2075C266.36 89.5737 266.397 89.852 266.47 90.0424C266.544 90.2181 266.595 90.3499 266.624 90.4377C266.654 90.5256 266.72 90.6428 266.822 90.7892C266.925 90.9356 266.991 91.038 267.02 91.0966C267.152 91.3162 267.314 91.5212 267.504 91.7115L267.505 92.107L267.922 91.7111C270.236 91.7093 271.98 92.5502 273.153 94.2338C274.326 95.9028 274.914 98.1216 274.916 100.89H274.521C274.521 101.696 274.441 102.253 274.28 102.561C274.134 102.868 273.944 103.198 273.71 103.55C273.49 103.887 273.315 104.18 273.183 104.429C273.183 104.678 273.081 104.964 272.876 105.286C272.233 106.283 271.911 107.191 271.912 108.012L271.494 107.726V108.012C271.436 107.953 271.296 107.851 271.076 107.705C270.857 107.573 270.688 107.507 270.571 107.507C270.468 107.507 270.249 107.588 269.912 107.75C269.575 107.926 269.312 108.014 269.121 108.014V107.509H267.934L267.935 108.015H267.517L267.165 107.51L267.166 108.015L265.54 108.017C265.54 108.412 265.269 108.61 264.727 108.611L263.562 108.524L261.847 106.482C261.847 106.042 261.707 105.588 261.428 105.12C261.15 104.636 260.864 104.175 260.57 103.736C260.277 103.282 260.123 103.041 260.108 103.011V101.913L259.734 101.627L259.646 101.913H259.229C259.228 101.708 259.375 101.466 259.668 101.188C259.96 100.909 260.107 100.646 260.106 100.397C260.853 100.396 261.432 100.227 261.842 99.8898L265.951 99.8865L265.95 99.3372L266.368 99.3369L266.369 100.897L266.765 101.358L266.37 101.908C266.37 102.259 266.583 102.435 267.007 102.435L267.161 102.434C267.161 102.786 267.323 102.962 267.645 102.961L268.37 102.917L269.116 101.356L269.115 100.389L268.719 99.8843L268.718 98.3243L268.367 98.8299L267.927 98.3249L265.158 97.8437C264.953 97.5509 264.696 97.39 264.389 97.3609L264.388 96.8116L263.971 96.8119L263.554 97.3616C261.385 96.1914 259.941 94.9841 259.222 93.7395C259.222 93.2122 259.001 92.3334 258.561 91.1033C258.12 89.8732 257.9 88.8992 257.899 88.1815L257.896 83.765C257.895 82.4173 258.179 81.0694 258.75 79.7213C259.32 78.3732 260.044 77.2081 260.922 76.226C261.815 75.2438 262.81 74.4447 263.909 73.8286C265.021 73.2125 266.098 72.904 267.138 72.9032L267.49 73.3863C267.973 73.0636 268.258 72.9023 268.346 72.9022C269.489 72.9013 270.522 73.0616 271.445 73.3831C272.383 73.69 273.071 74.0337 273.511 74.4142C273.965 74.7801 274.361 75.124 274.698 75.446C275.036 75.7533 275.255 75.907 275.358 75.9069C275.358 76.2145 275.578 76.4853 276.018 76.7194C276.472 76.9387 276.699 77.1876 276.7 77.4659C276.905 77.5976 277.11 77.8684 277.315 78.2784C277.521 78.6737 277.624 78.952 277.624 79.1131C277.624 79.2596 277.617 79.3914 277.602 79.5086L277.141 79.509L276.249 90.6938L275.831 91.1995L276.71 91.1988L276.711 91.7042L274.909 91.7056L274.513 91.2005V90.6952C274.249 90.9298 273.942 91.0985 273.59 91.2013L272.733 90.1692V90.6966L269.92 90.6988Z" fill="white"/>
</g>
<defs>
<clipPath id="clip0_183_3">
<rect width="375" height="112" fill="white"/>
</clipPath>
</defs>
</svg>
