<svg width="169" height="90" viewBox="0 0 169 90" fill="none" xmlns="http://www.w3.org/2000/svg">
<path d="M21.8872 33.4326L24.019 33.375C24.7489 33.375 25.4595 33.471 26.1509 33.6631C26.8423 33.8167 27.5337 33.8359 28.2251 33.7207C28.3019 33.8743 28.3979 34.028 28.5132 34.1816C28.6284 34.2969 28.686 34.4889 28.686 34.7578C28.686 34.9883 28.5132 35.1611 28.1675 35.2764C27.8218 35.3916 27.5145 35.4876 27.2456 35.5645C27.092 35.6413 27.0343 35.7565 27.0728 35.9102C27.1112 36.0638 27.0535 36.179 26.8999 36.2559C26.8231 36.5247 26.6694 36.6976 26.439 36.7744C26.2085 36.8512 26.0933 37.0433 26.0933 37.3506L26.3237 38.5029L26.0933 40.5771L26.2085 41.3838C26.2085 41.5758 26.1509 41.7679 26.0356 41.96C25.9588 42.1136 25.9204 42.3249 25.9204 42.5938C25.9588 42.8242 25.978 43.0163 25.978 43.1699L25.8628 43.6885L25.978 44.0918C25.978 44.2839 25.9204 44.4567 25.8052 44.6104C25.6899 44.764 25.6707 44.9561 25.7476 45.1865L25.2866 45.7627L25.3442 45.9355C25.3442 46.2812 25.2674 46.5501 25.1138 46.7422C24.9985 46.8958 24.9601 47.1455 24.9985 47.4912C24.8833 47.4912 24.5952 47.9329 24.1343 48.8164C23.7118 49.6999 23.4237 50.1992 23.27 50.3145C23.1932 50.5065 23.1548 50.7178 23.1548 50.9482C23.1548 51.1403 23.0972 51.39 22.9819 51.6973C22.8667 51.9661 22.6362 52.1966 22.2905 52.3887C21.9832 52.5423 21.7336 52.792 21.5415 53.1377H21.3687C21.215 53.0225 20.8693 53.2721 20.3315 53.8867C19.8322 54.5013 19.4097 54.8086 19.064 54.8086L18.6606 54.751C18.507 54.751 18.411 54.7894 18.3726 54.8662C18.1421 54.9046 17.9692 55.0007 17.854 55.1543C17.7388 55.2695 17.5851 55.3848 17.3931 55.5H17.2202C16.7593 55.5 16.3944 55.6152 16.1255 55.8457C16.0487 55.6921 15.9334 55.6344 15.7798 55.6729C15.6261 55.6729 15.4917 55.6729 15.3765 55.6729C15.2612 55.6729 15.1844 55.6536 15.146 55.6152H15.0308L14.5122 55.9609H14.3394C14.0705 55.9993 13.8976 55.9801 13.8208 55.9033C13.744 55.7881 13.6095 55.6921 13.4175 55.6152C13.1102 55.6921 12.8221 55.7305 12.5532 55.7305H11.3433C10.9976 55.3464 10.6326 55.0967 10.2485 54.9814C10.1717 54.9046 10.0949 54.8662 10.0181 54.8662C9.97965 54.8662 9.92204 54.9238 9.84521 55.0391C9.76839 55.1543 9.67236 55.1927 9.55713 55.1543H9.49951C9.38428 54.9622 9.24984 54.847 9.09619 54.8086C8.94255 54.7702 8.7889 54.7126 8.63525 54.6357C8.55843 54.4437 8.4624 54.3285 8.34717 54.29C8.23193 54.2516 8.07829 54.1748 7.88623 54.0596C7.61735 53.3298 7.118 52.7152 6.38818 52.2158C6.38818 52.0238 6.31136 51.8701 6.15771 51.7549C6.00407 51.6012 5.85042 51.2939 5.69678 50.833C5.58154 50.641 5.4279 50.4873 5.23584 50.3721C4.89014 50.0648 4.71729 49.7959 4.71729 49.5654V49.335C4.71729 49.1045 4.50602 48.778 4.0835 48.3555C4.00667 47.8177 3.89144 47.2992 3.73779 46.7998C3.62256 46.262 3.50732 45.5514 3.39209 44.668C3.27686 43.7845 3.21924 42.6898 3.21924 41.3838C3.21924 40.0394 3.29606 38.9255 3.44971 38.042C3.60335 37.1585 3.68018 36.2559 3.68018 35.334L3.56494 34.6426C3.56494 34.4889 3.58415 34.3353 3.62256 34.1816C3.69938 33.9896 3.757 33.7783 3.79541 33.5479C3.87223 33.279 3.92985 32.9909 3.96826 32.6836C4.04508 32.3763 4.14111 32.1074 4.25635 31.877C4.40999 31.6081 4.52523 31.416 4.60205 31.3008C4.67887 31.1471 4.7557 30.9551 4.83252 30.7246C4.94775 30.4557 5.02458 30.1484 5.06299 29.8027C5.13981 29.4186 5.25505 28.9769 5.40869 28.4775C5.60075 27.9782 5.86963 27.4404 6.21533 26.8643C6.59945 26.2881 6.92594 25.6927 7.19482 25.0781C7.73258 24.7708 8.1359 24.3483 8.40479 23.8105C8.67367 23.2728 8.94255 22.9079 9.21143 22.7158C9.51872 22.4854 9.69157 22.3893 9.72998 22.4277C9.8068 22.4277 9.86442 22.4085 9.90283 22.3701L10.0181 22.1396C10.0949 22.0628 10.1909 22.0244 10.3062 22.0244C10.5366 22.0244 10.7863 21.8324 11.0552 21.4482L11.5737 20.7568C12.1499 20.5648 12.6108 20.1807 12.9565 19.6045C13.3407 19.5277 13.7056 19.374 14.0513 19.1436C14.4354 18.8747 14.8387 18.7979 15.2612 18.9131C15.3381 18.8363 15.5493 18.721 15.895 18.5674C16.2407 18.4137 16.452 18.3369 16.5288 18.3369L17.1626 18.4521L18.0269 18.2217L18.9487 18.3369L19.9282 18.2793C20.3892 18.2793 20.7541 18.3753 21.0229 18.5674C21.2918 18.7594 21.4263 18.8939 21.4263 18.9707C21.4263 19.0091 21.4647 19.0667 21.5415 19.1436C21.6567 19.182 21.7336 19.2012 21.772 19.2012C21.8104 19.1628 21.9256 19.2204 22.1177 19.374C22.3097 19.5277 22.4826 19.7581 22.6362 20.0654C22.7899 20.3727 23.078 20.5648 23.5005 20.6416C23.731 20.4495 23.827 20.1615 23.7886 19.7773C23.7502 19.3932 23.731 19.0667 23.731 18.7979C23.731 18.4906 23.827 18.1833 24.019 17.876C24.2495 17.5303 24.4992 17.3574 24.7681 17.3574C25.0369 17.3574 25.229 17.4727 25.3442 17.7031C25.4979 17.8952 25.6707 18.0296 25.8628 18.1064C25.9012 18.4906 25.9204 18.8747 25.9204 19.2588C25.9588 19.6045 26.0164 19.931 26.0933 20.2383C26.1701 20.5456 26.2661 20.8529 26.3813 21.1602C26.535 21.429 26.6118 21.7555 26.6118 22.1396C26.6118 22.5238 26.5158 22.9655 26.3237 23.4648L26.0933 23.5801C26.0164 23.7721 25.978 23.8874 25.978 23.9258C25.978 23.9642 25.882 23.9834 25.6899 23.9834C25.4979 23.9834 25.3826 24.0602 25.3442 24.2139C25.3442 24.3675 25.2098 24.4443 24.9409 24.4443L24.019 24.3867C23.9038 23.6953 23.6925 23.196 23.3853 22.8887L22.8091 22.2549C22.5402 22.0244 22.3674 21.9092 22.2905 21.9092C22.0601 21.986 21.9064 21.9284 21.8296 21.7363C21.7528 21.5059 21.4647 21.3138 20.9653 21.1602C20.8885 21.0065 20.7925 20.8913 20.6772 20.8145C20.6004 20.7376 20.562 20.6032 20.562 20.4111H20.4468C20.2547 20.4111 20.1203 20.3727 20.0435 20.2959C20.005 20.2191 19.909 20.1423 19.7554 20.0654C19.064 20.2575 18.3918 20.3343 17.7388 20.2959C17.1242 20.2575 16.5864 20.2767 16.1255 20.3535C15.6646 20.4303 15.3957 20.5648 15.3188 20.7568C15.242 20.9489 15.1076 21.0833 14.9155 21.1602C14.3394 21.1986 13.9168 21.3714 13.6479 21.6787C13.4175 21.9476 13.187 22.1589 12.9565 22.3125C12.7261 22.4661 12.5724 22.543 12.4956 22.543C12.4572 22.5046 12.3996 22.5046 12.3228 22.543C12.1691 22.6582 12.0731 22.8118 12.0347 23.0039C11.9963 23.1576 11.8042 23.196 11.4585 23.1191C11.4585 23.196 11.3817 23.4072 11.228 23.7529C11.0744 24.0602 10.9784 24.2715 10.9399 24.3867C10.8631 24.4635 10.6711 24.598 10.3638 24.79C10.0565 24.9821 9.88363 25.1549 9.84521 25.3086C9.8068 25.4622 9.69157 25.5583 9.49951 25.5967V26.5186C9.30745 26.5954 9.19222 26.7298 9.15381 26.9219C9.1154 27.1139 9.01937 27.2484 8.86572 27.3252C8.82731 27.402 8.80811 27.498 8.80811 27.6133C8.84652 27.6901 8.86572 27.7861 8.86572 27.9014C8.86572 28.0166 8.82731 28.0934 8.75049 28.1318C8.67367 28.1702 8.59684 28.2279 8.52002 28.3047C8.4432 28.6888 8.34717 28.9769 8.23193 29.1689C8.15511 29.3226 8.09749 29.4762 8.05908 29.6299C8.02067 29.7835 8.02067 29.9756 8.05908 30.2061C8.09749 30.4365 8.1167 30.6478 8.1167 30.8398L7.88623 32.2227L8.00146 33.6631L7.771 35.1611L8.00146 37.293L7.88623 38.9639L8.00146 39.252L7.771 41.1533C7.771 41.6527 7.80941 42.1328 7.88623 42.5938L8.1167 43.4004L8.00146 44.1494L8.23193 45.3018C8.42399 46.3005 8.67367 47.0111 8.98096 47.4336C9.32666 47.8177 9.53792 48.1058 9.61475 48.2979C9.69157 48.4899 9.71077 48.6436 9.67236 48.7588C9.67236 48.874 9.67236 48.9701 9.67236 49.0469C9.67236 49.1237 9.69157 49.1813 9.72998 49.2197C9.8068 49.2581 9.86442 49.335 9.90283 49.4502C9.97965 49.5654 10.0181 49.6999 10.0181 49.8535C10.0181 49.9688 10.0373 50.084 10.0757 50.1992C10.1141 50.276 10.2101 50.4297 10.3638 50.6602C10.5174 50.8906 10.6903 51.1787 10.8823 51.5244L11.5737 52.6768C11.6506 52.7536 11.7274 52.792 11.8042 52.792C11.9194 52.792 12.0155 52.8304 12.0923 52.9072C12.1691 52.984 12.2075 53.0417 12.2075 53.0801C12.2075 53.1185 12.2267 53.1761 12.2651 53.2529C12.342 53.2913 12.4572 53.3105 12.6108 53.3105C12.7645 53.2721 12.8797 53.2913 12.9565 53.3682V53.5986C13.3022 53.7139 13.5327 53.8291 13.6479 53.9443C13.7632 53.9059 14.2433 53.8867 15.0884 53.8867C15.9718 53.8867 16.4712 53.6755 16.5864 53.2529C16.6632 53.3298 16.8745 53.3682 17.2202 53.3682C17.5659 53.3682 17.7964 53.2721 17.9116 53.0801C18.0653 52.888 18.2957 52.7152 18.603 52.5615C18.9487 52.4079 19.2368 52.3311 19.4673 52.3311C19.6978 52.3311 19.9858 52.1582 20.3315 51.8125V51.582H20.562C20.6388 51.5052 20.6772 51.4092 20.6772 51.2939C20.6772 51.1403 20.7733 50.929 20.9653 50.6602C21.1574 50.3913 21.4647 49.988 21.8872 49.4502C22.3097 48.9124 22.5978 48.4515 22.7515 48.0674C23.0203 47.2992 23.2892 46.3773 23.5581 45.3018C23.8654 44.2262 24.1151 43.5924 24.3071 43.4004L24.2495 42.4209C24.2495 41.0765 24.4224 40.0202 24.7681 39.252V39.1943L24.5376 37.8691V37.5234C24.5376 37.2546 24.4416 37.0817 24.2495 37.0049C24.0959 36.9281 23.9614 36.832 23.8462 36.7168C23.7694 36.5632 23.731 36.4671 23.731 36.4287C23.7694 36.3519 23.6541 36.179 23.3853 35.9102C23.1164 35.6413 22.7899 35.5068 22.4058 35.5068C22.0601 35.5068 21.7528 35.5837 21.4839 35.7373C21.2534 35.8525 20.9845 35.9486 20.6772 36.0254C19.3328 35.5645 18.3918 35.2956 17.854 35.2188C17.8924 35.1803 17.9116 35.1227 17.9116 35.0459C17.9116 34.9691 17.854 34.9307 17.7388 34.9307C17.6235 34.9307 17.5659 34.777 17.5659 34.4697C17.5659 34.124 17.8348 33.7399 18.3726 33.3174C18.9487 33.3942 19.5441 33.4326 20.1587 33.4326H21.8872ZM34.5054 47.2607L36.3491 46.915C36.6564 46.915 36.8485 46.8958 36.9253 46.8574C37.0405 46.7806 37.4631 46.6462 38.1929 46.4541C38.9227 46.262 39.6141 46.166 40.2671 46.166H41.6499C42.1108 46.166 42.4565 46.2428 42.687 46.3965C42.9175 46.5117 43.1287 46.5693 43.3208 46.5693C43.5129 46.5693 43.8394 46.3965 44.3003 46.0508C44.3387 45.8971 44.3579 45.7435 44.3579 45.5898V45.0713C44.3579 44.111 44.2811 43.266 44.1274 42.5361C44.0122 41.7679 43.9738 40.9421 44.0122 40.0586C44.089 39.1751 44.0314 38.6374 43.8394 38.4453C43.6857 38.2148 43.5705 38.042 43.4937 37.9268C43.4168 37.7731 43.3976 37.6195 43.436 37.4658C43.4744 37.3122 43.4168 37.1393 43.2632 36.9473C43.1479 36.7168 43.0903 36.5632 43.0903 36.4863C43.1287 36.3711 43.1095 36.2751 43.0327 36.1982C42.9943 36.1214 42.9367 36.083 42.8599 36.083C42.8215 36.0446 42.7638 35.987 42.687 35.9102C42.6486 35.8333 42.6294 35.7757 42.6294 35.7373C42.6678 35.6989 42.6486 35.6221 42.5718 35.5068C42.5334 35.3916 42.4373 35.2956 42.2837 35.2188C42.1685 35.1035 42.0916 34.9499 42.0532 34.7578C41.5539 34.5273 41.1313 34.1432 40.7856 33.6055C40.5936 33.5671 40.3823 33.5671 40.1519 33.6055C39.9598 33.6055 39.7677 33.5863 39.5757 33.5479C39.422 33.471 39.2876 33.4134 39.1724 33.375C39.0571 33.2982 38.9227 33.2598 38.769 33.2598L37.4438 33.6055C37.4054 33.6055 37.271 33.5671 37.0405 33.4902C36.8485 33.5286 36.7524 33.6631 36.7524 33.8936C36.7524 34.0856 36.714 34.2393 36.6372 34.3545C36.2915 34.3545 36.1187 34.4889 36.1187 34.7578C35.9266 34.7578 35.7922 34.8154 35.7153 34.9307C35.6385 35.0459 35.4849 35.0651 35.2544 34.9883C35.1007 35.2572 34.9471 35.526 34.7935 35.7949C34.6398 36.0638 34.4285 36.2751 34.1597 36.4287C34.0444 37.0433 33.9868 37.6195 33.9868 38.1572C33.9868 38.695 34.1021 39.0791 34.3325 39.3096C34.563 39.54 34.6782 39.7897 34.6782 40.0586C34.6782 40.2891 34.5822 40.5964 34.3901 40.9805C34.1981 41.3262 33.9676 41.499 33.6987 41.499C33.4299 41.499 33.2378 41.4222 33.1226 41.2686C33.0457 41.1149 32.9689 40.9421 32.8921 40.75C32.8537 40.5579 32.8153 40.3659 32.7769 40.1738C32.7384 39.9434 32.604 39.7129 32.3735 39.4824C32.4888 39.4824 32.5464 39.3864 32.5464 39.1943C32.5464 39.0023 32.4888 38.8294 32.3735 38.6758C32.2583 38.5221 32.2007 38.0996 32.2007 37.4082C32.2007 36.7168 32.3543 36.2751 32.6616 36.083C32.6232 36.083 32.604 36.0446 32.604 35.9678L32.7192 35.4492C32.6808 35.4492 32.6616 35.4108 32.6616 35.334L32.8921 34.9883L32.8345 34.873C32.8729 34.7194 32.9497 34.6618 33.0649 34.7002C33.2186 34.7002 33.3338 34.6618 33.4106 34.585C33.4875 34.4697 33.6603 34.1432 33.9292 33.6055C34.1981 33.5286 34.3709 33.4134 34.4478 33.2598C34.563 33.0677 34.7166 32.8949 34.9087 32.7412C35.216 32.626 35.4272 32.4915 35.5425 32.3379C35.6577 32.1458 35.7922 32.0114 35.9458 31.9346C36.1379 31.8577 36.3299 31.8001 36.522 31.7617C36.7524 31.7233 36.9061 31.5889 36.9829 31.3584L37.1558 31.416C37.3478 31.416 37.4823 31.3584 37.5591 31.2432C37.6359 31.0895 37.8472 31.0127 38.1929 31.0127C38.577 31.0127 38.7882 30.9743 38.8267 30.8975C38.8651 30.8206 39.0187 30.7822 39.2876 30.7822C39.5565 30.7822 39.9598 30.9167 40.4976 31.1855C41.0737 31.4544 41.4194 31.5889 41.5347 31.5889H41.7075C41.9764 31.8962 42.3413 32.0882 42.8022 32.165C43.34 32.5876 43.8586 32.9909 44.3579 33.375C44.8957 33.7207 45.3182 34.1816 45.6255 34.7578C45.7023 34.8346 45.7215 34.8923 45.6831 34.9307C45.6831 34.9691 45.7407 35.0651 45.856 35.2188C45.9712 35.334 46.0864 35.4876 46.2017 35.6797C46.3169 35.8717 46.4321 36.0446 46.5474 36.1982C46.6626 36.3135 46.7202 36.3711 46.7202 36.3711C46.7586 36.3327 46.7778 36.4671 46.7778 36.7744L46.8354 36.832L47.0083 36.9473C47.2388 37.5234 47.4308 38.4069 47.5845 39.5977C47.7381 40.7884 47.8149 41.4798 47.8149 41.6719C47.8149 41.8255 47.8341 41.96 47.8726 42.0752C47.9494 42.152 48.0262 42.3441 48.103 42.6514C48.1799 42.9202 48.1991 43.3236 48.1606 43.8613C48.1606 44.3607 48.1799 44.7832 48.2183 45.1289C48.2951 45.4362 48.3527 45.7051 48.3911 45.9355C48.4679 46.1276 48.5063 46.3389 48.5063 46.5693L48.3335 47.4336L48.5063 51.1787L48.3335 51.9854L48.3911 53.2529L48.2183 55.1543L48.6216 56.998L48.2759 58.5537L48.5063 59.7637C48.5063 59.9173 48.4487 60.0326 48.3335 60.1094C48.7176 60.4167 49.1785 60.5703 49.7163 60.5703L51.5024 60.2246H53.1157C53.1925 60.3014 53.231 60.3783 53.231 60.4551C53.231 60.5319 53.2694 60.6087 53.3462 60.6855C53.4614 60.7624 53.5575 60.82 53.6343 60.8584C53.7111 60.8968 53.7495 60.9928 53.7495 61.1465C53.7495 61.3001 53.7111 61.4346 53.6343 61.5498C53.5575 61.6266 53.5575 61.7611 53.6343 61.9531C53.4038 61.9915 53.2502 62.0876 53.1733 62.2412C53.1349 62.3564 53.0389 62.4525 52.8853 62.5293C52.77 62.6061 52.578 62.6445 52.3091 62.6445C52.0402 62.6445 51.7137 62.7406 51.3296 62.9326C51.1759 62.8942 50.9839 62.875 50.7534 62.875L50.062 62.7021C49.9852 62.7021 49.9276 62.7406 49.8892 62.8174C49.8892 62.9326 49.8315 62.9902 49.7163 62.9902L49.2554 62.8174C48.9481 62.8174 48.6408 62.8942 48.3335 63.0479C48.0646 63.2015 47.8534 63.2783 47.6997 63.2783C47.5461 63.2783 47.354 63.2399 47.1235 63.1631L46.3745 63.3359C46.2593 63.3359 46.1056 63.2591 45.9136 63.1055C45.7215 62.9518 45.4334 62.7406 45.0493 62.4717C44.7036 62.2028 44.5308 61.8379 44.5308 61.377L44.646 60.5703L44.4155 59.9365L44.646 56.1338L44.5884 54.5205C44.5884 54.2516 44.3771 54.1172 43.9546 54.1172C43.8394 54.1172 43.7049 54.1748 43.5513 54.29C43.436 54.4053 43.3016 54.5013 43.1479 54.5781C43.0327 54.6549 42.8983 54.6934 42.7446 54.6934C42.6294 54.6934 42.495 54.7318 42.3413 54.8086C42.1877 54.8854 42.0532 54.9814 41.938 55.0967C41.8612 55.1735 41.7075 55.2311 41.4771 55.2695C41.1698 55.6921 40.7664 55.9033 40.2671 55.9033H40.0942C39.979 55.9417 39.883 56.0186 39.8062 56.1338C39.7293 56.249 39.6141 56.3643 39.4604 56.4795C39.3452 56.5563 39.1724 56.6331 38.9419 56.71C38.7498 56.7484 38.5962 56.8828 38.481 57.1133L36.522 57.459C36.3299 57.459 36.1571 57.4014 36.0034 57.2861C35.6961 57.5934 35.3888 57.7471 35.0815 57.7471C33.5451 57.7471 32.5272 57.4782 32.0278 56.9404C31.8358 56.71 31.6053 56.4987 31.3364 56.3066L31.1636 55.5C31.0868 55.3079 30.9907 55.1543 30.8755 55.0391C30.7987 54.9238 30.7218 54.751 30.645 54.5205C30.6066 54.29 30.6066 54.0404 30.645 53.7715C30.6834 53.4642 30.7026 53.1761 30.7026 52.9072L30.5874 52.2734L30.8179 51.6396V51.0635C30.8179 50.9098 30.8563 50.7946 30.9331 50.7178C31.0099 50.641 31.0868 50.5449 31.1636 50.4297C31.2404 50.3145 31.2596 50.1992 31.2212 50.084C31.1828 49.9303 31.2788 49.7383 31.5093 49.5078C31.7397 49.2773 31.855 49.1237 31.855 49.0469C31.855 48.9316 31.9126 48.778 32.0278 48.5859C32.1815 48.3555 32.4119 48.1634 32.7192 48.0098C33.0649 47.8561 33.3338 47.6257 33.5259 47.3184C33.8716 47.2799 34.1981 47.2607 34.5054 47.2607ZM43.3208 51.3516L43.7817 51.4668C43.8586 51.4668 43.9162 51.4284 43.9546 51.3516C44.0314 51.2363 44.1082 51.1787 44.1851 51.1787L43.7817 49.9688C43.3208 49.8919 42.8599 49.7191 42.3989 49.4502C41.9764 49.1813 41.6307 49.0469 41.3618 49.0469L40.3247 49.1621L38.8267 49.1045L36.522 49.5078L35.7729 49.3926C35.4657 49.3926 35.1584 49.4502 34.8511 49.5654C34.5438 49.6807 34.2365 49.6999 33.9292 49.623C33.8524 49.8535 33.6795 50.1224 33.4106 50.4297C33.1418 50.737 33.0265 51.1019 33.0649 51.5244C33.1418 51.9469 33.1802 52.2926 33.1802 52.5615L33.0649 53.0801C33.0649 53.1569 33.0841 53.2337 33.1226 53.3105C33.1994 53.3874 33.257 53.4834 33.2954 53.5986C33.3338 53.6755 33.3338 53.7715 33.2954 53.8867C33.2954 54.002 33.2954 54.1364 33.2954 54.29C33.2954 54.4437 33.3722 54.6165 33.5259 54.8086C33.7179 55.0007 33.8524 55.1927 33.9292 55.3848L33.9868 55.3271C34.0636 55.3271 34.1213 55.3848 34.1597 55.5C34.2365 55.6152 34.4285 55.6729 34.7358 55.6729C36.0418 55.6729 37.3862 55.3271 38.769 54.6357L39.5181 54.29C39.9022 54.0212 40.3055 53.8291 40.728 53.7139C41.189 53.5986 41.4963 53.3874 41.6499 53.0801C42.2645 52.043 42.8022 51.4668 43.2632 51.3516H43.3208ZM56.5728 65.4102L56.2271 61.4922V60.4551L56.3423 60.3398L56.1118 59.9941L56.2271 58.8994L56.1694 57.6895C56.1694 57.3053 56.2271 56.9404 56.3423 56.5947C56.1886 56.4411 56.1118 56.2874 56.1118 56.1338L56.3423 54.9814L56.2271 53.8867L56.2847 52.5615L55.9966 50.8906L56.1118 50.0264L55.9966 49.0469L56.0542 46.0508L55.7661 40.4043L55.8813 39.3672L55.7085 38.5605C55.7085 38.3685 55.7277 38.2148 55.7661 38.0996C55.8045 37.946 55.8045 37.7731 55.7661 37.5811C55.6893 37.389 55.6509 37.2161 55.6509 37.0625C55.6893 36.8704 55.7085 36.6592 55.7085 36.4287L55.5933 34.7578L55.8237 32.8564C55.7853 32.5492 55.7661 32.2227 55.7661 31.877V30.8975L55.8813 27.7285L55.7661 26.6338L55.9966 25.0781L55.8813 23.292C55.8813 23.2152 55.939 23.0615 56.0542 22.8311C56.1694 22.5622 56.2271 22.3509 56.2271 22.1973C56.2655 22.0052 56.3039 21.7747 56.3423 21.5059C56.4191 21.237 56.4383 20.9297 56.3999 20.584C56.3999 20.1999 56.3999 19.8734 56.3999 19.6045C56.3999 19.2972 56.3039 19.0091 56.1118 18.7402L55.7661 18.6826L54.1528 18.8555C53.6535 18.8555 53.4038 18.7402 53.4038 18.5098V17.6455C53.6727 17.3382 54.076 17.1846 54.6138 17.1846C55.1899 17.1462 55.6509 17.0117 55.9966 16.7812H56.3423C56.5728 16.7812 56.7456 16.8389 56.8608 16.9541L57.9556 16.2627H58.186L59.9146 16.0322C60.0682 15.9554 60.2026 15.8786 60.3179 15.8018C60.4715 15.6865 60.6636 15.6289 60.894 15.6289C61.1629 15.6289 61.355 15.7633 61.4702 16.0322C61.4702 16.57 61.3166 16.8773 61.0093 16.9541C60.7404 17.0309 60.5099 17.1077 60.3179 17.1846C60.1642 17.223 60.049 17.2998 59.9722 17.415C59.8953 17.4919 59.7993 17.4919 59.6841 17.415C59.6073 17.7223 59.4344 17.9336 59.1655 18.0488C59.2039 18.2025 59.2231 18.4329 59.2231 18.7402C59.2231 19.0475 59.1655 19.3932 59.0503 19.7773C59.3192 20.2767 59.4536 20.7952 59.4536 21.333C59.4536 21.8708 59.396 22.1396 59.2808 22.1396C59.2039 22.1396 59.1655 22.1973 59.1655 22.3125L59.3384 22.9463C59.3768 23.3688 59.3768 23.7913 59.3384 24.2139C59.3384 24.598 59.3384 25.0013 59.3384 25.4238L59.4536 26.0576L59.1655 26.9219L59.4536 28.1318L59.1655 30.2061L59.4536 31.2432L59.3384 32.165L59.4536 32.7988L59.3384 33.375L59.4536 33.8936L59.3384 34.5273L59.5688 35.7373L59.4536 36.4863L59.6841 37.8115L59.5688 38.3301L59.6841 38.9062L59.5688 39.1943L59.6841 39.3672L59.5688 39.8281L59.7993 40.9229L59.6841 42.3057L59.9146 43.5156L59.7993 44.1494L59.9146 45.1289L59.7993 45.9355L59.9722 47.0879L59.9146 48.4131L59.9722 49.0469L59.9146 49.4502L60.0874 50.4297L59.9722 51.2363L60.0874 51.7549L59.9722 52.043L60.2026 52.9648C60.2795 53.2721 60.3179 53.5986 60.3179 53.9443V56.1338C60.3179 56.5179 60.2795 56.902 60.2026 57.2861L59.9722 58.3809L60.2026 59.2451L60.0874 60.1094L60.2026 60.7432L60.0874 61.7227L60.2026 62.5869L60.0874 63.8545C60.0874 64.2002 60.1642 64.4691 60.3179 64.6611H60.5483C60.9709 64.6611 61.2974 64.5075 61.5278 64.2002C61.7583 63.9313 62.0272 63.8161 62.3345 63.8545H62.5073V64.085H62.7954C62.9106 64.085 62.9875 64.1234 63.0259 64.2002C62.9491 65.0068 62.4881 65.7559 61.6431 66.4473C61.3358 66.5241 61.0669 66.5625 60.8364 66.5625C60.606 66.5625 60.4331 66.5241 60.3179 66.4473C60.1258 66.6393 59.7993 66.7161 59.3384 66.6777C58.9159 66.6393 58.5509 66.7546 58.2437 67.0234C57.9748 67.3307 57.7059 67.5228 57.437 67.5996C57.2065 67.6764 56.9569 67.6764 56.688 67.5996C56.4575 67.5612 56.2078 67.5804 55.939 67.6572C55.7085 67.734 55.478 67.8685 55.2476 68.0605C55.0555 68.291 54.8058 68.4062 54.4985 68.4062L54.2104 68.3486C54.0184 68.4255 53.9224 68.3678 53.9224 68.1758C53.9608 68.0221 53.98 67.8877 53.98 67.7725V67.6572C53.8263 67.6188 53.7495 67.446 53.7495 67.1387V67.0234C53.98 66.6393 54.3065 66.3896 54.729 66.2744C55.1515 66.1976 55.4396 66.1016 55.5933 65.9863V65.8711C55.5933 65.7174 55.7085 65.6598 55.939 65.6982C56.2078 65.7367 56.4191 65.6406 56.5728 65.4102ZM68.7876 65.4102L68.4419 61.4922V60.4551L68.5571 60.3398L68.3267 59.9941L68.4419 58.8994L68.3843 57.6895C68.3843 57.3053 68.4419 56.9404 68.5571 56.5947C68.4035 56.4411 68.3267 56.2874 68.3267 56.1338L68.5571 54.9814L68.4419 53.8867L68.4995 52.5615L68.2114 50.8906L68.3267 50.0264L68.2114 49.0469L68.269 46.0508L67.981 40.4043L68.0962 39.3672L67.9233 38.5605C67.9233 38.3685 67.9425 38.2148 67.981 38.0996C68.0194 37.946 68.0194 37.7731 67.981 37.5811C67.9041 37.389 67.8657 37.2161 67.8657 37.0625C67.9041 36.8704 67.9233 36.6592 67.9233 36.4287L67.8081 34.7578L68.0386 32.8564C68.0002 32.5492 67.981 32.2227 67.981 31.877V30.8975L68.0962 27.7285L67.981 26.6338L68.2114 25.0781L68.0962 23.292C68.0962 23.2152 68.1538 23.0615 68.269 22.8311C68.3843 22.5622 68.4419 22.3509 68.4419 22.1973C68.4803 22.0052 68.5187 21.7747 68.5571 21.5059C68.634 21.237 68.6532 20.9297 68.6147 20.584C68.6147 20.1999 68.6147 19.8734 68.6147 19.6045C68.6147 19.2972 68.5187 19.0091 68.3267 18.7402L67.981 18.6826L66.3677 18.8555C65.8683 18.8555 65.6187 18.7402 65.6187 18.5098V17.6455C65.8875 17.3382 66.2909 17.1846 66.8286 17.1846C67.4048 17.1462 67.8657 17.0117 68.2114 16.7812H68.5571C68.7876 16.7812 68.9604 16.8389 69.0757 16.9541L70.1704 16.2627H70.4009L72.1294 16.0322C72.283 15.9554 72.4175 15.8786 72.5327 15.8018C72.6864 15.6865 72.8784 15.6289 73.1089 15.6289C73.3778 15.6289 73.5698 15.7633 73.6851 16.0322C73.6851 16.57 73.5314 16.8773 73.2241 16.9541C72.9552 17.0309 72.7248 17.1077 72.5327 17.1846C72.3791 17.223 72.2638 17.2998 72.187 17.415C72.1102 17.4919 72.0142 17.4919 71.8989 17.415C71.8221 17.7223 71.6493 17.9336 71.3804 18.0488C71.4188 18.2025 71.438 18.4329 71.438 18.7402C71.438 19.0475 71.3804 19.3932 71.2651 19.7773C71.534 20.2767 71.6685 20.7952 71.6685 21.333C71.6685 21.8708 71.6108 22.1396 71.4956 22.1396C71.4188 22.1396 71.3804 22.1973 71.3804 22.3125L71.5532 22.9463C71.5916 23.3688 71.5916 23.7913 71.5532 24.2139C71.5532 24.598 71.5532 25.0013 71.5532 25.4238L71.6685 26.0576L71.3804 26.9219L71.6685 28.1318L71.3804 30.2061L71.6685 31.2432L71.5532 32.165L71.6685 32.7988L71.5532 33.375L71.6685 33.8936L71.5532 34.5273L71.7837 35.7373L71.6685 36.4863L71.8989 37.8115L71.7837 38.3301L71.8989 38.9062L71.7837 39.1943L71.8989 39.3672L71.7837 39.8281L72.0142 40.9229L71.8989 42.3057L72.1294 43.5156L72.0142 44.1494L72.1294 45.1289L72.0142 45.9355L72.187 47.0879L72.1294 48.4131L72.187 49.0469L72.1294 49.4502L72.3022 50.4297L72.187 51.2363L72.3022 51.7549L72.187 52.043L72.4175 52.9648C72.4943 53.2721 72.5327 53.5986 72.5327 53.9443V56.1338C72.5327 56.5179 72.4943 56.902 72.4175 57.2861L72.187 58.3809L72.4175 59.2451L72.3022 60.1094L72.4175 60.7432L72.3022 61.7227L72.4175 62.5869L72.3022 63.8545C72.3022 64.2002 72.3791 64.4691 72.5327 64.6611H72.7632C73.1857 64.6611 73.5122 64.5075 73.7427 64.2002C73.9731 63.9313 74.242 63.8161 74.5493 63.8545H74.7222V64.085H75.0103C75.1255 64.085 75.2023 64.1234 75.2407 64.2002C75.1639 65.0068 74.703 65.7559 73.8579 66.4473C73.5506 66.5241 73.2817 66.5625 73.0513 66.5625C72.8208 66.5625 72.6479 66.5241 72.5327 66.4473C72.3407 66.6393 72.0142 66.7161 71.5532 66.6777C71.1307 66.6393 70.7658 66.7546 70.4585 67.0234C70.1896 67.3307 69.9207 67.5228 69.6519 67.5996C69.4214 67.6764 69.1717 67.6764 68.9028 67.5996C68.6724 67.5612 68.4227 67.5804 68.1538 67.6572C67.9233 67.734 67.6929 67.8685 67.4624 68.0605C67.2703 68.291 67.0207 68.4062 66.7134 68.4062L66.4253 68.3486C66.2332 68.4255 66.1372 68.3678 66.1372 68.1758C66.1756 68.0221 66.1948 67.8877 66.1948 67.7725V67.6572C66.0412 67.6188 65.9644 67.446 65.9644 67.1387V67.0234C66.1948 66.6393 66.5213 66.3896 66.9438 66.2744C67.3664 66.1976 67.6545 66.1016 67.8081 65.9863V65.8711C67.8081 65.7174 67.9233 65.6598 68.1538 65.6982C68.4227 65.7367 68.634 65.6406 68.7876 65.4102ZM91.3735 39.252L93.0444 41.6143V41.7295C93.0444 42.3057 93.1981 42.7858 93.5054 43.1699C93.8511 43.554 94.12 44.015 94.312 44.5527C94.1968 44.7064 94.0815 44.8408 93.9663 44.9561C93.8511 45.0713 93.755 45.2249 93.6782 45.417C93.4093 45.4938 93.2173 45.5322 93.1021 45.5322L92.1802 45.4746C91.9497 45.4746 91.7576 45.5322 91.604 45.6475C91.4119 45.5322 91.1815 45.4746 90.9126 45.4746H90.2212C89.8371 45.4746 89.5106 45.417 89.2417 45.3018C89.0881 45.3402 88.9728 45.4554 88.896 45.6475C88.8192 45.8395 88.5503 45.9355 88.0894 45.9355C87.6284 45.8971 87.2827 45.9163 87.0522 45.9932C86.8602 46.0316 86.7065 46.0892 86.5913 46.166C86.4761 46.2044 86.3032 46.2236 86.0728 46.2236L84.9204 46.1084H83.5376C83.1919 46.6462 83.019 48.0674 83.019 50.3721L83.4224 52.9072L83.3647 54.1172C83.3647 54.5397 83.4032 54.7894 83.48 54.8662C83.7489 55.2119 83.8833 55.596 83.8833 56.0186C83.8833 56.4027 83.9793 56.806 84.1714 57.2285C84.4019 57.651 84.5363 57.9967 84.5747 58.2656C84.6515 58.4961 84.7668 58.8034 84.9204 59.1875C85.0741 59.5716 85.3429 59.9365 85.7271 60.2822C86.1496 60.5895 86.6105 60.7432 87.1099 60.7432C87.6476 60.7432 88.0894 60.6087 88.4351 60.3398C88.8192 60.0326 89.1073 59.8213 89.2993 59.7061C89.5298 59.5908 89.6642 59.5524 89.7026 59.5908C89.741 59.5908 89.8179 59.5524 89.9331 59.4756C90.0868 59.3988 90.3172 59.2067 90.6245 58.8994C90.9702 58.5921 91.1815 58.3809 91.2583 58.2656C91.3351 58.1504 91.4119 57.9967 91.4888 57.8047C91.5656 57.5742 91.6616 57.2669 91.7769 56.8828C91.9305 56.4987 92.1418 56.3066 92.4106 56.3066C92.6795 56.3066 92.9484 56.5179 93.2173 56.9404C93.5246 57.3245 93.6782 57.7279 93.6782 58.1504C93.6782 58.5345 93.4478 58.8418 92.9868 59.0723C92.5643 59.3027 92.2954 59.6292 92.1802 60.0518C91.5656 60.3206 91.2007 60.5895 91.0854 60.8584C91.0086 61.0889 90.9126 61.2425 90.7974 61.3193C90.7205 61.3577 90.6629 61.377 90.6245 61.377C90.5861 61.3385 90.5285 61.3193 90.4517 61.3193C90.3748 61.3193 90.3364 61.3962 90.3364 61.5498C90.106 61.7035 89.8755 61.8955 89.645 62.126C89.1841 61.9723 88.7231 62.0492 88.2622 62.3564C87.8013 62.7021 87.3595 62.875 86.937 62.875C86.5145 62.875 86.1304 62.7214 85.7847 62.4141C85.5926 62.4909 85.3813 62.5293 85.1509 62.5293C84.9204 62.5293 84.6899 62.5677 84.4595 62.6445C84.1522 62.3372 83.8065 62.1068 83.4224 61.9531C83.0382 61.7995 82.6541 61.6266 82.27 61.4346C82.1932 61.2041 82.0972 61.0889 81.9819 61.0889C81.9051 61.0505 81.9051 60.8968 81.9819 60.6279C81.8283 60.5511 81.6746 60.4743 81.521 60.3975C81.4058 60.3206 81.2713 60.2438 81.1177 60.167C81.0024 59.8981 80.7912 59.61 80.4839 59.3027V58.5537C80.1766 58.4385 79.9653 58.208 79.8501 57.8623C79.7733 57.4782 79.5812 57.1901 79.2739 56.998C79.2355 56.5371 79.1395 56.0954 78.9858 55.6729C78.8706 55.2119 78.813 54.751 78.813 54.29V53.2529L78.4097 50.833V50.3721L78.5825 49.8535L78.4097 49.335L78.813 46.915L79.0435 46.5693C79.2355 45.5706 79.3892 44.668 79.5044 43.8613C79.658 43.0547 79.9269 42.2865 80.311 41.5566C80.7336 40.7884 81.1561 40.0778 81.5786 39.4248C82.0011 38.7334 82.27 38.0996 82.3853 37.5234C83.5376 36.6016 84.7091 35.8141 85.8999 35.1611C86.092 35.238 86.2456 35.2764 86.3608 35.2764L87.2827 35.1035C87.6284 35.1035 88.0317 35.334 88.4927 35.7949L89.1265 35.6797H89.3569C89.4338 35.7949 89.4722 35.9294 89.4722 36.083C89.5106 36.2367 89.6066 36.3327 89.7603 36.3711C90.1828 36.7168 90.4325 37.1393 90.5093 37.6387C90.6245 38.0996 90.9126 38.4645 91.3735 38.7334V39.252ZM89.7603 44.0918L91.7192 43.6885V43.458C91.7192 43.2275 91.6808 42.9971 91.604 42.7666C91.5656 42.5361 91.5272 42.3057 91.4888 42.0752C91.2583 41.8063 91.0278 41.5951 90.7974 41.4414C90.6053 41.2878 90.5285 40.9997 90.5669 40.5771C90.2212 40.4619 89.9907 40.2122 89.8755 39.8281C89.7987 39.444 89.7218 39.0791 89.645 38.7334C89.5682 38.7334 89.5298 38.6566 89.5298 38.5029C89.2609 38.3109 89.0688 38.1572 88.9536 38.042C88.5311 37.6195 87.8589 37.4082 86.937 37.4082C86.0535 37.4082 85.4774 37.5234 85.2085 37.7539C84.978 37.946 84.7284 38.5221 84.4595 39.4824C84.1906 40.4043 83.9409 41.1917 83.7104 41.8447C83.5184 42.4593 83.4224 43.0931 83.4224 43.7461V44.0918L85.2661 44.3223L86.5913 44.207L87.0522 44.3223L87.9741 44.0918L88.7808 44.207L89.2417 43.9766L89.7603 44.0918ZM103.07 35.1035L102.897 35.9678C102.897 36.3903 103.127 36.7168 103.588 36.9473C103.704 36.9089 103.896 36.7744 104.165 36.5439C104.433 36.2751 104.856 35.9102 105.432 35.4492C106.008 34.9499 106.335 34.5658 106.412 34.2969C106.719 34.1048 107.084 33.8359 107.506 33.4902C107.929 33.1061 108.179 32.8564 108.255 32.7412H108.486C109.216 32.0114 110.099 31.512 111.136 31.2432C112.212 30.9359 112.922 30.7822 113.268 30.7822C114.382 30.7822 115.304 31.2048 116.034 32.0498C116.187 32.2803 116.341 32.5299 116.495 32.7988C116.687 33.0293 116.936 33.2982 117.244 33.6055C117.474 33.7591 117.628 34.124 117.705 34.7002C117.82 35.238 117.954 35.6221 118.108 35.8525C118.031 36.0062 117.916 36.2367 117.762 36.5439C117.647 36.8128 117.493 37.1009 117.301 37.4082C117.148 37.6771 116.994 37.946 116.84 38.2148C116.725 38.4453 116.61 38.599 116.495 38.6758C116.418 38.7526 116.207 38.9062 115.861 39.1367C115.515 39.3288 115.285 39.54 115.169 39.7705C115.131 39.8089 114.939 39.8665 114.593 39.9434C114.286 40.0202 114.094 40.097 114.017 40.1738H113.902C113.787 40.2122 113.71 40.1738 113.671 40.0586C113.671 39.9434 113.633 39.8473 113.556 39.7705H113.326C113.018 39.7705 112.807 39.6937 112.692 39.54L112.173 39.0791C112.404 38.4645 112.711 37.9652 113.095 37.5811C113.403 37.6579 113.691 37.6963 113.959 37.6963C114.574 37.6963 115.054 37.1585 115.4 36.083C115.169 35.6989 114.997 35.334 114.881 34.9883C114.805 34.6426 114.651 34.2585 114.42 33.8359C114.19 33.375 113.691 33.1445 112.922 33.1445C112.193 33.1445 111.597 33.3366 111.136 33.7207C110.675 34.0664 110.387 34.4505 110.272 34.873C109.926 35.0267 109.619 35.2764 109.35 35.6221C109.081 35.9294 108.736 36.2174 108.313 36.4863C107.89 36.7552 107.679 36.9281 107.679 37.0049C107.679 37.0433 107.66 37.0817 107.622 37.1201C107.622 37.1585 107.564 37.1969 107.449 37.2354C107.372 37.2738 107.218 37.3506 106.988 37.4658C106.911 37.5811 106.853 37.7155 106.815 37.8691C106.777 37.9844 106.719 38.1188 106.642 38.2725C106.45 38.3109 106.277 38.4069 106.124 38.5605C106.008 38.6758 105.855 38.7526 105.663 38.791L105.72 39.3096C105.72 39.8089 105.375 40.4043 104.683 41.0957L104.914 41.8447V41.9023C104.76 42.1328 104.645 42.4017 104.568 42.709C104.529 43.0163 104.395 43.266 104.165 43.458C103.972 44.4183 103.876 45.5322 103.876 46.7998L103.934 51.3516C103.934 51.5436 103.953 51.8509 103.992 52.2734C104.03 52.6576 104.069 53.2337 104.107 54.002C104.184 54.7702 104.299 55.2887 104.453 55.5576L104.395 55.7881C104.433 55.8649 104.453 56.0954 104.453 56.4795C104.453 56.8252 104.51 57.2093 104.625 57.6318C104.779 58.016 104.798 58.4385 104.683 58.8994C104.798 59.2067 105.106 59.3604 105.605 59.3604C106.104 59.3604 106.45 59.2835 106.642 59.1299H106.7C106.853 59.1299 106.911 59.0723 106.873 58.957C106.873 58.8418 106.911 58.7266 106.988 58.6113C107.141 58.5345 107.333 58.4961 107.564 58.4961C107.833 58.4961 108.044 58.6497 108.198 58.957C108.351 59.2643 108.428 59.5524 108.428 59.8213C108.428 60.0518 108.409 60.2246 108.371 60.3398C108.025 60.6087 107.641 60.724 107.218 60.6855C107.103 60.7624 106.969 60.8776 106.815 61.0312C106.7 61.1465 106.527 61.2617 106.296 61.377C106.066 61.4922 105.605 61.5498 104.914 61.5498C104.222 61.5114 103.723 61.5498 103.416 61.665C103.147 61.7419 102.974 61.7995 102.897 61.8379C102.859 61.8763 102.724 61.9339 102.494 62.0107C102.302 62.0492 102.033 62.0684 101.687 62.0684C101.341 62.0684 101.034 62.1836 100.765 62.4141H100.65C100.535 62.4141 100.458 62.3949 100.419 62.3564C100.381 62.2796 100.323 62.222 100.247 62.1836C99.8625 62.2604 99.5552 62.2988 99.3247 62.2988C99.0942 62.2988 98.9214 62.2604 98.8062 62.1836C98.883 61.1465 99.6896 60.4551 101.226 60.1094C101.226 59.9173 101.303 59.8021 101.457 59.7637V59.6484C101.457 59.2259 101.38 58.8034 101.226 58.3809C101.072 57.9583 100.996 57.5166 100.996 57.0557L101.111 56.3066L100.765 54.4629L100.88 53.4258L100.535 50.084L100.65 47.7217C100.65 47.4912 100.65 47.2607 100.65 47.0303L100.304 45.417L100.419 44.4375L100.304 42.5938L100.419 41.2109L100.247 39.1943C100.208 38.7334 100.189 38.2725 100.189 37.8115C100.227 37.3506 100.247 36.8896 100.247 36.4287L100.074 35.334C100.074 34.873 100.035 34.3353 99.9585 33.7207C99.728 33.7975 99.4591 33.8167 99.1519 33.7783C98.883 33.7015 98.6717 33.8167 98.5181 34.124C98.3644 34.0088 98.2684 33.9512 98.23 33.9512L97.3657 34.2969C97.3273 34.1048 97.2121 34.028 97.02 34.0664C96.8664 34.1048 96.7319 34.124 96.6167 34.124H96.5591C96.4823 33.7783 96.4438 33.5479 96.4438 33.4326C96.4438 32.818 96.7511 32.5107 97.3657 32.5107L98.0571 32.3379C99.2863 31.9922 100.17 31.7233 100.708 31.5312C101.284 31.3392 101.649 31.2624 101.802 31.3008C101.956 31.3392 102.11 31.4736 102.263 31.7041C102.417 31.9346 102.532 32.1842 102.609 32.4531C102.686 32.722 102.724 33.0101 102.724 33.3174C102.763 33.5863 102.801 33.8551 102.839 34.124L103.07 35.1035ZM126.866 38.1572C126.558 39.0791 126.136 39.6937 125.598 40.001C125.637 40.4235 125.809 40.8076 126.117 41.1533C126.424 41.499 126.635 41.8063 126.75 42.0752C126.904 42.3441 127 42.5361 127.039 42.6514C127.077 42.7666 127.173 42.9779 127.327 43.2852C127.519 43.5924 127.749 43.9189 128.018 44.2646C128.287 44.6104 128.517 44.9561 128.709 45.3018C128.94 45.6475 129.151 45.974 129.343 46.2812L129.804 46.915C129.958 47.1071 130.092 47.3184 130.208 47.5488C130.323 47.7793 130.457 48.0098 130.611 48.2402L130.784 48.3555C131.014 48.8164 131.245 49.2581 131.475 49.6807C131.744 50.1032 131.974 50.5257 132.167 50.9482L132.397 51.0635C132.551 51.5244 132.743 51.9469 132.973 52.3311L133.204 52.4463C133.434 53.0225 133.703 53.3105 134.01 53.3105C134.318 53.3105 134.548 53.0225 134.702 52.4463C134.971 51.1787 135.182 50.4873 135.335 50.3721C135.412 50.2184 135.451 50.084 135.451 49.9688C135.451 49.8151 135.489 49.6615 135.566 49.5078L135.912 48.874L136.2 48.0098C136.238 47.8945 136.277 47.7985 136.315 47.7217C136.392 47.6064 136.449 47.472 136.488 47.3184C136.565 47.1647 136.603 46.9727 136.603 46.7422C136.603 46.4733 136.661 46.1852 136.776 45.8779C136.891 45.5706 137.026 45.1865 137.179 44.7256C137.333 44.2646 137.506 43.8229 137.698 43.4004C137.928 42.9779 138.12 42.5745 138.274 42.1904C138.466 41.7679 138.62 41.4222 138.735 41.1533C138.889 40.8844 138.985 40.7116 139.023 40.6348C139.1 40.5579 139.157 40.4811 139.196 40.4043C139.273 40.3275 139.292 40.2507 139.253 40.1738C139.253 40.0586 139.273 39.9434 139.311 39.8281C139.388 39.7129 139.503 39.6169 139.657 39.54C139.81 39.4248 139.945 39.2135 140.06 38.9062C140.214 38.599 140.348 38.1764 140.463 37.6387C140.617 37.1009 140.867 36.6976 141.212 36.4287C141.597 36.1598 141.981 36.0254 142.365 36.0254C142.749 36.0254 143.018 36.1214 143.171 36.3135C143.325 36.5055 143.479 36.64 143.632 36.7168V36.8896C143.632 37.6195 143.44 38.042 143.056 38.1572C142.787 39.1559 142.499 39.9818 142.192 40.6348C141.923 41.2493 141.731 41.5758 141.616 41.6143C141.385 42.5745 140.963 43.4388 140.348 44.207C140.271 44.3991 140.233 44.6104 140.233 44.8408C140.233 45.3402 140.06 45.8011 139.714 46.2236C139.369 46.6462 139.196 47.0303 139.196 47.376V48.0674C139.196 48.4515 139.023 48.8932 138.677 49.3926C138.677 49.7767 138.62 50.1416 138.504 50.4873C137.928 51.9854 137.659 53.0417 137.698 53.6562C137.506 53.7331 137.294 54.1556 137.064 54.9238C136.833 55.6921 136.718 56.153 136.718 56.3066L136.776 57.3438C136.776 57.7279 136.68 57.9967 136.488 58.1504C136.296 58.2656 136.142 58.4001 136.027 58.5537C135.95 58.7074 135.873 58.861 135.796 59.0146C135.72 59.1683 135.604 59.2835 135.451 59.3604C135.528 59.4372 135.566 59.6292 135.566 59.9365C135.566 60.2054 135.163 61.1273 134.356 62.7021C133.588 64.277 133.165 65.1221 133.088 65.2373V66.1592C132.973 66.3128 132.858 66.4665 132.743 66.6201C132.666 66.7738 132.551 66.9274 132.397 67.0811C132.243 67.2347 132.147 67.4076 132.109 67.5996C132.07 67.7917 131.917 67.8685 131.648 67.8301C131.533 68.3294 131.36 68.7904 131.129 69.2129C130.899 69.6738 130.745 70.0387 130.668 70.3076C130.63 70.6149 130.553 70.7878 130.438 70.8262C130.323 70.8646 130.227 70.9222 130.15 70.999C130.073 71.1143 130.015 71.2103 129.977 71.2871C129.977 71.4023 129.939 71.4408 129.862 71.4023H129.689V71.46L129.804 71.9785V72.1514C129.266 72.5739 128.902 73.2269 128.709 74.1104C128.402 74.264 128.21 74.4368 128.133 74.6289C128.056 74.821 127.922 75.013 127.73 75.2051C127.538 75.5124 127.307 75.7812 127.039 76.0117C126.77 76.2422 126.558 76.5495 126.405 76.9336C126.213 76.972 126.04 76.9912 125.886 76.9912C125.733 77.0296 125.56 77.0872 125.368 77.1641C125.137 77.4714 124.849 77.6826 124.503 77.7979C124.158 77.9515 123.87 78.2396 123.639 78.6621C123.293 78.7389 122.871 78.8926 122.372 79.123C121.911 79.3919 121.469 79.5648 121.046 79.6416C120.931 79.7184 120.816 79.7952 120.701 79.8721C120.624 79.9489 120.47 80.0257 120.24 80.1025C120.009 80.2178 119.51 80.2754 118.742 80.2754C117.973 80.2754 117.359 80.2178 116.898 80.1025C116.552 80.2178 116.168 80.2754 115.746 80.2754C114.67 80.2754 114.132 80.0257 114.132 79.5264C114.132 79.4111 114.056 79.3343 113.902 79.2959C113.748 79.2959 113.614 79.2191 113.499 79.0654V78.835H113.268C112.999 78.6045 112.846 78.4701 112.807 78.4316C112.807 78.2012 112.75 78.0475 112.634 77.9707C112.519 77.9323 112.5 77.7979 112.577 77.5674C112.154 77.3753 111.866 76.876 111.712 76.0693C111.559 75.2627 111.482 74.7826 111.482 74.6289L111.712 73.8799L111.597 73.2461C111.597 73.054 111.693 72.7467 111.885 72.3242C112.077 71.9017 112.193 71.556 112.231 71.2871C112.692 70.903 112.961 70.5189 113.038 70.1348C113.345 70.0195 113.595 69.8275 113.787 69.5586C113.94 69.3281 114.113 69.0977 114.305 68.8672C114.728 68.752 115.169 68.6175 115.63 68.4639C116.053 68.3486 116.571 68.291 117.186 68.291C117.801 68.291 118.319 68.4639 118.742 68.8096C119.164 69.1937 119.491 69.501 119.721 69.7314C119.952 70.0003 120.221 70.2692 120.528 70.5381C120.451 71.1527 120.413 71.652 120.413 72.0361C120.221 72.113 120.048 72.209 119.894 72.3242C119.74 72.4395 119.529 72.4971 119.26 72.4971C118.991 72.4971 118.799 72.3818 118.684 72.1514C118.607 71.9209 118.415 71.7673 118.108 71.6904L117.705 70.6533C117.436 70.6149 117.186 70.5573 116.956 70.4805C116.725 70.4036 116.418 70.3652 116.034 70.3652C115.65 70.3652 115.361 70.5381 115.169 70.8838C114.977 71.2295 114.728 71.5368 114.42 71.8057L114.305 72.0361C114.19 72.113 114.056 72.1898 113.902 72.2666C113.71 72.3434 113.595 72.4587 113.556 72.6123C113.633 72.766 113.671 72.958 113.671 73.1885C113.671 73.4189 113.595 73.6686 113.441 73.9375C113.249 74.2064 113.153 74.4945 113.153 74.8018C113.153 75.109 113.249 75.4163 113.441 75.7236C113.595 76.0693 113.71 76.3958 113.787 76.7031C114.132 76.9336 114.42 77.2025 114.651 77.5098C114.843 77.8171 115.093 78.0667 115.4 78.2588C115.707 78.3356 115.995 78.3356 116.264 78.2588C116.533 78.2204 116.821 78.2012 117.128 78.2012L117.82 78.4316L117.877 78.2588H118.684C119.145 78.2588 119.721 78.1436 120.413 77.9131C121.142 77.721 121.68 77.529 122.026 77.3369L122.544 76.9336C122.813 76.7415 123.082 76.5495 123.351 76.3574C123.658 76.2038 123.908 76.0117 124.1 75.7812C124.331 75.5892 124.523 75.3587 124.676 75.0898C124.868 74.8594 125.099 74.6673 125.368 74.5137C125.598 74.0527 125.886 73.5342 126.232 72.958C127.576 70.7686 128.345 69.0977 128.537 67.9453C128.806 67.7533 129.113 67.2347 129.458 66.3896C129.804 65.583 130.073 65.1221 130.265 65.0068C130.38 64.3923 130.553 63.9889 130.784 63.7969C130.822 63.2975 130.957 62.8366 131.187 62.4141C131.456 61.9915 131.629 61.5882 131.706 61.2041C131.782 60.7816 131.878 60.3975 131.994 60.0518C132.339 59.5908 132.512 59.1299 132.512 58.6689C132.512 58.1696 132.435 57.8047 132.282 57.5742C132.128 57.3438 132.09 57.0749 132.167 56.7676C132.051 56.7292 131.955 56.6715 131.878 56.5947C131.802 56.4795 131.686 56.3835 131.533 56.3066C131.379 55.9225 131.187 55.6152 130.957 55.3848C130.764 55.1159 130.572 54.847 130.38 54.5781C130.188 54.2708 130.054 53.9827 129.977 53.7139C129.939 53.4066 129.727 53.2145 129.343 53.1377L129.401 53.0225C129.401 52.8688 129.362 52.7728 129.286 52.7344C129.209 52.6576 129.19 52.5231 129.228 52.3311C129.19 52.1774 129.055 52.1006 128.825 52.1006C128.825 51.8701 128.748 51.6781 128.594 51.5244C128.441 51.3324 128.325 51.1787 128.249 51.0635C128.172 50.9098 128.133 50.8138 128.133 50.7754C128.172 50.737 128.153 50.6794 128.076 50.6025L127.845 50.4873C127.768 50.4105 127.73 50.3337 127.73 50.2568C127.73 50.1416 127.672 49.988 127.557 49.7959C127.442 49.5654 127.269 49.2965 127.039 48.9893C126.847 48.6436 126.674 48.2786 126.52 47.8945C126.213 47.5488 125.925 47.2223 125.656 46.915C125.387 46.6077 125.176 46.2236 125.022 45.7627C124.638 45.417 124.331 45.0137 124.1 44.5527C123.87 44.0534 123.582 43.6117 123.236 43.2275V43.1123C123.236 42.9202 123.14 42.6514 122.948 42.3057C122.756 41.9215 122.583 41.6719 122.429 41.5566C122.314 41.4414 122.199 41.3262 122.083 41.2109C122.007 41.0573 121.949 40.9036 121.911 40.75C121.872 40.5964 121.795 40.4619 121.68 40.3467L119.836 40.4619C118.991 40.4619 118.569 40.3275 118.569 40.0586L118.684 39.6553C118.684 39.5785 118.646 39.54 118.569 39.54L118.338 39.1367C118.338 39.0215 118.377 38.9639 118.454 38.9639C118.492 38.6566 118.742 38.5029 119.203 38.5029C119.702 38.4645 120.144 38.3877 120.528 38.2725C120.912 38.1188 121.219 38.0804 121.45 38.1572C121.642 38.0804 121.834 37.9652 122.026 37.8115C122.218 37.6579 122.429 37.5811 122.66 37.5811L123.639 37.6963L124.561 37.4658L125.368 37.5811L125.771 37.4658C126.155 37.4658 126.52 37.6963 126.866 38.1572Z" fill="white"/>
</svg>
