<svg width="70" height="71" viewBox="0 0 70 71" fill="none" xmlns="http://www.w3.org/2000/svg">
<path d="M23.6258 35.4602C23.6258 28.9865 28.7173 23.7371 34.9997 23.7371C41.282 23.7371 46.3763 28.9865 46.3763 35.4602C46.3763 41.9338 41.282 47.1832 34.9997 47.1832C28.7173 47.1832 23.6258 41.9338 23.6258 35.4602ZM17.4758 35.4602C17.4758 45.4334 25.3211 53.5176 34.9997 53.5176C44.6782 53.5176 52.5236 45.4334 52.5236 35.4602C52.5236 25.4869 44.6782 17.4027 34.9997 17.4027C25.3211 17.4027 17.4758 25.4869 17.4758 35.4602ZM49.1219 16.6869C49.1219 19.0161 50.9551 20.9079 53.2183 20.9079C55.4787 20.9079 57.3146 19.0161 57.3146 16.6869C57.3146 14.3576 55.4814 12.4686 53.2183 12.4686C50.9551 12.4686 49.1219 14.3576 49.1219 16.6869ZM21.211 64.0846C17.8837 63.9283 16.0754 63.3574 14.8735 62.8745C13.2802 62.2353 12.1444 61.4741 10.948 60.2441C9.75443 59.0141 9.01289 57.8438 8.39541 56.202C7.92678 54.9635 7.3727 53.1001 7.22108 49.6715C7.05569 45.9646 7.02261 44.8511 7.02261 35.4602C7.02261 26.0692 7.05844 24.9586 7.22108 21.2488C7.3727 17.8202 7.92954 15.9597 8.39541 14.7183C9.01565 13.0765 9.75443 11.9062 10.948 10.6734C12.1417 9.44341 13.2774 8.6793 14.8735 8.04301C16.0754 7.56011 17.8837 6.98916 21.211 6.83293C24.8084 6.6625 25.889 6.62841 34.9997 6.62841C44.1131 6.62841 45.1909 6.66534 48.7911 6.83293C52.1184 6.98916 53.9239 7.56296 55.1286 8.04301C56.7219 8.6793 57.8577 9.44341 59.054 10.6734C60.2477 11.9033 60.9864 13.0765 61.6067 14.7183C62.0753 15.9568 62.6294 17.8202 62.781 21.2488C62.9464 24.9586 62.9795 26.0692 62.9795 35.4602C62.9795 44.8482 62.9464 45.9617 62.781 49.6715C62.6294 53.1001 62.0726 54.9635 61.6067 56.202C60.9864 57.8438 60.2477 59.0141 59.054 60.2441C57.8604 61.4741 56.7219 62.2353 55.1286 62.8745C53.9267 63.3574 52.1184 63.9283 48.7911 64.0846C45.1937 64.255 44.1131 64.2891 34.9997 64.2891C25.889 64.2891 24.8084 64.255 21.211 64.0846ZM20.9298 0.506988C17.2966 0.677422 14.8156 1.2711 12.6461 2.14031C10.4022 3.03793 8.50016 4.24233 6.60084 6.19664C4.70428 8.15095 3.53547 10.1109 2.66437 12.426C1.82084 14.6615 1.2447 17.218 1.07931 20.9619C0.911151 24.7115 0.872559 25.9102 0.872559 35.4602C0.872559 45.0101 0.911151 46.2089 1.07931 49.9584C1.2447 53.7023 1.82084 56.2588 2.66437 58.4943C3.53547 60.8065 4.70152 62.7694 6.60084 64.7237C8.4974 66.678 10.3995 67.8796 12.6461 68.78C14.8184 69.6492 17.2966 70.2429 20.9298 70.4133C24.5713 70.5838 25.7319 70.6264 34.9997 70.6264C44.2702 70.6264 45.4308 70.5866 49.0695 70.4133C52.7028 70.2429 55.1837 69.6492 57.3532 68.78C59.5971 67.8796 61.4992 66.678 63.3985 64.7237C65.2951 62.7694 66.4611 60.8065 67.335 58.4943C68.1785 56.2588 68.7574 53.7023 68.92 49.9584C69.0854 46.206 69.124 45.0101 69.124 35.4602C69.124 25.9102 69.0854 24.7115 68.92 20.9619C68.7546 17.218 68.1785 14.6615 67.335 12.426C66.4611 10.1138 65.2951 8.15379 63.3985 6.19664C61.5019 4.24233 59.5971 3.03793 57.356 2.14031C55.1837 1.2711 52.7028 0.674581 49.0723 0.506988C45.4335 0.336554 44.2702 0.293945 35.0024 0.293945C25.7319 0.293945 24.5713 0.333713 20.9298 0.506988Z" fill="white"/>
</svg>
