<svg width="70" height="71" viewBox="0 0 70 71" fill="none" xmlns="http://www.w3.org/2000/svg">
<path d="M23.626 35.4602C23.626 28.9865 28.7175 23.7371 34.9999 23.7371C41.2823 23.7371 46.3765 28.9865 46.3765 35.4602C46.3765 41.9338 41.2823 47.1832 34.9999 47.1832C28.7175 47.1832 23.626 41.9338 23.626 35.4602ZM17.476 35.4602C17.476 45.4334 25.3214 53.5176 34.9999 53.5176C44.6784 53.5176 52.5238 45.4334 52.5238 35.4602C52.5238 25.4869 44.6784 17.4027 34.9999 17.4027C25.3214 17.4027 17.476 25.4869 17.476 35.4602ZM49.1221 16.6869C49.1221 19.0161 50.9553 20.9079 53.2185 20.9079C55.4789 20.9079 57.3148 19.0161 57.3148 16.6869C57.3148 14.3576 55.4817 12.4686 53.2185 12.4686C50.9553 12.4686 49.1221 14.3576 49.1221 16.6869ZM21.2112 64.0846C17.884 63.9283 16.0756 63.3574 14.8737 62.8745C13.2804 62.2353 12.1447 61.4741 10.9483 60.2441C9.75467 59.0141 9.01314 57.8438 8.39565 56.202C7.92702 54.9635 7.37294 53.1001 7.22133 49.6715C7.05593 45.9646 7.02285 44.8511 7.02285 35.4602C7.02285 26.0692 7.05869 24.9586 7.22133 21.2488C7.37294 17.8202 7.92978 15.9597 8.39565 14.7183C9.01589 13.0765 9.75467 11.9062 10.9483 10.6734C12.1419 9.44341 13.2776 8.6793 14.8737 8.04301C16.0756 7.56011 17.884 6.98916 21.2112 6.83293C24.8086 6.6625 25.8892 6.62841 34.9999 6.62841C44.1133 6.62841 45.1912 6.66534 48.7913 6.83293C52.1186 6.98916 53.9242 7.56296 55.1288 8.04301C56.7222 8.6793 57.8579 9.44341 59.0543 10.6734C60.2479 11.9033 60.9867 13.0765 61.6069 14.7183C62.0756 15.9568 62.6296 17.8202 62.7813 21.2488C62.9467 24.9586 62.9797 26.0692 62.9797 35.4602C62.9797 44.8482 62.9467 45.9617 62.7813 49.6715C62.6296 53.1001 62.0728 54.9635 61.6069 56.202C60.9867 57.8438 60.2479 59.0141 59.0543 60.2441C57.8607 61.4741 56.7222 62.2353 55.1288 62.8745C53.9269 63.3574 52.1186 63.9283 48.7913 64.0846C45.1939 64.255 44.1133 64.2891 34.9999 64.2891C25.8892 64.2891 24.8086 64.255 21.2112 64.0846ZM20.9301 0.506988C17.2968 0.677422 14.8158 1.2711 12.6464 2.14031C10.4025 3.03793 8.5004 4.24233 6.60108 6.19664C4.70452 8.15095 3.53571 10.1109 2.66461 12.426C1.82108 14.6615 1.24495 17.218 1.07955 20.9619C0.911396 24.7115 0.872803 25.9102 0.872803 35.4602C0.872803 45.0101 0.911396 46.2089 1.07955 49.9584C1.24495 53.7023 1.82108 56.2588 2.66461 58.4943C3.53571 60.8065 4.70177 62.7694 6.60108 64.7237C8.49765 66.678 10.3997 67.8796 12.6464 68.78C14.8186 69.6492 17.2968 70.2429 20.9301 70.4133C24.5716 70.5838 25.7321 70.6264 34.9999 70.6264C44.2705 70.6264 45.431 70.5866 49.0698 70.4133C52.703 70.2429 55.184 69.6492 57.3534 68.78C59.5973 67.8796 61.4994 66.678 63.3987 64.7237C65.2953 62.7694 66.4614 60.8065 67.3352 58.4943C68.1787 56.2588 68.7576 53.7023 68.9203 49.9584C69.0857 46.206 69.1243 45.0101 69.1243 35.4602C69.1243 25.9102 69.0857 24.7115 68.9203 20.9619C68.7549 17.218 68.1787 14.6615 67.3352 12.426C66.4614 10.1138 65.2953 8.15379 63.3987 6.19664C61.5022 4.24233 59.5973 3.03793 57.3562 2.14031C55.184 1.2711 52.703 0.674581 49.0725 0.506988C45.4338 0.336554 44.2705 0.293945 35.0027 0.293945C25.7321 0.293945 24.5716 0.333713 20.9301 0.506988Z" fill="white"/>
</svg>
