<svg width="626" height="199" viewBox="0 0 626 199" fill="none" xmlns="http://www.w3.org/2000/svg">
<path d="M37.2852 38.0547L28.1445 43.0059C28.2715 44.3008 28.4238 45.5957 28.6016 46.8906C28.8047 48.1855 28.9951 49.4805 29.1729 50.7754C29.376 52.0703 29.541 53.3652 29.668 54.6602C29.8203 55.9551 29.8965 57.25 29.8965 58.5449C29.8965 60.627 29.6426 62.4932 29.1348 64.1436C28.6523 65.7939 27.9033 67.1904 26.8877 68.333C25.8721 69.4756 24.5645 70.3516 22.9648 70.9609C21.3906 71.5703 19.5244 71.875 17.3662 71.875C14.5986 71.875 12.3262 71.126 10.5488 69.6279C8.77148 68.1299 7.6543 66.0225 7.19727 63.3057L0.646484 59.9541H17.6709C16.7568 60.4619 15.8428 60.9697 14.9287 61.4775C14.0146 61.9854 13.0752 62.4932 12.1104 63.001C12.1357 63.7627 12.2627 64.4863 12.4912 65.1719C12.7451 65.832 13.0879 66.416 13.5195 66.9238C13.9766 67.4316 14.5225 67.8252 15.1572 68.1045C15.8174 68.4092 16.5537 68.5615 17.3662 68.5615C18.6611 68.5615 19.7021 68.2695 20.4893 67.6855C21.3018 67.1016 21.9238 66.3652 22.3555 65.4766C22.8125 64.5625 23.1172 63.5596 23.2695 62.4678C23.4219 61.376 23.498 60.3096 23.498 59.2686C23.498 57.9736 23.4219 56.7041 23.2695 55.46C23.1426 54.1904 22.9775 52.9336 22.7744 51.6895C22.5713 50.4199 22.3428 49.1631 22.0889 47.9189C21.8604 46.6748 21.6318 45.418 21.4033 44.1484L8.14941 42.4727L37.2852 38.0547ZM59.7178 57.7832C59.7178 59.5352 59.2734 61.0205 58.3848 62.2393C57.5215 63.4326 56.4043 64.4102 55.0332 65.1719C53.6875 65.9082 52.2148 66.4541 50.6152 66.8096C49.0156 67.1396 47.4922 67.3047 46.0449 67.3047C44.623 67.3047 43.1377 67.127 41.5889 66.7715C40.0654 66.416 38.6562 65.8574 37.3613 65.0957C36.0918 64.334 35.0381 63.3564 34.2002 62.1631C33.3877 60.9443 32.9814 59.4844 32.9814 57.7832C32.9814 55.9297 33.4258 54.3936 34.3145 53.1748C35.2031 51.9561 36.3203 50.9912 37.666 50.2803C39.0371 49.5693 40.5352 49.0742 42.1602 48.7949C43.8105 48.5156 45.3975 48.376 46.9209 48.376C48.3174 48.376 49.7646 48.5537 51.2627 48.9092C52.7861 49.2646 54.1699 49.8232 55.4141 50.585C56.6836 51.3213 57.7119 52.2861 58.499 53.4795C59.3115 54.6729 59.7178 56.1074 59.7178 57.7832ZM53.4336 57.707C53.4336 56.793 53.2559 55.9551 52.9004 55.1934C52.5703 54.4316 52.1006 53.7715 51.4912 53.2129C50.9072 52.6543 50.2217 52.2227 49.4346 51.918C48.6475 51.6133 47.8096 51.4609 46.9209 51.4609C46.0068 51.4609 45.0928 51.6006 44.1787 51.8799C43.2646 52.1338 42.4395 52.5146 41.7031 53.0225C40.9668 53.5303 40.3701 54.1777 39.9131 54.9648C39.4561 55.7266 39.2275 56.6025 39.2275 57.5928C39.2275 58.583 39.3799 59.4844 39.6846 60.2969C40.0146 61.1094 40.4717 61.8076 41.0557 62.3916C41.665 62.9756 42.376 63.4326 43.1885 63.7627C44.001 64.0674 44.9023 64.2197 45.8926 64.2197C46.959 64.2197 47.9492 64.1055 48.8633 63.877C49.7773 63.623 50.5771 63.2295 51.2627 62.6963C51.9482 62.1631 52.4814 61.4902 52.8623 60.6777C53.2432 59.8398 53.4336 58.8496 53.4336 57.707ZM70.6865 40.0732C70.6865 40.6318 70.5723 41.165 70.3438 41.6729C70.1406 42.1553 69.8486 42.5869 69.4678 42.9678C69.1123 43.3232 68.6807 43.6152 68.1729 43.8438C67.6904 44.0469 67.1699 44.1484 66.6113 44.1484C66.0527 44.1484 65.5322 44.0469 65.0498 43.8438C64.5674 43.6152 64.1357 43.3232 63.7549 42.9678C63.3994 42.5869 63.1074 42.1553 62.8789 41.6729C62.6758 41.165 62.5742 40.6318 62.5742 40.0732C62.5742 39.5146 62.6758 38.9941 62.8789 38.5117C63.1074 38.0293 63.3994 37.6104 63.7549 37.2549C64.1357 36.874 64.5674 36.582 65.0498 36.3789C65.5322 36.1504 66.0527 36.0361 66.6113 36.0361C67.1699 36.0361 67.6904 36.1504 68.1729 36.3789C68.6807 36.582 69.1123 36.874 69.4678 37.2549C69.8486 37.6104 70.1406 38.0293 70.3438 38.5117C70.5723 38.9941 70.6865 39.5146 70.6865 40.0732ZM75.1426 67.0762L58.0801 66.7715L64.4023 62.8486L63.8691 50.2041L56.5947 46.7764H70.5723L69.3154 63.1152L75.1426 67.0762ZM101.346 64.4863L84.8164 64.6006L91.9385 61.8584V55.0029C91.9385 53.6572 91.5957 52.5908 90.9102 51.8037C90.25 50.9912 89.2344 50.585 87.8633 50.585C87.1777 50.585 86.4414 50.6992 85.6543 50.9277C84.8926 51.1562 84.3213 51.5879 83.9404 52.2227L83.1025 59.6113C83.3564 59.8145 83.75 60.0684 84.2832 60.373C84.8418 60.6777 85.4131 60.9824 85.9971 61.2871C86.6572 61.6426 87.3682 62.0107 88.1299 62.3916L72.4766 62.4678L78.875 59.8398L77.7324 50.6611C76.9961 50.458 76.1455 50.2295 75.1807 49.9756C74.2158 49.6963 73.2891 49.417 72.4004 49.1377C71.3848 48.833 70.3311 48.5156 69.2393 48.1855L84.3594 45.6719L84.1689 47.9951C85.0576 47.6396 86.0098 47.2842 87.0254 46.9287C88.041 46.5732 89.0312 46.3955 89.9961 46.3955C92.3066 46.3955 94.0967 47.0176 95.3662 48.2617C96.6357 49.5059 97.2705 51.2959 97.2705 53.6318C97.2705 54.2158 97.2324 54.876 97.1562 55.6123C97.1055 56.3232 97.0293 57.0469 96.9277 57.7832C96.8262 58.5195 96.7119 59.2559 96.585 59.9922C96.4834 60.7031 96.3818 61.3633 96.2803 61.9727L101.346 64.4863ZM128.196 42.3965L127.854 45.9766C126.609 45.875 125.378 45.7861 124.159 45.71C122.94 45.6084 121.709 45.4941 120.465 45.3672C120.262 47.7793 120.046 50.1787 119.817 52.5654C119.589 54.9521 119.36 57.3516 119.132 59.7637C119.132 59.8906 119.119 60.0176 119.094 60.1445C119.068 60.2715 119.056 60.3984 119.056 60.5254C119.056 60.8809 119.094 61.249 119.17 61.6299C119.246 61.9854 119.373 62.3154 119.551 62.6201C119.729 62.8994 119.957 63.1406 120.236 63.3438C120.541 63.5215 120.909 63.6104 121.341 63.6104C122.179 63.6104 122.915 63.4199 123.55 63.0391C124.185 62.6328 124.718 62.125 125.149 61.5156C125.581 60.9062 125.924 60.2334 126.178 59.4971C126.432 58.7354 126.597 57.9863 126.673 57.25C126.978 58.4434 127.13 59.624 127.13 60.792C127.13 61.9092 126.952 62.9248 126.597 63.8389C126.241 64.7275 125.746 65.502 125.111 66.1621C124.477 66.7969 123.715 67.292 122.826 67.6475C121.938 68.0029 120.96 68.1807 119.894 68.1807C118.776 68.1807 117.799 67.9902 116.961 67.6094C116.123 67.2285 115.425 66.708 114.866 66.0479C114.333 65.3623 113.927 64.5625 113.647 63.6484C113.394 62.7344 113.267 61.7568 113.267 60.7158C113.267 60.5127 113.267 60.3223 113.267 60.1445C113.267 59.9668 113.279 59.7764 113.305 59.5732C113.508 57.1104 113.698 54.6855 113.876 52.2988C114.079 49.8867 114.257 47.4492 114.409 44.9863C113.724 44.9355 113.038 44.8848 112.353 44.834C111.692 44.7578 111.02 44.6816 110.334 44.6055L110.486 41.5967C111.02 41.5713 111.578 41.4824 112.162 41.3301C112.746 41.1777 113.305 40.9746 113.838 40.7207C114.396 40.4668 114.904 40.1621 115.361 39.8066C115.844 39.4512 116.237 39.0449 116.542 38.5879C116.821 38.1309 117.075 37.6357 117.304 37.1025C117.558 36.5693 117.773 36.0107 117.951 35.4268C118.154 34.8428 118.319 34.2715 118.446 33.7129C118.573 33.1289 118.662 32.5703 118.713 32.0371L121.836 32.1133L120.846 41.6348L128.196 42.3965ZM156.799 69.7041L140.841 69.2471L146.249 66.3145V59.3447C146.249 57.7705 145.843 56.5518 145.03 55.6885C144.218 54.8252 143.024 54.3936 141.45 54.3936C140.79 54.3936 140.041 54.4697 139.203 54.6221C138.391 54.749 137.692 54.9648 137.108 55.2695C137.032 56.7168 136.956 58.1641 136.88 59.6113C136.829 61.0332 136.778 62.4678 136.728 63.915L141.564 66.8096L125.606 67.457L131.738 64.0674L130.748 38.4736L121.379 35.998L138.061 33.5225L137.261 51.8037C137.896 51.6006 138.543 51.4609 139.203 51.3848C139.863 51.3086 140.523 51.2705 141.184 51.2705H141.336C142.428 51.2705 143.608 51.3848 144.878 51.6133C146.147 51.8164 147.315 52.1846 148.382 52.7178C149.474 53.2256 150.375 53.9365 151.086 54.8506C151.797 55.7393 152.152 56.8691 152.152 58.2402C152.152 58.7227 152.102 59.3193 152 60.0303C151.924 60.7412 151.822 61.4775 151.695 62.2393C151.568 63.001 151.429 63.7373 151.276 64.4482C151.124 65.1338 150.997 65.7051 150.896 66.1621L156.799 69.7041ZM176.07 60.0684C176.07 60.2461 176.058 60.4238 176.032 60.6016C176.032 60.7793 176.032 60.957 176.032 61.1348L160.531 61.4395C160.861 62.9375 161.61 64.042 162.778 64.7529C163.946 65.4639 165.267 65.8193 166.739 65.8193C167.45 65.8193 168.174 65.7686 168.91 65.667C169.646 65.5654 170.37 65.4004 171.081 65.1719C171.792 64.9434 172.465 64.6514 173.1 64.2959C173.734 63.915 174.306 63.4707 174.813 62.9629C174.534 64.0293 174.064 64.9688 173.404 65.7812C172.744 66.5938 171.957 67.2666 171.043 67.7998C170.154 68.333 169.177 68.7266 168.11 68.9805C167.069 69.2598 166.028 69.3994 164.987 69.3994C163.565 69.3994 162.207 69.1455 160.912 68.6377C159.643 68.1299 158.525 67.4316 157.561 66.543C156.621 65.6543 155.872 64.5879 155.313 63.3438C154.755 62.0996 154.476 60.7412 154.476 59.2686C154.476 57.7197 154.793 56.3105 155.428 55.041C156.062 53.7715 156.9 52.6924 157.941 51.8037C158.982 50.8896 160.188 50.1914 161.56 49.709C162.931 49.2266 164.365 48.9854 165.863 48.9854C167.438 48.9854 168.847 49.2773 170.091 49.8613C171.36 50.4453 172.439 51.2451 173.328 52.2607C174.217 53.2764 174.89 54.457 175.347 55.8027C175.829 57.123 176.07 58.5449 176.07 60.0684ZM170.243 58.126C170.192 57.4404 170.053 56.7803 169.824 56.1455C169.596 55.5107 169.278 54.9521 168.872 54.4697C168.466 53.9873 167.971 53.6064 167.387 53.3271C166.828 53.0225 166.168 52.8701 165.406 52.8701C164.645 52.8701 163.984 53.0098 163.426 53.2891C162.867 53.5684 162.397 53.9492 162.017 54.4316C161.636 54.8887 161.318 55.4346 161.064 56.0693C160.836 56.6787 160.658 57.3135 160.531 57.9736L170.243 58.126ZM218.422 49.29C218.422 50.2295 218.092 51.0547 217.432 51.7656C216.771 52.4512 215.908 53.0605 214.842 53.5938C213.801 54.1016 212.633 54.5332 211.338 54.8887C210.068 55.2441 208.799 55.5361 207.529 55.7646C206.285 55.9932 205.117 56.1709 204.025 56.2979C202.959 56.3994 202.108 56.4629 201.474 56.4883L201.778 64.2578L210.614 67.9141L186.582 68.2188L194.771 63.915L194.428 46.0527L185.439 41.9775L203.759 42.4727C204.444 42.498 205.282 42.5488 206.272 42.625C207.288 42.7012 208.329 42.8408 209.396 43.0439C210.487 43.2217 211.566 43.4756 212.633 43.8057C213.725 44.1104 214.689 44.5166 215.527 45.0244C216.391 45.5068 217.089 46.1035 217.622 46.8145C218.155 47.5 218.422 48.3252 218.422 49.29ZM213.166 49.29C213.166 48.833 212.988 48.4395 212.633 48.1094C212.277 47.7539 211.82 47.4619 211.262 47.2334C210.703 46.9795 210.081 46.7764 209.396 46.624C208.71 46.4463 208.037 46.3193 207.377 46.2432C206.717 46.1416 206.107 46.0781 205.549 46.0527C205.016 46.002 204.597 45.9766 204.292 45.9766C203.708 45.9766 203.111 45.9893 202.502 46.0146C201.893 46.04 201.296 46.0781 200.712 46.1289L200.902 53.1367C201.232 53.1875 201.537 53.2129 201.816 53.2129C202.121 53.2129 202.426 53.2129 202.73 53.2129C203.086 53.2129 203.581 53.2002 204.216 53.1748C204.876 53.124 205.587 53.0479 206.349 52.9463C207.136 52.8193 207.923 52.667 208.71 52.4893C209.522 52.2861 210.259 52.0449 210.919 51.7656C211.579 51.4609 212.112 51.1055 212.519 50.6992C212.95 50.293 213.166 49.8232 213.166 49.29ZM230.952 40.0732C230.952 40.6318 230.838 41.165 230.609 41.6729C230.406 42.1553 230.114 42.5869 229.733 42.9678C229.378 43.3232 228.946 43.6152 228.438 43.8438C227.956 44.0469 227.436 44.1484 226.877 44.1484C226.318 44.1484 225.798 44.0469 225.315 43.8438C224.833 43.6152 224.401 43.3232 224.021 42.9678C223.665 42.5869 223.373 42.1553 223.145 41.6729C222.941 41.165 222.84 40.6318 222.84 40.0732C222.84 39.5146 222.941 38.9941 223.145 38.5117C223.373 38.0293 223.665 37.6104 224.021 37.2549C224.401 36.874 224.833 36.582 225.315 36.3789C225.798 36.1504 226.318 36.0361 226.877 36.0361C227.436 36.0361 227.956 36.1504 228.438 36.3789C228.946 36.582 229.378 36.874 229.733 37.2549C230.114 37.6104 230.406 38.0293 230.609 38.5117C230.838 38.9941 230.952 39.5146 230.952 40.0732ZM235.408 67.0762L218.346 66.7715L224.668 62.8486L224.135 50.2041L216.86 46.7764H230.838L229.581 63.1152L235.408 67.0762ZM249.729 69.3232L232.399 69.9707L238.912 65.8193L237.655 37.0264L228.705 33.7129L244.815 33.5225L243.673 65.6289L249.729 69.3232ZM274.522 57.7832C274.522 59.5352 274.078 61.0205 273.189 62.2393C272.326 63.4326 271.209 64.4102 269.838 65.1719C268.492 65.9082 267.02 66.4541 265.42 66.8096C263.82 67.1396 262.297 67.3047 260.85 67.3047C259.428 67.3047 257.942 67.127 256.394 66.7715C254.87 66.416 253.461 65.8574 252.166 65.0957C250.896 64.334 249.843 63.3564 249.005 62.1631C248.192 60.9443 247.786 59.4844 247.786 57.7832C247.786 55.9297 248.23 54.3936 249.119 53.1748C250.008 51.9561 251.125 50.9912 252.471 50.2803C253.842 49.5693 255.34 49.0742 256.965 48.7949C258.615 48.5156 260.202 48.376 261.726 48.376C263.122 48.376 264.569 48.5537 266.067 48.9092C267.591 49.2646 268.975 49.8232 270.219 50.585C271.488 51.3213 272.517 52.2861 273.304 53.4795C274.116 54.6729 274.522 56.1074 274.522 57.7832ZM268.238 57.707C268.238 56.793 268.061 55.9551 267.705 55.1934C267.375 54.4316 266.905 53.7715 266.296 53.2129C265.712 52.6543 265.026 52.2227 264.239 51.918C263.452 51.6133 262.614 51.4609 261.726 51.4609C260.812 51.4609 259.897 51.6006 258.983 51.8799C258.069 52.1338 257.244 52.5146 256.508 53.0225C255.771 53.5303 255.175 54.1777 254.718 54.9648C254.261 55.7266 254.032 56.6025 254.032 57.5928C254.032 58.583 254.185 59.4844 254.489 60.2969C254.819 61.1094 255.276 61.8076 255.86 62.3916C256.47 62.9756 257.181 63.4326 257.993 63.7627C258.806 64.0674 259.707 64.2197 260.697 64.2197C261.764 64.2197 262.754 64.1055 263.668 63.877C264.582 63.623 265.382 63.2295 266.067 62.6963C266.753 62.1631 267.286 61.4902 267.667 60.6777C268.048 59.8398 268.238 58.8496 268.238 57.707ZM292.004 42.3965L291.661 45.9766C290.417 45.875 289.186 45.7861 287.967 45.71C286.748 45.6084 285.517 45.4941 284.272 45.3672C284.069 47.7793 283.854 50.1787 283.625 52.5654C283.396 54.9521 283.168 57.3516 282.939 59.7637C282.939 59.8906 282.927 60.0176 282.901 60.1445C282.876 60.2715 282.863 60.3984 282.863 60.5254C282.863 60.8809 282.901 61.249 282.978 61.6299C283.054 61.9854 283.181 62.3154 283.358 62.6201C283.536 62.8994 283.765 63.1406 284.044 63.3438C284.349 63.5215 284.717 63.6104 285.148 63.6104C285.986 63.6104 286.723 63.4199 287.357 63.0391C287.992 62.6328 288.525 62.125 288.957 61.5156C289.389 60.9062 289.731 60.2334 289.985 59.4971C290.239 58.7354 290.404 57.9863 290.48 57.25C290.785 58.4434 290.938 59.624 290.938 60.792C290.938 61.9092 290.76 62.9248 290.404 63.8389C290.049 64.7275 289.554 65.502 288.919 66.1621C288.284 66.7969 287.522 67.292 286.634 67.6475C285.745 68.0029 284.768 68.1807 283.701 68.1807C282.584 68.1807 281.606 67.9902 280.769 67.6094C279.931 67.2285 279.232 66.708 278.674 66.0479C278.141 65.3623 277.734 64.5625 277.455 63.6484C277.201 62.7344 277.074 61.7568 277.074 60.7158C277.074 60.5127 277.074 60.3223 277.074 60.1445C277.074 59.9668 277.087 59.7764 277.112 59.5732C277.315 57.1104 277.506 54.6855 277.684 52.2988C277.887 49.8867 278.064 47.4492 278.217 44.9863C277.531 44.9355 276.846 44.8848 276.16 44.834C275.5 44.7578 274.827 44.6816 274.142 44.6055L274.294 41.5967C274.827 41.5713 275.386 41.4824 275.97 41.3301C276.554 41.1777 277.112 40.9746 277.646 40.7207C278.204 40.4668 278.712 40.1621 279.169 39.8066C279.651 39.4512 280.045 39.0449 280.35 38.5879C280.629 38.1309 280.883 37.6357 281.111 37.1025C281.365 36.5693 281.581 36.0107 281.759 35.4268C281.962 34.8428 282.127 34.2715 282.254 33.7129C282.381 33.1289 282.47 32.5703 282.521 32.0371L285.644 32.1133L284.653 41.6348L292.004 42.3965ZM332.984 49.29C332.984 50.2295 332.654 51.0547 331.994 51.7656C331.334 52.4512 330.471 53.0605 329.404 53.5938C328.363 54.1016 327.195 54.5332 325.9 54.8887C324.631 55.2441 323.361 55.5361 322.092 55.7646C320.848 55.9932 319.68 56.1709 318.588 56.2979C317.521 56.3994 316.671 56.4629 316.036 56.4883L316.341 64.2578L325.177 67.9141L301.145 68.2188L309.333 63.915L308.99 46.0527L300.002 41.9775L318.321 42.4727C319.007 42.498 319.845 42.5488 320.835 42.625C321.851 42.7012 322.892 42.8408 323.958 43.0439C325.05 43.2217 326.129 43.4756 327.195 43.8057C328.287 44.1104 329.252 44.5166 330.09 45.0244C330.953 45.5068 331.651 46.1035 332.185 46.8145C332.718 47.5 332.984 48.3252 332.984 49.29ZM327.729 49.29C327.729 48.833 327.551 48.4395 327.195 48.1094C326.84 47.7539 326.383 47.4619 325.824 47.2334C325.266 46.9795 324.644 46.7764 323.958 46.624C323.272 46.4463 322.6 46.3193 321.939 46.2432C321.279 46.1416 320.67 46.0781 320.111 46.0527C319.578 46.002 319.159 45.9766 318.854 45.9766C318.271 45.9766 317.674 45.9893 317.064 46.0146C316.455 46.04 315.858 46.0781 315.274 46.1289L315.465 53.1367C315.795 53.1875 316.1 53.2129 316.379 53.2129C316.684 53.2129 316.988 53.2129 317.293 53.2129C317.648 53.2129 318.144 53.2002 318.778 53.1748C319.438 53.124 320.149 53.0479 320.911 52.9463C321.698 52.8193 322.485 52.667 323.272 52.4893C324.085 52.2861 324.821 52.0449 325.481 51.7656C326.142 51.4609 326.675 51.1055 327.081 50.6992C327.513 50.293 327.729 49.8232 327.729 49.29ZM357.017 48.4141C357.017 49.4551 356.699 50.3184 356.064 51.0039C355.43 51.6641 354.579 51.9941 353.513 51.9941C352.726 51.9941 352.116 51.8545 351.685 51.5752C351.253 51.2705 350.885 50.9404 350.58 50.585C350.301 50.2041 350.009 49.874 349.704 49.5947C349.425 49.29 349.019 49.1377 348.485 49.1377C347.546 49.1377 346.797 49.4424 346.238 50.0518C345.68 50.6357 345.261 51.334 344.981 52.1465C344.956 52.1973 344.931 52.4385 344.905 52.8701C344.905 53.3018 344.893 53.8477 344.867 54.5078C344.842 55.168 344.816 55.8916 344.791 56.6787C344.766 57.4658 344.74 58.2148 344.715 58.9258C344.689 59.6367 344.664 60.2715 344.639 60.8301C344.613 61.3633 344.601 61.7188 344.601 61.8965L353.855 65.248L331.842 67.4951C333.162 66.6572 334.482 65.832 335.803 65.0195C337.123 64.1816 338.443 63.3564 339.764 62.5439L338.354 49.252L329.861 46.9668L345.21 43.6152L345.134 47.1191C346.2 46.3828 347.292 45.7607 348.409 45.2529C349.552 44.7197 350.809 44.4531 352.18 44.4531C352.637 44.4531 353.106 44.5039 353.589 44.6055C354.071 44.707 354.528 44.8594 354.96 45.0625C355.392 45.2656 355.772 45.5449 356.103 45.9004C356.433 46.2305 356.674 46.6367 356.826 47.1191C356.953 47.5762 357.017 48.0078 357.017 48.4141ZM382.191 57.7832C382.191 59.5352 381.747 61.0205 380.858 62.2393C379.995 63.4326 378.878 64.4102 377.507 65.1719C376.161 65.9082 374.688 66.4541 373.089 66.8096C371.489 67.1396 369.966 67.3047 368.519 67.3047C367.097 67.3047 365.611 67.127 364.062 66.7715C362.539 66.416 361.13 65.8574 359.835 65.0957C358.565 64.334 357.512 63.3564 356.674 62.1631C355.861 60.9443 355.455 59.4844 355.455 57.7832C355.455 55.9297 355.899 54.3936 356.788 53.1748C357.677 51.9561 358.794 50.9912 360.14 50.2803C361.511 49.5693 363.009 49.0742 364.634 48.7949C366.284 48.5156 367.871 48.376 369.395 48.376C370.791 48.376 372.238 48.5537 373.736 48.9092C375.26 49.2646 376.644 49.8232 377.888 50.585C379.157 51.3213 380.186 52.2861 380.973 53.4795C381.785 54.6729 382.191 56.1074 382.191 57.7832ZM375.907 57.707C375.907 56.793 375.729 55.9551 375.374 55.1934C375.044 54.4316 374.574 53.7715 373.965 53.2129C373.381 52.6543 372.695 52.2227 371.908 51.918C371.121 51.6133 370.283 51.4609 369.395 51.4609C368.48 51.4609 367.566 51.6006 366.652 51.8799C365.738 52.1338 364.913 52.5146 364.177 53.0225C363.44 53.5303 362.844 54.1777 362.387 54.9648C361.93 55.7266 361.701 56.6025 361.701 57.5928C361.701 58.583 361.854 59.4844 362.158 60.2969C362.488 61.1094 362.945 61.8076 363.529 62.3916C364.139 62.9756 364.85 63.4326 365.662 63.7627C366.475 64.0674 367.376 64.2197 368.366 64.2197C369.433 64.2197 370.423 64.1055 371.337 63.877C372.251 63.623 373.051 63.2295 373.736 62.6963C374.422 62.1631 374.955 61.4902 375.336 60.6777C375.717 59.8398 375.907 58.8496 375.907 57.707ZM391.142 42.4727C391.142 43.0312 391.027 43.5518 390.799 44.0342C390.596 44.5166 390.316 44.9482 389.961 45.3291C389.605 45.6846 389.174 45.9639 388.666 46.167C388.184 46.3701 387.663 46.4717 387.104 46.4717C386.546 46.4717 386.013 46.3701 385.505 46.167C385.022 45.9639 384.591 45.6846 384.21 45.3291C383.854 44.9482 383.562 44.5166 383.334 44.0342C383.131 43.5518 383.029 43.0312 383.029 42.4727C383.029 41.9141 383.131 41.3936 383.334 40.9111C383.562 40.4033 383.854 39.9717 384.21 39.6162C384.591 39.2354 385.022 38.9434 385.505 38.7402C386.013 38.5117 386.546 38.3975 387.104 38.3975C387.663 38.3975 388.184 38.5117 388.666 38.7402C389.174 38.9434 389.605 39.2354 389.961 39.6162C390.316 39.9717 390.596 40.4033 390.799 40.9111C391.027 41.3936 391.142 41.9141 391.142 42.4727ZM394.15 70.5801C394.15 72.0781 393.998 73.4238 393.693 74.6172C393.389 75.8105 392.894 76.8262 392.208 77.6641C391.548 78.502 390.672 79.1494 389.58 79.6064C388.488 80.0635 387.155 80.292 385.581 80.292C384.642 80.292 383.715 80.127 382.801 79.7969C381.887 79.4922 381.074 79.0479 380.363 78.4639C379.627 77.9053 379.03 77.2197 378.573 76.4072C378.116 75.5947 377.888 74.6807 377.888 73.665C377.888 72.8018 378.154 72.0908 378.688 71.5322C379.221 70.9736 379.932 70.6943 380.82 70.6943C381.633 70.6943 382.344 70.9609 382.953 71.4941C383.588 72.0273 383.905 72.7256 383.905 73.5889C383.905 74.0205 383.804 74.4141 383.601 74.7695C383.423 75.125 383.169 75.4297 382.839 75.6836C383.118 76.2422 383.461 76.6611 383.867 76.9404C384.299 77.2451 384.832 77.3975 385.467 77.3975C386.127 77.3975 386.66 77.2832 387.066 77.0547C387.498 76.8262 387.828 76.5215 388.057 76.1406C388.311 75.7598 388.476 75.3154 388.552 74.8076C388.653 74.2998 388.704 73.7539 388.704 73.1699C388.704 72.6367 388.679 72.0908 388.628 71.5322C388.577 70.999 388.526 70.4785 388.476 69.9707C388.146 67.0508 387.815 64.1689 387.485 61.3252C387.181 58.4561 386.838 55.5742 386.457 52.6797L379.259 49.6709L392.132 48.1475L393.731 64.1436C393.858 65.2354 393.96 66.3145 394.036 67.3809C394.112 68.4473 394.15 69.5137 394.15 70.5801ZM417.269 60.0684C417.269 60.2461 417.256 60.4238 417.23 60.6016C417.23 60.7793 417.23 60.957 417.23 61.1348L401.729 61.4395C402.06 62.9375 402.809 64.042 403.977 64.7529C405.145 65.4639 406.465 65.8193 407.938 65.8193C408.648 65.8193 409.372 65.7686 410.108 65.667C410.845 65.5654 411.568 65.4004 412.279 65.1719C412.99 64.9434 413.663 64.6514 414.298 64.2959C414.933 63.915 415.504 63.4707 416.012 62.9629C415.732 64.0293 415.263 64.9688 414.603 65.7812C413.942 66.5938 413.155 67.2666 412.241 67.7998C411.353 68.333 410.375 68.7266 409.309 68.9805C408.268 69.2598 407.227 69.3994 406.186 69.3994C404.764 69.3994 403.405 69.1455 402.11 68.6377C400.841 68.1299 399.724 67.4316 398.759 66.543C397.819 65.6543 397.07 64.5879 396.512 63.3438C395.953 62.0996 395.674 60.7412 395.674 59.2686C395.674 57.7197 395.991 56.3105 396.626 55.041C397.261 53.7715 398.099 52.6924 399.14 51.8037C400.181 50.8896 401.387 50.1914 402.758 49.709C404.129 49.2266 405.563 48.9854 407.062 48.9854C408.636 48.9854 410.045 49.2773 411.289 49.8613C412.559 50.4453 413.638 51.2451 414.526 52.2607C415.415 53.2764 416.088 54.457 416.545 55.8027C417.027 57.123 417.269 58.5449 417.269 60.0684ZM411.441 58.126C411.391 57.4404 411.251 56.7803 411.022 56.1455C410.794 55.5107 410.477 54.9521 410.07 54.4697C409.664 53.9873 409.169 53.6064 408.585 53.3271C408.026 53.0225 407.366 52.8701 406.604 52.8701C405.843 52.8701 405.183 53.0098 404.624 53.2891C404.065 53.5684 403.596 53.9492 403.215 54.4316C402.834 54.8887 402.517 55.4346 402.263 56.0693C402.034 56.6787 401.856 57.3135 401.729 57.9736L411.441 58.126ZM440.272 59.2305C440.298 60.8555 440.069 62.3027 439.587 63.5723C439.13 64.8418 438.444 65.9082 437.53 66.7715C436.642 67.6348 435.55 68.2822 434.255 68.7139C432.985 69.1709 431.563 69.3994 429.989 69.3994C428.44 69.3994 426.98 69.1455 425.609 68.6377C424.264 68.1299 423.083 67.4062 422.067 66.4668C421.077 65.5273 420.29 64.4102 419.706 63.1152C419.122 61.8203 418.83 60.373 418.83 58.7734C418.83 57.0977 419.16 55.5742 419.82 54.2031C420.48 52.832 421.369 51.6641 422.486 50.6992C423.604 49.7344 424.886 48.998 426.333 48.4902C427.806 47.957 429.342 47.6904 430.941 47.6904C431.805 47.6904 432.744 47.8301 433.76 48.1094C434.801 48.3887 435.766 48.7949 436.654 49.3281C437.568 49.8613 438.317 50.5215 438.901 51.3086C439.511 52.0957 439.815 53.0098 439.815 54.0508C439.815 55.0156 439.523 55.79 438.939 56.374C438.355 56.958 437.581 57.25 436.616 57.25C435.651 57.25 434.826 56.9834 434.141 56.4502C433.455 55.8916 433.112 55.1172 433.112 54.127C433.112 53.7969 433.138 53.4541 433.188 53.0986C433.265 52.7178 433.392 52.3877 433.569 52.1084C433.138 51.7529 432.668 51.499 432.16 51.3467C431.652 51.1943 431.132 51.1182 430.599 51.1182C429.634 51.1182 428.809 51.3594 428.123 51.8418C427.463 52.2988 426.917 52.8828 426.485 53.5938C426.079 54.3047 425.787 55.1045 425.609 55.9932C425.432 56.8564 425.343 57.6816 425.343 58.4688C425.343 59.459 425.495 60.373 425.8 61.2109C426.104 62.0234 426.549 62.7344 427.133 63.3438C427.717 63.9277 428.415 64.3975 429.228 64.7529C430.04 65.083 430.967 65.248 432.008 65.248C432.922 65.248 433.785 65.0703 434.598 64.7148C435.41 64.3594 436.159 63.9023 436.845 63.3438C437.53 62.7598 438.152 62.1123 438.711 61.4014C439.295 60.6904 439.815 59.9668 440.272 59.2305ZM457.754 42.3965L457.411 45.9766C456.167 45.875 454.936 45.7861 453.717 45.71C452.498 45.6084 451.267 45.4941 450.022 45.3672C449.819 47.7793 449.604 50.1787 449.375 52.5654C449.146 54.9521 448.918 57.3516 448.689 59.7637C448.689 59.8906 448.677 60.0176 448.651 60.1445C448.626 60.2715 448.613 60.3984 448.613 60.5254C448.613 60.8809 448.651 61.249 448.728 61.6299C448.804 61.9854 448.931 62.3154 449.108 62.6201C449.286 62.8994 449.515 63.1406 449.794 63.3438C450.099 63.5215 450.467 63.6104 450.898 63.6104C451.736 63.6104 452.473 63.4199 453.107 63.0391C453.742 62.6328 454.275 62.125 454.707 61.5156C455.139 60.9062 455.481 60.2334 455.735 59.4971C455.989 58.7354 456.154 57.9863 456.23 57.25C456.535 58.4434 456.688 59.624 456.688 60.792C456.688 61.9092 456.51 62.9248 456.154 63.8389C455.799 64.7275 455.304 65.502 454.669 66.1621C454.034 66.7969 453.272 67.292 452.384 67.6475C451.495 68.0029 450.518 68.1807 449.451 68.1807C448.334 68.1807 447.356 67.9902 446.519 67.6094C445.681 67.2285 444.982 66.708 444.424 66.0479C443.891 65.3623 443.484 64.5625 443.205 63.6484C442.951 62.7344 442.824 61.7568 442.824 60.7158C442.824 60.5127 442.824 60.3223 442.824 60.1445C442.824 59.9668 442.837 59.7764 442.862 59.5732C443.065 57.1104 443.256 54.6855 443.434 52.2988C443.637 49.8867 443.814 47.4492 443.967 44.9863C443.281 44.9355 442.596 44.8848 441.91 44.834C441.25 44.7578 440.577 44.6816 439.892 44.6055L440.044 41.5967C440.577 41.5713 441.136 41.4824 441.72 41.3301C442.304 41.1777 442.862 40.9746 443.396 40.7207C443.954 40.4668 444.462 40.1621 444.919 39.8066C445.401 39.4512 445.795 39.0449 446.1 38.5879C446.379 38.1309 446.633 37.6357 446.861 37.1025C447.115 36.5693 447.331 36.0107 447.509 35.4268C447.712 34.8428 447.877 34.2715 448.004 33.7129C448.131 33.1289 448.22 32.5703 448.271 32.0371L451.394 32.1133L450.403 41.6348L457.754 42.3965ZM497.135 41.1777L495.535 54.584L492.298 44.4531L487.232 44.377L486.623 63.5723L495.23 67.7236L472.341 67.4951L480.682 63.3818L480.148 44.3008L475.426 44.2627L471.96 54.5078L470.817 40.7969L497.135 41.1777ZM517.968 60.0684C517.968 60.2461 517.955 60.4238 517.93 60.6016C517.93 60.7793 517.93 60.957 517.93 61.1348L502.429 61.4395C502.759 62.9375 503.508 64.042 504.676 64.7529C505.844 65.4639 507.164 65.8193 508.637 65.8193C509.348 65.8193 510.071 65.7686 510.808 65.667C511.544 65.5654 512.268 65.4004 512.979 65.1719C513.689 64.9434 514.362 64.6514 514.997 64.2959C515.632 63.915 516.203 63.4707 516.711 62.9629C516.432 64.0293 515.962 64.9688 515.302 65.7812C514.642 66.5938 513.854 67.2666 512.94 67.7998C512.052 68.333 511.074 68.7266 510.008 68.9805C508.967 69.2598 507.926 69.3994 506.885 69.3994C505.463 69.3994 504.104 69.1455 502.81 68.6377C501.54 68.1299 500.423 67.4316 499.458 66.543C498.519 65.6543 497.77 64.5879 497.211 63.3438C496.652 62.0996 496.373 60.7412 496.373 59.2686C496.373 57.7197 496.69 56.3105 497.325 55.041C497.96 53.7715 498.798 52.6924 499.839 51.8037C500.88 50.8896 502.086 50.1914 503.457 49.709C504.828 49.2266 506.263 48.9854 507.761 48.9854C509.335 48.9854 510.744 49.2773 511.988 49.8613C513.258 50.4453 514.337 51.2451 515.226 52.2607C516.114 53.2764 516.787 54.457 517.244 55.8027C517.727 57.123 517.968 58.5449 517.968 60.0684ZM512.141 58.126C512.09 57.4404 511.95 56.7803 511.722 56.1455C511.493 55.5107 511.176 54.9521 510.77 54.4697C510.363 53.9873 509.868 53.6064 509.284 53.3271C508.726 53.0225 508.065 52.8701 507.304 52.8701C506.542 52.8701 505.882 53.0098 505.323 53.2891C504.765 53.5684 504.295 53.9492 503.914 54.4316C503.533 54.8887 503.216 55.4346 502.962 56.0693C502.733 56.6787 502.556 57.3135 502.429 57.9736L512.141 58.126ZM543.371 67.3809L531.298 67.876L531.564 65.7432C530.752 65.8447 529.939 65.9082 529.127 65.9336C528.314 65.9336 527.502 65.9336 526.689 65.9336C525.953 65.9336 525.141 65.8447 524.252 65.667C523.363 65.4893 522.538 65.21 521.776 64.8291C521.015 64.4229 520.38 63.9023 519.872 63.2676C519.364 62.6328 519.11 61.8584 519.11 60.9443C519.11 59.9287 519.352 59.0654 519.834 58.3545C520.316 57.6436 520.926 57.0723 521.662 56.6406C522.424 56.209 523.262 55.8916 524.176 55.6885C525.09 55.4854 525.979 55.3838 526.842 55.3838C527.908 55.3838 528.949 55.4346 529.965 55.5361C530.98 55.6377 532.009 55.7266 533.05 55.8027C533.101 55.4727 533.139 55.1426 533.164 54.8125C533.189 54.457 533.202 54.1016 533.202 53.7461C533.202 53.0605 533.139 52.3877 533.012 51.7275C532.91 51.0674 532.707 50.4834 532.402 49.9756C532.123 49.4424 531.717 49.0234 531.184 48.7188C530.676 48.4141 530.016 48.2617 529.203 48.2617C528.441 48.2617 527.743 48.3887 527.108 48.6426C526.499 48.8711 525.953 49.2773 525.471 49.8613C525.826 50.1406 526.067 50.458 526.194 50.8135C526.321 51.1436 526.385 51.5244 526.385 51.9561V52.1846C526.004 53.9619 524.887 54.8506 523.033 54.8506C522.195 54.8506 521.51 54.5586 520.977 53.9746C520.443 53.3652 520.177 52.6543 520.177 51.8418C520.177 50.7246 520.494 49.7598 521.129 48.9473C521.764 48.1348 522.538 47.4619 523.452 46.9287C524.392 46.3955 525.395 46.002 526.461 45.748C527.553 45.4941 528.556 45.3672 529.47 45.3672C532.39 45.3672 534.662 46.04 536.287 47.3857C537.938 48.7314 538.763 50.9277 538.763 53.9746C538.763 54.3047 538.75 54.6348 538.725 54.9648C538.725 55.2949 538.712 55.625 538.687 55.9551L537.772 64.7148C538.737 65.1465 539.677 65.5908 540.591 66.0479C541.505 66.5049 542.432 66.9492 543.371 67.3809ZM532.631 58.3545C531.971 58.2783 531.311 58.2021 530.65 58.126C529.99 58.0244 529.33 57.9736 528.67 57.9736C528.238 57.9736 527.807 58.0244 527.375 58.126C526.969 58.2021 526.588 58.3418 526.232 58.5449C525.902 58.748 525.636 59.0273 525.433 59.3828C525.229 59.7129 525.128 60.1318 525.128 60.6396C525.128 61.0205 525.217 61.3633 525.395 61.668C525.572 61.9473 525.801 62.1885 526.08 62.3916C526.385 62.5947 526.702 62.7471 527.032 62.8486C527.388 62.9502 527.73 63.001 528.061 63.001C528.721 63.001 529.381 62.9629 530.041 62.8867C530.727 62.8105 531.387 62.7344 532.021 62.6582L532.631 58.3545ZM582.409 62.9629L566.756 62.2773L571.859 59.8018C571.91 59.0146 571.948 58.2402 571.974 57.4785C572.024 56.6914 572.05 55.9043 572.05 55.1172C572.05 54.457 571.999 53.873 571.897 53.3652C571.796 52.832 571.618 52.3877 571.364 52.0322C571.11 51.6514 570.742 51.3594 570.26 51.1562C569.803 50.9531 569.219 50.8516 568.508 50.8516C567.898 50.8516 567.353 50.9912 566.87 51.2705C566.388 51.5498 565.969 51.918 565.613 52.375C565.283 52.8066 565.017 53.3018 564.813 53.8604C564.636 54.3936 564.521 54.9395 564.471 55.498C564.344 56.5645 564.229 57.6436 564.128 58.7354C564.026 59.8271 563.925 60.9062 563.823 61.9727L568.889 64.4863L552.359 64.6006L559.481 61.8584V55.0029C559.481 54.3428 559.367 53.708 559.139 53.0986C558.91 52.4639 558.58 51.918 558.148 51.4609C557.768 51.1055 557.336 50.877 556.854 50.7754C556.396 50.6484 555.914 50.585 555.406 50.585C554.721 50.585 553.984 50.6992 553.197 50.9277C552.436 51.1562 551.864 51.5879 551.483 52.2227L550.646 59.6113L555.673 62.3916L540.02 62.4678L546.418 59.8398L545.275 50.6611C544.539 50.458 543.688 50.2295 542.724 49.9756C541.759 49.6963 540.832 49.417 539.943 49.1377C538.928 48.833 537.874 48.5156 536.782 48.1855L551.902 45.6719L551.712 47.9951C552.702 47.3604 553.718 46.9287 554.759 46.7002C555.825 46.4717 556.892 46.3574 557.958 46.3574C559.05 46.3574 560.027 46.5859 560.891 47.043C561.754 47.4746 562.566 48.0586 563.328 48.7949C564.445 48.2109 565.639 47.6904 566.908 47.2334C568.178 46.7764 569.46 46.5479 570.755 46.5479C571.872 46.5479 572.837 46.7256 573.649 47.0811C574.487 47.4365 575.173 47.9443 575.706 48.6045C576.239 49.2393 576.633 50.001 576.887 50.8896C577.166 51.7529 577.306 52.7178 577.306 53.7842C577.306 54.2666 577.268 54.8506 577.191 55.5361C577.141 56.1963 577.077 56.8564 577.001 57.5166C576.899 58.2783 576.811 59.0654 576.734 59.8779L582.409 62.9629Z" fill="#FF9F9F"/>
<path d="M22.4382 113.595L18.5502 124.171L17.1102 124.987L14.5022 117.211L12.0062 124.171L10.5662 124.987L6.4862 113.627L4.9662 112.667L5.2542 112.107H9.4782V112.523L8.3102 113.419L11.6702 122.971L14.1502 116.123L13.3022 113.579L11.8142 112.651L12.0862 112.091H16.6142V112.507L15.2382 113.643L18.2302 122.923L21.6222 113.563L18.7102 112.651L18.9982 112.091H23.7982V112.523L22.4382 113.595ZM28.7664 124.715C28.3718 124.79 27.9078 124.827 27.3744 124.827C26.6918 124.827 26.0731 124.646 25.5184 124.283C24.9744 123.92 24.5478 123.424 24.2384 122.795C23.9291 122.166 23.7744 121.472 23.7744 120.715C23.7744 119.894 24.0198 119.12 24.5104 118.395C25.0011 117.67 25.6144 117.094 26.3504 116.667C27.0971 116.24 27.8171 116.027 28.5104 116.027C29.4918 116.027 30.2544 116.422 30.7984 117.211C31.3531 118 31.6358 119.035 31.6464 120.315H25.7104C25.7638 121.264 26.0091 122.048 26.4464 122.667C26.8944 123.275 27.5131 123.579 28.3024 123.579C28.9958 123.579 29.9611 123.008 31.1984 121.867L31.6784 122.427L28.7664 124.715ZM27.5824 117.275C26.3878 117.275 25.7638 118.096 25.7104 119.739H29.5824C29.4758 119.131 29.3691 118.672 29.2624 118.363C29.1664 118.043 28.9851 117.782 28.7184 117.579C28.4624 117.376 28.0784 117.275 27.5664 117.275H27.5824ZM43.5477 124.715C43.153 124.79 42.689 124.827 42.1557 124.827C41.473 124.827 40.8544 124.646 40.2997 124.283C39.7557 123.92 39.329 123.424 39.0197 122.795C38.7104 122.166 38.5557 121.472 38.5557 120.715C38.5557 119.894 38.801 119.12 39.2917 118.395C39.7824 117.67 40.3957 117.094 41.1317 116.667C41.8784 116.24 42.5984 116.027 43.2917 116.027C44.273 116.027 45.0357 116.422 45.5797 117.211C46.1344 118 46.417 119.035 46.4277 120.315H40.4917C40.545 121.264 40.7904 122.048 41.2277 122.667C41.6757 123.275 42.2944 123.579 43.0837 123.579C43.777 123.579 44.7424 123.008 45.9797 121.867L46.4597 122.427L43.5477 124.715ZM42.3637 117.275C41.169 117.275 40.545 118.096 40.4917 119.739H44.3637C44.257 119.131 44.1504 118.672 44.0437 118.363C43.9477 118.043 43.7664 117.782 43.4997 117.579C43.2437 117.376 42.8597 117.275 42.3477 117.275H42.3637ZM56.6941 124.667H53.7821V123.275L51.9741 124.699C51.7607 124.784 51.4941 124.827 51.1741 124.827C50.2781 124.827 49.6274 124.603 49.2221 124.155C48.8274 123.707 48.6301 123.168 48.6301 122.539C48.6301 122.155 48.7687 121.782 49.0461 121.419C49.3234 121.046 49.7234 120.694 50.2461 120.363H53.7821V119.195C53.7821 118.48 53.5901 117.979 53.2061 117.691C52.8327 117.403 52.3154 117.259 51.6541 117.259C51.0034 117.259 50.2247 117.68 49.3181 118.523L48.8381 117.979L51.1581 116.139C51.5741 116.064 52.0647 116.027 52.6301 116.027C53.5474 116.027 54.2621 116.262 54.7741 116.731C55.2861 117.19 55.5421 117.856 55.5421 118.731V123.547L56.9821 124.107L56.6941 124.667ZM51.6221 123.627C52.2941 123.627 53.0141 123.312 53.7821 122.683V120.939H50.9021C50.7421 121.12 50.6301 121.302 50.5661 121.483C50.5127 121.664 50.4861 121.867 50.4861 122.091C50.4861 122.507 50.5874 122.87 50.7901 123.179C51.0034 123.478 51.2807 123.627 51.6221 123.627ZM65.1469 117.227C65.4776 117.675 65.6429 118.182 65.6429 118.747C65.6429 119.227 65.5096 119.696 65.2429 120.155C64.9763 120.603 64.6189 121.003 64.1709 121.355C63.7229 121.696 63.2323 121.942 62.6989 122.091C62.4216 122.368 62.2829 122.667 62.2829 122.987C62.2829 123.168 62.4163 123.334 62.6829 123.483C62.9603 123.632 63.3976 123.824 63.9949 124.059C64.7736 124.358 65.3656 124.63 65.7709 124.875C66.1763 125.12 66.3789 125.424 66.3789 125.787C66.3789 126.107 66.1709 126.518 65.7549 127.019C65.3496 127.52 64.8429 127.952 64.2349 128.315C63.6376 128.688 63.0616 128.875 62.5069 128.875C61.9203 128.875 61.2269 128.774 60.4269 128.571C59.6269 128.368 58.9603 128.166 58.4269 127.963V125.579H58.9549C59.5736 126.326 60.1976 126.891 60.8269 127.275C61.4669 127.659 62.1869 127.851 62.9869 127.851C63.2856 127.851 63.5576 127.787 63.8029 127.659C64.0483 127.542 64.2403 127.387 64.3789 127.195C64.5176 127.003 64.5869 126.822 64.5869 126.651C64.5869 126.363 64.4056 126.107 64.0429 125.883C63.6909 125.659 63.1683 125.403 62.4749 125.115C61.7923 124.838 61.2856 124.603 60.9549 124.411C60.6349 124.208 60.4749 123.974 60.4749 123.707C60.4749 123.451 60.6403 123.19 60.9709 122.923C61.3016 122.656 61.6909 122.422 62.1389 122.219C61.9683 122.251 61.7923 122.267 61.6109 122.267C61.0669 122.267 60.5656 122.144 60.1069 121.899C59.6483 121.654 59.2856 121.323 59.0189 120.907C58.7629 120.491 58.6349 120.038 58.6349 119.547C58.6349 118.96 58.8323 118.395 59.2269 117.851C59.6216 117.307 60.1336 116.87 60.7629 116.539C61.3923 116.198 62.0376 116.027 62.6989 116.027C63.4243 116.027 64.0589 116.24 64.6029 116.667H67.0989L67.0829 117.227H65.1469ZM62.5069 121.003C63.5416 121.003 64.0589 120.502 64.0589 119.499C64.0589 118.838 63.8456 118.299 63.4189 117.883C62.9923 117.467 62.4323 117.259 61.7389 117.259C61.2376 117.259 60.8536 117.382 60.5869 117.627C60.3309 117.872 60.2029 118.246 60.2029 118.747C60.2029 119.419 60.4163 119.963 60.8429 120.379C61.2696 120.795 61.8243 121.003 62.5069 121.003ZM73.4383 124.715C73.0437 124.79 72.5797 124.827 72.0463 124.827C71.3637 124.827 70.745 124.646 70.1903 124.283C69.6463 123.92 69.2197 123.424 68.9103 122.795C68.601 122.166 68.4463 121.472 68.4463 120.715C68.4463 119.894 68.6917 119.12 69.1823 118.395C69.673 117.67 70.2863 117.094 71.0223 116.667C71.769 116.24 72.489 116.027 73.1823 116.027C74.1637 116.027 74.9263 116.422 75.4703 117.211C76.025 118 76.3077 119.035 76.3183 120.315H70.3823C70.4357 121.264 70.681 122.048 71.1183 122.667C71.5663 123.275 72.185 123.579 72.9743 123.579C73.6677 123.579 74.633 123.008 75.8703 121.867L76.3503 122.427L73.4383 124.715ZM72.2543 117.275C71.0597 117.275 70.4357 118.096 70.3823 119.739H74.2543C74.1477 119.131 74.041 118.672 73.9343 118.363C73.8383 118.043 73.657 117.782 73.3903 117.579C73.1343 117.376 72.7503 117.275 72.2383 117.275H72.2543ZM84.1207 116.043C84.4194 116.043 84.6914 116.134 84.9367 116.315C85.182 116.496 85.3794 116.747 85.5287 117.067L84.5527 118.283H84.0247C83.982 118.048 83.902 117.878 83.7847 117.771C83.678 117.664 83.5287 117.611 83.3367 117.611C83.0807 117.611 82.8194 117.675 82.5527 117.803C82.286 117.931 81.9767 118.187 81.6247 118.571V123.435L83.8167 124.123L83.5447 124.683H78.4407V124.267L79.8647 123.163V118.459L78.4407 117.643V117.227L81.0487 115.883L81.5287 117.899L83.2247 116.155C83.4594 116.07 83.7634 116.027 84.1367 116.027L84.1207 116.043ZM90.5973 124.683H86.2613V124.267L87.6853 123.163V113.099L86.2613 112.091V111.675L88.9173 110.699H89.4453V123.531L90.8853 124.123L90.5973 124.683ZM100.665 116.587L96.6331 124.651L93.3851 128.875L92.8571 128.459C93.4757 127.808 93.9451 127.238 94.2651 126.747C94.5851 126.256 94.8091 125.76 94.9371 125.259C95.0651 124.758 95.1237 124.16 95.1131 123.467L93.0651 118.491L91.6091 117.643V117.227L94.1851 115.883L94.7931 118.299L96.7771 123.179L99.1131 118.299L97.0171 116.747L97.2891 116.187L100.665 116.171V116.587ZM114.944 124.667H112.032V123.275L110.224 124.699C110.011 124.784 109.744 124.827 109.424 124.827C108.528 124.827 107.877 124.603 107.472 124.155C107.077 123.707 106.88 123.168 106.88 122.539C106.88 122.155 107.019 121.782 107.296 121.419C107.573 121.046 107.973 120.694 108.496 120.363H112.032V119.195C112.032 118.48 111.84 117.979 111.456 117.691C111.083 117.403 110.565 117.259 109.904 117.259C109.253 117.259 108.475 117.68 107.568 118.523L107.088 117.979L109.408 116.139C109.824 116.064 110.315 116.027 110.88 116.027C111.797 116.027 112.512 116.262 113.024 116.731C113.536 117.19 113.792 117.856 113.792 118.731V123.547L115.232 124.107L114.944 124.667ZM109.872 123.627C110.544 123.627 111.264 123.312 112.032 122.683V120.939H109.152C108.992 121.12 108.88 121.302 108.816 121.483C108.763 121.664 108.736 121.867 108.736 122.091C108.736 122.507 108.837 122.87 109.04 123.179C109.253 123.478 109.531 123.627 109.872 123.627ZM129.269 116.603L125.733 124.667H124.677L122.949 120.475L120.853 124.667H119.797L117.253 118.491L115.797 117.643V117.227L118.373 115.883L118.981 118.299L120.965 123.163L122.597 119.611L122.133 118.491L120.677 117.643V117.227L123.253 115.883L123.861 118.299L125.797 123.035L127.765 118.363L125.557 116.747L125.845 116.187H129.269V116.603ZM138.647 124.667H135.735V123.275L133.927 124.699C133.714 124.784 133.447 124.827 133.127 124.827C132.231 124.827 131.581 124.603 131.175 124.155C130.781 123.707 130.583 123.168 130.583 122.539C130.583 122.155 130.722 121.782 130.999 121.419C131.277 121.046 131.677 120.694 132.199 120.363H135.735V119.195C135.735 118.48 135.543 117.979 135.159 117.691C134.786 117.403 134.269 117.259 133.607 117.259C132.957 117.259 132.178 117.68 131.271 118.523L130.791 117.979L133.111 116.139C133.527 116.064 134.018 116.027 134.583 116.027C135.501 116.027 136.215 116.262 136.727 116.731C137.239 117.19 137.495 117.856 137.495 118.731V123.547L138.935 124.107L138.647 124.667ZM133.575 123.627C134.247 123.627 134.967 123.312 135.735 122.683V120.939H132.855C132.695 121.12 132.583 121.302 132.519 121.483C132.466 121.664 132.439 121.867 132.439 122.091C132.439 122.507 132.541 122.87 132.743 123.179C132.957 123.478 133.234 123.627 133.575 123.627ZM144.636 124.667H140.3V124.251L141.724 123.147V118.283L140.3 117.275V116.859L142.956 115.883H143.484V123.531L144.924 124.107L144.636 124.667ZM142.524 111.099C142.823 111.099 143.063 111.211 143.244 111.435C143.436 111.659 143.532 111.936 143.532 112.267C143.532 112.502 143.463 112.726 143.324 112.939C143.196 113.142 143.025 113.307 142.812 113.435C142.609 113.552 142.412 113.611 142.22 113.611C141.932 113.611 141.692 113.499 141.5 113.275C141.308 113.04 141.212 112.758 141.212 112.427C141.212 112.192 141.276 111.974 141.404 111.771C141.543 111.568 141.713 111.408 141.916 111.291C142.129 111.163 142.332 111.099 142.524 111.099ZM150.84 124.699C150.616 124.784 150.344 124.827 150.024 124.827C149.16 124.827 148.531 124.598 148.136 124.139C147.742 123.67 147.544 122.95 147.544 121.979V117.243H145.816V116.635L148.776 113.131H149.304V116.667H152.184V117.243H149.304V122.235C149.304 123.12 149.72 123.563 150.552 123.563C150.776 123.563 150.99 123.515 151.192 123.419C151.406 123.323 151.667 123.142 151.976 122.875L152.456 123.419L150.84 124.699ZM166.431 116.587L162.399 124.651L159.151 128.875L158.623 128.459C159.241 127.808 159.711 127.238 160.031 126.747C160.351 126.256 160.575 125.76 160.703 125.259C160.831 124.758 160.889 124.16 160.879 123.467L158.831 118.491L157.375 117.643V117.227L159.951 115.883L160.559 118.299L162.543 123.179L164.879 118.299L162.783 116.747L163.055 116.187L166.431 116.171V116.587ZM172.51 116.027C173.204 116.027 173.822 116.214 174.366 116.587C174.91 116.95 175.337 117.446 175.646 118.075C175.956 118.704 176.11 119.398 176.11 120.155C176.11 120.976 175.865 121.75 175.374 122.475C174.884 123.19 174.265 123.76 173.518 124.187C172.782 124.614 172.068 124.827 171.374 124.827C170.692 124.827 170.073 124.646 169.518 124.283C168.974 123.92 168.548 123.424 168.238 122.795C167.929 122.166 167.774 121.472 167.774 120.715C167.774 119.894 168.02 119.12 168.51 118.395C169.001 117.67 169.614 117.094 170.35 116.667C171.097 116.24 171.817 116.027 172.51 116.027ZM171.582 117.275C170.313 117.275 169.678 118.166 169.678 119.947C169.678 120.982 169.902 121.846 170.35 122.539C170.798 123.232 171.449 123.579 172.302 123.579C173.561 123.579 174.19 122.688 174.19 120.907C174.19 119.872 173.966 119.008 173.518 118.315C173.07 117.622 172.425 117.275 171.582 117.275ZM187.112 124.667H184.184V122.939L182.104 124.699C181.88 124.784 181.592 124.827 181.24 124.827C180.525 124.827 179.96 124.608 179.544 124.171C179.138 123.723 178.936 123.12 178.936 122.363V118.459L177.512 117.627V117.211L180.168 115.867H180.696V121.643C180.696 122.251 180.786 122.672 180.968 122.907C181.16 123.142 181.496 123.259 181.976 123.259C182.317 123.259 182.653 123.195 182.984 123.067C183.325 122.928 183.725 122.662 184.184 122.267V118.459L182.76 117.627V117.211L185.416 115.867H185.944V123.531L187.384 124.107L187.112 124.667ZM194.621 116.043C194.919 116.043 195.191 116.134 195.437 116.315C195.682 116.496 195.879 116.747 196.029 117.067L195.053 118.283H194.525C194.482 118.048 194.402 117.878 194.285 117.771C194.178 117.664 194.029 117.611 193.837 117.611C193.581 117.611 193.319 117.675 193.053 117.803C192.786 117.931 192.477 118.187 192.125 118.571V123.435L194.317 124.123L194.045 124.683H188.941V124.267L190.365 123.163V118.459L188.941 117.643V117.227L191.549 115.883L192.029 117.899L193.725 116.155C193.959 116.07 194.263 116.027 194.637 116.027L194.621 116.043ZM206.012 124.699C205.788 124.784 205.516 124.827 205.196 124.827C204.332 124.827 203.703 124.598 203.308 124.139C202.914 123.67 202.716 122.95 202.716 121.979V117.243H200.988V116.635L203.948 113.131H204.476V116.667H207.356V117.243H204.476V122.235C204.476 123.12 204.892 123.563 205.724 123.563C205.948 123.563 206.162 123.515 206.364 123.419C206.578 123.323 206.839 123.142 207.148 122.875L207.628 123.419L206.012 124.699ZM216.96 124.667H214.048V123.275L212.24 124.699C212.026 124.784 211.76 124.827 211.44 124.827C210.544 124.827 209.893 124.603 209.488 124.155C209.093 123.707 208.896 123.168 208.896 122.539C208.896 122.155 209.034 121.782 209.312 121.419C209.589 121.046 209.989 120.694 210.512 120.363H214.048V119.195C214.048 118.48 213.856 117.979 213.472 117.691C213.098 117.403 212.581 117.259 211.92 117.259C211.269 117.259 210.49 117.68 209.584 118.523L209.104 117.979L211.424 116.139C211.84 116.064 212.33 116.027 212.896 116.027C213.813 116.027 214.528 116.262 215.04 116.731C215.552 117.19 215.808 117.856 215.808 118.731V123.547L217.248 124.107L216.96 124.667ZM211.888 123.627C212.56 123.627 213.28 123.312 214.048 122.683V120.939H211.168C211.008 121.12 210.896 121.302 210.832 121.483C210.778 121.664 210.752 121.867 210.752 122.091C210.752 122.507 210.853 122.87 211.056 123.179C211.269 123.478 211.546 123.627 211.888 123.627ZM222.629 124.683H218.293V124.267L219.717 123.163V113.099L218.293 112.091V111.675L220.949 110.699H221.477V123.531L222.917 124.123L222.629 124.683ZM229.688 124.715C229.294 124.79 228.83 124.827 228.296 124.827C227.614 124.827 226.995 124.646 226.44 124.283C225.896 123.92 225.47 123.424 225.16 122.795C224.851 122.166 224.696 121.472 224.696 120.715C224.696 119.894 224.942 119.12 225.432 118.395C225.923 117.67 226.536 117.094 227.272 116.667C228.019 116.24 228.739 116.027 229.432 116.027C230.414 116.027 231.176 116.422 231.72 117.211C232.275 118 232.558 119.035 232.568 120.315H226.632C226.686 121.264 226.931 122.048 227.368 122.667C227.816 123.275 228.435 123.579 229.224 123.579C229.918 123.579 230.883 123.008 232.12 121.867L232.6 122.427L229.688 124.715ZM228.504 117.275C227.31 117.275 226.686 118.096 226.632 119.739H230.504C230.398 119.131 230.291 118.672 230.184 118.363C230.088 118.043 229.907 117.782 229.64 117.579C229.384 117.376 229 117.275 228.488 117.275H228.504ZM244.467 124.683H241.555V119.227C241.555 118.619 241.459 118.198 241.267 117.963C241.075 117.728 240.739 117.611 240.259 117.611C239.885 117.611 239.517 117.68 239.155 117.819C238.803 117.947 238.376 118.214 237.875 118.619V123.547L239.315 124.123L239.027 124.683H234.691V124.267L236.115 123.163V118.459L234.691 117.643V117.227L237.299 115.883L237.811 118.011L240.147 116.155C240.371 116.07 240.653 116.027 240.995 116.027C241.709 116.027 242.275 116.251 242.691 116.699C243.107 117.136 243.315 117.734 243.315 118.491V123.531L244.755 124.123L244.467 124.683ZM250.497 124.699C250.273 124.784 250.001 124.827 249.681 124.827C248.817 124.827 248.187 124.598 247.793 124.139C247.398 123.67 247.201 122.95 247.201 121.979V117.243H245.473V116.635L248.433 113.131H248.961V116.667H251.841V117.243H248.961V122.235C248.961 123.12 249.377 123.563 250.209 123.563C250.433 123.563 250.646 123.515 250.849 123.419C251.062 123.323 251.323 123.142 251.633 122.875L252.113 123.419L250.497 124.699ZM258.407 124.715C258.012 124.79 257.548 124.827 257.015 124.827C256.332 124.827 255.714 124.646 255.159 124.283C254.615 123.92 254.188 123.424 253.879 122.795C253.57 122.166 253.415 121.472 253.415 120.715C253.415 119.894 253.66 119.12 254.151 118.395C254.642 117.67 255.255 117.094 255.991 116.667C256.738 116.24 257.458 116.027 258.151 116.027C259.132 116.027 259.895 116.422 260.439 117.211C260.994 118 261.276 119.035 261.287 120.315H255.351C255.404 121.264 255.65 122.048 256.087 122.667C256.535 123.275 257.154 123.579 257.943 123.579C258.636 123.579 259.602 123.008 260.839 121.867L261.319 122.427L258.407 124.715ZM257.223 117.275C256.028 117.275 255.404 118.096 255.351 119.739H259.223C259.116 119.131 259.01 118.672 258.903 118.363C258.807 118.043 258.626 117.782 258.359 117.579C258.103 117.376 257.719 117.275 257.207 117.275H257.223ZM272.961 124.667H270.049V123.515L268.561 124.699C268.22 124.784 267.809 124.827 267.329 124.827C266.625 124.827 265.991 124.646 265.425 124.283C264.871 123.92 264.433 123.424 264.113 122.795C263.804 122.166 263.649 121.472 263.649 120.715C263.649 119.894 263.895 119.12 264.385 118.395C264.876 117.67 265.489 117.094 266.225 116.667C266.972 116.24 267.692 116.027 268.385 116.027C269.004 116.027 269.559 116.208 270.049 116.571V113.099L268.625 112.091V111.675L271.281 110.699H271.809V123.531L273.249 124.107L272.961 124.667ZM268.081 123.611C268.412 123.611 268.727 123.563 269.025 123.467C269.324 123.371 269.665 123.184 270.049 122.907V119.147C269.985 118.603 269.729 118.155 269.281 117.803C268.833 117.451 268.225 117.275 267.457 117.275C266.199 117.275 265.569 118.166 265.569 119.947C265.569 120.982 265.788 121.856 266.225 122.571C266.663 123.275 267.287 123.627 268.097 123.627L268.081 123.611ZM283.815 116.027C284.242 116.027 284.733 116.091 285.287 116.219C285.853 116.336 286.263 116.47 286.519 116.619V118.987H285.991C285.565 118.454 285.079 118.038 284.535 117.739C283.991 117.43 283.431 117.275 282.855 117.275C281.831 117.275 281.319 118.166 281.319 119.947C281.319 120.982 281.543 121.846 281.991 122.539C282.439 123.232 283.085 123.579 283.927 123.579C284.525 123.579 285.362 123.126 286.439 122.219L286.919 122.763L284.407 124.715C284.013 124.79 283.543 124.827 282.999 124.827C282.317 124.827 281.698 124.646 281.143 124.283C280.599 123.92 280.173 123.424 279.863 122.795C279.554 122.166 279.399 121.472 279.399 120.715C279.399 119.894 279.623 119.12 280.071 118.395C280.53 117.67 281.106 117.094 281.799 116.667C282.493 116.24 283.165 116.027 283.815 116.027ZM293.87 116.027C294.563 116.027 295.182 116.214 295.726 116.587C296.27 116.95 296.696 117.446 297.006 118.075C297.315 118.704 297.47 119.398 297.47 120.155C297.47 120.976 297.224 121.75 296.734 122.475C296.243 123.19 295.624 123.76 294.878 124.187C294.142 124.614 293.427 124.827 292.734 124.827C292.051 124.827 291.432 124.646 290.878 124.283C290.334 123.92 289.907 123.424 289.598 122.795C289.288 122.166 289.134 121.472 289.134 120.715C289.134 119.894 289.379 119.12 289.87 118.395C290.36 117.67 290.974 117.094 291.71 116.667C292.456 116.24 293.176 116.027 293.87 116.027ZM292.942 117.275C291.672 117.275 291.038 118.166 291.038 119.947C291.038 120.982 291.262 121.846 291.71 122.539C292.158 123.232 292.808 123.579 293.662 123.579C294.92 123.579 295.55 122.688 295.55 120.907C295.55 119.872 295.326 119.008 294.878 118.315C294.43 117.622 293.784 117.275 292.942 117.275ZM309.326 124.683H306.414V119.227C306.414 118.619 306.318 118.198 306.126 117.963C305.934 117.728 305.598 117.611 305.118 117.611C304.745 117.611 304.377 117.68 304.014 117.819C303.662 117.947 303.235 118.214 302.734 118.619V123.547L304.174 124.123L303.886 124.683H299.55V124.267L300.974 123.163V118.459L299.55 117.643V117.227L302.158 115.883L302.67 118.011L305.006 116.155C305.23 116.07 305.513 116.027 305.854 116.027C306.569 116.027 307.134 116.251 307.55 116.699C307.966 117.136 308.174 117.734 308.174 118.491V123.531L309.614 124.123L309.326 124.683ZM315.356 124.699C315.132 124.784 314.86 124.827 314.54 124.827C313.676 124.827 313.047 124.598 312.652 124.139C312.257 123.67 312.06 122.95 312.06 121.979V117.243H310.332V116.635L313.292 113.131H313.82V116.667H316.7V117.243H313.82V122.235C313.82 123.12 314.236 123.563 315.068 123.563C315.292 123.563 315.505 123.515 315.708 123.419C315.921 123.323 316.183 123.142 316.492 122.875L316.972 123.419L315.356 124.699ZM323.839 116.043C324.138 116.043 324.41 116.134 324.655 116.315C324.901 116.496 325.098 116.747 325.247 117.067L324.271 118.283H323.743C323.701 118.048 323.621 117.878 323.503 117.771C323.397 117.664 323.247 117.611 323.055 117.611C322.799 117.611 322.538 117.675 322.271 117.803C322.005 117.931 321.695 118.187 321.343 118.571V123.435L323.535 124.123L323.263 124.683H318.159V124.267L319.583 123.163V118.459L318.159 117.643V117.227L320.767 115.883L321.247 117.899L322.943 116.155C323.178 116.07 323.482 116.027 323.855 116.027L323.839 116.043ZM330.636 124.667H326.3V124.251L327.724 123.147V118.283L326.3 117.275V116.859L328.956 115.883H329.484V123.531L330.924 124.107L330.636 124.667ZM328.524 111.099C328.823 111.099 329.063 111.211 329.244 111.435C329.436 111.659 329.532 111.936 329.532 112.267C329.532 112.502 329.463 112.726 329.324 112.939C329.196 113.142 329.025 113.307 328.812 113.435C328.609 113.552 328.412 113.611 328.22 113.611C327.932 113.611 327.692 113.499 327.5 113.275C327.308 113.04 327.212 112.758 327.212 112.427C327.212 112.192 327.276 111.974 327.404 111.771C327.543 111.568 327.713 111.408 327.916 111.291C328.129 111.163 328.332 111.099 328.524 111.099ZM338.632 116.011C339.187 116.011 339.688 116.198 340.136 116.571C340.595 116.934 340.952 117.43 341.208 118.059C341.464 118.688 341.592 119.382 341.592 120.139C341.592 120.96 341.347 121.734 340.856 122.459C340.366 123.174 339.747 123.744 339 124.171C338.264 124.598 337.55 124.811 336.856 124.811C336.408 124.811 335.992 124.715 335.608 124.523C335.224 124.32 334.888 124.038 334.6 123.675L333.928 124.667H333.4V113.099L331.976 112.091V111.675L334.632 110.699H335.16V117.899L337.368 116.155C337.71 116.07 338.126 116.027 338.616 116.027L338.632 116.011ZM337.768 123.579C338.398 123.579 338.867 123.355 339.176 122.907C339.496 122.459 339.656 121.798 339.656 120.923C339.656 119.899 339.496 119.035 339.176 118.331C338.856 117.616 338.408 117.259 337.832 117.259C337.416 117.259 337.011 117.344 336.616 117.515C336.232 117.675 335.752 118.022 335.176 118.555V121.435C335.176 122.043 335.4 122.55 335.848 122.955C336.296 123.36 336.942 123.563 337.784 123.563L337.768 123.579ZM352.58 124.667H349.652V122.939L347.572 124.699C347.348 124.784 347.06 124.827 346.708 124.827C345.994 124.827 345.428 124.608 345.012 124.171C344.607 123.723 344.404 123.12 344.404 122.363V118.459L342.98 117.627V117.211L345.636 115.867H346.164V121.643C346.164 122.251 346.255 122.672 346.436 122.907C346.628 123.142 346.964 123.259 347.444 123.259C347.786 123.259 348.122 123.195 348.452 123.067C348.794 122.928 349.194 122.662 349.652 122.267V118.459L348.228 117.627V117.211L350.884 115.867H351.412V123.531L352.852 124.107L352.58 124.667ZM358.793 124.699C358.569 124.784 358.297 124.827 357.977 124.827C357.113 124.827 356.484 124.598 356.089 124.139C355.695 123.67 355.497 122.95 355.497 121.979V117.243H353.769V116.635L356.729 113.131H357.257V116.667H360.137V117.243H357.257V122.235C357.257 123.12 357.673 123.563 358.505 123.563C358.729 123.563 358.943 123.515 359.145 123.419C359.359 123.323 359.62 123.142 359.929 122.875L360.409 123.419L358.793 124.699ZM365.933 124.667H361.597V124.251L363.021 123.147V118.283L361.597 117.275V116.859L364.253 115.883H364.781V123.531L366.221 124.107L365.933 124.667ZM363.821 111.099C364.12 111.099 364.36 111.211 364.541 111.435C364.733 111.659 364.829 111.936 364.829 112.267C364.829 112.502 364.76 112.726 364.621 112.939C364.493 113.142 364.322 113.307 364.109 113.435C363.906 113.552 363.709 113.611 363.517 113.611C363.229 113.611 362.989 113.499 362.797 113.275C362.605 113.04 362.509 112.758 362.509 112.427C362.509 112.192 362.573 111.974 362.701 111.771C362.84 111.568 363.01 111.408 363.213 111.291C363.426 111.163 363.629 111.099 363.821 111.099ZM372.729 116.027C373.423 116.027 374.041 116.214 374.585 116.587C375.129 116.95 375.556 117.446 375.865 118.075C376.175 118.704 376.329 119.398 376.329 120.155C376.329 120.976 376.084 121.75 375.593 122.475C375.103 123.19 374.484 123.76 373.737 124.187C373.001 124.614 372.287 124.827 371.593 124.827C370.911 124.827 370.292 124.646 369.737 124.283C369.193 123.92 368.767 123.424 368.457 122.795C368.148 122.166 367.993 121.472 367.993 120.715C367.993 119.894 368.239 119.12 368.729 118.395C369.22 117.67 369.833 117.094 370.569 116.667C371.316 116.24 372.036 116.027 372.729 116.027ZM371.801 117.275C370.532 117.275 369.897 118.166 369.897 119.947C369.897 120.982 370.121 121.846 370.569 122.539C371.017 123.232 371.668 123.579 372.521 123.579C373.78 123.579 374.409 122.688 374.409 120.907C374.409 119.872 374.185 119.008 373.737 118.315C373.289 117.622 372.644 117.275 371.801 117.275ZM388.185 124.683H385.273V119.227C385.273 118.619 385.177 118.198 384.985 117.963C384.793 117.728 384.457 117.611 383.977 117.611C383.604 117.611 383.236 117.68 382.873 117.819C382.521 117.947 382.095 118.214 381.593 118.619V123.547L383.033 124.123L382.745 124.683H378.409V124.267L379.833 123.163V118.459L378.409 117.643V117.227L381.017 115.883L381.529 118.011L383.865 116.155C384.089 116.07 384.372 116.027 384.713 116.027C385.428 116.027 385.993 116.251 386.409 116.699C386.825 117.136 387.033 117.734 387.033 118.491V123.531L388.473 124.123L388.185 124.683ZM395.079 123.003C395.079 122.683 394.909 122.4 394.567 122.155C394.237 121.899 393.714 121.584 392.999 121.211C392.167 120.795 391.533 120.411 391.095 120.059C390.658 119.707 390.439 119.291 390.439 118.811C390.439 118.427 390.594 118.016 390.903 117.579C391.223 117.142 391.607 116.774 392.055 116.475C392.514 116.176 392.941 116.027 393.335 116.027C393.805 116.027 394.354 116.091 394.983 116.219C395.613 116.336 396.071 116.47 396.359 116.619V119.051H395.831C395.469 118.368 395.058 117.835 394.599 117.451C394.151 117.067 393.687 116.875 393.207 116.875C392.845 116.875 392.557 116.971 392.343 117.163C392.13 117.355 392.023 117.59 392.023 117.867C392.023 118.219 392.194 118.528 392.535 118.795C392.887 119.051 393.431 119.366 394.167 119.739C394.711 120.016 395.149 120.256 395.479 120.459C395.81 120.651 396.087 120.88 396.311 121.147C396.546 121.414 396.663 121.712 396.663 122.043C396.663 122.438 396.498 122.854 396.167 123.291C395.837 123.718 395.437 124.08 394.967 124.379C394.498 124.678 394.066 124.827 393.671 124.827C393.159 124.827 392.551 124.763 391.847 124.635C391.143 124.507 390.642 124.374 390.343 124.235V121.835H390.871C391.245 122.518 391.693 123.046 392.215 123.419C392.749 123.792 393.282 123.979 393.815 123.979C394.189 123.979 394.493 123.883 394.727 123.691C394.962 123.499 395.079 123.27 395.079 123.003ZM407.7 124.699C407.476 124.784 407.204 124.827 406.884 124.827C406.02 124.827 405.39 124.598 404.996 124.139C404.601 123.67 404.404 122.95 404.404 121.979V117.243H402.676V116.635L405.636 113.131H406.164V116.667H409.044V117.243H406.164V122.235C406.164 123.12 406.58 123.563 407.412 123.563C407.636 123.563 407.849 123.515 408.052 123.419C408.265 123.323 408.526 123.142 408.836 122.875L409.316 123.419L407.7 124.699ZM415.354 116.027C416.048 116.027 416.666 116.214 417.21 116.587C417.754 116.95 418.181 117.446 418.49 118.075C418.8 118.704 418.954 119.398 418.954 120.155C418.954 120.976 418.709 121.75 418.218 122.475C417.728 123.19 417.109 123.76 416.362 124.187C415.626 124.614 414.912 124.827 414.218 124.827C413.536 124.827 412.917 124.646 412.362 124.283C411.818 123.92 411.392 123.424 411.082 122.795C410.773 122.166 410.618 121.472 410.618 120.715C410.618 119.894 410.864 119.12 411.354 118.395C411.845 117.67 412.458 117.094 413.194 116.667C413.941 116.24 414.661 116.027 415.354 116.027ZM414.426 117.275C413.157 117.275 412.522 118.166 412.522 119.947C412.522 120.982 412.746 121.846 413.194 122.539C413.642 123.232 414.293 123.579 415.146 123.579C416.405 123.579 417.034 122.688 417.034 120.907C417.034 119.872 416.81 119.008 416.362 118.315C415.914 117.622 415.269 117.275 414.426 117.275ZM430.557 116.027C431.251 116.027 431.869 116.214 432.413 116.587C432.957 116.95 433.384 117.446 433.693 118.075C434.003 118.704 434.157 119.398 434.157 120.155C434.157 120.976 433.912 121.75 433.421 122.475C432.931 123.19 432.312 123.76 431.565 124.187C430.829 124.614 430.115 124.827 429.421 124.827C428.739 124.827 428.12 124.646 427.565 124.283C427.021 123.92 426.595 123.424 426.285 122.795C425.976 122.166 425.821 121.472 425.821 120.715C425.821 119.894 426.067 119.12 426.557 118.395C427.048 117.67 427.661 117.094 428.397 116.667C429.144 116.24 429.864 116.027 430.557 116.027ZM429.629 117.275C428.36 117.275 427.725 118.166 427.725 119.947C427.725 120.982 427.949 121.846 428.397 122.539C428.845 123.232 429.496 123.579 430.349 123.579C431.608 123.579 432.237 122.688 432.237 120.907C432.237 119.872 432.013 119.008 431.565 118.315C431.117 117.622 430.472 117.275 429.629 117.275ZM445.159 124.667H442.231V122.939L440.151 124.699C439.927 124.784 439.639 124.827 439.287 124.827C438.572 124.827 438.007 124.608 437.591 124.171C437.185 123.723 436.983 123.12 436.983 122.363V118.459L435.559 117.627V117.211L438.215 115.867H438.743V121.643C438.743 122.251 438.833 122.672 439.015 122.907C439.207 123.142 439.543 123.259 440.023 123.259C440.364 123.259 440.7 123.195 441.031 123.067C441.372 122.928 441.772 122.662 442.231 122.267V118.459L440.807 117.627V117.211L443.463 115.867H443.991V123.531L445.431 124.107L445.159 124.667ZM452.668 116.043C452.966 116.043 453.238 116.134 453.484 116.315C453.729 116.496 453.926 116.747 454.076 117.067L453.1 118.283H452.572C452.529 118.048 452.449 117.878 452.332 117.771C452.225 117.664 452.076 117.611 451.884 117.611C451.628 117.611 451.366 117.675 451.1 117.803C450.833 117.931 450.524 118.187 450.172 118.571V123.435L452.364 124.123L452.092 124.683H446.988V124.267L448.412 123.163V118.459L446.988 117.643V117.227L449.596 115.883L450.076 117.899L451.772 116.155C452.006 116.07 452.31 116.027 452.684 116.027L452.668 116.043ZM464.059 124.699C463.835 124.784 463.563 124.827 463.243 124.827C462.379 124.827 461.75 124.598 461.355 124.139C460.96 123.67 460.763 122.95 460.763 121.979V117.243H459.035V116.635L461.995 113.131H462.523V116.667H465.403V117.243H462.523V122.235C462.523 123.12 462.939 123.563 463.771 123.563C463.995 123.563 464.208 123.515 464.411 123.419C464.624 123.323 464.886 123.142 465.195 122.875L465.675 123.419L464.059 124.699ZM471.97 124.715C471.575 124.79 471.111 124.827 470.578 124.827C469.895 124.827 469.276 124.646 468.722 124.283C468.178 123.92 467.751 123.424 467.442 122.795C467.132 122.166 466.978 121.472 466.978 120.715C466.978 119.894 467.223 119.12 467.714 118.395C468.204 117.67 468.818 117.094 469.554 116.667C470.3 116.24 471.02 116.027 471.714 116.027C472.695 116.027 473.458 116.422 474.002 117.211C474.556 118 474.839 119.035 474.85 120.315H468.914C468.967 121.264 469.212 122.048 469.65 122.667C470.098 123.275 470.716 123.579 471.506 123.579C472.199 123.579 473.164 123.008 474.402 121.867L474.882 122.427L471.97 124.715ZM470.786 117.275C469.591 117.275 468.967 118.096 468.914 119.739H472.786C472.679 119.131 472.572 118.672 472.466 118.363C472.37 118.043 472.188 117.782 471.922 117.579C471.666 117.376 471.282 117.275 470.77 117.275H470.786ZM485.116 124.667H482.204V123.275L480.396 124.699C480.183 124.784 479.916 124.827 479.596 124.827C478.7 124.827 478.049 124.603 477.644 124.155C477.249 123.707 477.052 123.168 477.052 122.539C477.052 122.155 477.191 121.782 477.468 121.419C477.745 121.046 478.145 120.694 478.668 120.363H482.204V119.195C482.204 118.48 482.012 117.979 481.628 117.691C481.255 117.403 480.737 117.259 480.076 117.259C479.425 117.259 478.647 117.68 477.74 118.523L477.26 117.979L479.58 116.139C479.996 116.064 480.487 116.027 481.052 116.027C481.969 116.027 482.684 116.262 483.196 116.731C483.708 117.19 483.964 117.856 483.964 118.731V123.547L485.404 124.107L485.116 124.667ZM480.044 123.627C480.716 123.627 481.436 123.312 482.204 122.683V120.939H479.324C479.164 121.12 479.052 121.302 478.988 121.483C478.935 121.664 478.908 121.867 478.908 122.091C478.908 122.507 479.009 122.87 479.212 123.179C479.425 123.478 479.703 123.627 480.044 123.627ZM501.697 124.667H498.769V119.259C498.769 118.64 498.673 118.208 498.481 117.963C498.289 117.718 497.947 117.595 497.457 117.595C497.115 117.595 496.774 117.664 496.433 117.803C496.091 117.931 495.691 118.192 495.233 118.587V123.531L496.689 124.107L496.417 124.667H493.473V119.259C493.473 118.64 493.377 118.208 493.185 117.963C492.993 117.718 492.651 117.595 492.161 117.595C491.819 117.595 491.478 117.664 491.137 117.803C490.795 117.931 490.395 118.192 489.937 118.587V123.531L491.393 124.107L491.105 124.667H486.753V124.251L488.177 123.147V118.443L486.753 117.627V117.211L489.361 115.867L489.857 117.963L492.017 116.139C492.251 116.054 492.545 116.011 492.897 116.011C493.526 116.011 494.043 116.182 494.449 116.523C494.854 116.864 495.105 117.339 495.201 117.947L497.345 116.155C497.569 116.07 497.862 116.027 498.225 116.027C498.939 116.027 499.505 116.251 499.921 116.699C500.337 117.136 500.545 117.734 500.545 118.491V123.531L501.969 124.107L501.697 124.667ZM503.811 128.891L503.283 128.475C503.848 127.803 504.243 127.227 504.467 126.747C504.701 126.267 504.84 125.728 504.883 125.131L503.651 124.411V123.995L506.259 122.667L506.803 124.987L503.811 128.891ZM16.3582 165.667H13.4462V159.235L12.1342 158.243H9.0302V164.403L11.2382 165.107L10.9502 165.667H5.8462V165.251L7.2702 164.147V158.243H5.3502V157.667H7.2702V156.211C7.2702 155.39 7.48886 154.622 7.9262 153.907C8.36353 153.182 8.9182 152.606 9.5902 152.179C10.2622 151.752 10.9129 151.539 11.5422 151.539C12.0542 151.539 12.6462 151.619 13.3182 151.779C13.9902 151.928 14.4435 152.072 14.6782 152.211C15.0622 152.435 15.2542 152.787 15.2542 153.267C15.2542 153.502 15.1849 153.726 15.0462 153.939C14.9182 154.142 14.7475 154.307 14.5342 154.435C14.3315 154.552 14.1342 154.611 13.9422 154.611C13.5369 154.611 13.2382 154.403 13.0462 153.987C12.8862 153.635 12.7102 153.379 12.5182 153.219C12.3262 153.048 12.0862 152.936 11.7982 152.883C11.5102 152.819 11.1049 152.787 10.5822 152.787C10.0702 152.787 9.68086 153.016 9.4142 153.475C9.1582 153.934 9.0302 154.606 9.0302 155.491V157.667H12.2622L14.6782 156.883H15.2062V164.531L16.6462 165.107L16.3582 165.667ZM23.8551 157.043C24.1537 157.043 24.4257 157.134 24.6711 157.315C24.9164 157.496 25.1137 157.747 25.2631 158.067L24.2871 159.283H23.7591C23.7164 159.048 23.6364 158.878 23.5191 158.771C23.4124 158.664 23.2631 158.611 23.0711 158.611C22.8151 158.611 22.5537 158.675 22.2871 158.803C22.0204 158.931 21.7111 159.187 21.3591 159.571V164.435L23.5511 165.123L23.2791 165.683H18.1751V165.267L19.5991 164.163V159.459L18.1751 158.643V158.227L20.7831 156.883L21.2631 158.899L22.9591 157.155C23.1937 157.07 23.4977 157.027 23.8711 157.027L23.8551 157.043ZM41.2437 165.667H38.3157V160.259C38.3157 159.64 38.2197 159.208 38.0277 158.963C37.8357 158.718 37.4944 158.595 37.0037 158.595C36.6624 158.595 36.321 158.664 35.9797 158.803C35.6384 158.931 35.2384 159.192 34.7797 159.587V164.531L36.2357 165.107L35.9637 165.667H33.0197V160.259C33.0197 159.64 32.9237 159.208 32.7317 158.963C32.5397 158.718 32.1984 158.595 31.7077 158.595C31.3664 158.595 31.025 158.664 30.6837 158.803C30.3424 158.931 29.9424 159.192 29.4837 159.587V164.531L30.9397 165.107L30.6517 165.667H26.2997V165.251L27.7237 164.147V159.443L26.2997 158.627V158.211L28.9077 156.867L29.4037 158.963L31.5637 157.139C31.7984 157.054 32.0917 157.011 32.4437 157.011C33.073 157.011 33.5904 157.182 33.9957 157.523C34.401 157.864 34.6517 158.339 34.7477 158.947L36.8917 157.155C37.1157 157.07 37.409 157.027 37.7717 157.027C38.4864 157.027 39.0517 157.251 39.4677 157.699C39.8837 158.136 40.0917 158.734 40.0917 159.491V164.531L41.5157 165.107L41.2437 165.667ZM46.9254 165.683H42.5894V165.267L44.0134 164.163V154.099L42.5894 153.091V152.675L45.2454 151.699H45.7734V164.531L47.2134 165.123L46.9254 165.683ZM56.9932 157.587L52.9612 165.651L49.7132 169.875L49.1852 169.459C49.8039 168.808 50.2732 168.238 50.5932 167.747C50.9132 167.256 51.1372 166.76 51.2652 166.259C51.3932 165.758 51.4519 165.16 51.4412 164.467L49.3932 159.491L47.9372 158.643V158.227L50.5132 156.883L51.1212 159.299L53.1052 164.179L55.4412 159.299L53.3452 157.747L53.6172 157.187L56.9932 157.171V157.587ZM69.3042 157.011C69.8589 157.011 70.3602 157.198 70.8082 157.571C71.2669 157.934 71.6242 158.43 71.8802 159.059C72.1362 159.688 72.2642 160.382 72.2642 161.139C72.2642 161.96 72.0189 162.734 71.5282 163.459C71.0375 164.174 70.4189 164.744 69.6722 165.171C68.9362 165.598 68.2215 165.811 67.5282 165.811C67.0802 165.811 66.6642 165.715 66.2802 165.523C65.8962 165.32 65.5602 165.038 65.2722 164.675L64.6002 165.667H64.0722V154.099L62.6482 153.091V152.675L65.3042 151.699H65.8322V158.899L68.0402 157.155C68.3815 157.07 68.7975 157.027 69.2882 157.027L69.3042 157.011ZM68.4402 164.579C69.0695 164.579 69.5389 164.355 69.8482 163.907C70.1682 163.459 70.3282 162.798 70.3282 161.923C70.3282 160.899 70.1682 160.035 69.8482 159.331C69.5282 158.616 69.0802 158.259 68.5042 158.259C68.0882 158.259 67.6829 158.344 67.2882 158.515C66.9042 158.675 66.4242 159.022 65.8482 159.555V162.435C65.8482 163.043 66.0722 163.55 66.5202 163.955C66.9682 164.36 67.6135 164.563 68.4562 164.563L68.4402 164.579ZM79.5633 165.715C79.1687 165.79 78.7047 165.827 78.1713 165.827C77.4887 165.827 76.87 165.646 76.3153 165.283C75.7713 164.92 75.3447 164.424 75.0353 163.795C74.726 163.166 74.5713 162.472 74.5713 161.715C74.5713 160.894 74.8167 160.12 75.3073 159.395C75.798 158.67 76.4113 158.094 77.1473 157.667C77.894 157.24 78.614 157.027 79.3073 157.027C80.2887 157.027 81.0513 157.422 81.5953 158.211C82.15 159 82.4327 160.035 82.4433 161.315H76.5073C76.5607 162.264 76.806 163.048 77.2433 163.667C77.6913 164.275 78.31 164.579 79.0993 164.579C79.7927 164.579 80.758 164.008 81.9953 162.867L82.4753 163.427L79.5633 165.715ZM78.3793 158.275C77.1847 158.275 76.5607 159.096 76.5073 160.739H80.3793C80.2727 160.131 80.166 159.672 80.0593 159.363C79.9633 159.043 79.782 158.782 79.5153 158.579C79.2593 158.376 78.8753 158.275 78.3633 158.275H78.3793ZM88.5973 165.683H84.2613V165.267L85.6853 164.163V154.099L84.2613 153.091V152.675L86.9173 151.699H87.4453V164.531L88.8853 165.123L88.5973 165.683ZM94.7611 165.667H90.4251V165.251L91.8491 164.147V159.283L90.4251 158.275V157.859L93.0811 156.883H93.6091V164.531L95.0491 165.107L94.7611 165.667ZM92.6491 152.099C92.9477 152.099 93.1877 152.211 93.3691 152.435C93.5611 152.659 93.6571 152.936 93.6571 153.267C93.6571 153.502 93.5877 153.726 93.4491 153.939C93.3211 154.142 93.1504 154.307 92.9371 154.435C92.7344 154.552 92.5371 154.611 92.3451 154.611C92.0571 154.611 91.8171 154.499 91.6251 154.275C91.4331 154.04 91.3371 153.758 91.3371 153.427C91.3371 153.192 91.4011 152.974 91.5291 152.771C91.6677 152.568 91.8384 152.408 92.0411 152.291C92.2544 152.163 92.4571 152.099 92.6491 152.099ZM101.813 165.715C101.419 165.79 100.955 165.827 100.421 165.827C99.7387 165.827 99.12 165.646 98.5653 165.283C98.0213 164.92 97.5947 164.424 97.2853 163.795C96.976 163.166 96.8213 162.472 96.8213 161.715C96.8213 160.894 97.0667 160.12 97.5573 159.395C98.048 158.67 98.6613 158.094 99.3973 157.667C100.144 157.24 100.864 157.027 101.557 157.027C102.539 157.027 103.301 157.422 103.845 158.211C104.4 159 104.683 160.035 104.693 161.315H98.7573C98.8107 162.264 99.056 163.048 99.4933 163.667C99.9413 164.275 100.56 164.579 101.349 164.579C102.043 164.579 103.008 164.008 104.245 162.867L104.725 163.427L101.813 165.715ZM100.629 158.275C99.4347 158.275 98.8107 159.096 98.7573 160.739H102.629C102.523 160.131 102.416 159.672 102.309 159.363C102.213 159.043 102.032 158.782 101.765 158.579C101.509 158.376 101.125 158.275 100.613 158.275H100.629ZM115.088 157.603L111.056 165.667H110L107.456 159.491L106 158.643V158.227L108.576 156.883L109.184 159.299L111.168 164.179L113.504 159.299L111.408 157.747L111.68 157.187H115.088V157.603ZM120.355 165.667H116.019V165.251L117.443 164.147V159.283L116.019 158.275V157.859L118.675 156.883H119.203V164.531L120.643 165.107L120.355 165.667ZM118.243 152.099C118.541 152.099 118.781 152.211 118.963 152.435C119.155 152.659 119.251 152.936 119.251 153.267C119.251 153.502 119.181 153.726 119.043 153.939C118.915 154.142 118.744 154.307 118.531 154.435C118.328 154.552 118.131 154.611 117.939 154.611C117.651 154.611 117.411 154.499 117.219 154.275C117.027 154.04 116.931 153.758 116.931 153.427C116.931 153.192 116.995 152.974 117.123 152.771C117.261 152.568 117.432 152.408 117.635 152.291C117.848 152.163 118.051 152.099 118.243 152.099ZM131.951 165.683H129.039V160.227C129.039 159.619 128.943 159.198 128.751 158.963C128.559 158.728 128.223 158.611 127.743 158.611C127.37 158.611 127.002 158.68 126.639 158.819C126.287 158.947 125.86 159.214 125.359 159.619V164.547L126.799 165.123L126.511 165.683H122.175V165.267L123.599 164.163V159.459L122.175 158.643V158.227L124.783 156.883L125.295 159.011L127.631 157.155C127.855 157.07 128.138 157.027 128.479 157.027C129.194 157.027 129.759 157.251 130.175 157.699C130.591 158.136 130.799 158.734 130.799 159.491V164.531L132.239 165.123L131.951 165.683ZM140.397 158.227C140.728 158.675 140.893 159.182 140.893 159.747C140.893 160.227 140.76 160.696 140.493 161.155C140.226 161.603 139.869 162.003 139.421 162.355C138.973 162.696 138.482 162.942 137.949 163.091C137.672 163.368 137.533 163.667 137.533 163.987C137.533 164.168 137.666 164.334 137.933 164.483C138.21 164.632 138.648 164.824 139.245 165.059C140.024 165.358 140.616 165.63 141.021 165.875C141.426 166.12 141.629 166.424 141.629 166.787C141.629 167.107 141.421 167.518 141.005 168.019C140.6 168.52 140.093 168.952 139.485 169.315C138.888 169.688 138.312 169.875 137.757 169.875C137.17 169.875 136.477 169.774 135.677 169.571C134.877 169.368 134.21 169.166 133.677 168.963V166.579H134.205C134.824 167.326 135.448 167.891 136.077 168.275C136.717 168.659 137.437 168.851 138.237 168.851C138.536 168.851 138.808 168.787 139.053 168.659C139.298 168.542 139.49 168.387 139.629 168.195C139.768 168.003 139.837 167.822 139.837 167.651C139.837 167.363 139.656 167.107 139.293 166.883C138.941 166.659 138.418 166.403 137.725 166.115C137.042 165.838 136.536 165.603 136.205 165.411C135.885 165.208 135.725 164.974 135.725 164.707C135.725 164.451 135.89 164.19 136.221 163.923C136.552 163.656 136.941 163.422 137.389 163.219C137.218 163.251 137.042 163.267 136.861 163.267C136.317 163.267 135.816 163.144 135.357 162.899C134.898 162.654 134.536 162.323 134.269 161.907C134.013 161.491 133.885 161.038 133.885 160.547C133.885 159.96 134.082 159.395 134.477 158.851C134.872 158.307 135.384 157.87 136.013 157.539C136.642 157.198 137.288 157.027 137.949 157.027C138.674 157.027 139.309 157.24 139.853 157.667H142.349L142.333 158.227H140.397ZM137.757 162.003C138.792 162.003 139.309 161.502 139.309 160.499C139.309 159.838 139.096 159.299 138.669 158.883C138.242 158.467 137.682 158.259 136.989 158.259C136.488 158.259 136.104 158.382 135.837 158.627C135.581 158.872 135.453 159.246 135.453 159.747C135.453 160.419 135.666 160.963 136.093 161.379C136.52 161.795 137.074 162.003 137.757 162.003ZM152.714 165.667H148.378V165.251L149.802 164.147V159.283L148.378 158.275V157.859L151.034 156.883H151.562V164.531L153.002 165.107L152.714 165.667ZM150.602 152.099C150.901 152.099 151.141 152.211 151.322 152.435C151.514 152.659 151.61 152.936 151.61 153.267C151.61 153.502 151.541 153.726 151.402 153.939C151.274 154.142 151.104 154.307 150.89 154.435C150.688 154.552 150.49 154.611 150.298 154.611C150.01 154.611 149.77 154.499 149.578 154.275C149.386 154.04 149.29 153.758 149.29 153.427C149.29 153.192 149.354 152.974 149.482 152.771C149.621 152.568 149.792 152.408 149.994 152.291C150.208 152.163 150.41 152.099 150.602 152.099ZM164.31 165.683H161.398V160.227C161.398 159.619 161.302 159.198 161.11 158.963C160.918 158.728 160.582 158.611 160.102 158.611C159.729 158.611 159.361 158.68 158.998 158.819C158.646 158.947 158.22 159.214 157.718 159.619V164.547L159.158 165.123L158.87 165.683H154.534V165.267L155.958 164.163V159.459L154.534 158.643V158.227L157.142 156.883L157.654 159.011L159.99 157.155C160.214 157.07 160.497 157.027 160.838 157.027C161.553 157.027 162.118 157.251 162.534 157.699C162.95 158.136 163.158 158.734 163.158 159.491V164.531L164.598 165.123L164.31 165.683ZM175.479 157.027C176.173 157.027 176.791 157.214 177.335 157.587C177.879 157.95 178.306 158.446 178.615 159.075C178.925 159.704 179.079 160.398 179.079 161.155C179.079 161.976 178.834 162.75 178.343 163.475C177.853 164.19 177.234 164.76 176.487 165.187C175.751 165.614 175.037 165.827 174.343 165.827C173.661 165.827 173.042 165.646 172.487 165.283C171.943 164.92 171.517 164.424 171.207 163.795C170.898 163.166 170.743 162.472 170.743 161.715C170.743 160.894 170.989 160.12 171.479 159.395C171.97 158.67 172.583 158.094 173.319 157.667C174.066 157.24 174.786 157.027 175.479 157.027ZM174.551 158.275C173.282 158.275 172.647 159.166 172.647 160.947C172.647 161.982 172.871 162.846 173.319 163.539C173.767 164.232 174.418 164.579 175.271 164.579C176.53 164.579 177.159 163.688 177.159 161.907C177.159 160.872 176.935 160.008 176.487 159.315C176.039 158.622 175.394 158.275 174.551 158.275ZM190.08 165.667H187.152V163.939L185.072 165.699C184.848 165.784 184.56 165.827 184.208 165.827C183.494 165.827 182.928 165.608 182.512 165.171C182.107 164.723 181.904 164.12 181.904 163.363V159.459L180.48 158.627V158.211L183.136 156.867H183.664V162.643C183.664 163.251 183.755 163.672 183.936 163.907C184.128 164.142 184.464 164.259 184.944 164.259C185.286 164.259 185.622 164.195 185.952 164.067C186.294 163.928 186.694 163.662 187.152 163.267V159.459L185.728 158.627V158.211L188.384 156.867H188.912V164.531L190.352 165.107L190.08 165.667ZM197.589 157.043C197.888 157.043 198.16 157.134 198.405 157.315C198.651 157.496 198.848 157.747 198.997 158.067L198.021 159.283H197.493C197.451 159.048 197.371 158.878 197.253 158.771C197.147 158.664 196.997 158.611 196.805 158.611C196.549 158.611 196.288 158.675 196.021 158.803C195.755 158.931 195.445 159.187 195.093 159.571V164.435L197.285 165.123L197.013 165.683H191.909V165.267L193.333 164.163V159.459L191.909 158.643V158.227L194.517 156.883L194.997 158.899L196.693 157.155C196.928 157.07 197.232 157.027 197.605 157.027L197.589 157.043ZM209.845 164.003C209.845 163.683 209.674 163.4 209.333 163.155C209.002 162.899 208.48 162.584 207.765 162.211C206.933 161.795 206.298 161.411 205.861 161.059C205.424 160.707 205.205 160.291 205.205 159.811C205.205 159.427 205.36 159.016 205.669 158.579C205.989 158.142 206.373 157.774 206.821 157.475C207.28 157.176 207.706 157.027 208.101 157.027C208.57 157.027 209.12 157.091 209.749 157.219C210.378 157.336 210.837 157.47 211.125 157.619V160.051H210.597C210.234 159.368 209.824 158.835 209.365 158.451C208.917 158.067 208.453 157.875 207.973 157.875C207.61 157.875 207.322 157.971 207.109 158.163C206.896 158.355 206.789 158.59 206.789 158.867C206.789 159.219 206.96 159.528 207.301 159.795C207.653 160.051 208.197 160.366 208.933 160.739C209.477 161.016 209.914 161.256 210.245 161.459C210.576 161.651 210.853 161.88 211.077 162.147C211.312 162.414 211.429 162.712 211.429 163.043C211.429 163.438 211.264 163.854 210.933 164.291C210.602 164.718 210.202 165.08 209.733 165.379C209.264 165.678 208.832 165.827 208.437 165.827C207.925 165.827 207.317 165.763 206.613 165.635C205.909 165.507 205.408 165.374 205.109 165.235V162.835H205.637C206.01 163.518 206.458 164.046 206.981 164.419C207.514 164.792 208.048 164.979 208.581 164.979C208.954 164.979 209.258 164.883 209.493 164.691C209.728 164.499 209.845 164.27 209.845 164.003ZM222.99 165.683H220.078V160.227C220.078 159.619 219.982 159.198 219.79 158.963C219.598 158.728 219.262 158.611 218.782 158.611C218.409 158.611 218.041 158.68 217.678 158.819C217.326 158.947 216.9 159.214 216.398 159.619V164.547L217.838 165.123L217.55 165.683H213.214V165.267L214.638 164.163V154.099L213.214 153.091V152.675L215.87 151.699H216.398V158.947L218.67 157.155C218.894 157.07 219.177 157.027 219.518 157.027C220.233 157.027 220.798 157.251 221.214 157.699C221.63 158.136 221.838 158.734 221.838 159.491V164.531L223.278 165.123L222.99 165.683ZM232.788 165.667H229.876V164.275L228.068 165.699C227.854 165.784 227.588 165.827 227.268 165.827C226.372 165.827 225.721 165.603 225.316 165.155C224.921 164.707 224.724 164.168 224.724 163.539C224.724 163.155 224.862 162.782 225.14 162.419C225.417 162.046 225.817 161.694 226.34 161.363H229.876V160.195C229.876 159.48 229.684 158.979 229.3 158.691C228.926 158.403 228.409 158.259 227.748 158.259C227.097 158.259 226.318 158.68 225.412 159.523L224.932 158.979L227.252 157.139C227.668 157.064 228.158 157.027 228.724 157.027C229.641 157.027 230.356 157.262 230.868 157.731C231.38 158.19 231.636 158.856 231.636 159.731V164.547L233.076 165.107L232.788 165.667ZM227.716 164.627C228.388 164.627 229.108 164.312 229.876 163.683V161.939H226.996C226.836 162.12 226.724 162.302 226.66 162.483C226.606 162.664 226.58 162.867 226.58 163.091C226.58 163.507 226.681 163.87 226.884 164.179C227.097 164.478 227.374 164.627 227.716 164.627ZM240.121 157.043C240.419 157.043 240.691 157.134 240.937 157.315C241.182 157.496 241.379 157.747 241.529 158.067L240.553 159.283H240.025C239.982 159.048 239.902 158.878 239.785 158.771C239.678 158.664 239.529 158.611 239.337 158.611C239.081 158.611 238.819 158.675 238.553 158.803C238.286 158.931 237.977 159.187 237.625 159.571V164.435L239.817 165.123L239.545 165.683H234.441V165.267L235.865 164.163V159.459L234.441 158.643V158.227L237.049 156.883L237.529 158.899L239.225 157.155C239.459 157.07 239.763 157.027 240.137 157.027L240.121 157.043ZM247.86 165.715C247.466 165.79 247.002 165.827 246.468 165.827C245.786 165.827 245.167 165.646 244.612 165.283C244.068 164.92 243.642 164.424 243.332 163.795C243.023 163.166 242.868 162.472 242.868 161.715C242.868 160.894 243.114 160.12 243.604 159.395C244.095 158.67 244.708 158.094 245.444 157.667C246.191 157.24 246.911 157.027 247.604 157.027C248.586 157.027 249.348 157.422 249.892 158.211C250.447 159 250.73 160.035 250.74 161.315H244.804C244.858 162.264 245.103 163.048 245.54 163.667C245.988 164.275 246.607 164.579 247.396 164.579C248.09 164.579 249.055 164.008 250.292 162.867L250.772 163.427L247.86 165.715ZM246.676 158.275C245.482 158.275 244.858 159.096 244.804 160.739H248.676C248.57 160.131 248.463 159.672 248.356 159.363C248.26 159.043 248.079 158.782 247.812 158.579C247.556 158.376 247.172 158.275 246.66 158.275H246.676ZM262.415 165.667H259.503V164.515L258.015 165.699C257.673 165.784 257.263 165.827 256.783 165.827C256.079 165.827 255.444 165.646 254.879 165.283C254.324 164.92 253.887 164.424 253.567 163.795C253.257 163.166 253.103 162.472 253.103 161.715C253.103 160.894 253.348 160.12 253.839 159.395C254.329 158.67 254.943 158.094 255.679 157.667C256.425 157.24 257.145 157.027 257.839 157.027C258.457 157.027 259.012 157.208 259.503 157.571V154.099L258.079 153.091V152.675L260.735 151.699H261.263V164.531L262.703 165.107L262.415 165.667ZM257.535 164.611C257.865 164.611 258.18 164.563 258.479 164.467C258.777 164.371 259.119 164.184 259.503 163.907V160.147C259.439 159.603 259.183 159.155 258.735 158.803C258.287 158.451 257.679 158.275 256.911 158.275C255.652 158.275 255.023 159.166 255.023 160.947C255.023 161.982 255.241 162.856 255.679 163.571C256.116 164.275 256.74 164.627 257.551 164.627L257.535 164.611ZM273.477 165.843C272.847 165.843 272.287 165.662 271.797 165.299V168.499L273.989 169.187L273.717 169.747H268.613V169.331L270.037 168.227V159.459L268.613 158.643V158.227L271.221 156.883L271.733 159.011L274.085 157.155C274.426 157.07 274.815 157.027 275.253 157.027C275.807 157.027 276.309 157.214 276.757 157.587C277.215 157.95 277.573 158.446 277.829 159.075C278.085 159.704 278.213 160.398 278.213 161.155C278.213 161.976 277.967 162.75 277.477 163.475C276.986 164.19 276.367 164.76 275.621 165.187C274.885 165.614 274.17 165.827 273.477 165.827V165.843ZM274.453 158.451C274.037 158.451 273.631 158.536 273.237 158.707C272.853 158.867 272.373 159.214 271.797 159.747V162.467C271.797 163.075 272.021 163.582 272.469 163.987C272.917 164.392 273.562 164.595 274.405 164.595C275.034 164.595 275.503 164.371 275.813 163.923C276.133 163.475 276.293 162.814 276.293 161.939C276.293 160.958 276.133 160.131 275.813 159.459C275.493 158.776 275.045 158.435 274.469 158.435L274.453 158.451ZM288.444 165.667H285.532V164.275L283.724 165.699C283.511 165.784 283.244 165.827 282.924 165.827C282.028 165.827 281.377 165.603 280.972 165.155C280.577 164.707 280.38 164.168 280.38 163.539C280.38 163.155 280.519 162.782 280.796 162.419C281.073 162.046 281.473 161.694 281.996 161.363H285.532V160.195C285.532 159.48 285.34 158.979 284.956 158.691C284.583 158.403 284.065 158.259 283.404 158.259C282.753 158.259 281.975 158.68 281.068 159.523L280.588 158.979L282.908 157.139C283.324 157.064 283.815 157.027 284.38 157.027C285.297 157.027 286.012 157.262 286.524 157.731C287.036 158.19 287.292 158.856 287.292 159.731V164.547L288.732 165.107L288.444 165.667ZM283.372 164.627C284.044 164.627 284.764 164.312 285.532 163.683V161.939H282.652C282.492 162.12 282.38 162.302 282.316 162.483C282.263 162.664 282.236 162.867 282.236 163.091C282.236 163.507 282.337 163.87 282.54 164.179C282.753 164.478 283.031 164.627 283.372 164.627ZM295.345 164.003C295.345 163.683 295.174 163.4 294.833 163.155C294.502 162.899 293.98 162.584 293.265 162.211C292.433 161.795 291.798 161.411 291.361 161.059C290.924 160.707 290.705 160.291 290.705 159.811C290.705 159.427 290.86 159.016 291.169 158.579C291.489 158.142 291.873 157.774 292.321 157.475C292.78 157.176 293.206 157.027 293.601 157.027C294.07 157.027 294.62 157.091 295.249 157.219C295.878 157.336 296.337 157.47 296.625 157.619V160.051H296.097C295.734 159.368 295.324 158.835 294.865 158.451C294.417 158.067 293.953 157.875 293.473 157.875C293.11 157.875 292.822 157.971 292.609 158.163C292.396 158.355 292.289 158.59 292.289 158.867C292.289 159.219 292.46 159.528 292.801 159.795C293.153 160.051 293.697 160.366 294.433 160.739C294.977 161.016 295.414 161.256 295.745 161.459C296.076 161.651 296.353 161.88 296.577 162.147C296.812 162.414 296.929 162.712 296.929 163.043C296.929 163.438 296.764 163.854 296.433 164.291C296.102 164.718 295.702 165.08 295.233 165.379C294.764 165.678 294.332 165.827 293.937 165.827C293.425 165.827 292.817 165.763 292.113 165.635C291.409 165.507 290.908 165.374 290.609 165.235V162.835H291.137C291.51 163.518 291.958 164.046 292.481 164.419C293.014 164.792 293.548 164.979 294.081 164.979C294.454 164.979 294.758 164.883 294.993 164.691C295.228 164.499 295.345 164.27 295.345 164.003ZM304.282 164.003C304.282 163.683 304.112 163.4 303.77 163.155C303.44 162.899 302.917 162.584 302.202 162.211C301.37 161.795 300.736 161.411 300.298 161.059C299.861 160.707 299.642 160.291 299.642 159.811C299.642 159.427 299.797 159.016 300.106 158.579C300.426 158.142 300.81 157.774 301.258 157.475C301.717 157.176 302.144 157.027 302.538 157.027C303.008 157.027 303.557 157.091 304.186 157.219C304.816 157.336 305.274 157.47 305.562 157.619V160.051H305.034C304.672 159.368 304.261 158.835 303.802 158.451C303.354 158.067 302.89 157.875 302.41 157.875C302.048 157.875 301.76 157.971 301.546 158.163C301.333 158.355 301.226 158.59 301.226 158.867C301.226 159.219 301.397 159.528 301.738 159.795C302.09 160.051 302.634 160.366 303.37 160.739C303.914 161.016 304.352 161.256 304.682 161.459C305.013 161.651 305.29 161.88 305.514 162.147C305.749 162.414 305.866 162.712 305.866 163.043C305.866 163.438 305.701 163.854 305.37 164.291C305.04 164.718 304.64 165.08 304.17 165.379C303.701 165.678 303.269 165.827 302.874 165.827C302.362 165.827 301.754 165.763 301.05 165.635C300.346 165.507 299.845 165.374 299.546 165.235V162.835H300.074C300.448 163.518 300.896 164.046 301.418 164.419C301.952 164.792 302.485 164.979 303.018 164.979C303.392 164.979 303.696 164.883 303.93 164.691C304.165 164.499 304.282 164.27 304.282 164.003ZM312.308 165.667H307.972V165.251L309.396 164.147V159.283L307.972 158.275V157.859L310.628 156.883H311.156V164.531L312.596 165.107L312.308 165.667ZM310.196 152.099C310.495 152.099 310.735 152.211 310.916 152.435C311.108 152.659 311.204 152.936 311.204 153.267C311.204 153.502 311.135 153.726 310.996 153.939C310.868 154.142 310.697 154.307 310.484 154.435C310.281 154.552 310.084 154.611 309.892 154.611C309.604 154.611 309.364 154.499 309.172 154.275C308.98 154.04 308.884 153.758 308.884 153.427C308.884 153.192 308.948 152.974 309.076 152.771C309.215 152.568 309.385 152.408 309.588 152.291C309.801 152.163 310.004 152.099 310.196 152.099ZM319.104 157.027C319.798 157.027 320.416 157.214 320.96 157.587C321.504 157.95 321.931 158.446 322.24 159.075C322.55 159.704 322.704 160.398 322.704 161.155C322.704 161.976 322.459 162.75 321.968 163.475C321.478 164.19 320.859 164.76 320.112 165.187C319.376 165.614 318.662 165.827 317.968 165.827C317.286 165.827 316.667 165.646 316.112 165.283C315.568 164.92 315.142 164.424 314.832 163.795C314.523 163.166 314.368 162.472 314.368 161.715C314.368 160.894 314.614 160.12 315.104 159.395C315.595 158.67 316.208 158.094 316.944 157.667C317.691 157.24 318.411 157.027 319.104 157.027ZM318.176 158.275C316.907 158.275 316.272 159.166 316.272 160.947C316.272 161.982 316.496 162.846 316.944 163.539C317.392 164.232 318.043 164.579 318.896 164.579C320.155 164.579 320.784 163.688 320.784 161.907C320.784 160.872 320.56 160.008 320.112 159.315C319.664 158.622 319.019 158.275 318.176 158.275ZM334.56 165.683H331.648V160.227C331.648 159.619 331.552 159.198 331.36 158.963C331.168 158.728 330.832 158.611 330.352 158.611C329.979 158.611 329.611 158.68 329.248 158.819C328.896 158.947 328.47 159.214 327.968 159.619V164.547L329.408 165.123L329.12 165.683H324.784V165.267L326.208 164.163V159.459L324.784 158.643V158.227L327.392 156.883L327.904 159.011L330.24 157.155C330.464 157.07 330.747 157.027 331.088 157.027C331.803 157.027 332.368 157.251 332.784 157.699C333.2 158.136 333.408 158.734 333.408 159.491V164.531L334.848 165.123L334.56 165.683ZM348.897 165.667H345.985V164.275L344.177 165.699C343.964 165.784 343.697 165.827 343.377 165.827C342.481 165.827 341.831 165.603 341.425 165.155C341.031 164.707 340.833 164.168 340.833 163.539C340.833 163.155 340.972 162.782 341.249 162.419C341.527 162.046 341.927 161.694 342.449 161.363H345.985V160.195C345.985 159.48 345.793 158.979 345.409 158.691C345.036 158.403 344.519 158.259 343.857 158.259C343.207 158.259 342.428 158.68 341.521 159.523L341.041 158.979L343.361 157.139C343.777 157.064 344.268 157.027 344.833 157.027C345.751 157.027 346.465 157.262 346.977 157.731C347.489 158.19 347.745 158.856 347.745 159.731V164.547L349.185 165.107L348.897 165.667ZM343.825 164.627C344.497 164.627 345.217 164.312 345.985 163.683V161.939H343.105C342.945 162.12 342.833 162.302 342.769 162.483C342.716 162.664 342.689 162.867 342.689 163.091C342.689 163.507 342.791 163.87 342.993 164.179C343.207 164.478 343.484 164.627 343.825 164.627ZM360.326 165.683H357.414V160.227C357.414 159.619 357.318 159.198 357.126 158.963C356.934 158.728 356.598 158.611 356.118 158.611C355.745 158.611 355.377 158.68 355.014 158.819C354.662 158.947 354.235 159.214 353.734 159.619V164.547L355.174 165.123L354.886 165.683H350.55V165.267L351.974 164.163V159.459L350.55 158.643V158.227L353.158 156.883L353.67 159.011L356.006 157.155C356.23 157.07 356.513 157.027 356.854 157.027C357.569 157.027 358.134 157.251 358.55 157.699C358.966 158.136 359.174 158.734 359.174 159.491V164.531L360.614 165.123L360.326 165.683ZM371.54 165.667H368.628V164.515L367.14 165.699C366.798 165.784 366.388 165.827 365.908 165.827C365.204 165.827 364.569 165.646 364.004 165.283C363.449 164.92 363.012 164.424 362.692 163.795C362.382 163.166 362.228 162.472 362.228 161.715C362.228 160.894 362.473 160.12 362.964 159.395C363.454 158.67 364.068 158.094 364.804 157.667C365.55 157.24 366.27 157.027 366.964 157.027C367.582 157.027 368.137 157.208 368.628 157.571V154.099L367.204 153.091V152.675L369.86 151.699H370.388V164.531L371.828 165.107L371.54 165.667ZM366.66 164.611C366.99 164.611 367.305 164.563 367.604 164.467C367.902 164.371 368.244 164.184 368.628 163.907V160.147C368.564 159.603 368.308 159.155 367.86 158.803C367.412 158.451 366.804 158.275 366.036 158.275C364.777 158.275 364.148 159.166 364.148 160.947C364.148 161.982 364.366 162.856 364.804 163.571C365.241 164.275 365.865 164.627 366.676 164.627L366.66 164.611ZM382.602 165.843C381.972 165.843 381.412 165.662 380.922 165.299V168.499L383.114 169.187L382.842 169.747H377.738V169.331L379.162 168.227V159.459L377.738 158.643V158.227L380.346 156.883L380.858 159.011L383.21 157.155C383.551 157.07 383.94 157.027 384.378 157.027C384.932 157.027 385.434 157.214 385.882 157.587C386.34 157.95 386.698 158.446 386.954 159.075C387.21 159.704 387.338 160.398 387.338 161.155C387.338 161.976 387.092 162.75 386.602 163.475C386.111 164.19 385.492 164.76 384.746 165.187C384.01 165.614 383.295 165.827 382.602 165.827V165.843ZM383.578 158.451C383.162 158.451 382.756 158.536 382.362 158.707C381.978 158.867 381.498 159.214 380.922 159.747V162.467C380.922 163.075 381.146 163.582 381.594 163.987C382.042 164.392 382.687 164.595 383.53 164.595C384.159 164.595 384.628 164.371 384.938 163.923C385.258 163.475 385.418 162.814 385.418 161.939C385.418 160.958 385.258 160.131 384.938 159.459C384.618 158.776 384.17 158.435 383.594 158.435L383.578 158.451ZM394.401 157.027C395.094 157.027 395.713 157.214 396.257 157.587C396.801 157.95 397.228 158.446 397.537 159.075C397.846 159.704 398.001 160.398 398.001 161.155C398.001 161.976 397.756 162.75 397.265 163.475C396.774 164.19 396.156 164.76 395.409 165.187C394.673 165.614 393.958 165.827 393.265 165.827C392.582 165.827 391.964 165.646 391.409 165.283C390.865 164.92 390.438 164.424 390.129 163.795C389.82 163.166 389.665 162.472 389.665 161.715C389.665 160.894 389.91 160.12 390.401 159.395C390.892 158.67 391.505 158.094 392.241 157.667C392.988 157.24 393.708 157.027 394.401 157.027ZM393.473 158.275C392.204 158.275 391.569 159.166 391.569 160.947C391.569 161.982 391.793 162.846 392.241 163.539C392.689 164.232 393.34 164.579 394.193 164.579C395.452 164.579 396.081 163.688 396.081 161.907C396.081 160.872 395.857 160.008 395.409 159.315C394.961 158.622 394.316 158.275 393.473 158.275ZM404.465 165.699C404.241 165.784 403.969 165.827 403.649 165.827C402.785 165.827 402.156 165.598 401.761 165.139C401.367 164.67 401.169 163.95 401.169 162.979V158.243H399.441V157.635L402.401 154.131H402.929V157.667H405.809V158.243H402.929V163.235C402.929 164.12 403.345 164.563 404.177 164.563C404.401 164.563 404.615 164.515 404.817 164.419C405.031 164.323 405.292 164.142 405.601 163.875L406.081 164.419L404.465 165.699ZM412.376 165.715C411.981 165.79 411.517 165.827 410.984 165.827C410.301 165.827 409.682 165.646 409.128 165.283C408.584 164.92 408.157 164.424 407.848 163.795C407.538 163.166 407.384 162.472 407.384 161.715C407.384 160.894 407.629 160.12 408.12 159.395C408.61 158.67 409.224 158.094 409.96 157.667C410.706 157.24 411.426 157.027 412.12 157.027C413.101 157.027 413.864 157.422 414.408 158.211C414.962 159 415.245 160.035 415.256 161.315H409.32C409.373 162.264 409.618 163.048 410.056 163.667C410.504 164.275 411.122 164.579 411.912 164.579C412.605 164.579 413.57 164.008 414.808 162.867L415.288 163.427L412.376 165.715ZM411.192 158.275C409.997 158.275 409.373 159.096 409.32 160.739H413.192C413.085 160.131 412.978 159.672 412.872 159.363C412.776 159.043 412.594 158.782 412.328 158.579C412.072 158.376 411.688 158.275 411.176 158.275H411.192ZM427.154 165.683H424.242V160.227C424.242 159.619 424.146 159.198 423.954 158.963C423.762 158.728 423.426 158.611 422.946 158.611C422.573 158.611 422.205 158.68 421.842 158.819C421.49 158.947 421.064 159.214 420.562 159.619V164.547L422.002 165.123L421.714 165.683H417.378V165.267L418.802 164.163V159.459L417.378 158.643V158.227L419.986 156.883L420.498 159.011L422.834 157.155C423.058 157.07 423.341 157.027 423.682 157.027C424.397 157.027 424.962 157.251 425.378 157.699C425.794 158.136 426.002 158.734 426.002 159.491V164.531L427.442 165.123L427.154 165.683ZM433.184 165.699C432.96 165.784 432.688 165.827 432.368 165.827C431.504 165.827 430.875 165.598 430.48 165.139C430.085 164.67 429.888 163.95 429.888 162.979V158.243H428.16V157.635L431.12 154.131H431.648V157.667H434.528V158.243H431.648V163.235C431.648 164.12 432.064 164.563 432.896 164.563C433.12 164.563 433.333 164.515 433.536 164.419C433.749 164.323 434.011 164.142 434.32 163.875L434.8 164.419L433.184 165.699ZM440.324 165.667H435.988V165.251L437.412 164.147V159.283L435.988 158.275V157.859L438.644 156.883H439.172V164.531L440.612 165.107L440.324 165.667ZM438.212 152.099C438.51 152.099 438.75 152.211 438.932 152.435C439.124 152.659 439.22 152.936 439.22 153.267C439.22 153.502 439.15 153.726 439.012 153.939C438.884 154.142 438.713 154.307 438.5 154.435C438.297 154.552 438.1 154.611 437.908 154.611C437.62 154.611 437.38 154.499 437.188 154.275C436.996 154.04 436.9 153.758 436.9 153.427C436.9 153.192 436.964 152.974 437.092 152.771C437.23 152.568 437.401 152.408 437.604 152.291C437.817 152.163 438.02 152.099 438.212 152.099ZM450.288 165.667H447.376V164.275L445.568 165.699C445.354 165.784 445.088 165.827 444.768 165.827C443.872 165.827 443.221 165.603 442.816 165.155C442.421 164.707 442.224 164.168 442.224 163.539C442.224 163.155 442.362 162.782 442.64 162.419C442.917 162.046 443.317 161.694 443.84 161.363H447.376V160.195C447.376 159.48 447.184 158.979 446.8 158.691C446.426 158.403 445.909 158.259 445.248 158.259C444.597 158.259 443.818 158.68 442.912 159.523L442.432 158.979L444.752 157.139C445.168 157.064 445.658 157.027 446.224 157.027C447.141 157.027 447.856 157.262 448.368 157.731C448.88 158.19 449.136 158.856 449.136 159.731V164.547L450.576 165.107L450.288 165.667ZM445.216 164.627C445.888 164.627 446.608 164.312 447.376 163.683V161.939H444.496C444.336 162.12 444.224 162.302 444.16 162.483C444.106 162.664 444.08 162.867 444.08 163.091C444.08 163.507 444.181 163.87 444.384 164.179C444.597 164.478 444.874 164.627 445.216 164.627ZM455.957 165.683H451.621V165.267L453.045 164.163V154.099L451.621 153.091V152.675L454.277 151.699H454.805V164.531L456.245 165.123L455.957 165.683Z" fill="white"/>
</svg>
