<svg width="768" height="244" viewBox="0 0 768 244" fill="none" xmlns="http://www.w3.org/2000/svg">
<path d="M45.7969 46.375L34.5469 52.4688C34.7031 54.0625 34.8906 55.6562 35.1094 57.25C35.3594 58.8438 35.5938 60.4375 35.8125 62.0312C36.0625 63.625 36.2656 65.2188 36.4219 66.8125C36.6094 68.4062 36.7031 70 36.7031 71.5938C36.7031 74.1562 36.3906 76.4531 35.7656 78.4844C35.1719 80.5156 34.25 82.2344 33 83.6406C31.75 85.0469 30.1406 86.125 28.1719 86.875C26.2344 87.625 23.9375 88 21.2812 88C17.875 88 15.0781 87.0781 12.8906 85.2344C10.7031 83.3906 9.32812 80.7969 8.76562 77.4531L0.703125 73.3281H21.6562C20.5312 73.9531 19.4062 74.5781 18.2812 75.2031C17.1562 75.8281 16 76.4531 14.8125 77.0781C14.8438 78.0156 15 78.9062 15.2812 79.75C15.5938 80.5625 16.0156 81.2812 16.5469 81.9062C17.1094 82.5312 17.7812 83.0156 18.5625 83.3594C19.375 83.7344 20.2812 83.9219 21.2812 83.9219C22.875 83.9219 24.1562 83.5625 25.125 82.8438C26.125 82.125 26.8906 81.2188 27.4219 80.125C27.9844 79 28.3594 77.7656 28.5469 76.4219C28.7344 75.0781 28.8281 73.7656 28.8281 72.4844C28.8281 70.8906 28.7344 69.3281 28.5469 67.7969C28.3906 66.2344 28.1875 64.6875 27.9375 63.1562C27.6875 61.5938 27.4062 60.0469 27.0938 58.5156C26.8125 56.9844 26.5312 55.4375 26.25 53.875L9.9375 51.8125L45.7969 46.375ZM73.4062 70.6562C73.4062 72.8125 72.8594 74.6406 71.7656 76.1406C70.7031 77.6094 69.3281 78.8125 67.6406 79.75C65.9844 80.6562 64.1719 81.3281 62.2031 81.7656C60.2344 82.1719 58.3594 82.375 56.5781 82.375C54.8281 82.375 53 82.1562 51.0938 81.7188C49.2188 81.2812 47.4844 80.5938 45.8906 79.6562C44.3281 78.7188 43.0312 77.5156 42 76.0469C41 74.5469 40.5 72.75 40.5 70.6562C40.5 68.375 41.0469 66.4844 42.1406 64.9844C43.2344 63.4844 44.6094 62.2969 46.2656 61.4219C47.9531 60.5469 49.7969 59.9375 51.7969 59.5938C53.8281 59.25 55.7812 59.0781 57.6562 59.0781C59.375 59.0781 61.1562 59.2969 63 59.7344C64.875 60.1719 66.5781 60.8594 68.1094 61.7969C69.6719 62.7031 70.9375 63.8906 71.9062 65.3594C72.9062 66.8281 73.4062 68.5938 73.4062 70.6562ZM65.6719 70.5625C65.6719 69.4375 65.4531 68.4062 65.0156 67.4688C64.6094 66.5312 64.0312 65.7188 63.2812 65.0312C62.5625 64.3438 61.7188 63.8125 60.75 63.4375C59.7812 63.0625 58.75 62.875 57.6562 62.875C56.5312 62.875 55.4062 63.0469 54.2812 63.3906C53.1562 63.7031 52.1406 64.1719 51.2344 64.7969C50.3281 65.4219 49.5938 66.2188 49.0312 67.1875C48.4688 68.125 48.1875 69.2031 48.1875 70.4219C48.1875 71.6406 48.375 72.75 48.75 73.75C49.1562 74.75 49.7188 75.6094 50.4375 76.3281C51.1875 77.0469 52.0625 77.6094 53.0625 78.0156C54.0625 78.3906 55.1719 78.5781 56.3906 78.5781C57.7031 78.5781 58.9219 78.4375 60.0469 78.1562C61.1719 77.8438 62.1562 77.3594 63 76.7031C63.8438 76.0469 64.5 75.2188 64.9688 74.2188C65.4375 73.1875 65.6719 71.9688 65.6719 70.5625ZM86.9062 48.8594C86.9062 49.5469 86.7656 50.2031 86.4844 50.8281C86.2344 51.4219 85.875 51.9531 85.4062 52.4219C84.9688 52.8594 84.4375 53.2188 83.8125 53.5C83.2188 53.75 82.5781 53.875 81.8906 53.875C81.2031 53.875 80.5625 53.75 79.9688 53.5C79.375 53.2188 78.8438 52.8594 78.375 52.4219C77.9375 51.9531 77.5781 51.4219 77.2969 50.8281C77.0469 50.2031 76.9219 49.5469 76.9219 48.8594C76.9219 48.1719 77.0469 47.5312 77.2969 46.9375C77.5781 46.3438 77.9375 45.8281 78.375 45.3906C78.8438 44.9219 79.375 44.5625 79.9688 44.3125C80.5625 44.0312 81.2031 43.8906 81.8906 43.8906C82.5781 43.8906 83.2188 44.0312 83.8125 44.3125C84.4375 44.5625 84.9688 44.9219 85.4062 45.3906C85.875 45.8281 86.2344 46.3438 86.4844 46.9375C86.7656 47.5312 86.9062 48.1719 86.9062 48.8594ZM92.3906 82.0938L71.3906 81.7188L79.1719 76.8906L78.5156 61.3281L69.5625 57.1094H86.7656L85.2188 77.2188L92.3906 82.0938ZM124.641 78.9062L104.297 79.0469L113.062 75.6719V67.2344C113.062 65.5781 112.641 64.2656 111.797 63.2969C110.984 62.2969 109.734 61.7969 108.047 61.7969C107.203 61.7969 106.297 61.9375 105.328 62.2188C104.391 62.5 103.688 63.0312 103.219 63.8125L102.188 72.9062C102.5 73.1562 102.984 73.4688 103.641 73.8438C104.328 74.2188 105.031 74.5938 105.75 74.9688C106.562 75.4062 107.438 75.8594 108.375 76.3281L89.1094 76.4219L96.9844 73.1875L95.5781 61.8906C94.6719 61.6406 93.625 61.3594 92.4375 61.0469C91.25 60.7031 90.1094 60.3594 89.0156 60.0156C87.7656 59.6406 86.4688 59.25 85.125 58.8438L103.734 55.75L103.5 58.6094C104.594 58.1719 105.766 57.7344 107.016 57.2969C108.266 56.8594 109.484 56.6406 110.672 56.6406C113.516 56.6406 115.719 57.4062 117.281 58.9375C118.844 60.4688 119.625 62.6719 119.625 65.5469C119.625 66.2656 119.578 67.0781 119.484 67.9844C119.422 68.8594 119.328 69.75 119.203 70.6562C119.078 71.5625 118.938 72.4688 118.781 73.375C118.656 74.25 118.531 75.0625 118.406 75.8125L124.641 78.9062ZM157.688 51.7188L157.266 56.125C155.734 56 154.219 55.8906 152.719 55.7969C151.219 55.6719 149.703 55.5312 148.172 55.375C147.922 58.3438 147.656 61.2969 147.375 64.2344C147.094 67.1719 146.812 70.125 146.531 73.0938C146.531 73.25 146.516 73.4062 146.484 73.5625C146.453 73.7188 146.438 73.875 146.438 74.0312C146.438 74.4688 146.484 74.9219 146.578 75.3906C146.672 75.8281 146.828 76.2344 147.047 76.6094C147.266 76.9531 147.547 77.25 147.891 77.5C148.266 77.7188 148.719 77.8281 149.25 77.8281C150.281 77.8281 151.188 77.5938 151.969 77.125C152.75 76.625 153.406 76 153.938 75.25C154.469 74.5 154.891 73.6719 155.203 72.7656C155.516 71.8281 155.719 70.9062 155.812 70C156.188 71.4688 156.375 72.9219 156.375 74.3594C156.375 75.7344 156.156 76.9844 155.719 78.1094C155.281 79.2031 154.672 80.1562 153.891 80.9688C153.109 81.75 152.172 82.3594 151.078 82.7969C149.984 83.2344 148.781 83.4531 147.469 83.4531C146.094 83.4531 144.891 83.2188 143.859 82.75C142.828 82.2812 141.969 81.6406 141.281 80.8281C140.625 79.9844 140.125 79 139.781 77.875C139.469 76.75 139.312 75.5469 139.312 74.2656C139.312 74.0156 139.312 73.7812 139.312 73.5625C139.312 73.3438 139.328 73.1094 139.359 72.8594C139.609 69.8281 139.844 66.8438 140.062 63.9062C140.312 60.9375 140.531 57.9375 140.719 54.9062C139.875 54.8438 139.031 54.7812 138.188 54.7188C137.375 54.625 136.547 54.5312 135.703 54.4375L135.891 50.7344C136.547 50.7031 137.234 50.5938 137.953 50.4062C138.672 50.2188 139.359 49.9688 140.016 49.6562C140.703 49.3438 141.328 48.9688 141.891 48.5312C142.484 48.0938 142.969 47.5938 143.344 47.0312C143.688 46.4688 144 45.8594 144.281 45.2031C144.594 44.5469 144.859 43.8594 145.078 43.1406C145.328 42.4219 145.531 41.7188 145.688 41.0312C145.844 40.3125 145.953 39.625 146.016 38.9688L149.859 39.0625L148.641 50.7812L157.688 51.7188ZM192.891 85.3281L173.25 84.7656L179.906 81.1562V72.5781C179.906 70.6406 179.406 69.1406 178.406 68.0781C177.406 67.0156 175.938 66.4844 174 66.4844C173.188 66.4844 172.266 66.5781 171.234 66.7656C170.234 66.9219 169.375 67.1875 168.656 67.5625C168.562 69.3438 168.469 71.125 168.375 72.9062C168.312 74.6562 168.25 76.4219 168.188 78.2031L174.141 81.7656L154.5 82.5625L162.047 78.3906L160.828 46.8906L149.297 43.8438L169.828 40.7969L168.844 63.2969C169.625 63.0469 170.422 62.875 171.234 62.7812C172.047 62.6875 172.859 62.6406 173.672 62.6406H173.859C175.203 62.6406 176.656 62.7812 178.219 63.0625C179.781 63.3125 181.219 63.7656 182.531 64.4219C183.875 65.0469 184.984 65.9219 185.859 67.0469C186.734 68.1406 187.172 69.5312 187.172 71.2188C187.172 71.8125 187.109 72.5469 186.984 73.4219C186.891 74.2969 186.766 75.2031 186.609 76.1406C186.453 77.0781 186.281 77.9844 186.094 78.8594C185.906 79.7031 185.75 80.4062 185.625 80.9688L192.891 85.3281ZM216.609 73.4688C216.609 73.6875 216.594 73.9062 216.562 74.125C216.562 74.3438 216.562 74.5625 216.562 74.7812L197.484 75.1562C197.891 77 198.812 78.3594 200.25 79.2344C201.688 80.1094 203.312 80.5469 205.125 80.5469C206 80.5469 206.891 80.4844 207.797 80.3594C208.703 80.2344 209.594 80.0312 210.469 79.75C211.344 79.4688 212.172 79.1094 212.953 78.6719C213.734 78.2031 214.438 77.6562 215.062 77.0312C214.719 78.3438 214.141 79.5 213.328 80.5C212.516 81.5 211.547 82.3281 210.422 82.9844C209.328 83.6406 208.125 84.125 206.812 84.4375C205.531 84.7812 204.25 84.9531 202.969 84.9531C201.219 84.9531 199.547 84.6406 197.953 84.0156C196.391 83.3906 195.016 82.5312 193.828 81.4375C192.672 80.3438 191.75 79.0312 191.062 77.5C190.375 75.9688 190.031 74.2969 190.031 72.4844C190.031 70.5781 190.422 68.8438 191.203 67.2812C191.984 65.7188 193.016 64.3906 194.297 63.2969C195.578 62.1719 197.062 61.3125 198.75 60.7188C200.438 60.125 202.203 59.8281 204.047 59.8281C205.984 59.8281 207.719 60.1875 209.25 60.9062C210.812 61.625 212.141 62.6094 213.234 63.8594C214.328 65.1094 215.156 66.5625 215.719 68.2188C216.312 69.8438 216.609 71.5938 216.609 73.4688ZM209.438 71.0781C209.375 70.2344 209.203 69.4219 208.922 68.6406C208.641 67.8594 208.25 67.1719 207.75 66.5781C207.25 65.9844 206.641 65.5156 205.922 65.1719C205.234 64.7969 204.422 64.6094 203.484 64.6094C202.547 64.6094 201.734 64.7812 201.047 65.125C200.359 65.4688 199.781 65.9375 199.312 66.5312C198.844 67.0938 198.453 67.7656 198.141 68.5469C197.859 69.2969 197.641 70.0781 197.484 70.8906L209.438 71.0781ZM268.734 60.2031C268.734 61.3594 268.328 62.375 267.516 63.25C266.703 64.0938 265.641 64.8438 264.328 65.5C263.047 66.125 261.609 66.6562 260.016 67.0938C258.453 67.5312 256.891 67.8906 255.328 68.1719C253.797 68.4531 252.359 68.6719 251.016 68.8281C249.703 68.9531 248.656 69.0312 247.875 69.0625L248.25 78.625L259.125 83.125L229.547 83.5L239.625 78.2031L239.203 56.2188L228.141 51.2031L250.688 51.8125C251.531 51.8438 252.562 51.9062 253.781 52C255.031 52.0938 256.312 52.2656 257.625 52.5156C258.969 52.7344 260.297 53.0469 261.609 53.4531C262.953 53.8281 264.141 54.3281 265.172 54.9531C266.234 55.5469 267.094 56.2812 267.75 57.1562C268.406 58 268.734 59.0156 268.734 60.2031ZM262.266 60.2031C262.266 59.6406 262.047 59.1562 261.609 58.75C261.172 58.3125 260.609 57.9531 259.922 57.6719C259.234 57.3594 258.469 57.1094 257.625 56.9219C256.781 56.7031 255.953 56.5469 255.141 56.4531C254.328 56.3281 253.578 56.25 252.891 56.2188C252.234 56.1562 251.719 56.125 251.344 56.125C250.625 56.125 249.891 56.1406 249.141 56.1719C248.391 56.2031 247.656 56.25 246.938 56.3125L247.172 64.9375C247.578 65 247.953 65.0312 248.297 65.0312C248.672 65.0312 249.047 65.0312 249.422 65.0312C249.859 65.0312 250.469 65.0156 251.25 64.9844C252.062 64.9219 252.938 64.8281 253.875 64.7031C254.844 64.5469 255.812 64.3594 256.781 64.1406C257.781 63.8906 258.688 63.5938 259.5 63.25C260.312 62.875 260.969 62.4375 261.469 61.9375C262 61.4375 262.266 60.8594 262.266 60.2031ZM284.156 48.8594C284.156 49.5469 284.016 50.2031 283.734 50.8281C283.484 51.4219 283.125 51.9531 282.656 52.4219C282.219 52.8594 281.688 53.2188 281.062 53.5C280.469 53.75 279.828 53.875 279.141 53.875C278.453 53.875 277.812 53.75 277.219 53.5C276.625 53.2188 276.094 52.8594 275.625 52.4219C275.188 51.9531 274.828 51.4219 274.547 50.8281C274.297 50.2031 274.172 49.5469 274.172 48.8594C274.172 48.1719 274.297 47.5312 274.547 46.9375C274.828 46.3438 275.188 45.8281 275.625 45.3906C276.094 44.9219 276.625 44.5625 277.219 44.3125C277.812 44.0312 278.453 43.8906 279.141 43.8906C279.828 43.8906 280.469 44.0312 281.062 44.3125C281.688 44.5625 282.219 44.9219 282.656 45.3906C283.125 45.8281 283.484 46.3438 283.734 46.9375C284.016 47.5312 284.156 48.1719 284.156 48.8594ZM289.641 82.0938L268.641 81.7188L276.422 76.8906L275.766 61.3281L266.812 57.1094H284.016L282.469 77.2188L289.641 82.0938ZM307.266 84.8594L285.938 85.6562L293.953 80.5469L292.406 45.1094L281.391 41.0312L301.219 40.7969L299.812 80.3125L307.266 84.8594ZM337.781 70.6562C337.781 72.8125 337.234 74.6406 336.141 76.1406C335.078 77.6094 333.703 78.8125 332.016 79.75C330.359 80.6562 328.547 81.3281 326.578 81.7656C324.609 82.1719 322.734 82.375 320.953 82.375C319.203 82.375 317.375 82.1562 315.469 81.7188C313.594 81.2812 311.859 80.5938 310.266 79.6562C308.703 78.7188 307.406 77.5156 306.375 76.0469C305.375 74.5469 304.875 72.75 304.875 70.6562C304.875 68.375 305.422 66.4844 306.516 64.9844C307.609 63.4844 308.984 62.2969 310.641 61.4219C312.328 60.5469 314.172 59.9375 316.172 59.5938C318.203 59.25 320.156 59.0781 322.031 59.0781C323.75 59.0781 325.531 59.2969 327.375 59.7344C329.25 60.1719 330.953 60.8594 332.484 61.7969C334.047 62.7031 335.312 63.8906 336.281 65.3594C337.281 66.8281 337.781 68.5938 337.781 70.6562ZM330.047 70.5625C330.047 69.4375 329.828 68.4062 329.391 67.4688C328.984 66.5312 328.406 65.7188 327.656 65.0312C326.938 64.3438 326.094 63.8125 325.125 63.4375C324.156 63.0625 323.125 62.875 322.031 62.875C320.906 62.875 319.781 63.0469 318.656 63.3906C317.531 63.7031 316.516 64.1719 315.609 64.7969C314.703 65.4219 313.969 66.2188 313.406 67.1875C312.844 68.125 312.562 69.2031 312.562 70.4219C312.562 71.6406 312.75 72.75 313.125 73.75C313.531 74.75 314.094 75.6094 314.812 76.3281C315.562 77.0469 316.438 77.6094 317.438 78.0156C318.438 78.3906 319.547 78.5781 320.766 78.5781C322.078 78.5781 323.297 78.4375 324.422 78.1562C325.547 77.8438 326.531 77.3594 327.375 76.7031C328.219 76.0469 328.875 75.2188 329.344 74.2188C329.812 73.1875 330.047 71.9688 330.047 70.5625ZM359.297 51.7188L358.875 56.125C357.344 56 355.828 55.8906 354.328 55.7969C352.828 55.6719 351.312 55.5312 349.781 55.375C349.531 58.3438 349.266 61.2969 348.984 64.2344C348.703 67.1719 348.422 70.125 348.141 73.0938C348.141 73.25 348.125 73.4062 348.094 73.5625C348.062 73.7188 348.047 73.875 348.047 74.0312C348.047 74.4688 348.094 74.9219 348.188 75.3906C348.281 75.8281 348.438 76.2344 348.656 76.6094C348.875 76.9531 349.156 77.25 349.5 77.5C349.875 77.7188 350.328 77.8281 350.859 77.8281C351.891 77.8281 352.797 77.5938 353.578 77.125C354.359 76.625 355.016 76 355.547 75.25C356.078 74.5 356.5 73.6719 356.812 72.7656C357.125 71.8281 357.328 70.9062 357.422 70C357.797 71.4688 357.984 72.9219 357.984 74.3594C357.984 75.7344 357.766 76.9844 357.328 78.1094C356.891 79.2031 356.281 80.1562 355.5 80.9688C354.719 81.75 353.781 82.3594 352.688 82.7969C351.594 83.2344 350.391 83.4531 349.078 83.4531C347.703 83.4531 346.5 83.2188 345.469 82.75C344.438 82.2812 343.578 81.6406 342.891 80.8281C342.234 79.9844 341.734 79 341.391 77.875C341.078 76.75 340.922 75.5469 340.922 74.2656C340.922 74.0156 340.922 73.7812 340.922 73.5625C340.922 73.3438 340.938 73.1094 340.969 72.8594C341.219 69.8281 341.453 66.8438 341.672 63.9062C341.922 60.9375 342.141 57.9375 342.328 54.9062C341.484 54.8438 340.641 54.7812 339.797 54.7188C338.984 54.625 338.156 54.5312 337.312 54.4375L337.5 50.7344C338.156 50.7031 338.844 50.5938 339.562 50.4062C340.281 50.2188 340.969 49.9688 341.625 49.6562C342.312 49.3438 342.938 48.9688 343.5 48.5312C344.094 48.0938 344.578 47.5938 344.953 47.0312C345.297 46.4688 345.609 45.8594 345.891 45.2031C346.203 44.5469 346.469 43.8594 346.688 43.1406C346.938 42.4219 347.141 41.7188 347.297 41.0312C347.453 40.3125 347.562 39.625 347.625 38.9688L351.469 39.0625L350.25 50.7812L359.297 51.7188ZM409.734 60.2031C409.734 61.3594 409.328 62.375 408.516 63.25C407.703 64.0938 406.641 64.8438 405.328 65.5C404.047 66.125 402.609 66.6562 401.016 67.0938C399.453 67.5312 397.891 67.8906 396.328 68.1719C394.797 68.4531 393.359 68.6719 392.016 68.8281C390.703 68.9531 389.656 69.0312 388.875 69.0625L389.25 78.625L400.125 83.125L370.547 83.5L380.625 78.2031L380.203 56.2188L369.141 51.2031L391.688 51.8125C392.531 51.8438 393.562 51.9062 394.781 52C396.031 52.0938 397.312 52.2656 398.625 52.5156C399.969 52.7344 401.297 53.0469 402.609 53.4531C403.953 53.8281 405.141 54.3281 406.172 54.9531C407.234 55.5469 408.094 56.2812 408.75 57.1562C409.406 58 409.734 59.0156 409.734 60.2031ZM403.266 60.2031C403.266 59.6406 403.047 59.1562 402.609 58.75C402.172 58.3125 401.609 57.9531 400.922 57.6719C400.234 57.3594 399.469 57.1094 398.625 56.9219C397.781 56.7031 396.953 56.5469 396.141 56.4531C395.328 56.3281 394.578 56.25 393.891 56.2188C393.234 56.1562 392.719 56.125 392.344 56.125C391.625 56.125 390.891 56.1406 390.141 56.1719C389.391 56.2031 388.656 56.25 387.938 56.3125L388.172 64.9375C388.578 65 388.953 65.0312 389.297 65.0312C389.672 65.0312 390.047 65.0312 390.422 65.0312C390.859 65.0312 391.469 65.0156 392.25 64.9844C393.062 64.9219 393.938 64.8281 394.875 64.7031C395.844 64.5469 396.812 64.3594 397.781 64.1406C398.781 63.8906 399.688 63.5938 400.5 63.25C401.312 62.875 401.969 62.4375 402.469 61.9375C403 61.4375 403.266 60.8594 403.266 60.2031ZM439.312 59.125C439.312 60.4062 438.922 61.4688 438.141 62.3125C437.359 63.125 436.312 63.5312 435 63.5312C434.031 63.5312 433.281 63.3594 432.75 63.0156C432.219 62.6406 431.766 62.2344 431.391 61.7969C431.047 61.3281 430.688 60.9219 430.312 60.5781C429.969 60.2031 429.469 60.0156 428.812 60.0156C427.656 60.0156 426.734 60.3906 426.047 61.1406C425.359 61.8594 424.844 62.7188 424.5 63.7188C424.469 63.7812 424.438 64.0781 424.406 64.6094C424.406 65.1406 424.391 65.8125 424.359 66.625C424.328 67.4375 424.297 68.3281 424.266 69.2969C424.234 70.2656 424.203 71.1875 424.172 72.0625C424.141 72.9375 424.109 73.7188 424.078 74.4062C424.047 75.0625 424.031 75.5 424.031 75.7188L435.422 79.8438L408.328 82.6094C409.953 81.5781 411.578 80.5625 413.203 79.5625C414.828 78.5312 416.453 77.5156 418.078 76.5156L416.344 60.1562L405.891 57.3438L424.781 53.2188L424.688 57.5312C426 56.625 427.344 55.8594 428.719 55.2344C430.125 54.5781 431.672 54.25 433.359 54.25C433.922 54.25 434.5 54.3125 435.094 54.4375C435.688 54.5625 436.25 54.75 436.781 55C437.312 55.25 437.781 55.5938 438.188 56.0312C438.594 56.4375 438.891 56.9375 439.078 57.5312C439.234 58.0938 439.312 58.625 439.312 59.125ZM470.297 70.6562C470.297 72.8125 469.75 74.6406 468.656 76.1406C467.594 77.6094 466.219 78.8125 464.531 79.75C462.875 80.6562 461.062 81.3281 459.094 81.7656C457.125 82.1719 455.25 82.375 453.469 82.375C451.719 82.375 449.891 82.1562 447.984 81.7188C446.109 81.2812 444.375 80.5938 442.781 79.6562C441.219 78.7188 439.922 77.5156 438.891 76.0469C437.891 74.5469 437.391 72.75 437.391 70.6562C437.391 68.375 437.938 66.4844 439.031 64.9844C440.125 63.4844 441.5 62.2969 443.156 61.4219C444.844 60.5469 446.688 59.9375 448.688 59.5938C450.719 59.25 452.672 59.0781 454.547 59.0781C456.266 59.0781 458.047 59.2969 459.891 59.7344C461.766 60.1719 463.469 60.8594 465 61.7969C466.562 62.7031 467.828 63.8906 468.797 65.3594C469.797 66.8281 470.297 68.5938 470.297 70.6562ZM462.562 70.5625C462.562 69.4375 462.344 68.4062 461.906 67.4688C461.5 66.5312 460.922 65.7188 460.172 65.0312C459.453 64.3438 458.609 63.8125 457.641 63.4375C456.672 63.0625 455.641 62.875 454.547 62.875C453.422 62.875 452.297 63.0469 451.172 63.3906C450.047 63.7031 449.031 64.1719 448.125 64.7969C447.219 65.4219 446.484 66.2188 445.922 67.1875C445.359 68.125 445.078 69.2031 445.078 70.4219C445.078 71.6406 445.266 72.75 445.641 73.75C446.047 74.75 446.609 75.6094 447.328 76.3281C448.078 77.0469 448.953 77.6094 449.953 78.0156C450.953 78.3906 452.062 78.5781 453.281 78.5781C454.594 78.5781 455.812 78.4375 456.938 78.1562C458.062 77.8438 459.047 77.3594 459.891 76.7031C460.734 76.0469 461.391 75.2188 461.859 74.2188C462.328 73.1875 462.562 71.9688 462.562 70.5625ZM481.312 51.8125C481.312 52.5 481.172 53.1406 480.891 53.7344C480.641 54.3281 480.297 54.8594 479.859 55.3281C479.422 55.7656 478.891 56.1094 478.266 56.3594C477.672 56.6094 477.031 56.7344 476.344 56.7344C475.656 56.7344 475 56.6094 474.375 56.3594C473.781 56.1094 473.25 55.7656 472.781 55.3281C472.344 54.8594 471.984 54.3281 471.703 53.7344C471.453 53.1406 471.328 52.5 471.328 51.8125C471.328 51.125 471.453 50.4844 471.703 49.8906C471.984 49.2656 472.344 48.7344 472.781 48.2969C473.25 47.8281 473.781 47.4688 474.375 47.2188C475 46.9375 475.656 46.7969 476.344 46.7969C477.031 46.7969 477.672 46.9375 478.266 47.2188C478.891 47.4688 479.422 47.8281 479.859 48.2969C480.297 48.7344 480.641 49.2656 480.891 49.8906C481.172 50.4844 481.312 51.125 481.312 51.8125ZM485.016 86.4062C485.016 88.25 484.828 89.9062 484.453 91.375C484.078 92.8438 483.469 94.0938 482.625 95.125C481.812 96.1562 480.734 96.9531 479.391 97.5156C478.047 98.0781 476.406 98.3594 474.469 98.3594C473.312 98.3594 472.172 98.1562 471.047 97.75C469.922 97.375 468.922 96.8281 468.047 96.1094C467.141 95.4219 466.406 94.5781 465.844 93.5781C465.281 92.5781 465 91.4531 465 90.2031C465 89.1406 465.328 88.2656 465.984 87.5781C466.641 86.8906 467.516 86.5469 468.609 86.5469C469.609 86.5469 470.484 86.875 471.234 87.5312C472.016 88.1875 472.406 89.0469 472.406 90.1094C472.406 90.6406 472.281 91.125 472.031 91.5625C471.812 92 471.5 92.375 471.094 92.6875C471.438 93.375 471.859 93.8906 472.359 94.2344C472.891 94.6094 473.547 94.7969 474.328 94.7969C475.141 94.7969 475.797 94.6562 476.297 94.375C476.828 94.0938 477.234 93.7188 477.516 93.25C477.828 92.7812 478.031 92.2344 478.125 91.6094C478.25 90.9844 478.312 90.3125 478.312 89.5938C478.312 88.9375 478.281 88.2656 478.219 87.5781C478.156 86.9219 478.094 86.2812 478.031 85.6562C477.625 82.0625 477.219 78.5156 476.812 75.0156C476.438 71.4844 476.016 67.9375 475.547 64.375L466.688 60.6719L482.531 58.7969L484.5 78.4844C484.656 79.8281 484.781 81.1562 484.875 82.4688C484.969 83.7812 485.016 85.0938 485.016 86.4062ZM513.469 73.4688C513.469 73.6875 513.453 73.9062 513.422 74.125C513.422 74.3438 513.422 74.5625 513.422 74.7812L494.344 75.1562C494.75 77 495.672 78.3594 497.109 79.2344C498.547 80.1094 500.172 80.5469 501.984 80.5469C502.859 80.5469 503.75 80.4844 504.656 80.3594C505.562 80.2344 506.453 80.0312 507.328 79.75C508.203 79.4688 509.031 79.1094 509.812 78.6719C510.594 78.2031 511.297 77.6562 511.922 77.0312C511.578 78.3438 511 79.5 510.188 80.5C509.375 81.5 508.406 82.3281 507.281 82.9844C506.188 83.6406 504.984 84.125 503.672 84.4375C502.391 84.7812 501.109 84.9531 499.828 84.9531C498.078 84.9531 496.406 84.6406 494.812 84.0156C493.25 83.3906 491.875 82.5312 490.688 81.4375C489.531 80.3438 488.609 79.0312 487.922 77.5C487.234 75.9688 486.891 74.2969 486.891 72.4844C486.891 70.5781 487.281 68.8438 488.062 67.2812C488.844 65.7188 489.875 64.3906 491.156 63.2969C492.438 62.1719 493.922 61.3125 495.609 60.7188C497.297 60.125 499.062 59.8281 500.906 59.8281C502.844 59.8281 504.578 60.1875 506.109 60.9062C507.672 61.625 509 62.6094 510.094 63.8594C511.188 65.1094 512.016 66.5625 512.578 68.2188C513.172 69.8438 513.469 71.5938 513.469 73.4688ZM506.297 71.0781C506.234 70.2344 506.062 69.4219 505.781 68.6406C505.5 67.8594 505.109 67.1719 504.609 66.5781C504.109 65.9844 503.5 65.5156 502.781 65.1719C502.094 64.7969 501.281 64.6094 500.344 64.6094C499.406 64.6094 498.594 64.7812 497.906 65.125C497.219 65.4688 496.641 65.9375 496.172 66.5312C495.703 67.0938 495.312 67.7656 495 68.5469C494.719 69.2969 494.5 70.0781 494.344 70.8906L506.297 71.0781ZM541.781 72.4375C541.812 74.4375 541.531 76.2188 540.938 77.7812C540.375 79.3438 539.531 80.6562 538.406 81.7188C537.312 82.7812 535.969 83.5781 534.375 84.1094C532.812 84.6719 531.062 84.9531 529.125 84.9531C527.219 84.9531 525.422 84.6406 523.734 84.0156C522.078 83.3906 520.625 82.5 519.375 81.3438C518.156 80.1875 517.188 78.8125 516.469 77.2188C515.75 75.625 515.391 73.8438 515.391 71.875C515.391 69.8125 515.797 67.9375 516.609 66.25C517.422 64.5625 518.516 63.125 519.891 61.9375C521.266 60.75 522.844 59.8438 524.625 59.2188C526.438 58.5625 528.328 58.2344 530.297 58.2344C531.359 58.2344 532.516 58.4062 533.766 58.75C535.047 59.0938 536.234 59.5938 537.328 60.25C538.453 60.9062 539.375 61.7188 540.094 62.6875C540.844 63.6562 541.219 64.7812 541.219 66.0625C541.219 67.25 540.859 68.2031 540.141 68.9219C539.422 69.6406 538.469 70 537.281 70C536.094 70 535.078 69.6719 534.234 69.0156C533.391 68.3281 532.969 67.375 532.969 66.1562C532.969 65.75 533 65.3281 533.062 64.8906C533.156 64.4219 533.312 64.0156 533.531 63.6719C533 63.2344 532.422 62.9219 531.797 62.7344C531.172 62.5469 530.531 62.4531 529.875 62.4531C528.688 62.4531 527.672 62.75 526.828 63.3438C526.016 63.9062 525.344 64.625 524.812 65.5C524.312 66.375 523.953 67.3594 523.734 68.4531C523.516 69.5156 523.406 70.5312 523.406 71.5C523.406 72.7188 523.594 73.8438 523.969 74.875C524.344 75.875 524.891 76.75 525.609 77.5C526.328 78.2188 527.188 78.7969 528.188 79.2344C529.188 79.6406 530.328 79.8438 531.609 79.8438C532.734 79.8438 533.797 79.625 534.797 79.1875C535.797 78.75 536.719 78.1875 537.562 77.5C538.406 76.7812 539.172 75.9844 539.859 75.1094C540.578 74.2344 541.219 73.3438 541.781 72.4375ZM563.297 51.7188L562.875 56.125C561.344 56 559.828 55.8906 558.328 55.7969C556.828 55.6719 555.312 55.5312 553.781 55.375C553.531 58.3438 553.266 61.2969 552.984 64.2344C552.703 67.1719 552.422 70.125 552.141 73.0938C552.141 73.25 552.125 73.4062 552.094 73.5625C552.062 73.7188 552.047 73.875 552.047 74.0312C552.047 74.4688 552.094 74.9219 552.188 75.3906C552.281 75.8281 552.438 76.2344 552.656 76.6094C552.875 76.9531 553.156 77.25 553.5 77.5C553.875 77.7188 554.328 77.8281 554.859 77.8281C555.891 77.8281 556.797 77.5938 557.578 77.125C558.359 76.625 559.016 76 559.547 75.25C560.078 74.5 560.5 73.6719 560.812 72.7656C561.125 71.8281 561.328 70.9062 561.422 70C561.797 71.4688 561.984 72.9219 561.984 74.3594C561.984 75.7344 561.766 76.9844 561.328 78.1094C560.891 79.2031 560.281 80.1562 559.5 80.9688C558.719 81.75 557.781 82.3594 556.688 82.7969C555.594 83.2344 554.391 83.4531 553.078 83.4531C551.703 83.4531 550.5 83.2188 549.469 82.75C548.438 82.2812 547.578 81.6406 546.891 80.8281C546.234 79.9844 545.734 79 545.391 77.875C545.078 76.75 544.922 75.5469 544.922 74.2656C544.922 74.0156 544.922 73.7812 544.922 73.5625C544.922 73.3438 544.938 73.1094 544.969 72.8594C545.219 69.8281 545.453 66.8438 545.672 63.9062C545.922 60.9375 546.141 57.9375 546.328 54.9062C545.484 54.8438 544.641 54.7812 543.797 54.7188C542.984 54.625 542.156 54.5312 541.312 54.4375L541.5 50.7344C542.156 50.7031 542.844 50.5938 543.562 50.4062C544.281 50.2188 544.969 49.9688 545.625 49.6562C546.312 49.3438 546.938 48.9688 547.5 48.5312C548.094 48.0938 548.578 47.5938 548.953 47.0312C549.297 46.4688 549.609 45.8594 549.891 45.2031C550.203 44.5469 550.469 43.8594 550.688 43.1406C550.938 42.4219 551.141 41.7188 551.297 41.0312C551.453 40.3125 551.562 39.625 551.625 38.9688L555.469 39.0625L554.25 50.7812L563.297 51.7188ZM611.766 50.2188L609.797 66.7188L605.812 54.25L599.578 54.1562L598.828 77.7812L609.422 82.8906L581.25 82.6094L591.516 77.5469L590.859 54.0625L585.047 54.0156L580.781 66.625L579.375 49.75L611.766 50.2188ZM637.406 73.4688C637.406 73.6875 637.391 73.9062 637.359 74.125C637.359 74.3438 637.359 74.5625 637.359 74.7812L618.281 75.1562C618.688 77 619.609 78.3594 621.047 79.2344C622.484 80.1094 624.109 80.5469 625.922 80.5469C626.797 80.5469 627.688 80.4844 628.594 80.3594C629.5 80.2344 630.391 80.0312 631.266 79.75C632.141 79.4688 632.969 79.1094 633.75 78.6719C634.531 78.2031 635.234 77.6562 635.859 77.0312C635.516 78.3438 634.938 79.5 634.125 80.5C633.312 81.5 632.344 82.3281 631.219 82.9844C630.125 83.6406 628.922 84.125 627.609 84.4375C626.328 84.7812 625.047 84.9531 623.766 84.9531C622.016 84.9531 620.344 84.6406 618.75 84.0156C617.188 83.3906 615.812 82.5312 614.625 81.4375C613.469 80.3438 612.547 79.0312 611.859 77.5C611.172 75.9688 610.828 74.2969 610.828 72.4844C610.828 70.5781 611.219 68.8438 612 67.2812C612.781 65.7188 613.812 64.3906 615.094 63.2969C616.375 62.1719 617.859 61.3125 619.547 60.7188C621.234 60.125 623 59.8281 624.844 59.8281C626.781 59.8281 628.516 60.1875 630.047 60.9062C631.609 61.625 632.938 62.6094 634.031 63.8594C635.125 65.1094 635.953 66.5625 636.516 68.2188C637.109 69.8438 637.406 71.5938 637.406 73.4688ZM630.234 71.0781C630.172 70.2344 630 69.4219 629.719 68.6406C629.438 67.8594 629.047 67.1719 628.547 66.5781C628.047 65.9844 627.438 65.5156 626.719 65.1719C626.031 64.7969 625.219 64.6094 624.281 64.6094C623.344 64.6094 622.531 64.7812 621.844 65.125C621.156 65.4688 620.578 65.9375 620.109 66.5312C619.641 67.0938 619.25 67.7656 618.938 68.5469C618.656 69.2969 618.438 70.0781 618.281 70.8906L630.234 71.0781ZM668.672 82.4688L653.812 83.0781L654.141 80.4531C653.141 80.5781 652.141 80.6562 651.141 80.6875C650.141 80.6875 649.141 80.6875 648.141 80.6875C647.234 80.6875 646.234 80.5781 645.141 80.3594C644.047 80.1406 643.031 79.7969 642.094 79.3281C641.156 78.8281 640.375 78.1875 639.75 77.4062C639.125 76.625 638.812 75.6719 638.812 74.5469C638.812 73.2969 639.109 72.2344 639.703 71.3594C640.297 70.4844 641.047 69.7812 641.953 69.25C642.891 68.7188 643.922 68.3281 645.047 68.0781C646.172 67.8281 647.266 67.7031 648.328 67.7031C649.641 67.7031 650.922 67.7656 652.172 67.8906C653.422 68.0156 654.688 68.125 655.969 68.2188C656.031 67.8125 656.078 67.4062 656.109 67C656.141 66.5625 656.156 66.125 656.156 65.6875C656.156 64.8438 656.078 64.0156 655.922 63.2031C655.797 62.3906 655.547 61.6719 655.172 61.0469C654.828 60.3906 654.328 59.875 653.672 59.5C653.047 59.125 652.234 58.9375 651.234 58.9375C650.297 58.9375 649.438 59.0938 648.656 59.4062C647.906 59.6875 647.234 60.1875 646.641 60.9062C647.078 61.25 647.375 61.6406 647.531 62.0781C647.688 62.4844 647.766 62.9531 647.766 63.4844V63.7656C647.297 65.9531 645.922 67.0469 643.641 67.0469C642.609 67.0469 641.766 66.6875 641.109 65.9688C640.453 65.2188 640.125 64.3438 640.125 63.3438C640.125 61.9688 640.516 60.7812 641.297 59.7812C642.078 58.7812 643.031 57.9531 644.156 57.2969C645.312 56.6406 646.547 56.1562 647.859 55.8438C649.203 55.5312 650.438 55.375 651.562 55.375C655.156 55.375 657.953 56.2031 659.953 57.8594C661.984 59.5156 663 62.2188 663 65.9688C663 66.375 662.984 66.7812 662.953 67.1875C662.953 67.5938 662.938 68 662.906 68.4062L661.781 79.1875C662.969 79.7188 664.125 80.2656 665.25 80.8281C666.375 81.3906 667.516 81.9375 668.672 82.4688ZM655.453 71.3594C654.641 71.2656 653.828 71.1719 653.016 71.0781C652.203 70.9531 651.391 70.8906 650.578 70.8906C650.047 70.8906 649.516 70.9531 648.984 71.0781C648.484 71.1719 648.016 71.3438 647.578 71.5938C647.172 71.8438 646.844 72.1875 646.594 72.625C646.344 73.0312 646.219 73.5469 646.219 74.1719C646.219 74.6406 646.328 75.0625 646.547 75.4375C646.766 75.7812 647.047 76.0781 647.391 76.3281C647.766 76.5781 648.156 76.7656 648.562 76.8906C649 77.0156 649.422 77.0781 649.828 77.0781C650.641 77.0781 651.453 77.0312 652.266 76.9375C653.109 76.8438 653.922 76.75 654.703 76.6562L655.453 71.3594ZM716.719 77.0312L697.453 76.1875L703.734 73.1406C703.797 72.1719 703.844 71.2188 703.875 70.2812C703.938 69.3125 703.969 68.3438 703.969 67.375C703.969 66.5625 703.906 65.8438 703.781 65.2188C703.656 64.5625 703.438 64.0156 703.125 63.5781C702.812 63.1094 702.359 62.75 701.766 62.5C701.203 62.25 700.484 62.125 699.609 62.125C698.859 62.125 698.188 62.2969 697.594 62.6406C697 62.9844 696.484 63.4375 696.047 64C695.641 64.5312 695.312 65.1406 695.062 65.8281C694.844 66.4844 694.703 67.1562 694.641 67.8438C694.484 69.1562 694.344 70.4844 694.219 71.8281C694.094 73.1719 693.969 74.5 693.844 75.8125L700.078 78.9062L679.734 79.0469L688.5 75.6719V67.2344C688.5 66.4219 688.359 65.6406 688.078 64.8906C687.797 64.1094 687.391 63.4375 686.859 62.875C686.391 62.4375 685.859 62.1562 685.266 62.0312C684.703 61.875 684.109 61.7969 683.484 61.7969C682.641 61.7969 681.734 61.9375 680.766 62.2188C679.828 62.5 679.125 63.0312 678.656 63.8125L677.625 72.9062L683.812 76.3281L664.547 76.4219L672.422 73.1875L671.016 61.8906C670.109 61.6406 669.062 61.3594 667.875 61.0469C666.688 60.7031 665.547 60.3594 664.453 60.0156C663.203 59.6406 661.906 59.25 660.562 58.8438L679.172 55.75L678.938 58.6094C680.156 57.8281 681.406 57.2969 682.688 57.0156C684 56.7344 685.312 56.5938 686.625 56.5938C687.969 56.5938 689.172 56.875 690.234 57.4375C691.297 57.9688 692.297 58.6875 693.234 59.5938C694.609 58.875 696.078 58.2344 697.641 57.6719C699.203 57.1094 700.781 56.8281 702.375 56.8281C703.75 56.8281 704.938 57.0469 705.938 57.4844C706.969 57.9219 707.812 58.5469 708.469 59.3594C709.125 60.1406 709.609 61.0781 709.922 62.1719C710.266 63.2344 710.438 64.4219 710.438 65.7344C710.438 66.3281 710.391 67.0469 710.297 67.8906C710.234 68.7031 710.156 69.5156 710.062 70.3281C709.938 71.2656 709.828 72.2344 709.734 73.2344L716.719 77.0312Z" fill="#FF9F9F"/>
<path d="M32.232 144.392L26.4 160.256L24.24 161.48L20.328 149.816L16.584 160.256L14.424 161.48L8.304 144.44L6.024 143L6.456 142.16H12.792V142.784L11.04 144.128L16.08 158.456L19.8 148.184L18.528 144.368L16.296 142.976L16.704 142.136H23.496V142.76L21.432 144.464L25.92 158.384L31.008 144.344L26.64 142.976L27.072 142.136H34.272V142.784L32.232 144.392ZM41.7244 161.072C41.1324 161.184 40.4364 161.24 39.6364 161.24C38.6124 161.24 37.6844 160.968 36.8524 160.424C36.0364 159.88 35.3964 159.136 34.9324 158.192C34.4684 157.248 34.2364 156.208 34.2364 155.072C34.2364 153.84 34.6044 152.68 35.3404 151.592C36.0764 150.504 36.9964 149.64 38.1004 149C39.2204 148.36 40.3004 148.04 41.3404 148.04C42.8124 148.04 43.9564 148.632 44.7724 149.816C45.6044 151 46.0284 152.552 46.0444 154.472H37.1404C37.2204 155.896 37.5884 157.072 38.2444 158C38.9164 158.912 39.8444 159.368 41.0284 159.368C42.0684 159.368 43.5164 158.512 45.3724 156.8L46.0924 157.64L41.7244 161.072ZM39.9484 149.912C38.1564 149.912 37.2204 151.144 37.1404 153.608H42.9484C42.7884 152.696 42.6284 152.008 42.4684 151.544C42.3244 151.064 42.0524 150.672 41.6524 150.368C41.2684 150.064 40.6924 149.912 39.9244 149.912H39.9484ZM63.8963 161.072C63.3043 161.184 62.6083 161.24 61.8083 161.24C60.7843 161.24 59.8563 160.968 59.0243 160.424C58.2083 159.88 57.5683 159.136 57.1043 158.192C56.6403 157.248 56.4083 156.208 56.4083 155.072C56.4083 153.84 56.7763 152.68 57.5123 151.592C58.2483 150.504 59.1683 149.64 60.2723 149C61.3923 148.36 62.4723 148.04 63.5123 148.04C64.9843 148.04 66.1283 148.632 66.9443 149.816C67.7763 151 68.2003 152.552 68.2162 154.472H59.3123C59.3923 155.896 59.7603 157.072 60.4163 158C61.0883 158.912 62.0163 159.368 63.2003 159.368C64.2403 159.368 65.6883 158.512 67.5443 156.8L68.2643 157.64L63.8963 161.072ZM62.1203 149.912C60.3283 149.912 59.3923 151.144 59.3123 153.608H65.1203C64.9603 152.696 64.8003 152.008 64.6403 151.544C64.4963 151.064 64.2243 150.672 63.8243 150.368C63.4403 150.064 62.8643 149.912 62.0963 149.912H62.1203ZM83.6158 161H79.2478V158.912L76.5358 161.048C76.2158 161.176 75.8158 161.24 75.3358 161.24C73.9918 161.24 73.0158 160.904 72.4078 160.232C71.8158 159.56 71.5198 158.752 71.5198 157.808C71.5198 157.232 71.7278 156.672 72.1438 156.128C72.5598 155.568 73.1598 155.04 73.9438 154.544H79.2478V152.792C79.2478 151.72 78.9598 150.968 78.3838 150.536C77.8238 150.104 77.0478 149.888 76.0558 149.888C75.0798 149.888 73.9118 150.52 72.5518 151.784L71.8318 150.968L75.3118 148.208C75.9358 148.096 76.6718 148.04 77.5198 148.04C78.8958 148.04 79.9678 148.392 80.7358 149.096C81.5038 149.784 81.8878 150.784 81.8878 152.096V159.32L84.0478 160.16L83.6158 161ZM76.0078 159.44C77.0158 159.44 78.0958 158.968 79.2478 158.024V155.408H74.9278C74.6878 155.68 74.5198 155.952 74.4238 156.224C74.3438 156.496 74.3038 156.8 74.3038 157.136C74.3038 157.76 74.4558 158.304 74.7598 158.768C75.0798 159.216 75.4958 159.44 76.0078 159.44ZM96.2951 149.84C96.7911 150.512 97.0391 151.272 97.0391 152.12C97.0391 152.84 96.8391 153.544 96.4391 154.232C96.0391 154.904 95.5031 155.504 94.8311 156.032C94.1591 156.544 93.4231 156.912 92.6231 157.136C92.2071 157.552 91.9991 158 91.9991 158.48C91.9991 158.752 92.1991 159 92.5991 159.224C93.0151 159.448 93.6711 159.736 94.5671 160.088C95.7351 160.536 96.6231 160.944 97.2311 161.312C97.8391 161.68 98.1431 162.136 98.1431 162.68C98.1431 163.16 97.8311 163.776 97.2071 164.528C96.5991 165.28 95.8391 165.928 94.9271 166.472C94.0311 167.032 93.1671 167.312 92.3351 167.312C91.4551 167.312 90.4151 167.16 89.2151 166.856C88.0151 166.552 87.0151 166.248 86.2151 165.944V162.368H87.0071C87.9351 163.488 88.8711 164.336 89.8151 164.912C90.7751 165.488 91.8551 165.776 93.0551 165.776C93.5031 165.776 93.9111 165.68 94.2791 165.488C94.6471 165.312 94.9351 165.08 95.1431 164.792C95.3511 164.504 95.4551 164.232 95.4551 163.976C95.4551 163.544 95.1831 163.16 94.6391 162.824C94.1111 162.488 93.3271 162.104 92.2871 161.672C91.2631 161.256 90.5031 160.904 90.0071 160.616C89.5271 160.312 89.2871 159.96 89.2871 159.56C89.2871 159.176 89.5351 158.784 90.0311 158.384C90.5271 157.984 91.1111 157.632 91.7831 157.328C91.5271 157.376 91.2631 157.4 90.9911 157.4C90.1751 157.4 89.4231 157.216 88.7351 156.848C88.0471 156.48 87.5031 155.984 87.1031 155.36C86.7191 154.736 86.5271 154.056 86.5271 153.32C86.5271 152.44 86.8231 151.592 87.4151 150.776C88.0071 149.96 88.7751 149.304 89.7191 148.808C90.6631 148.296 91.6311 148.04 92.6231 148.04C93.7111 148.04 94.6631 148.36 95.4791 149H99.2231L99.1991 149.84H96.2951ZM92.3351 155.504C93.8871 155.504 94.6631 154.752 94.6631 153.248C94.6631 152.256 94.3431 151.448 93.7031 150.824C93.0631 150.2 92.2231 149.888 91.1831 149.888C90.4311 149.888 89.8551 150.072 89.4551 150.44C89.0711 150.808 88.8791 151.368 88.8791 152.12C88.8791 153.128 89.1991 153.944 89.8391 154.568C90.4791 155.192 91.3111 155.504 92.3351 155.504ZM108.732 161.072C108.14 161.184 107.444 161.24 106.644 161.24C105.62 161.24 104.692 160.968 103.86 160.424C103.044 159.88 102.404 159.136 101.94 158.192C101.476 157.248 101.244 156.208 101.244 155.072C101.244 153.84 101.612 152.68 102.348 151.592C103.084 150.504 104.004 149.64 105.108 149C106.228 148.36 107.308 148.04 108.348 148.04C109.82 148.04 110.964 148.632 111.78 149.816C112.612 151 113.036 152.552 113.052 154.472H104.148C104.228 155.896 104.596 157.072 105.252 158C105.924 158.912 106.852 159.368 108.036 159.368C109.076 159.368 110.524 158.512 112.38 156.8L113.1 157.64L108.732 161.072ZM106.956 149.912C105.164 149.912 104.228 151.144 104.148 153.608H109.956C109.796 152.696 109.636 152.008 109.476 151.544C109.332 151.064 109.06 150.672 108.66 150.368C108.276 150.064 107.7 149.912 106.932 149.912H106.956ZM124.756 148.064C125.204 148.064 125.612 148.2 125.98 148.472C126.348 148.744 126.644 149.12 126.868 149.6L125.404 151.424H124.612C124.548 151.072 124.428 150.816 124.252 150.656C124.092 150.496 123.868 150.416 123.58 150.416C123.196 150.416 122.804 150.512 122.404 150.704C122.004 150.896 121.54 151.28 121.012 151.856V159.152L124.3 160.184L123.892 161.024H116.236V160.4L118.372 158.744V151.688L116.236 150.464V149.84L120.148 147.824L120.868 150.848L123.412 148.232C123.764 148.104 124.22 148.04 124.78 148.04L124.756 148.064ZM134.471 161.024H127.967V160.4L130.103 158.744V143.648L127.967 142.136V141.512L131.951 140.048H132.743V159.296L134.903 160.184L134.471 161.024ZM149.572 148.88L143.524 160.976L138.652 167.312L137.86 166.688C138.788 165.712 139.492 164.856 139.972 164.12C140.452 163.384 140.788 162.64 140.98 161.888C141.172 161.136 141.26 160.24 141.244 159.2L138.172 151.736L135.988 150.464V149.84L139.852 147.824L140.764 151.448L143.74 158.768L147.244 151.448L144.1 149.12L144.508 148.28L149.572 148.256V148.88ZM170.991 161H166.623V158.912L163.911 161.048C163.591 161.176 163.191 161.24 162.711 161.24C161.367 161.24 160.391 160.904 159.783 160.232C159.191 159.56 158.895 158.752 158.895 157.808C158.895 157.232 159.103 156.672 159.519 156.128C159.935 155.568 160.535 155.04 161.319 154.544H166.623V152.792C166.623 151.72 166.335 150.968 165.759 150.536C165.199 150.104 164.423 149.888 163.431 149.888C162.455 149.888 161.287 150.52 159.927 151.784L159.207 150.968L162.687 148.208C163.311 148.096 164.047 148.04 164.895 148.04C166.271 148.04 167.343 148.392 168.111 149.096C168.879 149.784 169.263 150.784 169.263 152.096V159.32L171.423 160.16L170.991 161ZM163.383 159.44C164.391 159.44 165.471 158.968 166.623 158.024V155.408H162.303C162.063 155.68 161.895 155.952 161.799 156.224C161.719 156.496 161.679 156.8 161.679 157.136C161.679 157.76 161.831 158.304 162.135 158.768C162.455 159.216 162.871 159.44 163.383 159.44ZM192.478 148.904L187.174 161H185.59L182.998 154.712L179.854 161H178.27L174.454 151.736L172.27 150.464V149.84L176.134 147.824L177.046 151.448L180.022 158.744L182.47 153.416L181.774 151.736L179.59 150.464V149.84L183.454 147.824L184.366 151.448L187.27 158.552L190.222 151.544L186.91 149.12L187.342 148.28H192.478V148.904ZM206.546 161H202.178V158.912L199.466 161.048C199.146 161.176 198.746 161.24 198.266 161.24C196.922 161.24 195.946 160.904 195.338 160.232C194.746 159.56 194.45 158.752 194.45 157.808C194.45 157.232 194.658 156.672 195.074 156.128C195.49 155.568 196.09 155.04 196.874 154.544H202.178V152.792C202.178 151.72 201.89 150.968 201.314 150.536C200.754 150.104 199.978 149.888 198.986 149.888C198.01 149.888 196.842 150.52 195.482 151.784L194.762 150.968L198.242 148.208C198.866 148.096 199.602 148.04 200.45 148.04C201.826 148.04 202.898 148.392 203.666 149.096C204.434 149.784 204.818 150.784 204.818 152.096V159.32L206.978 160.16L206.546 161ZM198.938 159.44C199.946 159.44 201.026 158.968 202.178 158.024V155.408H197.858C197.618 155.68 197.45 155.952 197.354 156.224C197.274 156.496 197.234 156.8 197.234 157.136C197.234 157.76 197.386 158.304 197.69 158.768C198.01 159.216 198.426 159.44 198.938 159.44ZM215.529 161H209.025V160.376L211.161 158.72V151.424L209.025 149.912V149.288L213.009 147.824H213.801V159.296L215.961 160.16L215.529 161ZM212.361 140.648C212.809 140.648 213.169 140.816 213.441 141.152C213.729 141.488 213.873 141.904 213.873 142.4C213.873 142.752 213.769 143.088 213.561 143.408C213.369 143.712 213.113 143.96 212.793 144.152C212.489 144.328 212.193 144.416 211.905 144.416C211.473 144.416 211.113 144.248 210.825 143.912C210.537 143.56 210.393 143.136 210.393 142.64C210.393 142.288 210.489 141.96 210.681 141.656C210.889 141.352 211.145 141.112 211.449 140.936C211.769 140.744 212.073 140.648 212.361 140.648ZM224.835 161.048C224.499 161.176 224.091 161.24 223.611 161.24C222.315 161.24 221.371 160.896 220.779 160.208C220.187 159.504 219.891 158.424 219.891 156.968V149.864H217.299V148.952L221.739 143.696H222.531V149H226.851V149.864H222.531V157.352C222.531 158.68 223.155 159.344 224.403 159.344C224.739 159.344 225.059 159.272 225.363 159.128C225.683 158.984 226.075 158.712 226.539 158.312L227.259 159.128L224.835 161.048ZM248.221 148.88L242.173 160.976L237.301 167.312L236.509 166.688C237.437 165.712 238.141 164.856 238.621 164.12C239.101 163.384 239.437 162.64 239.629 161.888C239.821 161.136 239.909 160.24 239.893 159.2L236.821 151.736L234.637 150.464V149.84L238.501 147.824L239.413 151.448L242.389 158.768L245.893 151.448L242.749 149.12L243.157 148.28L248.221 148.256V148.88ZM257.34 148.04C258.38 148.04 259.308 148.32 260.124 148.88C260.94 149.424 261.58 150.168 262.044 151.112C262.508 152.056 262.74 153.096 262.74 154.232C262.74 155.464 262.372 156.624 261.636 157.712C260.9 158.784 259.972 159.64 258.852 160.28C257.748 160.92 256.676 161.24 255.636 161.24C254.612 161.24 253.684 160.968 252.852 160.424C252.036 159.88 251.396 159.136 250.932 158.192C250.468 157.248 250.236 156.208 250.236 155.072C250.236 153.84 250.604 152.68 251.34 151.592C252.076 150.504 252.996 149.64 254.1 149C255.22 148.36 256.3 148.04 257.34 148.04ZM255.948 149.912C254.044 149.912 253.092 151.248 253.092 153.92C253.092 155.472 253.428 156.768 254.1 157.808C254.772 158.848 255.748 159.368 257.028 159.368C258.916 159.368 259.86 158.032 259.86 155.36C259.86 153.808 259.524 152.512 258.852 151.472C258.18 150.432 257.212 149.912 255.948 149.912ZM279.242 161H274.85V158.408L271.73 161.048C271.394 161.176 270.962 161.24 270.434 161.24C269.362 161.24 268.514 160.912 267.89 160.256C267.282 159.584 266.978 158.68 266.978 157.544V151.688L264.842 150.44V149.816L268.826 147.8H269.618V156.464C269.618 157.376 269.754 158.008 270.026 158.36C270.314 158.712 270.818 158.888 271.538 158.888C272.05 158.888 272.554 158.792 273.05 158.6C273.562 158.392 274.162 157.992 274.85 157.4V151.688L272.714 150.44V149.816L276.698 147.8H277.49V159.296L279.65 160.16L279.242 161ZM290.506 148.064C290.954 148.064 291.362 148.2 291.73 148.472C292.098 148.744 292.394 149.12 292.618 149.6L291.154 151.424H290.362C290.298 151.072 290.178 150.816 290.002 150.656C289.842 150.496 289.618 150.416 289.33 150.416C288.946 150.416 288.554 150.512 288.154 150.704C287.754 150.896 287.29 151.28 286.762 151.856V159.152L290.05 160.184L289.642 161.024H281.986V160.4L284.122 158.744V151.688L281.986 150.464V149.84L285.898 147.824L286.618 150.848L289.162 148.232C289.514 148.104 289.97 148.04 290.53 148.04L290.506 148.064ZM307.593 161.048C307.257 161.176 306.849 161.24 306.369 161.24C305.073 161.24 304.129 160.896 303.537 160.208C302.945 159.504 302.649 158.424 302.649 156.968V149.864H300.057V148.952L304.497 143.696H305.289V149H309.609V149.864H305.289V157.352C305.289 158.68 305.913 159.344 307.161 159.344C307.497 159.344 307.817 159.272 308.121 159.128C308.441 158.984 308.833 158.712 309.297 158.312L310.017 159.128L307.593 161.048ZM324.014 161H319.646V158.912L316.934 161.048C316.614 161.176 316.214 161.24 315.734 161.24C314.39 161.24 313.414 160.904 312.806 160.232C312.214 159.56 311.918 158.752 311.918 157.808C311.918 157.232 312.126 156.672 312.542 156.128C312.958 155.568 313.558 155.04 314.342 154.544H319.646V152.792C319.646 151.72 319.358 150.968 318.782 150.536C318.222 150.104 317.446 149.888 316.454 149.888C315.478 149.888 314.31 150.52 312.95 151.784L312.23 150.968L315.71 148.208C316.334 148.096 317.07 148.04 317.918 148.04C319.294 148.04 320.366 148.392 321.134 149.096C321.902 149.784 322.286 150.784 322.286 152.096V159.32L324.446 160.16L324.014 161ZM316.406 159.44C317.414 159.44 318.494 158.968 319.646 158.024V155.408H315.326C315.086 155.68 314.918 155.952 314.822 156.224C314.742 156.496 314.702 156.8 314.702 157.136C314.702 157.76 314.854 158.304 315.158 158.768C315.478 159.216 315.894 159.44 316.406 159.44ZM332.518 161.024H326.014V160.4L328.15 158.744V143.648L326.014 142.136V141.512L329.998 140.048H330.79V159.296L332.95 160.184L332.518 161.024ZM343.107 161.072C342.515 161.184 341.819 161.24 341.019 161.24C339.995 161.24 339.067 160.968 338.235 160.424C337.419 159.88 336.779 159.136 336.315 158.192C335.851 157.248 335.619 156.208 335.619 155.072C335.619 153.84 335.987 152.68 336.723 151.592C337.459 150.504 338.379 149.64 339.483 149C340.603 148.36 341.683 148.04 342.723 148.04C344.195 148.04 345.339 148.632 346.155 149.816C346.987 151 347.411 152.552 347.427 154.472H338.523C338.603 155.896 338.971 157.072 339.627 158C340.299 158.912 341.227 159.368 342.411 159.368C343.451 159.368 344.899 158.512 346.755 156.8L347.475 157.64L343.107 161.072ZM341.331 149.912C339.539 149.912 338.603 151.144 338.523 153.608H344.331C344.171 152.696 344.011 152.008 343.851 151.544C343.707 151.064 343.435 150.672 343.035 150.368C342.651 150.064 342.075 149.912 341.307 149.912H341.331ZM365.275 161.024H360.907V152.84C360.907 151.928 360.763 151.296 360.475 150.944C360.187 150.592 359.683 150.416 358.963 150.416C358.403 150.416 357.851 150.52 357.307 150.728C356.779 150.92 356.139 151.32 355.387 151.928V159.32L357.547 160.184L357.115 161.024H350.611V160.4L352.747 158.744V151.688L350.611 150.464V149.84L354.523 147.824L355.291 151.016L358.795 148.232C359.131 148.104 359.555 148.04 360.067 148.04C361.139 148.04 361.987 148.376 362.611 149.048C363.235 149.704 363.547 150.6 363.547 151.736V159.296L365.707 160.184L365.275 161.024ZM374.32 161.048C373.984 161.176 373.576 161.24 373.096 161.24C371.8 161.24 370.856 160.896 370.264 160.208C369.672 159.504 369.376 158.424 369.376 156.968V149.864H366.784V148.952L371.224 143.696H372.016V149H376.336V149.864H372.016V157.352C372.016 158.68 372.64 159.344 373.888 159.344C374.224 159.344 374.544 159.272 374.848 159.128C375.168 158.984 375.56 158.712 376.024 158.312L376.744 159.128L374.32 161.048ZM386.185 161.072C385.593 161.184 384.897 161.24 384.097 161.24C383.073 161.24 382.145 160.968 381.313 160.424C380.497 159.88 379.857 159.136 379.393 158.192C378.929 157.248 378.697 156.208 378.697 155.072C378.697 153.84 379.065 152.68 379.801 151.592C380.537 150.504 381.457 149.64 382.561 149C383.681 148.36 384.761 148.04 385.801 148.04C387.273 148.04 388.417 148.632 389.233 149.816C390.065 151 390.489 152.552 390.505 154.472H381.601C381.681 155.896 382.049 157.072 382.705 158C383.377 158.912 384.305 159.368 385.489 159.368C386.529 159.368 387.977 158.512 389.833 156.8L390.553 157.64L386.185 161.072ZM384.409 149.912C382.617 149.912 381.681 151.144 381.601 153.608H387.409C387.249 152.696 387.089 152.008 386.929 151.544C386.785 151.064 386.513 150.672 386.113 150.368C385.729 150.064 385.153 149.912 384.385 149.912H384.409ZM408.017 161H403.649V159.272L401.417 161.048C400.905 161.176 400.289 161.24 399.569 161.24C398.513 161.24 397.561 160.968 396.713 160.424C395.881 159.88 395.225 159.136 394.745 158.192C394.281 157.248 394.049 156.208 394.049 155.072C394.049 153.84 394.417 152.68 395.153 151.592C395.889 150.504 396.809 149.64 397.913 149C399.033 148.36 400.113 148.04 401.153 148.04C402.081 148.04 402.913 148.312 403.649 148.856V143.648L401.513 142.136V141.512L405.497 140.048H406.289V159.296L408.449 160.16L408.017 161ZM400.697 159.416C401.193 159.416 401.665 159.344 402.113 159.2C402.561 159.056 403.073 158.776 403.649 158.36V152.72C403.553 151.904 403.169 151.232 402.497 150.704C401.825 150.176 400.913 149.912 399.761 149.912C397.873 149.912 396.929 151.248 396.929 153.92C396.929 155.472 397.257 156.784 397.913 157.856C398.569 158.912 399.505 159.44 400.721 159.44L400.697 159.416ZM424.298 148.04C424.938 148.04 425.674 148.136 426.506 148.328C427.354 148.504 427.97 148.704 428.354 148.928V152.48H427.562C426.922 151.68 426.194 151.056 425.378 150.608C424.562 150.144 423.722 149.912 422.858 149.912C421.322 149.912 420.554 151.248 420.554 153.92C420.554 155.472 420.89 156.768 421.562 157.808C422.234 158.848 423.202 159.368 424.466 159.368C425.362 159.368 426.618 158.688 428.234 157.328L428.954 158.144L425.186 161.072C424.594 161.184 423.89 161.24 423.074 161.24C422.05 161.24 421.122 160.968 420.29 160.424C419.474 159.88 418.834 159.136 418.37 158.192C417.906 157.248 417.674 156.208 417.674 155.072C417.674 153.84 418.01 152.68 418.682 151.592C419.37 150.504 420.234 149.64 421.274 149C422.314 148.36 423.322 148.04 424.298 148.04ZM439.379 148.04C440.419 148.04 441.347 148.32 442.163 148.88C442.979 149.424 443.619 150.168 444.083 151.112C444.547 152.056 444.779 153.096 444.779 154.232C444.779 155.464 444.411 156.624 443.675 157.712C442.939 158.784 442.011 159.64 440.891 160.28C439.787 160.92 438.715 161.24 437.675 161.24C436.651 161.24 435.723 160.968 434.891 160.424C434.075 159.88 433.435 159.136 432.971 158.192C432.507 157.248 432.275 156.208 432.275 155.072C432.275 153.84 432.643 152.68 433.379 151.592C434.115 150.504 435.035 149.64 436.139 149C437.259 148.36 438.339 148.04 439.379 148.04ZM437.987 149.912C436.083 149.912 435.131 151.248 435.131 153.92C435.131 155.472 435.467 156.768 436.139 157.808C436.811 158.848 437.787 159.368 439.067 159.368C440.955 159.368 441.899 158.032 441.899 155.36C441.899 153.808 441.563 152.512 440.891 151.472C440.219 150.432 439.251 149.912 437.987 149.912ZM462.564 161.024H458.196V152.84C458.196 151.928 458.052 151.296 457.764 150.944C457.476 150.592 456.972 150.416 456.252 150.416C455.692 150.416 455.14 150.52 454.596 150.728C454.068 150.92 453.428 151.32 452.676 151.928V159.32L454.836 160.184L454.404 161.024H447.9V160.4L450.036 158.744V151.688L447.9 150.464V149.84L451.812 147.824L452.58 151.016L456.084 148.232C456.42 148.104 456.844 148.04 457.356 148.04C458.428 148.04 459.276 148.376 459.9 149.048C460.524 149.704 460.836 150.6 460.836 151.736V159.296L462.996 160.184L462.564 161.024ZM471.609 161.048C471.273 161.176 470.865 161.24 470.385 161.24C469.089 161.24 468.145 160.896 467.553 160.208C466.961 159.504 466.665 158.424 466.665 156.968V149.864H464.073V148.952L468.513 143.696H469.305V149H473.625V149.864H469.305V157.352C469.305 158.68 469.929 159.344 471.177 159.344C471.513 159.344 471.833 159.272 472.137 159.128C472.457 158.984 472.849 158.712 473.313 158.312L474.033 159.128L471.609 161.048ZM484.334 148.064C484.782 148.064 485.19 148.2 485.558 148.472C485.926 148.744 486.222 149.12 486.446 149.6L484.982 151.424H484.19C484.126 151.072 484.006 150.816 483.83 150.656C483.67 150.496 483.446 150.416 483.158 150.416C482.774 150.416 482.382 150.512 481.982 150.704C481.582 150.896 481.118 151.28 480.59 151.856V159.152L483.878 160.184L483.47 161.024H475.814V160.4L477.95 158.744V151.688L475.814 150.464V149.84L479.726 147.824L480.446 150.848L482.99 148.232C483.342 148.104 483.798 148.04 484.358 148.04L484.334 148.064ZM494.529 161H488.025V160.376L490.161 158.72V151.424L488.025 149.912V149.288L492.009 147.824H492.801V159.296L494.961 160.16L494.529 161ZM491.361 140.648C491.809 140.648 492.169 140.816 492.441 141.152C492.729 141.488 492.873 141.904 492.873 142.4C492.873 142.752 492.769 143.088 492.561 143.408C492.369 143.712 492.113 143.96 491.793 144.152C491.489 144.328 491.193 144.416 490.905 144.416C490.473 144.416 490.113 144.248 489.825 143.912C489.537 143.56 489.393 143.136 489.393 142.64C489.393 142.288 489.489 141.96 489.681 141.656C489.889 141.352 490.145 141.112 490.449 140.936C490.769 140.744 491.073 140.648 491.361 140.648ZM506.523 148.016C507.355 148.016 508.107 148.296 508.779 148.856C509.467 149.4 510.003 150.144 510.387 151.088C510.771 152.032 510.963 153.072 510.963 154.208C510.963 155.44 510.595 156.6 509.859 157.688C509.123 158.76 508.195 159.616 507.075 160.256C505.971 160.896 504.899 161.216 503.859 161.216C503.187 161.216 502.563 161.072 501.987 160.784C501.411 160.48 500.907 160.056 500.475 159.512L499.467 161H498.675V143.648L496.539 142.136V141.512L500.523 140.048H501.315V150.848L504.627 148.232C505.139 148.104 505.763 148.04 506.499 148.04L506.523 148.016ZM505.227 159.368C506.171 159.368 506.875 159.032 507.339 158.36C507.819 157.688 508.059 156.696 508.059 155.384C508.059 153.848 507.819 152.552 507.339 151.496C506.859 150.424 506.187 149.888 505.323 149.888C504.699 149.888 504.091 150.016 503.499 150.272C502.923 150.512 502.203 151.032 501.339 151.832V156.152C501.339 157.064 501.675 157.824 502.347 158.432C503.019 159.04 503.987 159.344 505.251 159.344L505.227 159.368ZM527.445 161H523.053V158.408L519.933 161.048C519.597 161.176 519.165 161.24 518.637 161.24C517.565 161.24 516.717 160.912 516.093 160.256C515.485 159.584 515.181 158.68 515.181 157.544V151.688L513.045 150.44V149.816L517.029 147.8H517.821V156.464C517.821 157.376 517.957 158.008 518.229 158.36C518.517 158.712 519.021 158.888 519.741 158.888C520.253 158.888 520.757 158.792 521.253 158.6C521.765 158.392 522.365 157.992 523.053 157.4V151.688L520.917 150.44V149.816L524.901 147.8H525.693V159.296L527.853 160.16L527.445 161ZM536.765 161.048C536.429 161.176 536.021 161.24 535.541 161.24C534.245 161.24 533.301 160.896 532.709 160.208C532.117 159.504 531.821 158.424 531.821 156.968V149.864H529.229V148.952L533.669 143.696H534.461V149H538.781V149.864H534.461V157.352C534.461 158.68 535.085 159.344 536.333 159.344C536.669 159.344 536.989 159.272 537.293 159.128C537.613 158.984 538.005 158.712 538.469 158.312L539.189 159.128L536.765 161.048ZM547.474 161H540.97V160.376L543.106 158.72V151.424L540.97 149.912V149.288L544.954 147.824H545.746V159.296L547.906 160.16L547.474 161ZM544.306 140.648C544.754 140.648 545.114 140.816 545.386 141.152C545.674 141.488 545.818 141.904 545.818 142.4C545.818 142.752 545.714 143.088 545.506 143.408C545.314 143.712 545.058 143.96 544.738 144.152C544.434 144.328 544.138 144.416 543.85 144.416C543.418 144.416 543.058 144.248 542.77 143.912C542.482 143.56 542.338 143.136 542.338 142.64C542.338 142.288 542.434 141.96 542.626 141.656C542.834 141.352 543.09 141.112 543.394 140.936C543.714 140.744 544.018 140.648 544.306 140.648ZM557.669 148.04C558.709 148.04 559.637 148.32 560.453 148.88C561.269 149.424 561.909 150.168 562.372 151.112C562.837 152.056 563.069 153.096 563.069 154.232C563.069 155.464 562.701 156.624 561.965 157.712C561.229 158.784 560.301 159.64 559.181 160.28C558.077 160.92 557.005 161.24 555.965 161.24C554.941 161.24 554.013 160.968 553.181 160.424C552.365 159.88 551.725 159.136 551.261 158.192C550.797 157.248 550.565 156.208 550.565 155.072C550.565 153.84 550.933 152.68 551.669 151.592C552.405 150.504 553.325 149.64 554.429 149C555.549 148.36 556.629 148.04 557.669 148.04ZM556.277 149.912C554.373 149.912 553.421 151.248 553.421 153.92C553.421 155.472 553.757 156.768 554.429 157.808C555.101 158.848 556.077 159.368 557.357 159.368C559.245 159.368 560.189 158.032 560.189 155.36C560.189 153.808 559.853 152.512 559.181 151.472C558.509 150.432 557.541 149.912 556.277 149.912ZM580.853 161.024H576.485V152.84C576.485 151.928 576.341 151.296 576.053 150.944C575.765 150.592 575.261 150.416 574.541 150.416C573.981 150.416 573.429 150.52 572.885 150.728C572.357 150.92 571.717 151.32 570.965 151.928V159.32L573.125 160.184L572.693 161.024H566.189V160.4L568.325 158.744V151.688L566.189 150.464V149.84L570.101 147.824L570.869 151.016L574.373 148.232C574.709 148.104 575.133 148.04 575.645 148.04C576.717 148.04 577.565 148.376 578.189 149.048C578.813 149.704 579.125 150.6 579.125 151.736V159.296L581.285 160.184L580.853 161.024ZM591.194 158.504C591.194 158.024 590.938 157.6 590.426 157.232C589.93 156.848 589.146 156.376 588.074 155.816C586.826 155.192 585.874 154.616 585.218 154.088C584.562 153.56 584.234 152.936 584.234 152.216C584.234 151.64 584.466 151.024 584.93 150.368C585.41 149.712 585.986 149.16 586.658 148.712C587.346 148.264 587.986 148.04 588.578 148.04C589.282 148.04 590.106 148.136 591.05 148.328C591.994 148.504 592.682 148.704 593.114 148.928V152.576H592.322C591.778 151.552 591.162 150.752 590.474 150.176C589.802 149.6 589.106 149.312 588.386 149.312C587.842 149.312 587.41 149.456 587.09 149.744C586.77 150.032 586.61 150.384 586.61 150.8C586.61 151.328 586.866 151.792 587.378 152.192C587.906 152.576 588.722 153.048 589.826 153.608C590.642 154.024 591.298 154.384 591.794 154.688C592.29 154.976 592.706 155.32 593.042 155.72C593.394 156.12 593.57 156.568 593.57 157.064C593.57 157.656 593.322 158.28 592.826 158.936C592.33 159.576 591.73 160.12 591.026 160.568C590.322 161.016 589.674 161.24 589.082 161.24C588.314 161.24 587.402 161.144 586.346 160.952C585.29 160.76 584.538 160.56 584.09 160.352V156.752H584.882C585.442 157.776 586.114 158.568 586.898 159.128C587.698 159.688 588.498 159.968 589.298 159.968C589.858 159.968 590.314 159.824 590.666 159.536C591.018 159.248 591.194 158.904 591.194 158.504ZM610.124 161.048C609.788 161.176 609.38 161.24 608.9 161.24C607.604 161.24 606.66 160.896 606.068 160.208C605.476 159.504 605.18 158.424 605.18 156.968V149.864H602.588V148.952L607.028 143.696H607.82V149H612.14V149.864H607.82V157.352C607.82 158.68 608.444 159.344 609.692 159.344C610.028 159.344 610.348 159.272 610.652 159.128C610.972 158.984 611.364 158.712 611.828 158.312L612.548 159.128L610.124 161.048ZM621.606 148.04C622.646 148.04 623.574 148.32 624.39 148.88C625.206 149.424 625.846 150.168 626.31 151.112C626.774 152.056 627.006 153.096 627.006 154.232C627.006 155.464 626.638 156.624 625.902 157.712C625.166 158.784 624.238 159.64 623.118 160.28C622.014 160.92 620.942 161.24 619.902 161.24C618.878 161.24 617.95 160.968 617.118 160.424C616.302 159.88 615.662 159.136 615.198 158.192C614.734 157.248 614.502 156.208 614.502 155.072C614.502 153.84 614.87 152.68 615.606 151.592C616.342 150.504 617.262 149.64 618.366 149C619.486 148.36 620.566 148.04 621.606 148.04ZM620.214 149.912C618.31 149.912 617.358 151.248 617.358 153.92C617.358 155.472 617.694 156.768 618.366 157.808C619.038 158.848 620.014 159.368 621.294 159.368C623.182 159.368 624.126 158.032 624.126 155.36C624.126 153.808 623.79 152.512 623.118 151.472C622.446 150.432 621.478 149.912 620.214 149.912ZM644.411 148.04C645.451 148.04 646.379 148.32 647.195 148.88C648.011 149.424 648.651 150.168 649.115 151.112C649.579 152.056 649.811 153.096 649.811 154.232C649.811 155.464 649.443 156.624 648.707 157.712C647.971 158.784 647.043 159.64 645.923 160.28C644.819 160.92 643.747 161.24 642.707 161.24C641.683 161.24 640.755 160.968 639.923 160.424C639.107 159.88 638.467 159.136 638.003 158.192C637.539 157.248 637.307 156.208 637.307 155.072C637.307 153.84 637.675 152.68 638.411 151.592C639.147 150.504 640.067 149.64 641.171 149C642.291 148.36 643.371 148.04 644.411 148.04ZM643.019 149.912C641.115 149.912 640.163 151.248 640.163 153.92C640.163 155.472 640.499 156.768 641.171 157.808C641.843 158.848 642.819 159.368 644.099 159.368C645.987 159.368 646.931 158.032 646.931 155.36C646.931 153.808 646.595 152.512 645.923 151.472C645.251 150.432 644.283 149.912 643.019 149.912ZM666.313 161H661.921V158.408L658.801 161.048C658.465 161.176 658.033 161.24 657.505 161.24C656.433 161.24 655.585 160.912 654.961 160.256C654.353 159.584 654.049 158.68 654.049 157.544V151.688L651.913 150.44V149.816L655.897 147.8H656.689V156.464C656.689 157.376 656.825 158.008 657.097 158.36C657.385 158.712 657.889 158.888 658.609 158.888C659.121 158.888 659.625 158.792 660.121 158.6C660.633 158.392 661.233 157.992 661.921 157.4V151.688L659.785 150.44V149.816L663.769 147.8H664.561V159.296L666.721 160.16L666.313 161ZM677.576 148.064C678.024 148.064 678.432 148.2 678.8 148.472C679.168 148.744 679.464 149.12 679.688 149.6L678.224 151.424H677.432C677.368 151.072 677.248 150.816 677.072 150.656C676.912 150.496 676.688 150.416 676.4 150.416C676.016 150.416 675.624 150.512 675.224 150.704C674.824 150.896 674.36 151.28 673.832 151.856V159.152L677.12 160.184L676.712 161.024H669.056V160.4L671.192 158.744V151.688L669.056 150.464V149.84L672.968 147.824L673.688 150.848L676.232 148.232C676.584 148.104 677.04 148.04 677.6 148.04L677.576 148.064ZM694.663 161.048C694.327 161.176 693.919 161.24 693.439 161.24C692.143 161.24 691.199 160.896 690.607 160.208C690.015 159.504 689.719 158.424 689.719 156.968V149.864H687.127V148.952L691.567 143.696H692.359V149H696.679V149.864H692.359V157.352C692.359 158.68 692.983 159.344 694.231 159.344C694.567 159.344 694.887 159.272 695.191 159.128C695.511 158.984 695.903 158.712 696.367 158.312L697.087 159.128L694.663 161.048ZM706.529 161.072C705.937 161.184 705.241 161.24 704.441 161.24C703.417 161.24 702.489 160.968 701.657 160.424C700.841 159.88 700.201 159.136 699.737 158.192C699.273 157.248 699.041 156.208 699.041 155.072C699.041 153.84 699.409 152.68 700.145 151.592C700.881 150.504 701.801 149.64 702.905 149C704.025 148.36 705.105 148.04 706.145 148.04C707.617 148.04 708.761 148.632 709.577 149.816C710.409 151 710.833 152.552 710.849 154.472H701.945C702.025 155.896 702.393 157.072 703.049 158C703.721 158.912 704.649 159.368 705.833 159.368C706.873 159.368 708.321 158.512 710.177 156.8L710.897 157.64L706.529 161.072ZM704.753 149.912C702.961 149.912 702.025 151.144 701.945 153.608H707.753C707.593 152.696 707.433 152.008 707.273 151.544C707.129 151.064 706.857 150.672 706.457 150.368C706.073 150.064 705.497 149.912 704.729 149.912H704.753ZM726.249 161H721.881V158.912L719.169 161.048C718.849 161.176 718.449 161.24 717.969 161.24C716.625 161.24 715.649 160.904 715.041 160.232C714.449 159.56 714.153 158.752 714.153 157.808C714.153 157.232 714.361 156.672 714.777 156.128C715.193 155.568 715.793 155.04 716.577 154.544H721.881V152.792C721.881 151.72 721.593 150.968 721.017 150.536C720.457 150.104 719.681 149.888 718.689 149.888C717.713 149.888 716.545 150.52 715.185 151.784L714.465 150.968L717.945 148.208C718.569 148.096 719.305 148.04 720.153 148.04C721.529 148.04 722.601 148.392 723.369 149.096C724.137 149.784 724.521 150.784 724.521 152.096V159.32L726.681 160.16L726.249 161ZM718.641 159.44C719.649 159.44 720.729 158.968 721.881 158.024V155.408H717.561C717.321 155.68 717.153 155.952 717.057 156.224C716.977 156.496 716.937 156.8 716.937 157.136C716.937 157.76 717.089 158.304 717.393 158.768C717.713 159.216 718.129 159.44 718.641 159.44ZM751.12 161H746.728V152.888C746.728 151.96 746.584 151.312 746.296 150.944C746.008 150.576 745.496 150.392 744.76 150.392C744.248 150.392 743.736 150.496 743.224 150.704C742.712 150.896 742.112 151.288 741.424 151.88V159.296L743.608 160.16L743.2 161H738.784V152.888C738.784 151.96 738.64 151.312 738.352 150.944C738.064 150.576 737.552 150.392 736.816 150.392C736.304 150.392 735.792 150.496 735.28 150.704C734.768 150.896 734.168 151.288 733.48 151.88V159.296L735.664 160.16L735.232 161H728.704V160.376L730.84 158.72V151.664L728.704 150.44V149.816L732.616 147.8L733.36 150.944L736.6 148.208C736.952 148.08 737.392 148.016 737.92 148.016C738.864 148.016 739.64 148.272 740.248 148.784C740.856 149.296 741.232 150.008 741.376 150.92L744.592 148.232C744.928 148.104 745.368 148.04 745.912 148.04C746.984 148.04 747.832 148.376 748.456 149.048C749.08 149.704 749.392 150.6 749.392 151.736V159.296L751.528 160.16L751.12 161ZM754.291 167.336L753.499 166.712C754.347 165.704 754.939 164.84 755.275 164.12C755.627 163.4 755.835 162.592 755.899 161.696L754.051 160.616V159.992L757.963 158L758.779 161.48L754.291 167.336ZM23.112 223H18.744V213.352L16.776 211.864H12.12V221.104L15.432 222.16L15 223H7.344V222.376L9.48 220.72V211.864H6.6V211H9.48V208.816C9.48 207.584 9.808 206.432 10.464 205.36C11.12 204.272 11.952 203.408 12.96 202.768C13.968 202.128 14.944 201.808 15.888 201.808C16.656 201.808 17.544 201.928 18.552 202.168C19.56 202.392 20.24 202.608 20.592 202.816C21.168 203.152 21.456 203.68 21.456 204.4C21.456 204.752 21.352 205.088 21.144 205.408C20.952 205.712 20.696 205.96 20.376 206.152C20.072 206.328 19.776 206.416 19.488 206.416C18.88 206.416 18.432 206.104 18.144 205.48C17.904 204.952 17.64 204.568 17.352 204.328C17.064 204.072 16.704 203.904 16.272 203.824C15.84 203.728 15.232 203.68 14.448 203.68C13.68 203.68 13.096 204.024 12.696 204.712C12.312 205.4 12.12 206.408 12.12 207.736V211H16.968L20.592 209.824H21.384V221.296L23.544 222.16L23.112 223ZM34.3573 210.064C34.8053 210.064 35.2133 210.2 35.5813 210.472C35.9493 210.744 36.2453 211.12 36.4693 211.6L35.0053 213.424H34.2133C34.1493 213.072 34.0293 212.816 33.8533 212.656C33.6933 212.496 33.4693 212.416 33.1813 212.416C32.7973 212.416 32.4053 212.512 32.0053 212.704C31.6053 212.896 31.1413 213.28 30.6133 213.856V221.152L33.9013 222.184L33.4933 223.024H25.8373V222.4L27.9733 220.744V213.688L25.8373 212.464V211.84L29.7493 209.824L30.4693 212.848L33.0133 210.232C33.3653 210.104 33.8213 210.04 34.3813 210.04L34.3573 210.064ZM60.4403 223H56.0483V214.888C56.0483 213.96 55.9043 213.312 55.6163 212.944C55.3283 212.576 54.8163 212.392 54.0803 212.392C53.5683 212.392 53.0563 212.496 52.5443 212.704C52.0323 212.896 51.4323 213.288 50.7443 213.88V221.296L52.9283 222.16L52.5203 223H48.1043V214.888C48.1043 213.96 47.9603 213.312 47.6723 212.944C47.3843 212.576 46.8723 212.392 46.1363 212.392C45.6243 212.392 45.1123 212.496 44.6003 212.704C44.0883 212.896 43.4883 213.288 42.8003 213.88V221.296L44.9843 222.16L44.5523 223H38.0243V222.376L40.1603 220.72V213.664L38.0243 212.44V211.816L41.9363 209.8L42.6803 212.944L45.9203 210.208C46.2723 210.08 46.7123 210.016 47.2403 210.016C48.1843 210.016 48.9603 210.272 49.5683 210.784C50.1763 211.296 50.5523 212.008 50.6963 212.92L53.9123 210.232C54.2483 210.104 54.6883 210.04 55.2323 210.04C56.3043 210.04 57.1523 210.376 57.7763 211.048C58.4003 211.704 58.7123 212.6 58.7123 213.736V221.296L60.8483 222.16L60.4403 223ZM68.9629 223.024H62.4589V222.4L64.5949 220.744V205.648L62.4589 204.136V203.512L66.4429 202.048H67.2349V221.296L69.3949 222.184L68.9629 223.024ZM84.0645 210.88L78.0165 222.976L73.1445 229.312L72.3525 228.688C73.2805 227.712 73.9845 226.856 74.4645 226.12C74.9445 225.384 75.2805 224.64 75.4725 223.888C75.6645 223.136 75.7525 222.24 75.7365 221.2L72.6645 213.736L70.4805 212.464V211.84L74.3445 209.824L75.2565 213.448L78.2325 220.768L81.7365 213.448L78.5925 211.12L79.0005 210.28L84.0645 210.256V210.88ZM102.531 210.016C103.363 210.016 104.115 210.296 104.787 210.856C105.475 211.4 106.011 212.144 106.395 213.088C106.779 214.032 106.971 215.072 106.971 216.208C106.971 217.44 106.603 218.6 105.867 219.688C105.131 220.76 104.203 221.616 103.083 222.256C101.979 222.896 100.907 223.216 99.867 223.216C99.195 223.216 98.571 223.072 97.995 222.784C97.419 222.48 96.915 222.056 96.483 221.512L95.475 223H94.683V205.648L92.547 204.136V203.512L96.531 202.048H97.323V212.848L100.635 210.232C101.147 210.104 101.771 210.04 102.507 210.04L102.531 210.016ZM101.235 221.368C102.179 221.368 102.883 221.032 103.347 220.36C103.827 219.688 104.067 218.696 104.067 217.384C104.067 215.848 103.827 214.552 103.347 213.496C102.867 212.424 102.195 211.888 101.331 211.888C100.707 211.888 100.099 212.016 99.507 212.272C98.931 212.512 98.211 213.032 97.347 213.832V218.152C97.347 219.064 97.683 219.824 98.355 220.432C99.027 221.04 99.995 221.344 101.259 221.344L101.235 221.368ZM117.92 223.072C117.328 223.184 116.632 223.24 115.832 223.24C114.808 223.24 113.88 222.968 113.048 222.424C112.232 221.88 111.592 221.136 111.128 220.192C110.664 219.248 110.432 218.208 110.432 217.072C110.432 215.84 110.8 214.68 111.536 213.592C112.272 212.504 113.192 211.64 114.296 211C115.416 210.36 116.496 210.04 117.536 210.04C119.008 210.04 120.152 210.632 120.968 211.816C121.8 213 122.224 214.552 122.24 216.472H113.336C113.416 217.896 113.784 219.072 114.44 220C115.112 220.912 116.04 221.368 117.224 221.368C118.264 221.368 119.712 220.512 121.568 218.8L122.288 219.64L117.92 223.072ZM116.144 211.912C114.352 211.912 113.416 213.144 113.336 215.608H119.144C118.984 214.696 118.824 214.008 118.664 213.544C118.52 213.064 118.248 212.672 117.848 212.368C117.464 212.064 116.888 211.912 116.12 211.912H116.144ZM131.471 223.024H124.967V222.4L127.103 220.744V205.648L124.967 204.136V203.512L128.951 202.048H129.743V221.296L131.903 222.184L131.471 223.024ZM140.716 223H134.212V222.376L136.348 220.72V213.424L134.212 211.912V211.288L138.196 209.824H138.988V221.296L141.148 222.16L140.716 223ZM137.548 202.648C137.996 202.648 138.356 202.816 138.628 203.152C138.916 203.488 139.06 203.904 139.06 204.4C139.06 204.752 138.956 205.088 138.748 205.408C138.556 205.712 138.3 205.96 137.98 206.152C137.676 206.328 137.38 206.416 137.092 206.416C136.66 206.416 136.3 206.248 136.012 205.912C135.724 205.56 135.58 205.136 135.58 204.64C135.58 204.288 135.676 203.96 135.868 203.656C136.076 203.352 136.332 203.112 136.636 202.936C136.956 202.744 137.26 202.648 137.548 202.648ZM151.295 223.072C150.703 223.184 150.007 223.24 149.207 223.24C148.183 223.24 147.255 222.968 146.423 222.424C145.607 221.88 144.967 221.136 144.503 220.192C144.039 219.248 143.807 218.208 143.807 217.072C143.807 215.84 144.175 214.68 144.911 213.592C145.647 212.504 146.567 211.64 147.671 211C148.791 210.36 149.871 210.04 150.911 210.04C152.383 210.04 153.527 210.632 154.343 211.816C155.175 213 155.599 214.552 155.615 216.472H146.711C146.791 217.896 147.159 219.072 147.815 220C148.487 220.912 149.415 221.368 150.599 221.368C151.639 221.368 153.087 220.512 154.943 218.8L155.663 219.64L151.295 223.072ZM149.519 211.912C147.727 211.912 146.791 213.144 146.711 215.608H152.519C152.359 214.696 152.199 214.008 152.039 213.544C151.895 213.064 151.623 212.672 151.223 212.368C150.839 212.064 150.263 211.912 149.495 211.912H149.519ZM171.206 210.904L165.158 223H163.574L159.758 213.736L157.574 212.464V211.84L161.438 209.824L162.35 213.448L165.326 220.768L168.83 213.448L165.686 211.12L166.094 210.28H171.206V210.904ZM179.107 223H172.603V222.376L174.739 220.72V213.424L172.603 211.912V211.288L176.587 209.824H177.379V221.296L179.539 222.16L179.107 223ZM175.939 202.648C176.387 202.648 176.747 202.816 177.019 203.152C177.307 203.488 177.451 203.904 177.451 204.4C177.451 204.752 177.347 205.088 177.139 205.408C176.947 205.712 176.691 205.96 176.371 206.152C176.067 206.328 175.771 206.416 175.483 206.416C175.051 206.416 174.691 206.248 174.403 205.912C174.115 205.56 173.971 205.136 173.971 204.64C173.971 204.288 174.067 203.96 174.259 203.656C174.467 203.352 174.723 203.112 175.027 202.936C175.347 202.744 175.651 202.648 175.939 202.648ZM196.501 223.024H192.133V214.84C192.133 213.928 191.989 213.296 191.701 212.944C191.413 212.592 190.909 212.416 190.189 212.416C189.629 212.416 189.077 212.52 188.533 212.728C188.005 212.92 187.365 213.32 186.613 213.928V221.32L188.773 222.184L188.341 223.024H181.837V222.4L183.973 220.744V213.688L181.837 212.464V211.84L185.749 209.824L186.517 213.016L190.021 210.232C190.357 210.104 190.781 210.04 191.293 210.04C192.365 210.04 193.213 210.376 193.837 211.048C194.461 211.704 194.773 212.6 194.773 213.736V221.296L196.933 222.184L196.501 223.024ZM209.17 211.84C209.666 212.512 209.914 213.272 209.914 214.12C209.914 214.84 209.714 215.544 209.314 216.232C208.914 216.904 208.378 217.504 207.706 218.032C207.034 218.544 206.298 218.912 205.498 219.136C205.082 219.552 204.874 220 204.874 220.48C204.874 220.752 205.074 221 205.474 221.224C205.89 221.448 206.546 221.736 207.442 222.088C208.61 222.536 209.498 222.944 210.106 223.312C210.714 223.68 211.018 224.136 211.018 224.68C211.018 225.16 210.706 225.776 210.082 226.528C209.474 227.28 208.714 227.928 207.802 228.472C206.906 229.032 206.042 229.312 205.21 229.312C204.33 229.312 203.29 229.16 202.09 228.856C200.89 228.552 199.89 228.248 199.09 227.944V224.368H199.882C200.81 225.488 201.746 226.336 202.69 226.912C203.65 227.488 204.73 227.776 205.93 227.776C206.378 227.776 206.786 227.68 207.154 227.488C207.522 227.312 207.81 227.08 208.018 226.792C208.226 226.504 208.33 226.232 208.33 225.976C208.33 225.544 208.058 225.16 207.514 224.824C206.986 224.488 206.202 224.104 205.162 223.672C204.138 223.256 203.378 222.904 202.882 222.616C202.402 222.312 202.162 221.96 202.162 221.56C202.162 221.176 202.41 220.784 202.906 220.384C203.402 219.984 203.986 219.632 204.658 219.328C204.402 219.376 204.138 219.4 203.866 219.4C203.05 219.4 202.298 219.216 201.61 218.848C200.922 218.48 200.378 217.984 199.978 217.36C199.594 216.736 199.402 216.056 199.402 215.32C199.402 214.44 199.698 213.592 200.29 212.776C200.882 211.96 201.65 211.304 202.594 210.808C203.538 210.296 204.506 210.04 205.498 210.04C206.586 210.04 207.538 210.36 208.354 211H212.098L212.074 211.84H209.17ZM205.21 217.504C206.762 217.504 207.538 216.752 207.538 215.248C207.538 214.256 207.218 213.448 206.578 212.824C205.938 212.2 205.098 211.888 204.058 211.888C203.306 211.888 202.73 212.072 202.33 212.44C201.946 212.808 201.754 213.368 201.754 214.12C201.754 215.128 202.074 215.944 202.714 216.568C203.354 217.192 204.186 217.504 205.21 217.504ZM227.646 223H221.142V222.376L223.278 220.72V213.424L221.142 211.912V211.288L225.126 209.824H225.918V221.296L228.078 222.16L227.646 223ZM224.478 202.648C224.926 202.648 225.286 202.816 225.558 203.152C225.846 203.488 225.99 203.904 225.99 204.4C225.99 204.752 225.886 205.088 225.678 205.408C225.486 205.712 225.23 205.96 224.91 206.152C224.606 206.328 224.31 206.416 224.022 206.416C223.59 206.416 223.23 206.248 222.942 205.912C222.654 205.56 222.51 205.136 222.51 204.64C222.51 204.288 222.606 203.96 222.798 203.656C223.006 203.352 223.262 203.112 223.566 202.936C223.886 202.744 224.19 202.648 224.478 202.648ZM245.04 223.024H240.672V214.84C240.672 213.928 240.528 213.296 240.24 212.944C239.952 212.592 239.448 212.416 238.728 212.416C238.168 212.416 237.616 212.52 237.072 212.728C236.544 212.92 235.904 213.32 235.152 213.928V221.32L237.312 222.184L236.88 223.024H230.376V222.4L232.512 220.744V213.688L230.376 212.464V211.84L234.288 209.824L235.056 213.016L238.56 210.232C238.896 210.104 239.32 210.04 239.832 210.04C240.904 210.04 241.752 210.376 242.376 211.048C243 211.704 243.312 212.6 243.312 213.736V221.296L245.472 222.184L245.04 223.024ZM261.794 210.04C262.834 210.04 263.762 210.32 264.578 210.88C265.394 211.424 266.034 212.168 266.497 213.112C266.962 214.056 267.194 215.096 267.194 216.232C267.194 217.464 266.826 218.624 266.09 219.712C265.354 220.784 264.426 221.64 263.306 222.28C262.202 222.92 261.13 223.24 260.09 223.24C259.066 223.24 258.138 222.968 257.306 222.424C256.49 221.88 255.85 221.136 255.386 220.192C254.922 219.248 254.69 218.208 254.69 217.072C254.69 215.84 255.058 214.68 255.794 213.592C256.53 212.504 257.45 211.64 258.554 211C259.674 210.36 260.754 210.04 261.794 210.04ZM260.402 211.912C258.498 211.912 257.546 213.248 257.546 215.92C257.546 217.472 257.882 218.768 258.554 219.808C259.226 220.848 260.202 221.368 261.482 221.368C263.37 221.368 264.314 220.032 264.314 217.36C264.314 215.808 263.978 214.512 263.306 213.472C262.634 212.432 261.666 211.912 260.402 211.912ZM283.695 223H279.303V220.408L276.183 223.048C275.847 223.176 275.415 223.24 274.887 223.24C273.815 223.24 272.967 222.912 272.343 222.256C271.735 221.584 271.431 220.68 271.431 219.544V213.688L269.295 212.44V211.816L273.279 209.8H274.071V218.464C274.071 219.376 274.207 220.008 274.479 220.36C274.767 220.712 275.271 220.888 275.991 220.888C276.503 220.888 277.007 220.792 277.503 220.6C278.015 220.392 278.615 219.992 279.303 219.4V213.688L277.167 212.44V211.816L281.151 209.8H281.943V221.296L284.103 222.16L283.695 223ZM294.959 210.064C295.407 210.064 295.815 210.2 296.183 210.472C296.551 210.744 296.847 211.12 297.071 211.6L295.607 213.424H294.815C294.751 213.072 294.631 212.816 294.455 212.656C294.295 212.496 294.071 212.416 293.783 212.416C293.399 212.416 293.007 212.512 292.607 212.704C292.207 212.896 291.743 213.28 291.215 213.856V221.152L294.503 222.184L294.095 223.024H286.439V222.4L288.575 220.744V213.688L286.439 212.464V211.84L290.351 209.824L291.071 212.848L293.615 210.232C293.967 210.104 294.423 210.04 294.983 210.04L294.959 210.064ZM313.342 220.504C313.342 220.024 313.086 219.6 312.574 219.232C312.078 218.848 311.294 218.376 310.222 217.816C308.974 217.192 308.022 216.616 307.366 216.088C306.71 215.56 306.382 214.936 306.382 214.216C306.382 213.64 306.614 213.024 307.078 212.368C307.558 211.712 308.134 211.16 308.806 210.712C309.494 210.264 310.134 210.04 310.726 210.04C311.43 210.04 312.254 210.136 313.198 210.328C314.142 210.504 314.83 210.704 315.262 210.928V214.576H314.47C313.926 213.552 313.31 212.752 312.622 212.176C311.95 211.6 311.254 211.312 310.534 211.312C309.99 211.312 309.558 211.456 309.238 211.744C308.918 212.032 308.758 212.384 308.758 212.8C308.758 213.328 309.014 213.792 309.526 214.192C310.054 214.576 310.87 215.048 311.974 215.608C312.79 216.024 313.446 216.384 313.942 216.688C314.438 216.976 314.854 217.32 315.19 217.72C315.542 218.12 315.718 218.568 315.718 219.064C315.718 219.656 315.47 220.28 314.974 220.936C314.478 221.576 313.878 222.12 313.174 222.568C312.47 223.016 311.822 223.24 311.23 223.24C310.462 223.24 309.55 223.144 308.494 222.952C307.438 222.76 306.686 222.56 306.238 222.352V218.752H307.03C307.59 219.776 308.262 220.568 309.046 221.128C309.846 221.688 310.646 221.968 311.446 221.968C312.006 221.968 312.462 221.824 312.814 221.536C313.166 221.248 313.342 220.904 313.342 220.504ZM333.06 223.024H328.692V214.84C328.692 213.928 328.548 213.296 328.26 212.944C327.972 212.592 327.468 212.416 326.748 212.416C326.188 212.416 325.636 212.52 325.092 212.728C324.564 212.92 323.924 213.32 323.172 213.928V221.32L325.332 222.184L324.9 223.024H318.396V222.4L320.532 220.744V205.648L318.396 204.136V203.512L322.38 202.048H323.172V212.92L326.58 210.232C326.916 210.104 327.34 210.04 327.852 210.04C328.924 210.04 329.772 210.376 330.396 211.048C331.02 211.704 331.332 212.6 331.332 213.736V221.296L333.492 222.184L333.06 223.024ZM347.756 223H343.388V220.912L340.676 223.048C340.356 223.176 339.956 223.24 339.476 223.24C338.132 223.24 337.156 222.904 336.548 222.232C335.956 221.56 335.66 220.752 335.66 219.808C335.66 219.232 335.868 218.672 336.284 218.128C336.7 217.568 337.3 217.04 338.084 216.544H343.388V214.792C343.388 213.72 343.1 212.968 342.524 212.536C341.964 212.104 341.188 211.888 340.196 211.888C339.22 211.888 338.052 212.52 336.692 213.784L335.972 212.968L339.452 210.208C340.076 210.096 340.812 210.04 341.66 210.04C343.036 210.04 344.108 210.392 344.876 211.096C345.644 211.784 346.028 212.784 346.028 214.096V221.32L348.188 222.16L347.756 223ZM340.148 221.44C341.156 221.44 342.236 220.968 343.388 220.024V217.408H339.068C338.828 217.68 338.66 217.952 338.564 218.224C338.484 218.496 338.444 218.8 338.444 219.136C338.444 219.76 338.596 220.304 338.9 220.768C339.22 221.216 339.636 221.44 340.148 221.44ZM358.756 210.064C359.204 210.064 359.612 210.2 359.98 210.472C360.348 210.744 360.644 211.12 360.868 211.6L359.404 213.424H358.612C358.548 213.072 358.428 212.816 358.252 212.656C358.092 212.496 357.868 212.416 357.58 212.416C357.196 212.416 356.804 212.512 356.404 212.704C356.004 212.896 355.54 213.28 355.012 213.856V221.152L358.3 222.184L357.892 223.024H350.236V222.4L352.372 220.744V213.688L350.236 212.464V211.84L354.148 209.824L354.868 212.848L357.412 210.232C357.764 210.104 358.22 210.04 358.78 210.04L358.756 210.064ZM370.365 223.072C369.773 223.184 369.077 223.24 368.277 223.24C367.253 223.24 366.325 222.968 365.493 222.424C364.677 221.88 364.037 221.136 363.573 220.192C363.109 219.248 362.877 218.208 362.877 217.072C362.877 215.84 363.245 214.68 363.981 213.592C364.717 212.504 365.637 211.64 366.741 211C367.861 210.36 368.941 210.04 369.981 210.04C371.453 210.04 372.597 210.632 373.413 211.816C374.245 213 374.669 214.552 374.685 216.472H365.781C365.861 217.896 366.229 219.072 366.885 220C367.557 220.912 368.485 221.368 369.669 221.368C370.709 221.368 372.157 220.512 374.013 218.8L374.733 219.64L370.365 223.072ZM368.589 211.912C366.797 211.912 365.861 213.144 365.781 215.608H371.589C371.429 214.696 371.269 214.008 371.109 213.544C370.965 213.064 370.693 212.672 370.293 212.368C369.909 212.064 369.333 211.912 368.565 211.912H368.589ZM392.197 223H387.829V221.272L385.597 223.048C385.085 223.176 384.469 223.24 383.749 223.24C382.693 223.24 381.741 222.968 380.893 222.424C380.061 221.88 379.405 221.136 378.925 220.192C378.461 219.248 378.229 218.208 378.229 217.072C378.229 215.84 378.597 214.68 379.333 213.592C380.069 212.504 380.989 211.64 382.093 211C383.213 210.36 384.293 210.04 385.333 210.04C386.261 210.04 387.093 210.312 387.829 210.856V205.648L385.693 204.136V203.512L389.677 202.048H390.469V221.296L392.629 222.16L392.197 223ZM384.877 221.416C385.373 221.416 385.845 221.344 386.293 221.2C386.741 221.056 387.253 220.776 387.829 220.36V214.72C387.733 213.904 387.349 213.232 386.677 212.704C386.005 212.176 385.093 211.912 383.941 211.912C382.053 211.912 381.109 213.248 381.109 215.92C381.109 217.472 381.437 218.784 382.093 219.856C382.749 220.912 383.685 221.44 384.901 221.44L384.877 221.416ZM408.79 223.264C407.846 223.264 407.006 222.992 406.27 222.448V227.248L409.558 228.28L409.15 229.12H401.494V228.496L403.63 226.84V213.688L401.494 212.464V211.84L405.406 209.824L406.174 213.016L409.702 210.232C410.214 210.104 410.798 210.04 411.454 210.04C412.286 210.04 413.038 210.32 413.71 210.88C414.398 211.424 414.934 212.168 415.318 213.112C415.702 214.056 415.894 215.096 415.894 216.232C415.894 217.464 415.526 218.624 414.79 219.712C414.054 220.784 413.126 221.64 412.006 222.28C410.902 222.92 409.83 223.24 408.79 223.24V223.264ZM410.254 212.176C409.63 212.176 409.022 212.304 408.43 212.56C407.854 212.8 407.134 213.32 406.27 214.12V218.2C406.27 219.112 406.606 219.872 407.278 220.48C407.95 221.088 408.918 221.392 410.182 221.392C411.126 221.392 411.83 221.056 412.294 220.384C412.774 219.712 413.014 218.72 413.014 217.408C413.014 215.936 412.774 214.696 412.294 213.688C411.814 212.664 411.142 212.152 410.278 212.152L410.254 212.176ZM431.241 223H426.873V220.912L424.161 223.048C423.841 223.176 423.441 223.24 422.961 223.24C421.617 223.24 420.641 222.904 420.033 222.232C419.441 221.56 419.145 220.752 419.145 219.808C419.145 219.232 419.353 218.672 419.769 218.128C420.185 217.568 420.785 217.04 421.569 216.544H426.873V214.792C426.873 213.72 426.585 212.968 426.009 212.536C425.449 212.104 424.673 211.888 423.681 211.888C422.705 211.888 421.537 212.52 420.177 213.784L419.457 212.968L422.937 210.208C423.561 210.096 424.297 210.04 425.145 210.04C426.521 210.04 427.593 210.392 428.361 211.096C429.129 211.784 429.513 212.784 429.513 214.096V221.32L431.673 222.16L431.241 223ZM423.633 221.44C424.641 221.44 425.721 220.968 426.873 220.024V217.408H422.553C422.313 217.68 422.145 217.952 422.049 218.224C421.969 218.496 421.929 218.8 421.929 219.136C421.929 219.76 422.081 220.304 422.385 220.768C422.705 221.216 423.121 221.44 423.633 221.44ZM441.592 220.504C441.592 220.024 441.336 219.6 440.824 219.232C440.328 218.848 439.544 218.376 438.472 217.816C437.224 217.192 436.272 216.616 435.616 216.088C434.96 215.56 434.632 214.936 434.632 214.216C434.632 213.64 434.864 213.024 435.328 212.368C435.808 211.712 436.384 211.16 437.056 210.712C437.744 210.264 438.384 210.04 438.976 210.04C439.68 210.04 440.504 210.136 441.448 210.328C442.392 210.504 443.08 210.704 443.512 210.928V214.576H442.72C442.176 213.552 441.56 212.752 440.872 212.176C440.2 211.6 439.504 211.312 438.784 211.312C438.24 211.312 437.808 211.456 437.488 211.744C437.168 212.032 437.008 212.384 437.008 212.8C437.008 213.328 437.264 213.792 437.776 214.192C438.304 214.576 439.12 215.048 440.224 215.608C441.04 216.024 441.696 216.384 442.192 216.688C442.688 216.976 443.104 217.32 443.44 217.72C443.792 218.12 443.968 218.568 443.968 219.064C443.968 219.656 443.72 220.28 443.224 220.936C442.728 221.576 442.128 222.12 441.424 222.568C440.72 223.016 440.072 223.24 439.48 223.24C438.712 223.24 437.8 223.144 436.744 222.952C435.688 222.76 434.936 222.56 434.488 222.352V218.752H435.28C435.84 219.776 436.512 220.568 437.296 221.128C438.096 221.688 438.896 221.968 439.696 221.968C440.256 221.968 440.712 221.824 441.064 221.536C441.416 221.248 441.592 220.904 441.592 220.504ZM454.998 220.504C454.998 220.024 454.742 219.6 454.23 219.232C453.734 218.848 452.95 218.376 451.878 217.816C450.63 217.192 449.678 216.616 449.022 216.088C448.366 215.56 448.038 214.936 448.038 214.216C448.038 213.64 448.27 213.024 448.734 212.368C449.214 211.712 449.79 211.16 450.462 210.712C451.15 210.264 451.79 210.04 452.382 210.04C453.086 210.04 453.91 210.136 454.854 210.328C455.798 210.504 456.486 210.704 456.918 210.928V214.576H456.126C455.582 213.552 454.966 212.752 454.278 212.176C453.606 211.6 452.91 211.312 452.19 211.312C451.646 211.312 451.214 211.456 450.894 211.744C450.574 212.032 450.414 212.384 450.414 212.8C450.414 213.328 450.67 213.792 451.182 214.192C451.71 214.576 452.526 215.048 453.63 215.608C454.446 216.024 455.102 216.384 455.598 216.688C456.094 216.976 456.51 217.32 456.846 217.72C457.198 218.12 457.374 218.568 457.374 219.064C457.374 219.656 457.126 220.28 456.63 220.936C456.134 221.576 455.534 222.12 454.83 222.568C454.126 223.016 453.478 223.24 452.886 223.24C452.118 223.24 451.206 223.144 450.15 222.952C449.094 222.76 448.342 222.56 447.894 222.352V218.752H448.686C449.246 219.776 449.918 220.568 450.702 221.128C451.502 221.688 452.302 221.968 453.102 221.968C453.662 221.968 454.118 221.824 454.47 221.536C454.822 221.248 454.998 220.904 454.998 220.504ZM467.037 223H460.533V222.376L462.669 220.72V213.424L460.533 211.912V211.288L464.517 209.824H465.309V221.296L467.469 222.16L467.037 223ZM463.869 202.648C464.317 202.648 464.677 202.816 464.949 203.152C465.237 203.488 465.381 203.904 465.381 204.4C465.381 204.752 465.277 205.088 465.069 205.408C464.877 205.712 464.621 205.96 464.301 206.152C463.997 206.328 463.701 206.416 463.413 206.416C462.981 206.416 462.621 206.248 462.333 205.912C462.045 205.56 461.901 205.136 461.901 204.64C461.901 204.288 461.997 203.96 462.189 203.656C462.397 203.352 462.653 203.112 462.957 202.936C463.277 202.744 463.581 202.648 463.869 202.648ZM477.231 210.04C478.271 210.04 479.199 210.32 480.015 210.88C480.831 211.424 481.471 212.168 481.935 213.112C482.399 214.056 482.631 215.096 482.631 216.232C482.631 217.464 482.263 218.624 481.527 219.712C480.791 220.784 479.863 221.64 478.743 222.28C477.639 222.92 476.567 223.24 475.527 223.24C474.503 223.24 473.575 222.968 472.743 222.424C471.927 221.88 471.287 221.136 470.823 220.192C470.359 219.248 470.127 218.208 470.127 217.072C470.127 215.84 470.495 214.68 471.231 213.592C471.967 212.504 472.887 211.64 473.991 211C475.111 210.36 476.191 210.04 477.231 210.04ZM475.839 211.912C473.935 211.912 472.983 213.248 472.983 215.92C472.983 217.472 473.319 218.768 473.991 219.808C474.663 220.848 475.639 221.368 476.919 221.368C478.807 221.368 479.751 220.032 479.751 217.36C479.751 215.808 479.415 214.512 478.743 213.472C478.071 212.432 477.103 211.912 475.839 211.912ZM500.415 223.024H496.047V214.84C496.047 213.928 495.903 213.296 495.615 212.944C495.327 212.592 494.823 212.416 494.103 212.416C493.543 212.416 492.991 212.52 492.447 212.728C491.919 212.92 491.279 213.32 490.527 213.928V221.32L492.687 222.184L492.255 223.024H485.751V222.4L487.887 220.744V213.688L485.751 212.464V211.84L489.663 209.824L490.431 213.016L493.935 210.232C494.271 210.104 494.695 210.04 495.207 210.04C496.279 210.04 497.127 210.376 497.751 211.048C498.375 211.704 498.687 212.6 498.687 213.736V221.296L500.847 222.184L500.415 223.024ZM521.921 223H517.553V220.912L514.841 223.048C514.521 223.176 514.121 223.24 513.641 223.24C512.297 223.24 511.321 222.904 510.713 222.232C510.121 221.56 509.825 220.752 509.825 219.808C509.825 219.232 510.033 218.672 510.449 218.128C510.865 217.568 511.465 217.04 512.249 216.544H517.553V214.792C517.553 213.72 517.265 212.968 516.689 212.536C516.129 212.104 515.353 211.888 514.361 211.888C513.385 211.888 512.217 212.52 510.857 213.784L510.137 212.968L513.617 210.208C514.241 210.096 514.977 210.04 515.825 210.04C517.201 210.04 518.273 210.392 519.041 211.096C519.809 211.784 520.193 212.784 520.193 214.096V221.32L522.353 222.16L521.921 223ZM514.312 221.44C515.321 221.44 516.401 220.968 517.553 220.024V217.408H513.233C512.993 217.68 512.825 217.952 512.729 218.224C512.649 218.496 512.609 218.8 512.609 219.136C512.609 219.76 512.761 220.304 513.065 220.768C513.385 221.216 513.801 221.44 514.312 221.44ZM539.064 223.024H534.696V214.84C534.696 213.928 534.552 213.296 534.264 212.944C533.976 212.592 533.472 212.416 532.752 212.416C532.192 212.416 531.64 212.52 531.096 212.728C530.568 212.92 529.928 213.32 529.176 213.928V221.32L531.336 222.184L530.904 223.024H524.4V222.4L526.536 220.744V213.688L524.4 212.464V211.84L528.312 209.824L529.08 213.016L532.584 210.232C532.92 210.104 533.344 210.04 533.856 210.04C534.928 210.04 535.776 210.376 536.4 211.048C537.024 211.704 537.336 212.6 537.336 213.736V221.296L539.496 222.184L539.064 223.024ZM555.884 223H551.516V221.272L549.284 223.048C548.772 223.176 548.156 223.24 547.436 223.24C546.38 223.24 545.428 222.968 544.58 222.424C543.748 221.88 543.092 221.136 542.612 220.192C542.148 219.248 541.916 218.208 541.916 217.072C541.916 215.84 542.284 214.68 543.02 213.592C543.756 212.504 544.676 211.64 545.78 211C546.9 210.36 547.98 210.04 549.02 210.04C549.948 210.04 550.78 210.312 551.516 210.856V205.648L549.38 204.136V203.512L553.364 202.048H554.156V221.296L556.316 222.16L555.884 223ZM548.564 221.416C549.06 221.416 549.532 221.344 549.98 221.2C550.428 221.056 550.94 220.776 551.516 220.36V214.72C551.42 213.904 551.036 213.232 550.364 212.704C549.692 212.176 548.78 211.912 547.628 211.912C545.74 211.912 544.796 213.248 544.796 215.92C544.796 217.472 545.124 218.784 545.78 219.856C546.436 220.912 547.372 221.44 548.588 221.44L548.564 221.416ZM572.477 223.264C571.533 223.264 570.693 222.992 569.957 222.448V227.248L573.245 228.28L572.837 229.12H565.181V228.496L567.317 226.84V213.688L565.181 212.464V211.84L569.093 209.824L569.861 213.016L573.389 210.232C573.901 210.104 574.485 210.04 575.141 210.04C575.973 210.04 576.725 210.32 577.397 210.88C578.085 211.424 578.621 212.168 579.005 213.112C579.389 214.056 579.581 215.096 579.581 216.232C579.581 217.464 579.213 218.624 578.477 219.712C577.741 220.784 576.813 221.64 575.693 222.28C574.589 222.92 573.517 223.24 572.477 223.24V223.264ZM573.941 212.176C573.317 212.176 572.709 212.304 572.117 212.56C571.541 212.8 570.821 213.32 569.957 214.12V218.2C569.957 219.112 570.293 219.872 570.965 220.48C571.637 221.088 572.605 221.392 573.869 221.392C574.813 221.392 575.517 221.056 575.981 220.384C576.461 219.712 576.701 218.72 576.701 217.408C576.701 215.936 576.461 214.696 575.981 213.688C575.501 212.664 574.829 212.152 573.965 212.152L573.941 212.176ZM590.176 210.04C591.216 210.04 592.144 210.32 592.96 210.88C593.776 211.424 594.416 212.168 594.88 213.112C595.344 214.056 595.576 215.096 595.576 216.232C595.576 217.464 595.208 218.624 594.472 219.712C593.736 220.784 592.808 221.64 591.688 222.28C590.584 222.92 589.512 223.24 588.472 223.24C587.448 223.24 586.52 222.968 585.688 222.424C584.872 221.88 584.232 221.136 583.768 220.192C583.304 219.248 583.072 218.208 583.072 217.072C583.072 215.84 583.44 214.68 584.176 213.592C584.912 212.504 585.832 211.64 586.936 211C588.056 210.36 589.136 210.04 590.176 210.04ZM588.784 211.912C586.88 211.912 585.928 213.248 585.928 215.92C585.928 217.472 586.264 218.768 586.936 219.808C587.608 220.848 588.584 221.368 589.864 221.368C591.752 221.368 592.696 220.032 592.696 217.36C592.696 215.808 592.36 214.512 591.688 213.472C591.016 212.432 590.048 211.912 588.784 211.912ZM605.273 223.048C604.937 223.176 604.529 223.24 604.049 223.24C602.753 223.24 601.809 222.896 601.217 222.208C600.625 221.504 600.329 220.424 600.329 218.968V211.864H597.737V210.952L602.177 205.696H602.969V211H607.289V211.864H602.969V219.352C602.969 220.68 603.593 221.344 604.841 221.344C605.177 221.344 605.497 221.272 605.801 221.128C606.121 220.984 606.513 220.712 606.977 220.312L607.697 221.128L605.273 223.048ZM617.138 223.072C616.546 223.184 615.85 223.24 615.05 223.24C614.026 223.24 613.098 222.968 612.266 222.424C611.45 221.88 610.81 221.136 610.346 220.192C609.882 219.248 609.65 218.208 609.65 217.072C609.65 215.84 610.018 214.68 610.754 213.592C611.49 212.504 612.41 211.64 613.514 211C614.634 210.36 615.714 210.04 616.754 210.04C618.226 210.04 619.37 210.632 620.186 211.816C621.018 213 621.442 214.552 621.458 216.472H612.554C612.634 217.896 613.002 219.072 613.658 220C614.33 220.912 615.258 221.368 616.442 221.368C617.482 221.368 618.93 220.512 620.786 218.8L621.506 219.64L617.138 223.072ZM615.362 211.912C613.57 211.912 612.634 213.144 612.554 215.608H618.362C618.202 214.696 618.042 214.008 617.882 213.544C617.738 213.064 617.466 212.672 617.066 212.368C616.682 212.064 616.106 211.912 615.338 211.912H615.362ZM639.306 223.024H634.938V214.84C634.938 213.928 634.794 213.296 634.506 212.944C634.218 212.592 633.714 212.416 632.994 212.416C632.434 212.416 631.882 212.52 631.338 212.728C630.81 212.92 630.17 213.32 629.418 213.928V221.32L631.578 222.184L631.146 223.024H624.642V222.4L626.778 220.744V213.688L624.642 212.464V211.84L628.554 209.824L629.322 213.016L632.826 210.232C633.162 210.104 633.586 210.04 634.098 210.04C635.17 210.04 636.018 210.376 636.642 211.048C637.266 211.704 637.578 212.6 637.578 213.736V221.296L639.738 222.184L639.306 223.024ZM648.351 223.048C648.015 223.176 647.607 223.24 647.127 223.24C645.831 223.24 644.887 222.896 644.295 222.208C643.703 221.504 643.407 220.424 643.407 218.968V211.864H640.815V210.952L645.255 205.696H646.047V211H650.367V211.864H646.047V219.352C646.047 220.68 646.671 221.344 647.919 221.344C648.255 221.344 648.575 221.272 648.879 221.128C649.199 220.984 649.591 220.712 650.055 220.312L650.775 221.128L648.351 223.048ZM659.06 223H652.556V222.376L654.692 220.72V213.424L652.556 211.912V211.288L656.54 209.824H657.332V221.296L659.492 222.16L659.06 223ZM655.892 202.648C656.34 202.648 656.7 202.816 656.972 203.152C657.26 203.488 657.404 203.904 657.404 204.4C657.404 204.752 657.3 205.088 657.092 205.408C656.9 205.712 656.644 205.96 656.324 206.152C656.02 206.328 655.724 206.416 655.436 206.416C655.004 206.416 654.644 206.248 654.356 205.912C654.068 205.56 653.924 205.136 653.924 204.64C653.924 204.288 654.02 203.96 654.212 203.656C654.42 203.352 654.676 203.112 654.98 202.936C655.3 202.744 655.604 202.648 655.892 202.648ZM674.006 223H669.638V220.912L666.926 223.048C666.606 223.176 666.206 223.24 665.726 223.24C664.382 223.24 663.406 222.904 662.798 222.232C662.206 221.56 661.91 220.752 661.91 219.808C661.91 219.232 662.118 218.672 662.534 218.128C662.95 217.568 663.55 217.04 664.334 216.544H669.638V214.792C669.638 213.72 669.35 212.968 668.774 212.536C668.214 212.104 667.438 211.888 666.446 211.888C665.47 211.888 664.302 212.52 662.942 213.784L662.222 212.968L665.702 210.208C666.326 210.096 667.062 210.04 667.91 210.04C669.286 210.04 670.358 210.392 671.126 211.096C671.894 211.784 672.278 212.784 672.278 214.096V221.32L674.438 222.16L674.006 223ZM666.398 221.44C667.406 221.44 668.486 220.968 669.638 220.024V217.408H665.318C665.078 217.68 664.91 217.952 664.814 218.224C664.734 218.496 664.694 218.8 664.694 219.136C664.694 219.76 664.846 220.304 665.15 220.768C665.47 221.216 665.886 221.44 666.398 221.44ZM682.51 223.024H676.006V222.4L678.142 220.744V205.648L676.006 204.136V203.512L679.99 202.048H680.782V221.296L682.942 222.184L682.51 223.024Z" fill="white"/>
</svg>
