<svg width="84" height="87" viewBox="0 0 84 87" fill="none" xmlns="http://www.w3.org/2000/svg">
<path d="M27.9561 43.2074C27.9561 35.2535 34.2118 28.8038 41.9307 28.8038C49.6496 28.8038 55.9088 35.2535 55.9088 43.2074C55.9088 51.1614 49.6496 57.6111 41.9307 57.6111C34.2118 57.6111 27.9561 51.1614 27.9561 43.2074ZM20.3997 43.2074C20.3997 55.4612 30.0391 65.394 41.9307 65.394C53.8224 65.394 63.4617 55.4612 63.4617 43.2074C63.4617 30.9537 53.8224 21.0209 41.9307 21.0209C30.0391 21.0209 20.3997 30.9537 20.3997 43.2074ZM59.2822 20.1414C59.2822 23.0032 61.5345 25.3277 64.3152 25.3277C67.0925 25.3277 69.3483 23.0032 69.3483 20.1414C69.3483 17.2795 67.0959 14.9586 64.3152 14.9586C61.5345 14.9586 59.2822 17.2795 59.2822 20.1414ZM24.9891 78.3772C20.901 78.1852 18.6792 77.4837 17.2024 76.8904C15.2448 76.1051 13.8493 75.1698 12.3794 73.6586C10.9128 72.1473 10.0017 70.7094 9.24305 68.6921C8.66726 67.1705 7.98648 64.881 7.8002 60.6684C7.59698 56.1138 7.55634 54.7457 7.55634 43.2074C7.55634 31.6692 7.60037 30.3045 7.8002 25.7465C7.98648 21.5339 8.67065 19.2479 9.24305 17.7227C10.0051 15.7054 10.9128 14.2675 12.3794 12.7528C13.8459 11.2416 15.2414 10.3028 17.2024 9.52099C18.6792 8.92767 20.901 8.22616 24.9891 8.03421C29.4091 7.8248 30.7368 7.78292 41.9307 7.78292C53.1281 7.78292 54.4524 7.82829 58.8757 8.03421C62.9638 8.22616 65.1823 8.93116 66.6624 9.52099C68.6201 10.3028 70.0155 11.2416 71.4854 12.7528C72.952 14.264 73.8597 15.7054 74.6218 17.7227C75.1976 19.2444 75.8783 21.5339 76.0646 25.7465C76.2678 30.3045 76.3085 31.6692 76.3085 43.2074C76.3085 54.7422 76.2678 56.1103 76.0646 60.6684C75.8783 64.881 75.1942 67.1705 74.6218 68.6921C73.8597 70.7094 72.952 72.1473 71.4854 73.6586C70.0189 75.1698 68.6201 76.1051 66.6624 76.8904C65.1857 77.4837 62.9638 78.1852 58.8757 78.3772C54.4557 78.5866 53.1281 78.6285 41.9307 78.6285C30.7368 78.6285 29.4091 78.5866 24.9891 78.3772ZM24.6436 0.261757C20.1796 0.471163 17.1313 1.20059 14.4658 2.26856C11.7088 3.37144 9.37175 4.85124 7.03813 7.25243C4.70789 9.65362 3.27182 12.0618 2.20153 14.9062C1.16512 17.6529 0.457241 20.794 0.254023 25.394C0.0474176 30.0009 0 31.4737 0 43.2074C0 54.9412 0.0474176 56.414 0.254023 61.0209C0.457241 65.6209 1.16512 68.7619 2.20153 71.5087C3.27182 74.3496 4.7045 76.7613 7.03813 79.1624C9.36837 81.5636 11.7054 83.0399 14.4658 84.1463C17.1347 85.2143 20.1796 85.9437 24.6436 86.1531C29.1178 86.3625 30.5437 86.4149 41.9307 86.4149C53.3211 86.4149 54.747 86.366 59.2178 86.1531C63.6819 85.9437 66.7301 85.2143 69.3957 84.1463C72.1527 83.0399 74.4897 81.5636 76.8233 79.1624C79.1535 76.7613 80.5862 74.3496 81.6599 71.5087C82.6963 68.7619 83.4076 65.6209 83.6074 61.0209C83.8106 56.4105 83.858 54.9412 83.858 43.2074C83.858 31.4737 83.8106 30.0009 83.6074 25.394C83.4042 20.794 82.6963 17.6529 81.6599 14.9062C80.5862 12.0653 79.1535 9.65711 76.8233 7.25243C74.4931 4.85124 72.1527 3.37144 69.3991 2.26856C66.7301 1.20059 63.6819 0.467673 59.2212 0.261757C54.7504 0.0523515 53.3211 0 41.9341 0C30.5437 0 29.1178 0.0488614 24.6436 0.261757Z" fill="white"/>
</svg>
