<svg width="85" height="64" viewBox="0 0 85 64" fill="none" xmlns="http://www.w3.org/2000/svg">
<path d="M70.3154 1.63698C62.6985 0.888207 51.6579 0 42.3034 0C32.9488 0 21.9082 0.888207 14.2965 1.63698C6.14515 2.42707 0 9.21257 0 17.4182V46.037C0 54.2426 6.14515 61.028 14.2914 61.8182C21.9082 62.5669 32.9488 63.4551 42.3034 63.4551C51.6579 63.4551 62.6985 62.5669 70.3103 61.8182C78.4616 61.0281 84.6068 54.2426 84.6068 46.037V17.4182C84.6068 9.21257 78.4616 2.4271 70.3154 1.63698ZM31.7275 47.5913V15.8638L58.1672 31.7198L31.7275 47.5913Z" fill="white"/>
</svg>
