<svg width="70" height="53" viewBox="0 0 70 53" fill="none" xmlns="http://www.w3.org/2000/svg">
<path d="M58.009 2.20684C51.8097 1.59742 42.8238 0.874512 35.2102 0.874512C27.5966 0.874512 18.6107 1.59742 12.4156 2.20684C5.78128 2.84989 0.779785 8.37255 0.779785 15.051V38.3437C0.779785 45.0221 5.78128 50.5448 12.4114 51.1879C18.6107 51.7973 27.5966 52.5202 35.2102 52.5202C42.8238 52.5202 51.8097 51.7973 58.0048 51.1879C64.6391 50.5448 69.6406 45.0221 69.6406 38.3437V15.051C69.6406 8.37255 64.6391 2.84991 58.009 2.20684ZM26.6026 39.6087V13.7859L48.1216 26.691L26.6026 39.6087Z" fill="white"/>
</svg>
