<svg width="70" height="53" viewBox="0 0 70 53" fill="none" xmlns="http://www.w3.org/2000/svg">
<path d="M58.0092 2.20684C51.8099 1.59742 42.824 0.874512 35.2104 0.874512C27.5969 0.874512 18.611 1.59742 12.4158 2.20684C5.78152 2.84989 0.780029 8.37255 0.780029 15.051V38.3437C0.780029 45.0221 5.78152 50.5448 12.4117 51.1879C18.611 51.7973 27.5969 52.5202 35.2104 52.5202C42.824 52.5202 51.8099 51.7973 58.0051 51.1879C64.6394 50.5448 69.6409 45.0221 69.6409 38.3437V15.051C69.6409 8.37255 64.6394 2.84991 58.0092 2.20684ZM26.6028 39.6087V13.7859L48.1219 26.691L26.6028 39.6087Z" fill="white"/>
</svg>
